<?xml version="1.0" encoding="UTF-8"?>
<svg id="_Слой_1" data-name="Слой 1" xmlns="http://www.w3.org/2000/svg" xmlns:xlink="http://www.w3.org/1999/xlink" viewBox="0 0 628.47 864">
  <defs>
    <style>
      .cls-1 {
        fill: url(#linear-gradient);
      }

      .cls-1, .cls-2, .cls-3, .cls-4, .cls-5, .cls-6, .cls-7, .cls-8 {
        stroke-width: 0px;
      }

      .cls-2 {
        fill: #000;
      }

      .cls-3 {
        fill: #a1124d;
      }

      .cls-4 {
        fill: none;
      }

      .cls-5 {
        fill: url(#linear-gradient-2);
      }

      .cls-6 {
        fill: url(#linear-gradient-3);
      }

      .cls-7 {
        fill: #fff;
      }

      .cls-8 {
        fill: url(#linear-gradient-4);
      }
    </style>
    <linearGradient id="linear-gradient" x1="167.66" y1="364.33" x2="488.26" y2="364.33" gradientUnits="userSpaceOnUse">
      <stop offset="0" stop-color="#c9d7f3"/>
      <stop offset="1" stop-color="#9190c7"/>
    </linearGradient>
    <linearGradient id="linear-gradient-2" x1="74.1" y1="282.37" x2="615.35" y2="282.37" gradientUnits="userSpaceOnUse">
      <stop offset="0" stop-color="#d2a8e0"/>
      <stop offset="1" stop-color="#803e98"/>
    </linearGradient>
    <linearGradient id="linear-gradient-3" x1="45.62" y1="551.57" x2="231.03" y2="551.57" gradientUnits="userSpaceOnUse">
      <stop offset="0" stop-color="#2e2e2e"/>
      <stop offset="1" stop-color="#232322"/>
    </linearGradient>
    <linearGradient id="linear-gradient-4" x1="12.98" y1="736.96" x2="238.88" y2="736.96" gradientUnits="userSpaceOnUse">
      <stop offset="0" stop-color="#372c62"/>
      <stop offset="1" stop-color="#291d4e"/>
    </linearGradient>
  </defs>
  <path class="cls-4" d="M287.21,374.17c9.38-5.56,47.86-31.44,49.69-33.43l1.82-2-1.9-1.49c-7.05-6-37.41-30.69-43.22-35.25-4-3.07-7.47-5.56-7.8-5.56-1,0-1.41,5.06-1.82,27-.17,11.45-.92,28.12-1.58,37-.66,8.71-.91,16.17-.75,16.34.33.29,2.73-.87,5.56-2.61Z"/>
  <path class="cls-2" d="M621.33,401c-5.55-3.24-7.79-3.73-18.08-3.73s-18.66,1.32-25.8,4.06c-9,3.48-11.11,3.4-11.86-.33-.33-1.08-.91-6.22-1.49-11.61l-1-9.63,10.29-20.65c16-32.19,19.32-41.89,19.41-56.91,0-7.13-.25-8.79-1.66-12-2-4.48-3.9-6.3-7.63-7.3-7.63-2.07-11.62-.74-20.08,6.81l-7,6.05-2.07-4.06c-4.81-9.62-8.29-12.53-15.35-12.53-7.63,0-13,4.07-17.91,13.27-1.9,3.3-4.19,6.36-6.8,9.13-5.07,5.31-6.56,8-9.13,16.17-2.9,9.21-3.4,15.43-3.82,46.46l-.49,29.11-2.91,9.13-3,9.21h-5.73c-3.15,0-20-.75-37.49-1.75s-46.29-2.48-64.12-3.23c-35.92-1.58-52.76-2.74-54.25-3.65-1.17-.58,0-1.41,22.23-15.43,24-15.18,46.28-31.27,49.19-35.42,3.4-5.06,4.31-8.05,3.9-13.94-.5-8.71-2-10.78-21.07-29.94-9.05-9-23.56-22.9-32-30.69-21.49-19.42-24.47-22.9-20.24-22.9.74,0,7.88,6.22,16,13.77,16.84,15.76,24,21.49,29.94,23.73,5,1.82,10.79,1.74,13.69-.5,5.47-4,6.8-13.61,3.32-24-1.16-3.23-1.74-6-1.5-6.22s4.48.58,9.29,1.83c5.75,1.71,11.71,2.61,17.71,2.69l8.8.33,2.15-2.08c3.57-3.65,4.73-11.53,2.58-18.74-2.41-8-14.52-17.84-33.27-27-5.72-2.66-10.28-5.23-10.28-5.56s2.48-1,5.64-1.49c38-6,51.43-11.95,52.5-23,.67-6.64-.33-10-3.89-13.52-7.06-7.05-15.1-8.71-36.17-7.47-7.38.42-16.92,1.33-21.32,1.91s-8.88,1-10.12,1q-2.07,0-.66-1.41c.74-.66,8.37-6.05,16.92-11.94,18.5-12.69,22.56-15.85,26.13-19.74,3.73-4.07,6.22-9.71,6.22-13.77s-2.9-10.21-6.22-12.61c-5.39-4.15-16.34-5.23-24.64-2.49-14.27,4.81-43.88,22.89-65.61,40.06-10.7,8.47-14.94,11.45-15.52,10.95-.16-.24-1.49-4.31-2.82-9.2-1.22-4.24-2.72-8.4-4.48-12.45-3.4-6.22-9.12-9.87-14.84-9.87-1.74,0-3.46.34-5.06,1-5.06,2.07-9.88,10-11.2,18.41-.42,2.58-1.25,13.77-1.91,24.89-1.16,21.32-2.74,36.25-4,38.65-.75,1.25-1,1.33-1.91.34-1.24-1.25-6-14.52-6-16.84.61-3.11,1.46-6.16,2.57-9.13,4.73-14.18,4.89-25.63.66-41.72s-8.29-23.64-18.58-34.1l-6.55-6.71,5.89-6.06c3.32-3.32,6-6.55,6-7.3,0-1.33,1.16-1.41-15.1.41-9,1.08-37.66.67-40.48-.58s-2.65-3.31.83-10.2c6.19-12.61,14.46-24.08,24.47-33.93,23.81-24,49.36-34.51,83.29-34.51,28.28,0,48.3,8.67,60.05,26,6.14,9.12,7.72,14.68,8.38,30.19.5,12-.16,15-4.89,25.06-4,8.12-11.12,15.76-18.25,19.24-7.3,3.65-14,4.89-26,5l-10.12.08-5.55-2.82c-7.48-3.66-13.49-9.75-17.04-17.28-3.4-6.89-4.07-11.29-3-18.17,1.83-10.29,7.22-17.5,16.34-22,4.23-2.08,5.64-2.41,10-2.41,8.29,0,16,4.23,18.58,10.2,1.14,2.34,1.5,4.99,1,7.55-.49,5.06-1,6.06-5.47,11-2.82,3.15-3.57,4.39-3.57,6.47,0,3.31,2.49,4.48,6.8,3.23,10.37-3.15,15.77-21.73,9.71-33.51-5.31-10.2-20.49-17.09-32.68-14.85-5.81,1.08-9.29,2.9-15.1,7.88-11.4,9.71-15.72,18.26-15.82,30.87-.08,14.26,7,27,19.91,36.49,3.13,2.25,6.43,4.25,9.87,6q3.9,1.91,15.84,1.57c21.49-.66,33.85-5.39,45.21-17.33,8.21-8.71,11.62-17.34,13.19-33.1,2.57-26.71-7.13-50.27-26.05-62.8-13.66-9.09-38.22-14.45-58.62-12.79-17.92,1.33-36.42,6.22-50.52,13.35-14.1,7.13-29.12,19.66-40.9,34-7.13,8.72-11.69,15.53-18.08,27.35-2.74,4.89-5.39,9.12-6,9.37-1.5.58-10.37-4.39-17.34-9.62-8.27-6.1-12.08-8.75-12.91-8.75-1.49,0-.75,4.14,1.82,9.37,2.89,6.09,6.7,11.69,11.29,16.63,2.07,2.49,3.4,4.57,3.15,5.23s-1.91,1.91-3.82,3l-3.32,2-5.3-1.5c-5.65-1.65-16.68-2.15-25.64-1-2.82.41-4.14.33-4.14-.17.48-2.22,1.09-4.41,1.82-6.56,3.73-11.2,3.15-27.87-1.41-44.55-2-7.3-3.32-10.12-4.89-10.37-.92-.24-1.5,1.33-3.07,8.22-5.81,25.7-8.3,32.7-16.51,45.25-5.39,8.29-9,12-16.26,16.92-2.52,1.64-4.93,3.44-7.22,5.39-1.74,2.16.75,3.32,6.89,3.32,6.47,0,11.86.66,11.86,1.57-1.18,2.52-2.51,4.96-4,7.3-4.56,7.55-8.11,15.66-10.54,24.14-1.07,4.07-1.32,7.88-1.32,16.18,0,19.66,1.57,24.89,14,46.2l1.24,2.24-8.01,9.19c-15.26,17.5-22,28.2-26.79,42.14-2.65,8-3.48,17.42-2.07,22.65,1.17,3.71,3.89,6.73,7.46,8.29,3.15,1.16,9.87.91,14.44-.66,9.7-3.32,16.67-8.46,35.08-26,5.73-5.47,11.62-10.86,12.78-11.94l2.32-1.91-.25,22.4c-.16,21.73-.08,22.4,1.33,24.39.97,1.18,2.11,2.19,3.4,3,2.32,1.08,5.64-.08,10.12-3.81,1.19-1.07,2.54-1.93,4-2.57.5,0,2.57,1.49,4.65,3.23s4.48,3.4,5.64,3.65c2.74.58,7.38-1.58,19.33-9.21,5.31-3.48,10.28-6.3,10.95-6.3,1.57,0,4.39,8.38,4.39,13.6l.09,4.07-4.09,1.98c-3.65,1.74-4.15,2.24-5.31,5.55-1.32,4.15-1.91,4.73-5.47,5.4-3.07.58-6.72,4.14-7.47,7.46-.58,2.9.42,5.39,16.51,38.24,7.71,15.68,14.18,29.53,14.43,30.86.58,2.74.5,2.74-8.54,3.73-8.3.92-12.44,2.33-16.18,5.56-3.9,3.32-6.22,8.05-8,16.34l-1.58,6.64-9.58,9.22c-46.12,45.37-86.6,94.81-107.92,132.06-21.24,36.94-28.29,58.59-31.89,96.94l-1.16,13,3.06,9.37c4.73,14.6,7.3,19.08,17.09,29.2l5.39,5.65-7.71,8.12c-9.67,10.21-13.67,15.85-19.45,27.54-12.61,26-19.17,50.85-20.24,77.81-.58,14.11-.17,15.18,6.71,16.51,3.16.67,14.11-.66,36.84-4.31l19.66-3.24,5.55,2.82c16.59,8.38,41.89,12.61,75.32,12.53,23.4,0,34.1-2,53.26-9.62l10.7-4.32,1.66,1.58c1.33,1.16,2.82,1.58,7.63,1.82,16.76,1,33.68-3.23,46-11.53,4.14-2.82,15.43-13.77,17.42-16.92.45-.63.79-1.33,1-2.07h.09c.16-.09.24-.42.16-.83.08-.09.08-.25-.08-.42-.42-3.15-4.9-11.11-11.86-15.26-8.47-4.89-14.52-7.13-25.47-9-3.07-.42-6.12-1-9.13-1.74-1.32-.42-.74-2.66,6.06-24.14,7.88-24.89,8.88-28.87,8.88-37.91,0-8.29-.5-9.95-4.23-14.85-4.48-5.89-14.36-13.19-39.57-29s-37.25-25.72-40.65-33.1c-1.58-3.32-1.66-4.4-1.66-19.74.08-30.94,2.57-39.07,20.57-68,16.43-26.63,45.3-67.36,56.83-80.3l2.82-3.24,5.06,2.74c6.05,3.24,14.6,4.73,18.41,3.07,4.81-2,10-9.62,16.92-25.22l2.24-4.89,12.36.41c6.81.25,19.58,1.17,28.29,1.91s34.92,3.15,58.32,5.06,53.5,4.65,66.94,5.81,28.95,2.32,34.34,2.65l10,.42,4.06-2.49c4.06-2.49,4.48-2.57,13.52-3.07,4.7-.15,9.38-.65,14-1.49,6.22-1.5,14.35-5.89,21.32-11.62,13.44-10.95,11.78-10.12,25.38-12.85,6.72-1.41,15.27-3.57,18.92-4.82,13.6-4.47,26.46-12.44,31.19-19.16,1.74-2.49,2.24-4,2.48-7.55.27-6.32-1.72-10.13-7.12-13.32ZM345.52,286.4l3.73,4.23-2,3.07c-3,4.31-16,17.67-17.67,18.17-1,.41-2.65-.25-5.14-2-5.64-3.65-19.83-15.43-21.07-17.42-1.16-1.75-1.08-1.91,3.9-7.22,3.53-4.01,6.83-8.22,9.87-12.61,1.6-2.48,3.34-4.86,5.22-7.13,1.17.65,2.28,1.4,3.32,2.24,7.04,5.75,13.67,11.99,19.84,18.67ZM284.05,228.75c.04-6.76.68-13.51,1.91-20.16,2.57-14.27,2.57-14.35,3.81-36.33.58-10.78,1.41-21.32,1.74-23.73.83-4.81,2.49-7.88,4.24-7.46,1.49.25,4.23,4.31,5.14,7.71,2.9,10.21,2.74,29.62-.25,44.72-2.57,12.11-2.49,13.68.58,17,4.56,5.23,4.81,7.13,2.07,18.08-1,4.15-1,4.73-.08,5.73s1.33.83,2.57-.91c2.33-2.91,4.73-9.71,4.73-13.69.08-2.91-.5-4.9-3-10-3.48-7.05-3.48-7-.74-18.33l1.57-6,10.46-8.8c12.94-10.78,30.44-24.88,36.83-29.45,8.71-6.55,38.4-23.31,45.95-26.13,3.4-1.32,12-.83,13.61.67,1.74,1.82.58,4.31-4.48,9.12-9,8.3-29.28,21.65-50.19,32.85-13,7.05-14.76,8.3-15.34,11.37-.5,2.65,1.24,10.7,3,13.19,1.41,2.24,3.82,2.15,15.76-.5,13.13-2.97,26.43-5.13,39.82-6.47,11.36-1.08,30.53-.67,33.35.74,6.47,3.07-.25,8.63-14.52,12.12-11.28,2.73-24.8,4.23-53.67,5.89-17.67,1-18.58,1.24-20.24,5.39-1.83,5.06-1.33,5.47,17.25,11.94,39.16,13.86,61.47,27.13,58.57,34.92-.42,1-1.16,1.17-4.65.75-9.87-.91-26.29-7.13-51.51-19.41l-17.84-8.63-1.9,1.41c-3.16,2.41-2.91,4.07,1.41,8.38,2.07,2.08,6.8,6.22,10.28,9.13,9.38,7.79,16.43,14.68,21.32,20.74,5.06,6.3,7.14,10.12,7.14,13.1,0,1.91-.25,2.16-2,2.16-3.23,0-8.13-3.73-22-16.92-19.49-18.5-26.38-24.81-27-24.81-2.52.85-4.96,1.91-7.3,3.16-6.3,3.06-9.54,4-23,6.47-2.19.34-4.35.83-6.47,1.49-.74.83,2,2.4,5.06,2.9,3.57.67,9.37,4.65,10.29,7.05.74,2.24-.75,5.64-4.73,10.12l-2.57,2.91-2.41-2c-6.38-5.31-15.92-17.92-20.07-26.38l-2.57-5.39.07-9.71ZM282.39,360.4c.66-8.88,1.41-25.55,1.58-37,.41-21.9.83-27,1.82-27,.33,0,3.82,2.49,7.8,5.56,5.81,4.56,36.17,29.28,43.22,35.25l1.9,1.49-1.82,2c-1.83,2-40.31,27.87-49.69,33.43-2.82,1.74-5.22,2.9-5.56,2.57-.16-.13.09-7.59.75-16.3ZM293.34,385.53c6.8-4.07,20.49-13,30.61-19.74s21.48-14.27,25.38-16.76l7.14-4.4,5.06,2.58c5.47,2.65,7.79,3.15,7.79,1.49,0-1.49-3.73-4.81-19.9-18.08-7.88-6.47-14.85-12.28-15.35-12.78-.66-1-.25-1.82,2.9-5.39,11.45-12.61,16.1-17.5,16.92-17.5.5,0,2.58,1.41,4.73,3.06,5.89,4.57,32.94,31.53,35.26,35.09,2.32,3.74,2.74,7.72.83,10.54-2.08,3.23-23.06,18.17-45.79,32.6-10.12,6.47-39.82,23.89-49.52,29.2l-6.31,3.32-12.44-.17-12.53-.25-.16-2c-.5-4.05,3.15-7.12,25.38-20.81ZM175.71,110.46c2.74-1.83,9.29-4.06,11.87-4.15,1.94.14,3.86.5,5.72,1.08,6.55,2.07,18.83,2.9,27.29,2l7.8-.91,4.48,3.23c11.69,8.42,19.92,20.8,23.14,34.84,1.41,6.81,2.66,21.32,2.08,24.47-.5,2.58-.59,2.41-3.16-4.89-3.73-10.45-6.05-15.18-10.53-22-13.36-19.83-30.94-28.95-60.14-31-3.74-.33-7.63-.74-8.63-1l-1.82-.42,1.9-1.25ZM173.81,118.59c5.72-.5,9.12-.42,18.41.33,16.18,1.49,32.35,9.13,42.14,20.08,9.4,10.33,15.55,23.2,17.67,37,.41,3.32.5,5.64.08,6.47-.58,1-1.08.58-3.32-2.57-5.85-8.13-17.19-9.98-25.32-4.13-.95.68-1.83,1.46-2.63,2.31-3.32,3.48-4.81,7.05-5.39,12.69s.58,9.62,3.73,13.6c1.02,1.08,1.86,2.31,2.49,3.65,0,.83-22.65.75-27.71-.16-5.31-.83-14.35-5.15-20.32-9.63-8.13-6.14-15.18-16.92-18.08-27.79-1.25-4.39-1.5-7.46-1.5-16.92,0-12.77,1-18.91,3.9-25.46,3.32-7.23,5.56-8.64,15.85-9.47ZM136.39,113c2.08-1.49,17.42-1,20,.75,2.15,1.32,2,3.15-.59,5.56l-1.65,1.49-5.23-2.16c-3-1.16-7.3-2.65-9.62-3.32-4.09-1.13-4.23-1.32-2.91-2.32ZM96.74,179.86c-1.16-5.56-1.32-17-.33-24.22,1.49-10.54,13.44-30.36,20.49-34.1,4.56-2.32,12.61-2.48,23-.41,2.85.55,5.63,1.41,8.29,2.57,4.15,2.08,4.23,3,2.57,14.19-1,6.47-1.16,11.11-.91,21.07l.42,12.69-4.4.5c-11.86,1.16-18.58,12.36-14.18,23.47l1.65,3.9-1.65,1.08c-6.47,4.48-14.77,9.37-16,9.37-1.83,0-7.88-6.14-11.37-11.53-3.55-5.71-6.11-11.99-7.58-18.55v-.03h0ZM116.4,255.6c-10.86,11.53-24.22,23.22-30.11,26.29-2.43,1.53-5.26,2.31-8.13,2.24h-4.06v-3.48c0-5,2.9-13.61,7.38-21.9,12.73-23.75,33.43-43.44,62.88-59.86,4.64-2.66,9-5.23,9.87-5.81,2.49-1.74,4-1.24,7.46,2.07,3,2.74,3.24,3.24,2.49,4.73-2.07,3.9-34.42,41.56-47.78,55.75v-.03h0ZM188.9,277c-7.05,5.22-15.18,10.78-17.91,12.44l-4.9,2.9-1.33-1.82c-.94-1.31-1.67-2.77-2.15-4.31-.83-2.49-.75-3,1.16-5.81,2.9-4.56,25.46-26.79,33.93-33.51,16.34-13,24-15.35,32.93-10.37,1.86.96,3.47,2.33,4.73,4,1,1.91,1,2.07-1.25,4-1.33,1.08-9.12,6.8-17.34,12.61s-20.73,14.87-27.87,19.87ZM246.21,341.56c6.81,3.9,8.71,7.3,5.89,10.71-2.15,2.65-4.23,3.4-7.21,2.4-3.49-1.08-35.42-17.17-39.9-20-2.41-1.58-3.57-2.82-4.07-4.56-1.49-5.81.66-6.22,13.11-1.91,9.71,3.24,27.18,10.54,32.18,13.36ZM192.21,336.34c.06-.64.61-1.11,1.25-1.08.66,0,12,5.48,25.13,12,23,11.61,24.14,12.11,28.2,12.11,3.57,0,4.65-.25,6.23-1.74,2.65-2.49,5.72-9.29,8-17.67,1.91-6.8,2.07-8.05,2.07-22.73,0-17.25-.66-22.73-5-37.74-5.4-18.92-12.2-32.6-20.83-41.89-6.05-6.47-7.71-7.47-13.43-7.47-12.36,0-25.39,9-57.82,40.15-8.71,8.29-16.68,15.59-17.84,16.34l-2.07,1.16v-2.57c0-3.07,2.49-33.93,4-48.86,1.25-12.61,1.41-13,11.95-26.13l6.38-8.05,6.89,3.24c3.81,1.74,9.79,4.15,13.27,5.31,16.26,5.47,39.15,3.9,56.24-4,2.54-1.29,5.17-2.37,7.88-3.24,1.16,0,4,6.72,6.81,16.59,4.14,14.19,6,23.48,8.87,42.81l2.57,18v38.15c0,38,0,38.25-1.91,51-2.48,15.84-6,33.18-7.46,35.92l-1.08,2h-15.7c-9.37,0-16.59-.25-17.92-.75-2.73-1-3.56-2.15-7-10.78-1.58-3.73-6.47-14.43-11-23.72-10.78-22.26-16.68-35.12-16.68-36.36ZM39.67,645.67c.42-6.39,1.91-10.87,3.82-10.87,2.29.6,4.51,1.43,6.63,2.49,17.17,7.55,40.15,12,62.47,12,8,0,12.69-.42,22.89-2.24,7-1.25,13.27-2.08,13.77-1.91,1.16.5,2.57,8,2.57,13.68,0,3.9,0,4.07-2.24,4.73-13.19,4.32-51.34,5.73-69,2.66-16.84-3-32.44-8-38.91-12.69l-2.24-1.58.24-6.27ZM67.96,831.67c-35.84,7.38-38.16,7.71-46.79,7.46l-7.88-.16-.25-3.65c-.49-7.3,2.41-26,4.4-28.7.66-.92,5.14-1.75,19.58-3.74,19.82-2.65,48.28-7.05,88.18-13.52,13.27-2.15,25.13-4.06,26.29-4.23,4-.58,9.71-.5,9.71,0,0,.91-3.82,11.95-6.81,19.83-2.07,5.39-3.15,7.3-4.64,8-3.4,1.77-40.15,10.14-81.79,18.69v.02h0ZM170.74,783.14c2.4-1.41,7.3-2.57,31.19-7.22,17.83-3.4,25.55-4.31,25.55-2.82,0,1.16-5.73,18.42-7.22,22-.68,1.61-1.71,3.05-3,4.23-2.15,1.32-41.72,9.37-56.16,11.44-3.31.5-3.4.09-1-7.21,2.92-8.56,8.31-19.03,10.64-20.44v.02ZM273.35,816.24c2.32,0,4.81,2.57,6.55,4.48-2.68-.14-5.37-.11-8.05.08-5.14.33-12.6,1-16.34,1.58-12.77,2.15-26.79,7.88-33,13.6-1.56,1.53-3.29,2.9-5.14,4.07-1.5.74-1.83.74-2.49-.34-2.66-4.48-6.31-5.55-24-7.05-19.16-1.49-32,.83-66.28,12-17.08,5.64-25.88,8-26.62,7.3-.92-.83,2.07-2.57,9.7-5.64,18.09-7.3,37.91-13.28,52.84-16,8.63-1.58,30.28-1.83,38-.42,1.87.46,3.8.66,5.72.58,1.08-1.08-2.24-2.73-13-6.88-6.23-2.41-12.12-4.73-13.19-5.23-2.66-1.33-3-2.74-.67-2.74,3.9,0,27.29,8.3,37.08,13.19l5.23,2.74,5.47-3.23c14.76-8.79,28.05-12.11,48.19-12.11v.02ZM205.35,703.75c18.74,12.12,27.87,18.75,31.52,23.07,2.24,2.65,2.24,2.9,1.82,7.71-.58,8.54-5.72,26-8.62,29.45-1.33,1.66-3.24,2.16-22.07,5.81-24,4.47-32.1,5.88-32.76,5.22s-.17-1.58,5.47-9.12c2.96-4.13,5.63-8.45,8-12.94,3.07-6.06,3.07-6.23,3.07-13.69-.09-5.89-.34-8.13-1.33-10.12-4.81-9.21-45.29-42.47-51.68-42.47-4.73,0-2.24,2.65,13.77,14.51,18.91,14.19,31.44,25.72,34.34,32.19,3.07,6.55,1.66,11.11-8.38,26.38-7.63,11.45-11.36,16-13.93,16.92-1.33.41-9.29,1.91-17.75,3.24s-20.66,3.48-27,4.72c-22.81,4.32-85.19,13.61-96.72,14.6l-3.81.25.41-2.9c1-6,12.11-30.61,17.67-39.24,3.81-5.89,9.62-11.94,16.92-17.92,8.13-6.63,10.37-7.63,15.51-7,3.49.42,4.15.34,4.65-.66.5-1.66-3-5-12.44-11.86-12.95-9.38-20.24-18.17-23.56-28.87-1.83-6-2.49-32.35-.75-32.35.17,0,3,1.24,6.3,2.82,16.84,8.13,33.27,10.87,67.53,10.87,17.92,0,20.9-.25,31.19-1.91,6.39-1,12.19-1.66,12.94-1.41.91.16,4.15,2.49,7.22,5.06,8.02,6.73,22.33,16.68,42.45,29.62l.02.02ZM216.21,501.58c-20.15,27.79-45.29,65.7-53.25,80.38-5.64,10.29-8.38,21.49-10.37,41.31-1.33,14.43-1.08,13.52-4.89,15.43-9.21,4.65-29.37,7-47.29,5.56-18.08-1.5-33.34-5.31-47.78-12l-7-3.23.17-4.15c.33-8.79,8.46-27.87,20.74-48.11,16.59-27.71,28.62-43.72,59-79.14,11.86-13.85,36-39.24,37.24-39.24,1.37.59,2.63,1.41,3.74,2.41,7.88,6.39,14.26,6.72,27,1.49,6.39-2.73,8-2.73,8-.33.23,2.26.62,4.51,1.16,6.72,1,4.48,1.58,5.56,4.65,8.46,1.85,2.15,4.35,3.64,7.13,4.23,3.4.83,4.23.75,9.87-1.08,3.32-1,6.39-1.65,6.56-1.49.9.96-2.17,5.69-14.68,22.78ZM206.59,457.78c-.05-3.24.09-6.48.42-9.7.58-1.58,5.22-1.58,19.82-.09,12.61,1.25,13.61,1.5,13.61,2.91,0,2.32-4.73,10.53-10.7,18.49-7.06,9.54-16.93,9.3-22-.66-.84-1.73-1.17-4.4-1.17-10.95h.02ZM236.87,471.55c0-1.74,4.23-10.37,7.88-16.34l3.07-4.81,5.14.25c4.65.25,5.15.33,5.31,1.82.33,1.74-3.9,10.45-6.72,13.77-4.25,5.06-14.7,8.76-14.7,5.31h.02ZM275.44,455.79c-.66,4.07-7.8,18.5-10.53,21.24-1.58,1.57-2.91,2.24-4.48,2.24-2.49,0-7.05-1.91-7.55-3.32-.17-.5,1.24-3.49,3.23-6.56,2.16-3.31,4.13-6.74,5.89-10.28,1-2.09,2.17-4.1,3.49-6,1.16-1.25,4.06-1.58,8-.75,2.26.53,2.35.64,1.93,3.43h.02ZM423.84,433.89c-.41,10.37-1.49,19.83-2.32,22.32-.83,2.07-29.2.16-130.32-8.63-54.33-4.65-88.92-7.3-92.65-7.05-4.15.33-4.07,1.74.16,4.23,1.74,1,3.32,2.32,3.4,3,.5,2.24-4.39,7.3-9.7,10.12-4.65,2.49-5.73,2.82-12.2,3.24l-7.13.41-2.66-3.07c-1.49-1.74-2.73-3.48-2.73-3.89s2.73-3.49,6.14-6.81c6-6.05,6-6.13,7.88-4.89.94.64,2.02,1.03,3.15,1.16,1.33,0,1.33-.58,1-9.21-.49-13.27,1.08-16.26,9.54-19,5.56-1.83,33.76-2.24,76.73-1.33,16.43.41,38.16,1.16,48.28,1.83s27.79,1.49,39.24,2.15c46,2.41,60.14,3.32,62.38,3.73l2.24.42-.43,11.27ZM487.84,443.89c-.33,10.2-.83,18.75-1.16,19.08-1,1-56.49-3.15-58.48-4.4-1.16-.66,1.08-26.79,2.9-33.93.58-2.24,2.57-2.9,8.13-2.57,2.57.25,12.94.83,23,1.41s20.16,1.25,22.31,1.49l3.82.5-.52,18.42ZM557.6,334.14c2.16-8.38,6.81-21.81,9.29-26.87,3.49-6.89,6.89-9.63,11.29-9.21l2.48.08-.08,5.48c-.07,3.29-.46,6.57-1.16,9.78-2.32,8.8-14.35,36.75-16.34,38-.58.33-1.74-1.58-3.73-5.81l-2.91-6.39,1.16-5.06ZM535.31,294.36c2.41-1.9,2.57-1.9,4.81-.08,1.38,1.27,2.32,2.96,2.66,4.81,1.16,5.31,2.24,19.5,2.24,32.94q0,12.27-2.16,15.84c-3.07,5.31-6.22,8.79-7.13,8-.42-.41-1.08-5.8-1.58-11.86s-1.16-13.6-1.49-16.59-.92-9.54-1.16-14.43c-.42-10.74.71-16.22,3.81-18.63ZM515.49,329.21c1-6.89,2.57-12,4.39-14.27,1.83-2.49,3-2.49,4.9-.17,3,3.9,5.06,20.66,5.06,41.23v10.37l-5.39,7c-8,10.28-9.54,12.11-10.21,11.44-1.57-1.6-.66-42.33,1.25-55.6h0ZM614.49,415.56c-2.4,3.65-14.85,10.45-24.64,13.52-8.61,2.57-17.44,4.32-26.37,5.23-6.31.58-6.39.66-15,8.71-5.4,5.06-11.41,9.42-17.9,12.98-3.31,1.66-5.14,2-11.19,2.32-14.19.66-23.9-1.83-25.47-6.39-1-2.9-1-9.12,0-16.26.91-6.63,2.32-10.37,3.9-10.37,1.41,0,1.41.42,2.49,7.05.58,3.57,1.16,5.23,1.9,5.23,1.66,0,2.41-2.49,4-13.11,1.41-10.12,1.49-10.45,6.71-21.07,2.7-5.66,5.71-11.17,9-16.5,4.39-6.72,21.48-29.53,25.88-34.51,3.15-3.49,5.56-4.31,7.21-2.32,1.41,1.66.42,11.28-1.65,17.33-3.49,10-6.64,14.85-18.83,29-3.82,4.56-7.55,9.45-8.13,10.86-.67,1.66-1.33,6.64-1.66,13.52-.5,9.21-.92,12-2.66,17.26-2.82,8.21-3.15,9.7-2.32,10.95.83,1.41,2.32.16,4.81-4.07,2.82-4.72,3.73-8.79,5.31-22.39.75-6.89,1.74-13.19,2.24-14,2-3.9,17.92-21.57,18.66-20.91,1.41,1.5,2.66,23.65,1.66,28.95-.41,2-.83,2.24-3.81,2.66-1.83.25-3.74.58-4.32.74-1.82.59,1.25,3.07,5.4,4.4,4.72,1.41,5.89,1.16,20.32-5.31,13.69-6.14,19.08-8,26.71-9s15.35,0,17.5,2.16c1.45,1.43,1.45,1.6.29,3.34h-.04Z"/>
  <path class="cls-1" d="M462.15,423.52c-10-.58-20.41-1.16-23-1.41-5.56-.33-7.55.33-8.13,2.57-1.82,7.14-4.06,33.27-2.9,33.93,2,1.25,57.48,5.39,58.48,4.4.33-.33.83-8.88,1.16-19.08l.5-18.42-3.82-.5c-2.13-.24-12.17-.91-22.29-1.49ZM359.62,418.46c-11.45-.66-29.2-1.57-39.24-2.15s-31.85-1.42-48.28-1.83c-43-.91-71.17-.5-76.73,1.33-8.46,2.73-10,5.72-9.54,19,.34,8.63.34,9.21-1,9.21-1.13-.13-2.21-.52-3.15-1.16-1.83-1.24-1.83-1.16-7.88,4.89-3.41,3.32-6.14,6.39-6.14,6.81s1.24,2.15,2.73,3.89l2.66,3.07,7.13-.41c6.47-.42,7.55-.75,12.2-3.24,5.31-2.82,10.2-7.88,9.7-10.12-.08-.66-1.66-2-3.4-3-4.23-2.49-4.31-3.9-.16-4.23,3.73-.25,38.32,2.4,92.65,7.05,101.12,8.79,129.49,10.7,130.32,8.63.83-2.49,1.91-11.95,2.32-22.32l.42-11.28-2.24-.42c-2.23-.4-16.33-1.31-62.37-3.72ZM267.96,406.35l.16,2,12.53.25,12.44.17,6.31-3.32c9.7-5.31,39.4-22.73,49.52-29.2,22.73-14.43,43.71-29.37,45.79-32.6,1.91-2.82,1.49-6.8-.83-10.54-2.32-3.56-29.37-30.52-35.26-35.09-2.15-1.65-4.23-3.06-4.73-3.06-.82,0-5.47,4.89-16.92,17.5-3.15,3.57-3.56,4.4-2.9,5.39.5.5,7.47,6.31,15.35,12.78,16.17,13.27,19.9,16.59,19.9,18.08,0,1.66-2.32,1.16-7.79-1.49l-5.06-2.58-7.14,4.4c-3.9,2.49-15.34,10-25.38,16.76s-23.81,15.67-30.61,19.74c-22.23,13.68-25.88,16.75-25.38,20.81ZM322.37,265.5c-1.88,2.27-3.62,4.65-5.22,7.13-3.04,4.39-6.34,8.6-9.87,12.61-5,5.31-5.06,5.47-3.9,7.22,1.24,2,15.43,13.77,21.07,17.42,2.49,1.74,4.14,2.4,5.14,2,1.66-.5,14.68-13.86,17.67-18.17l2-3.07-3.73-4.23c-6.17-6.68-12.79-12.91-19.83-18.66-1.04-.85-2.16-1.6-3.33-2.25Z"/>
  <path class="cls-7" d="M200.93,330.12c.5,1.74,1.66,3,4.07,4.56,4.48,2.82,36.41,18.91,39.9,20,3,1,5.06.25,7.21-2.4,2.82-3.41.92-6.81-5.89-10.71-5-2.82-22.48-10.12-32.18-13.35-12.45-4.32-14.6-3.91-13.11,1.9ZM234.11,244.51c2.24-1.91,2.24-2.07,1.25-4-1.26-1.67-2.87-3.04-4.73-4-9-5-16.59-2.66-32.93,10.37-8.47,6.72-31,29-33.93,33.51-1.91,2.82-2,3.32-1.16,5.81.48,1.54,1.21,3,2.15,4.31l1.33,1.82,4.9-2.9c2.73-1.66,10.86-7.22,17.91-12.44,7.14-5.06,19.66-14.1,27.87-19.91s16.01-11.49,17.34-12.57ZM155.56,170.43c2.9,10.87,9.95,21.65,18.08,27.79,6,4.48,15,8.8,20.32,9.63,5.06.91,27.71,1,27.71.16-.63-1.34-1.47-2.57-2.49-3.65-3.15-4-4.23-7.88-3.73-13.6s2.07-9.21,5.39-12.69c6.86-7.3,18.34-7.67,25.64-.81.85.8,1.63,1.68,2.31,2.63,2.24,3.15,2.74,3.57,3.32,2.57.42-.83.33-3.15-.08-6.47-2.12-13.8-8.27-26.67-17.67-37-9.79-10.95-26-18.59-42.14-20.08-9.29-.75-12.69-.83-18.41-.33-10.29.83-12.53,2.24-15.85,9.46-2.9,6.55-3.9,12.69-3.9,25.46,0,9.5.25,12.5,1.5,16.93ZM115.66,210c1.24,0,9.54-4.89,16-9.37l1.65-1.08-1.65-3.9c-4.4-11.11,2.32-22.31,14.18-23.47l4.4-.5-.41-12.68c-.25-10-.08-14.6.91-21.07,1.66-11.2,1.58-12.11-2.57-14.19-2.66-1.16-5.44-2.02-8.29-2.57-10.37-2.07-18.42-1.91-23,.41-7.05,3.74-19,23.56-20.49,34.1-1,7.22-.83,18.66.33,24.22,1.46,6.57,4.01,12.85,7.55,18.58,3.51,5.38,9.56,11.52,11.39,11.52ZM219.68,831.48l-5.23-2.74c-9.79-4.89-33.18-13.19-37.08-13.19-2.32,0-2,1.41.67,2.74,1.07.5,7,2.82,13.19,5.23,10.78,4.15,14.1,5.8,13,6.88-1.92.08-3.85-.12-5.72-.58-7.72-1.41-29.37-1.16-38,.42-14.93,2.73-34.75,8.71-52.84,16-7.63,3.07-10.62,4.81-9.7,5.64.74.74,9.54-1.66,26.62-7.3,34.26-11.12,47.12-13.44,66.28-12,17.67,1.5,21.32,2.57,24,7.05.66,1.08,1,1.08,2.49.34,1.85-1.17,3.58-2.54,5.14-4.07,6.22-5.72,20.24-11.45,33-13.6,3.74-.58,11.2-1.25,16.34-1.58,2.68-.19,5.37-.22,8.05-.08-1.74-1.91-4.23-4.48-6.55-4.48-20.16,0-33.43,3.32-48.2,12l-5.46,3.32Z"/>
  <path class="cls-5" d="M139.3,115.35c2.32.67,6.63,2.16,9.62,3.32l5.23,2.16,1.65-1.49c2.58-2.41,2.74-4.24.59-5.56-2.58-1.74-17.92-2.24-20-.75-1.32.97-1.18,1.16,2.91,2.32ZM184.26,113.11c29.2,2.08,46.78,11.2,60.14,31,4.48,6.8,6.8,11.53,10.53,22,2.57,7.3,2.66,7.47,3.16,4.89.58-3.15-.67-17.66-2.08-24.47-3.22-14.04-11.45-26.42-23.14-34.84l-4.48-3.23-7.8.91c-8.46.91-20.74.08-27.29-2-1.86-.58-3.78-.94-5.72-1.08-2.58.09-9.13,2.32-11.87,4.15l-1.9,1.24,1.82.42c1,.27,4.89.68,8.63,1.01ZM161.69,195.15c-3.48-3.31-5-3.81-7.46-2.07-.83.58-5.23,3.15-9.87,5.81-29.45,16.42-50.15,36.11-62.88,59.89-4.48,8.29-7.38,16.92-7.38,21.9v3.48h4.11c2.87.07,5.7-.71,8.13-2.24,5.89-3.07,19.25-14.76,30.11-26.29,13.36-14.19,45.71-51.85,47.78-55.75.7-1.49.45-1.99-2.54-4.73ZM563.02,351.44c2-1.25,14-29.2,16.34-38,.7-3.21,1.09-6.49,1.16-9.78l.08-5.48-2.48-.08c-4.4-.42-7.8,2.32-11.29,9.21-2.48,5.06-7.13,18.49-9.29,26.87l-1.16,5.06,2.91,6.39c1.99,4.23,3.15,6.14,3.73,5.81ZM532.66,327.38c.33,3,1.08,10.45,1.49,16.59s1.16,11.45,1.58,11.86c.91.83,4.06-2.65,7.13-8q2.16-3.57,2.16-15.84c0-13.44-1.08-27.63-2.24-32.94-.34-1.85-1.28-3.54-2.66-4.81-2.24-1.82-2.4-1.82-4.81.08-3.07,2.41-4.23,7.89-3.81,18.59.24,4.93.71,11.48,1.16,14.47ZM524.45,373.34l5.39-7v-10.34c0-20.57-2.08-37.33-5.06-41.23-1.91-2.32-3.07-2.32-4.9.17-1.82,2.24-3.4,7.38-4.39,14.27-1.91,13.27-2.82,54-1.25,55.57.67.67,2.24-1.16,10.21-11.44ZM596.78,410.08c-7.63,1-13,2.82-26.71,9-14.43,6.47-15.6,6.72-20.32,5.31-4.15-1.33-7.22-3.81-5.4-4.4.58-.16,2.49-.49,4.32-.74,3-.42,3.4-.67,3.81-2.66,1-5.3-.25-27.45-1.66-28.95-.74-.66-16.67,17-18.66,20.91-.5.83-1.49,7.13-2.24,14-1.58,13.6-2.49,17.67-5.31,22.39-2.49,4.23-4,5.48-4.81,4.07-.83-1.25-.5-2.74,2.32-10.95,1.74-5.31,2.16-8.05,2.66-17.26.33-6.88,1-11.86,1.66-13.52.58-1.41,4.31-6.3,8.13-10.86,12.19-14.19,15.34-19.08,18.83-29,2.07-6.05,3.06-15.67,1.65-17.33-1.65-2-4.06-1.17-7.21,2.32-4.4,5-21.49,27.79-25.88,34.51-3.29,5.33-6.3,10.84-9,16.5-5.22,10.62-5.3,10.95-6.71,21.07-1.58,10.62-2.33,13.11-4,13.11-.74,0-1.32-1.66-1.9-5.23-1.08-6.63-1.08-7.05-2.49-7.05-1.58,0-3,3.74-3.9,10.37-1,7.14-1,13.36,0,16.26,1.57,4.56,11.28,7.05,25.47,6.39,6.05-.33,7.88-.66,11.19-2.32,6.48-3.57,12.49-7.94,17.88-13.02,8.63-8,8.71-8.13,15-8.71,8.93-.91,17.76-2.66,26.37-5.23,9.79-3.07,22.24-9.87,24.64-13.52,1.16-1.74,1.16-1.91-.25-3.32-2.13-2.14-9.85-3.13-17.48-2.14ZM306.61,270.23l2.41,2,2.57-2.91c4-4.48,5.47-7.88,4.73-10.12-.92-2.4-6.72-6.38-10.29-7.05-3.07-.5-5.8-2.07-5.06-2.9,2.12-.66,4.28-1.15,6.47-1.49,13.44-2.49,16.68-3.41,23-6.47,2.34-1.25,4.78-2.31,7.3-3.16.66,0,7.55,6.31,27,24.81,13.85,13.19,18.75,16.92,22,16.92,1.75,0,2-.25,2-2.16,0-3-2.08-6.8-7.14-13.1-4.89-6.06-11.94-12.95-21.32-20.74-3.48-2.91-8.21-7-10.28-9.13-4.32-4.31-4.57-6-1.41-8.38l1.9-1.41,17.84,8.63c25.22,12.28,41.64,18.5,51.51,19.41,3.49.42,4.23.25,4.65-.75,2.9-7.79-19.41-21.06-58.57-34.92-18.58-6.47-19.08-6.88-17.25-11.94,1.66-4.15,2.57-4.4,20.24-5.39,28.87-1.66,42.39-3.16,53.67-5.89,14.27-3.49,21-9.05,14.52-12.12-2.82-1.41-22-1.82-33.35-.74-13.39,1.34-26.69,3.5-39.82,6.47-11.94,2.65-14.35,2.74-15.76.5-1.74-2.49-3.48-10.54-3-13.19.58-3.07,2.32-4.32,15.34-11.37,20.91-11.2,41.23-24.55,50.19-32.85,5.06-4.81,6.22-7.3,4.48-9.12-1.58-1.5-10.21-2-13.61-.67-7.55,2.82-37.24,19.58-45.95,26.13-6.39,4.57-23.89,18.67-36.83,29.45l-10.46,8.8-1.57,6c-2.74,11.37-2.74,11.28.74,18.33,2.49,5.06,3.07,7.05,3,10,0,4-2.4,10.78-4.73,13.69-1.24,1.74-1.57,1.82-2.57.91s-.91-1.58.08-5.73c2.74-11,2.49-12.85-2.07-18.08-3.07-3.32-3.15-4.89-.58-17,3-15.1,3.15-34.51.25-44.72-.91-3.4-3.65-7.46-5.14-7.71-1.75-.42-3.41,2.65-4.24,7.46-.33,2.41-1.16,12.95-1.74,23.73-1.24,22-1.24,22.06-3.81,36.33-1.23,6.65-1.87,13.4-1.91,20.16l-.08,9.71,2.57,5.39c4.16,8.46,13.68,21.07,20.08,26.38ZM219.93,396.48c3.4,8.63,4.23,9.79,7,10.78,1.33.5,8.55.75,17.92.75h15.68l1.08-2c1.49-2.74,5-20.08,7.46-35.92,1.91-12.77,1.91-13,1.91-51v-38.16l-2.57-18c-2.82-19.33-4.73-28.62-8.87-42.81-2.82-9.87-5.65-16.59-6.81-16.59-2.71.87-5.34,1.95-7.88,3.24-17.09,7.88-40,9.45-56.24,4-3.48-1.16-9.46-3.57-13.27-5.31l-6.89-3.24-6.38,8.05c-10.54,13.11-10.7,13.52-11.95,26.13-1.49,14.93-4,45.79-4,48.86v2.57l2.07-1.16c1.16-.75,9.13-8,17.84-16.34,32.43-31.11,45.46-40.15,57.82-40.15,5.72,0,7.38,1,13.43,7.47,8.63,9.29,15.43,23,20.83,41.89,4.31,15,5,20.49,5,37.74,0,14.68-.16,15.93-2.07,22.73-2.24,8.38-5.31,15.18-8,17.67-1.58,1.49-2.66,1.74-6.23,1.74-4.06,0-5.22-.5-28.2-12.11-13.11-6.55-24.47-12-25.13-12-.64-.03-1.19.44-1.25,1.08,0,1.24,5.89,14.1,16.67,36.42,4.56,9.24,9.45,19.94,11.03,23.67Z"/>
  <path class="cls-3" d="M273.51,452.39c-4-.83-6.88-.5-8,.75-1.32,1.9-2.49,3.91-3.49,6-1.76,3.54-3.73,6.97-5.89,10.28-2,3.07-3.4,6.06-3.23,6.56.5,1.41,5.06,3.32,7.55,3.32,1.57,0,2.9-.67,4.48-2.24,2.73-2.74,9.87-17.17,10.53-21.24.38-2.82.29-2.93-1.95-3.43ZM252.94,450.65l-5.14-.25-3.07,4.81c-3.65,6-7.88,14.6-7.88,16.34,0,3.49,10.45-.25,14.68-5.31,2.82-3.32,7.05-12,6.72-13.77-.16-1.47-.66-1.57-5.31-1.82ZM229.72,469.39c6-8,10.7-16.17,10.7-18.49,0-1.41-1-1.66-13.61-2.91-14.6-1.49-19.24-1.49-19.82.09-.33,3.22-.47,6.46-.42,9.7,0,6.55.33,9.21,1.16,11,5.06,9.91,14.93,10.15,21.99.61Z"/>
  <path class="cls-6" d="M224.32,480.34c-5.64,1.83-6.47,1.91-9.87,1.08-2.78-.59-5.28-2.08-7.13-4.23-3.07-2.9-3.65-4-4.65-8.46-.54-2.21-.93-4.46-1.16-6.73,0-2.4-1.57-2.4-8,.33-12.78,5.23-19.16,4.9-27-1.49-1.11-1-2.37-1.82-3.74-2.41-1.24,0-25.38,25.39-37.24,39.24-30.36,35.42-42.39,51.43-59,79.14-12.28,20.24-20.41,39.32-20.74,48.11l-.17,4.15,7,3.23c14.44,6.64,29.7,10.45,47.78,12,17.92,1.41,38.08-.91,47.29-5.56,3.81-1.91,3.56-1,4.89-15.43,2-19.82,4.73-31,10.37-41.31,8-14.68,33.1-52.59,53.25-80.38,12.53-17.09,15.6-21.82,14.69-22.73-.18-.2-3.25.46-6.57,1.45Z"/>
  <path class="cls-8" d="M155.64,669c-.75-.25-6.55.41-12.94,1.41-10.29,1.66-13.27,1.91-31.19,1.91-34.26,0-50.69-2.74-67.53-10.87-3.31-1.58-6.13-2.82-6.3-2.82-1.74,0-1.08,26.38.75,32.35,3.32,10.7,10.61,19.49,23.56,28.87,9.45,6.88,12.94,10.2,12.44,11.86-.5,1-1.16,1.08-4.65.66-5.14-.58-7.38.42-15.51,7-7.3,6-13.11,12-16.92,17.92-5.56,8.63-16.67,33.27-17.67,39.24l-.41,2.9,3.81-.25c11.53-1,73.91-10.28,96.72-14.6,6.39-1.24,18.5-3.31,27-4.72s16.42-2.83,17.75-3.24c2.57-.91,6.3-5.47,13.93-16.92,10-15.27,11.45-19.83,8.38-26.38-2.9-6.47-15.43-18-34.34-32.19-16-11.86-18.5-14.51-13.77-14.51,6.39,0,46.87,33.26,51.68,42.47,1,2,1.24,4.23,1.33,10.12,0,7.46,0,7.63-3.07,13.69-2.37,4.49-5.04,8.81-8,12.94-5.64,7.54-6.14,8.46-5.47,9.12s8.79-.75,32.76-5.22c18.83-3.65,20.74-4.15,22.07-5.81,2.9-3.49,8-20.91,8.62-29.45.42-4.81.42-5.06-1.82-7.71-3.65-4.32-12.78-10.95-31.52-23.07-20.12-12.91-34.43-22.86-42.47-29.7-3.07-2.53-6.31-4.86-7.22-5ZM161.11,810.74c14.44-2.07,54-10.12,56.16-11.44,1.29-1.18,2.32-2.62,3-4.23,1.49-3.57,7.22-20.83,7.22-22,0-1.49-7.72-.58-25.55,2.82-23.89,4.65-28.79,5.81-31.19,7.22s-7.72,11.86-10.62,20.41c-2.42,7.31-2.33,7.72.98,7.22ZM154.39,804.94c3-7.88,6.81-18.92,6.81-19.83,0-.5-5.73-.58-9.71,0-1.16.17-13,2.08-26.29,4.23-39.9,6.47-68.36,10.87-88.18,13.52-14.44,2-18.92,2.82-19.58,3.74-2,2.73-4.89,21.4-4.4,28.7l.25,3.65,7.88.16c8.63.25,10.95-.08,46.79-7.46,41.64-8.55,78.39-16.92,81.79-18.67,1.46-.74,2.57-2.65,4.64-8.04ZM80.57,666.16c17.67,3.07,55.82,1.66,69-2.66,2.24-.66,2.24-.83,2.24-4.73,0-5.72-1.41-13.18-2.57-13.68-.5-.17-6.72.66-13.77,1.91-10.2,1.82-14.85,2.24-22.89,2.24-22.32,0-45.3-4.4-62.47-12-2.12-1.06-4.34-1.89-6.63-2.49-1.91,0-3.4,4.48-3.82,10.87l-.25,6.22,2.24,1.58c6.48,4.69,22.08,9.75,38.92,12.74Z"/>
</svg>