<?xml version="1.0" encoding="UTF-8"?>
<svg id="Layer_2" data-name="Layer 2" xmlns="http://www.w3.org/2000/svg" xmlns:xlink="http://www.w3.org/1999/xlink" viewBox="0 0 1135 1531.73">
  <defs>
    <style>
      .cls-1 {
        fill: url(#linear-gradient);
      }

      .cls-1, .cls-2, .cls-3, .cls-4, .cls-5, .cls-6, .cls-7, .cls-8 {
        stroke-width: 0px;
      }

      .cls-2 {
        fill: #000;
      }

      .cls-3 {
        fill: #ae2f5a;
      }

      .cls-4 {
        fill: url(#linear-gradient-2);
      }

      .cls-5 {
        fill: url(#linear-gradient-3);
      }

      .cls-6 {
        fill: #fff;
      }

      .cls-7 {
        fill: #766c84;
      }

      .cls-8 {
        fill: #73141c;
      }
    </style>
    <linearGradient id="linear-gradient" x1="547.96" y1="790.99" x2="1102" y2="790.99" gradientTransform="translate(0 1532) scale(1 -1)" gradientUnits="userSpaceOnUse">
      <stop offset="0" stop-color="#e87fa7"/>
      <stop offset="1" stop-color="#d31677"/>
    </linearGradient>
    <linearGradient id="linear-gradient-2" x1="241.2" y1="444.04" x2="945.22" y2="444.04" gradientTransform="translate(0 1532) scale(1 -1)" gradientUnits="userSpaceOnUse">
      <stop offset="0" stop-color="#814084"/>
      <stop offset="1" stop-color="#472267"/>
    </linearGradient>
    <linearGradient id="linear-gradient-3" x1="7.37" y1="925.8" x2="1130.6" y2="925.8" gradientTransform="translate(0 1532) scale(1 -1)" gradientUnits="userSpaceOnUse">
      <stop offset="0" stop-color="#8a7095"/>
      <stop offset="1" stop-color="#562d8c"/>
    </linearGradient>
  </defs>
  <path class="cls-2" d="M433.6,25.63C474.3,11.53,516.8,1.83,559.9.33c54.3-2.2,108.7,6.8,160.3,23.4,45.3,14.6,88.7,34.9,129.6,59.3,29.9,17.9,58.7,37.7,85.4,60.2,5.3,3.3,11.5,5.2,16.8,8.6,18.6,10.7,35,26.5,42.9,46.7,4.8,12.5,8,25.5,11.3,38.4,16.7,68.7,29.1,138.5,48.7,206.5,4.8,15.9,9.5,32,16.8,47,17.1,23.4,29.3,50.9,32.9,79.8.4,2.4.4,5.1,1.7,7.3,6.8,11.6,10.6,24.7,13.8,37.7,9.6,41.1,11.5,83.5,14.9,125.4v7.4c-2,26.4-7.4,52.4-13.9,78.1-6,23.5-13,46.9-21.7,69.6-6.6,18.6-19.3,34.1-31.4,49.4-24.8,30.4-51.7,58.9-78.8,87.1-17,17.5-34.1,34.8-51.6,51.8-1.4,1.5-3.6,2.7-3.6,5-1.6,15.4-3.5,30.8-7.1,45.8-2.2,8.8-4.6,17.8-9.5,25.6-13.1,19-36.1,30.5-59.1,29.9-17.9-.4-36-1.6-53.1-7.3-7.5-2.5-14.8-6.6-19.1-13.4-5.5-8.4-7.8-18.9-6.9-28.9l-1.3-.4c-.9,28.6-2.1,57.3-4.9,85.8-1.2,11.6-2.4,23.3-5.3,34.7-2.4,9.6-9.2,17.2-14.1,25.6-3.2,5.3-.4,11.5.6,17,2.3,10.2,4.8,20.5,5.2,31,.6,7.7-3.5,14.6-7,21.1,8.3,11.1,16.8,22.1,24.8,33.5,4.1,6.2,8.8,12.2,10.7,19.5,5.8,21.6,12,43.1,18,64.7-23,9.5-46.6,17.7-70.6,23.9-19.2,4.8-38.9,8.8-58.9,7.8-30.1-1.1-59.7-7.2-89.1-13.5-18.7,13.5-39.6,25.2-62.7,28.7-46.5,7.2-93.9,6.7-140.6,11.4-37.3-1.6-73.6-12.8-107.2-28.7-5.8-3-11.9-5.4-17.1-9.4-3-4.2-3.3-9.7-4.2-14.7-2.6-20.9-3.1-41.9-5.3-62.8-1.4-12.8,3-26.1,12-35.3-6.8-7.6-10.3-17.4-12.1-27.3,8.7-11.8,17.4-23.6,25.9-35.6,9.2-13.1,18.5-26.1,26-40.2-3.5-10.5-7.5-21-10.1-31.8-2.3-12,4.5-23.6,2.9-35.6-.5-4.6-4.5-7.5-7.7-10.3-14.9-12.4-28.9-26.2-38.9-43-8.7-14.4-13.9-31.2-13.5-48.1-46.3-36.9-85.3-81.9-121.6-128.4-11.7-15.3-24-30.3-33.8-47-21.4-35.8-34.6-75.8-43.9-116.2-11.5-50.8-17-102.8-21.4-154.7-3.3-39.7-5.8-79.4-8.8-119.2-1.5-21.4-3.7-42.7-5.2-64.1v-8.9c1.4-47.1,19.4-91.9,42.6-132.2,21.9-37.8,48.9-72.4,78.5-104.4,35.6-38.4,75.2-73,117.4-104,59.7-43.5,124.9-80,194.7-104.4l.4.4h0Z"/>
  <path class="cls-3" d="M1009.9,345.33l-14.8-12.5-6.2,18-55.7-94.5,12.1,46.7-57.6-11.5-15.3-63.6c-.5-2.8-1-4.3-1.1-4.5l-3.8,1.2.9,3.7c1,6,1.7,19.8-6.2,41.1-6.2,16.9-27.7,41.4-45.3,59.6-.2.2-.4.3-.5.5-7,7.3-13.4,13.5-17.9,17.8l12.6-32.1-7.1,7.6c-14.9,15.9-58.1,29.4-77.5,34.9l12.8-9.9c.9-.7,1-1.9.4-2.8,7.9-3.6,16-8.4,20.7-14.2.7-.9.5-2.1-.3-2.8-.9-.7-2.1-.5-2.8.3-6.8,8.5-22.6,14.9-32.3,18.2,5.4-5.6,13.6-14.8,20.9-26.5,10.7-17.2,3.3-47.3.9-57.2-.3-1.1-.6-2.3-.6-2.6,0-1.1-.9-1.9-2-1.9s-1.2.3-1.5.7l-.3-.2c55.1-70,121.9-71.4,172.9-63.9,44.8,6.7,73.3,58.9,85.2,86.2l-18.6-27.3h0l-3.3,2.2c12.4,18.3,26.8,71.3,31.5,89.3h-.2ZM899,338.93c-14.9,4.6-24.1,29.4-24.1,29.6h0c.6,1,1.3,1.9,2,2.7,3.6,4.1,8.6,6.2,14.2,6.2s13.4-2.9,20.2-8.2c.7-.7,4.8-5.4,6.6-16.9.7-4.1.7-9.6-2.9-12.7-3.2-2.8-8.8-3.1-16-.8v.1h0ZM891.9,371.93c-4.1-1.9-5.6-7.5-3.2-12.6,2.3-5,7.6-7.5,11.7-5.6,4.1,1.9,5.6,7.6,3.2,12.6-2.3,5-7.6,7.5-11.7,5.6ZM813.8,352.63h-.2c-10.3,4-16.9,9.5-19.6,16.5-2.9,7.5-.6,14.7.4,17.1,1.2,0,2.5-.1,3.8-.3,17.6-2,31.4-8.8,38.8-19.2,2.3-3.3,4-6.9,4.8-10.5-10.4-11.9-27.9-3.7-28-3.6ZM809.9,379.93c-4.1-1.9-5.6-7.5-3.2-12.6,2.3-5,7.6-7.5,11.7-5.6,4.1,1.9,5.6,7.6,3.2,12.6-2.3,5-7.6,7.5-11.7,5.6Z"/>
  <path class="cls-1" d="M873,405.63c126.3,0,229,84.9,229,189.2s-102.7,189.2-229,189.2-229-84.9-229-189.2,102.7-189.2,229-189.2h0ZM944.2,282.83l6.6,25.3-66.4-13.2-12-49.6c-.8,6.9-2.7,15.4-6.5,25.6-6.2,16.8-26.1,40-43.3,58,7.2.7,20.4,3.8,23.2,16.4,1.7,7.7-.3,16.4-5.6,23.8-8.1,11.3-22.9,18.8-41.7,20.9-2.1.2-4.1.3-6,.3-18.8,0-29-10.6-33.7-17.3-4.7-6.8-6.8-14.1-6.7-19-17.8,6.1-33,9.9-34.3,10.2l-9.2,2.2,23.8-18.4c-7.8,3-14,4.6-14.6,4.8l-8.3,2.2,6.5-5.6c.1-.1,14.6-12.7,26.3-31.5,9.8-15.8,2.7-44.7.4-54.2-.6-2.3-.7-2.9-.7-3.4s.2-.9.5-1.3l-.3-.2c-20.4,25.9-39.2,61.1-54.9,108.8-50.3,152.1-49,164-45.2,195.6.1,1.1.3,2.2.4,3.4,7.2-40.9,30-78.6,65.9-108.3,44-36.4,102.4-56.5,164.6-56.5s87.8,10.4,124.7,29.9c-6.6-23.7-15.1-79.4-16-85.1l-37.5-63.6v-.2ZM914.1,372.23l-.2.2c-.1,0-.2.2-.3.2-7.4,5.8-15.2,8.8-22.4,8.8s-12.8-2.7-17.2-7.6c-5.2-5.8-7.5-14.1-6.5-23.4,0-.3,4.1-27.2,35.5-26.6,17.8.3,30.3,2.1,33.8,9.9,2.9,6.6-1.5,16.1-13.8,30-2.9,3.2-5.8,6-8.8,8.4l-.1.1ZM931.7,1005.73c-3.7-18.5-12.3-32.7-21-43.1h0c-2.1-2.5-4.1-4.7-6.2-6.7-16.2-16.2-38.2-27.4-58.5-30.2h-.5c-3.6-.5-7.3-.7-10.8-.7-39.3.6-48.1,17.4-48.2,17.5-.2.3-.4.5-.6.7l2.2,52.4c3.5-2.1,26.7-16.4,35.7-26.9,9.9-11.6,20.4-24.9,20.5-25,.7-.9,1.9-1,2.8-.3.9.7,1,1.9.3,2.8-.1.1-10.7,13.5-20.6,25.1-10.1,11.8-36.1,27.3-37.2,28-.3.2-.7.3-1,.3h-.4l2.4,57c1.7.8,3.2,1.8,4.5,2.9,53.5-10.8,100.4-54.8,100.8-55.3.8-.8,2.1-.7,2.8,0s.7,2.1,0,2.8c-.5.5-46.8,44.1-100.6,55.8.4.6.7,1.2,1,1.8,3.6,7.5,2.2,12.4.3,15.3-1.4,2.2-3.5,3.9-6.1,4.9,0,.8.2,1.9.3,3.1.5,4.8.8,9.2,1,13.1,48,6.1,112.3-32.4,113-32.8,1-.6,2.2-.3,2.7.7.6,1,.3,2.2-.7,2.8-2.5,1.5-56.9,34.1-104.1,34.1s-7.3-.2-10.9-.6c0,6.9-.7,11.9-2.8,14.2-.9,1-2,1.5-3.3,1.5-3.4,0-5.8-3.1-7.6-8.4-4,1.4-9.6,2-14.4,2.3,2.9,10.5,6.5,17,11.1,21.1.2.1.3.2.5.4,7.2,6.1,16.8,6.7,30.3,7.5,2.5.1,5,.3,7.7.5,27.2,1.9,84.5-23.6,85-23.8,1-.5,2.2,0,2.6,1,.5,1,0,2.2-1,2.6-2.3,1-54.5,24.3-83.6,24.3s-2.3,0-3.4-.1c-2.7-.2-5.2-.3-7.6-.5-9.7-.6-17.8-1-24.5-3.6v.2c0,.2-.8,18.6,10.5,29.1,11.2,10.4,42.5,14.1,66,14.1s40-9.5,53-26.2c11.7-15.1,19.5-66.9,20.4-135.2,0-7.2-.6-13.9-1.8-20.1v-.4h0ZM774.9,1081.53c-6.4-5-12.3-13.4-12.7-19.4-.2-3.4,1.3-5.9,4.2-7.1h.3c.2-.1,3.4-.9,7.9-1.1l-.5-7.4c-7-5-61.7-42.4-108.7-43-1.1,0-2-.9-2-2s.9-2,2-2h0c34.9.7,72.8,20,94.3,33-7.2-32.8-37.1-57.4-64-65-28.3-8-88.3-7-95-6.8-54.3,38.7-52.9,228.2-52.7,244.4,6.8,4.2,50.5,30,83.5,31.2,25.3.9,50.7.9,59.5-10.4,3.6-4.6,4.2-10.9,1.8-19.2v-.1c-1.6,0-3.3.1-4.9.1-18,0-36.2-5.1-37.5-5.5-1.1-.3-1.7-1.4-1.4-2.5s1.4-1.7,2.5-1.4c.5.2,54.7,15.4,66.3-6.3,6.6-12.4,9.8-18.5,8.9-21.3-.6-1.8-3.5-3.1-8.3-5.3-.2-.1-.4-.3-.6-.4-24.6-2.9-56.1-9.4-58.1-9.8-1.1-.2-1.8-1.3-1.5-2.4.2-1.1,1.3-1.8,2.4-1.5,19.7,4.1,73,13.9,82.9,10.5,7.1-2.5,15.6-18.8,16.9-32.3.4-4.1.4-11.3-4-13.8-12.3-7.1-76.1-21.6-76.8-21.8-1.1-.2-1.8-1.3-1.5-2.4.2-1.1,1.3-1.8,2.4-1.5,2.6.6,63.7,14.5,77.4,22h6.1c5.3-.2,11.8-.7,15.8-2.2-1.5-5.6-2.8-12.9-4-20.9-.4-2.4-.7-4.5-1-6.3l.1-.1h0ZM767.2,949.53c-18.2,1.1-45.4,15.2-54.7,20.3,24.1,12.1,46.8,35.8,51.8,65.5,4,2.5,7.2,4.6,9.4,6.1l-6-92c-.2,0-.3.1-.5.1Z"/>
  <g id="Layer_3" data-name="Layer 3">
    <path class="cls-6" d="M841.9,346.13c.4,1.7.5,3.4.5,5.2-12-10.2-28.9-2.9-30.3-2.3-6.4,2.4-11.5,5.5-15.4,9.2l-2-1.9c1-.9,11.6-10.6,24.4-23.8,4.2.1,20.1,1.4,22.8,13.6h0ZM902.9,328.03h-.8c-27.1,0-30.5,22.2-30.6,23.1-.5,4.5-.1,8.8,1.1,12.6,3.3-7.5,12-24.4,25.3-28.6,10.9-3.4,16.8-1,19.8,1.6,3.9,3.4,5.4,9.1,4.3,16.4-.5,3.1-1.1,5.7-1.9,8,10.8-12.1,15.1-20.7,13-25.5-2.7-6.2-16.8-7.3-30.2-7.5v-.1h0ZM756.4,352.43c-.7,2.9.6,10.5,5.8,18.2,4,5.8,12.5,14.6,27.9,15.5-1.2-3.7-2.8-10.8.2-18.4,1.4-3.6,3.6-6.8,6.5-9.6l-2-1.9-6.3,5.8,12.1-31c-11.2,8.4-28.3,15.7-44.2,21.4Z"/>
  </g>
  <path class="cls-7" d="M789.6,1427.53c4.6,16.4,10.6,37.7,12.4,43.8-11.1,4.5-76,30.2-117.5,30.2s-1.4,0-2.1,0c-33-.7-66.7-8-82.9-11.5-2.8-.6-4.9-1-6.5-1.4h0l1-.8-5.8-24.3c.6,0,22.1.4,49.4.4s29.2-.1,44.2-.4c40.8-.9,95.8-29.6,107.7-36h.1,0ZM580,1455.93c-.2,3.1-.5,5.2-.6,5.5v.8c-.1,0-.7.5-.7.5-.6.5-15.7,12.2-43,22.8-20.7,8.1-52,16.8-90.9,16.8s-16.7-.4-25.6-1.2c-84.5-8.2-145.3-42.3-159.9-51.2,1.2,17.4,3,39.3,5.8,41.5,4.7,3.5,73.5,39.6,128.7,35.6,13.8-1,28.3-1.8,42.4-2.6,43.7-2.5,84.9-4.9,104.6-11.3,22.9-7.3,44.1-23.2,48.9-26.9l-6.6-27.6-3.1-2.7h0ZM615.9,1384.43c1-1,2.3-2.1,4-3-1.1.2-2.1.4-3.2.6-.6.8-.8,1.7-.8,2.4ZM725,1355.93c9.1-.2,19.6-.3,22.1.6.7.2,1.5.6,2.3,1h0c-1.8-1.1-9.8-5.4-24.3-1.6h-.1ZM748,1369.53h-.8c-10.2,0-57.7,7.4-83.3,11.4-8.4,1.3-14.5,2.3-17,2.6-10,1.4-20.6,9.1-23.8,12.8-1.3,1.5-1.8,4.9-.9,6.8.5,1,1,1,1.3,1s.8,0,1.6-.4c1.8-2,11.8-11.6,34.2-14.9,6.7-1,16.4-2.5,26.6-4.1,25.5-4,54.5-8.5,60.7-8.5s1.1,0,1.4.1c1.9.5,3.3,1.5,4.6,2.4,1.1.8,2,1.4,2.7,1.4s.6-.1,1-.3c.4-.2.8-1.3.4-3-.7-3.3-3.7-6.9-8.9-7.2l.2-.1h0ZM745.7,1360.33c-2.3-.8-19.4-.5-34.3,0-15.4,4.7-45,11.5-73.6,17.4-1.5.4-7.8,2.1-15.8,6.9-2.3,1.4-3.9,2.8-4.5,4,0,.4-.1.8-.3,1.1v.2c.1,1.3,1.8,2.6,3.2,3.4,3.9-4.3,15-12.3,25.9-13.8,2.5-.3,8.8-1.3,16.9-2.6,27.4-4.3,73.4-11.5,83.9-11.5s.8,0,1.2,0c.8,0,1.5.2,2.2.3.2-.5.3-1,.1-1.5-.5-1.5-2.5-3.2-4.9-4v.1h0ZM537.7,1394.73c-6.4.2-70.4,20.8-78.3,23.9-4.7,1.8-12.8,6.2-15,15.1-.4,1.5-.2,2.6.4,3.4,1.3,1.7,4.5,2.1,5.7,2.1.3,0,.5,0,.7.2.3-.1.6-.2.9-.2.7,0,1.2-.7,2.1-3,.6-1.5,1.4-3.3,2.7-4.5,2.5-2.3,56.7-21.8,79.9-30.1l.7-.3.7.3c.5.2,6.1,2.7,13,6.5-.2-2.2-1.6-5.1-3.9-7.7-3-3.5-6.9-5.8-9.6-5.7h0ZM527.4,1386.73c-12.8,4.9-45.5,16.6-83,23.7-2.9.6-16.2,11.5-15.5,19.3.1,1.5.6,2.4,1.6,3.1,2.6,1.8,8.1.6,9.8,0h.1c2-7.9,8.2-14.3,17.5-17.9,7.1-2.8,64.5-21.3,77.7-23.8-1.3-2.5-5.3-4.1-7.4-4.6-.2.1-.5.2-.8.3v-.1ZM418.6,1414.33c-3.1,4-4.4,7.1-3.5,8.8,1.3,2.4,6.8,2.9,10.2,2.8,1.4-5,5.5-10.1,9.7-13.8-5.4.9-10.9,1.6-16.4,2.3v-.1h0Z"/>
  <path class="cls-8" d="M784.5,1408.53c.7,2.6,2.2,8.2,4.1,15-9.5,5.2-66.3,35.1-106.7,36-44.4,1-92.9,0-93.4,0h0c-.3,0-.6,0-.9.2l-.8-3.3-6.5-5.7c0-8.4-1.3-20-7.8-27.1-4.5-4.9-11.1-9.5-17.3-13.2h0c.7-3.6-1.1-8.3-4.7-12.5-2.6-3-6.6-6.2-10.7-6.9,0-.3,0-.6-.1-.9-.4-1-.9-1.8-1.6-2.6,4.7.8,12.7,2.1,24.7,2.1s3.6,0,5.5,0c7.3-.2,24-2.9,43.8-6.6-.4,2.4.4,4.6,1.3,6.1v1.3c.3,3.2,3.2,5.4,5.2,6.5-.8,2.6-.9,5.6.2,7.9,1,2.1,2.8,3.3,5,3.3s2.4-.3,3.8-1l.3-.2.3-.3s9.2-10.5,32-13.8c6.7-1,16.4-2.5,26.7-4.1,24.1-3.8,54.2-8.5,60.1-8.5s.4,0,.4,0c1.2.3,2.2,1,3.3,1.8,1.4,1,3,2.1,5,2.1s1.9-.3,2.9-.8c2.2-1.2,3.1-4,2.4-7.4-.7-3.2-2.9-6.6-6.5-8.6.3-.8.5-1.6.5-2.4.4.5.8,1,1.2,1.5,8.7,11.5,26.9,35.5,28.5,42l-.2.1ZM575.9,1449.73l.2-.2c0-7.6-1.4-17.3-6.7-23.1-9.1-9.9-28.2-18.9-32.1-20.7-29.9,10.7-74.6,27.1-77.9,29.1-.6.6-1.1,1.8-1.6,3-1,2.4-2.4,5.7-6.1,5.5-.2,0-.4,0-.6-.2-.2.1-.5.2-.8.2-.6,0-6.1,0-8.8-3.6-.5-.6-1-1.5-1.3-2.7-1.3.3-3.4.7-5.7.7s-4.6-.4-6.4-1.7c-2-1.3-3.1-3.4-3.3-6.1v-.2h-.6c-3.8,0-10.4-.7-12.7-4.9-1.4-2.7-.9-6,1.7-10.1-8.1.8-16.2,1.2-24.3,1.2s-10.2-.2-15.1-.5c-56.8-4.3-86.2-20.4-100.3-28.2-1.4-.8-2.7-1.5-3.8-2.1-.7-.3-1.3-.8-1.9-1.2-3.4,3.3-13.3,14.5-11.2,33.2.8,7.3,1.5,16.8,2.2,26.8v.8c7.8,5,70.6,43.3,160.6,52.1,90.4,8.8,149.3-32.2,155.9-37.1.2-1.3.5-4,.6-7.4h0c-.8-.7-.9-2-.2-2.8l.2.2h0Z"/>
  <path class="cls-4" d="M774.7,1138.43c-.3,11-3.1,112.2-12.3,128.8-3.2,5.8-5.9,9.7-8,12.8-4.4,6.6-6.5,9.6-5,17.2.4,1.9,1,4.5,1.7,7.4,2.6,11.4,7.1,30.5,4.5,37.5-2.1,5.8-4.1,9.4-5.2,11.3-4.1-2.2-15.1-6.2-33.3.9-11.3,4.4-45.8,12.6-79.2,19.5h-.4s-.5,0-1.1.3c-7.1,1.5-14,2.8-20.7,4.1-.3,0-.6,0-.9.2-21.1,4-39.1,6.9-46.7,7.2-15.3.5-24.9-1.2-30.1-2.1-1.8-.3-3-.5-3.9-.5s0,0-.1,0c1.1-1.1,1.7-2.3,1.9-3.6.7-4.8-4.7-8.8-9.4-12.3-1.7-1.3-3.4-2.5-4.2-3.4-2.3-2.7-1.4-10.2-.5-17.4.4-3,.8-6.2,1-9.2.5-7.4,3.6-11.6,8.1-17.5,1.5-2,3.2-4.3,4.9-6.8,6.7-10.1,17.2-36.1,12.2-53.7-3.8-13.4,8.1-36.4,11.6-42.8,17.4,9.3,47,23.1,71.8,24,5.5.2,11,.3,16.4.3,20.3,0,38.6-2.2,46.4-12.2,4.3-5.5,5.2-12.9,2.7-22.1,10.6-1.2,20-4.9,24.4-13.3,7.7-14.6,10.6-20.1,9.2-24.4-.5-1.4-1.3-2.5-2.6-3.5,3.2.2,6.2.4,8.7.4s6.4-.3,8.2-.9c9.4-3.3,18.3-21.9,19.6-35.7.6-5.8-.2-10.6-2.2-13.9h.5c3.1,11.5,7.1,18.9,12.1,23.6l-.1-.2h0ZM330.9,1161.53c-29.9-9-59.5-24.8-89.7-47.9.9,42.1,33.7,70.1,49.7,83.8,2.9,2.5,5.2,4.4,6.6,5.9,6,6.3,4,16.6,2,26.5-1.2,5.8-2.2,11.4-1.5,15.4,1.9,11,16.4,49.3,16.6,49.6.4,1-.1,2.2-1.2,2.6-.2,0-.5.1-.7.1-.8,0-1.6-.5-1.9-1.3-.2-.6-2.2-5.8-4.7-12.8-5.4,12.8-42.8,63.1-49.3,71.9.7,3.5,3.8,17.9,12.1,24.6,0,0,.1,0,.2.1.8.6,1.7,1.2,2.6,1.7,1.1.6,2.4,1.3,3.9,2.1,13.9,7.6,42.7,23.5,98.7,27.7,14,1.1,28.7.5,43.1-1.1h.1c8.8-1,17.6-2.3,26.1-3.9h.1c37.2-7,69.6-18.6,82.3-23.5,3.5-1.4,5.6-2.9,5.8-4.3.3-2.5-4.6-6.1-7.8-8.5-2-1.5-3.7-2.8-4.8-4-3.5-4-2.5-12-1.4-20.5.4-3,.8-6.1.9-9,.5-8.6,4.2-13.5,8.9-19.7,1.5-2.1,3.1-4.2,4.8-6.7,6.2-9.2,16.2-34.3,11.7-50.3-4.3-15,8.1-39,11.9-45.8-5.6-3.1-9.5-5.5-10.7-6.2-8-1.3-137.7-23.3-214.4-46.5h0ZM915.8,962.43c3.9,4.9,7.7,10.6,11.1,17.1h.2c10.4-.4,17-5.5,18-10.1.7-3.3-1.7-5.2-3.9-6.3-7.9-3.9-19.9-1.9-25.4-.6v-.1h0ZM928.7,983.53c1.4,3.1,2.8,6.5,3.9,10l.8-10.6c-1.5.3-3.1.5-4.7.6h0ZM922.3,783.83c0,.2.1.5.1.7v172.7c2.2-.3,4.6-.4,7-.4v-172.3c0-1,.7-1.8,1.6-2v-.5c-3,.6-5.8,1.2-8.7,1.7v.1h0ZM861.3,850.63h-1.8c0,1.3-.2,2.4-.8,3.6-1.2,2.5-3.7,4.3-7.5,5.3-1.9.5-3.8.8-5.5.8-4.4,0-7.8-1.6-9.6-4.6-1.6-2.6-1.9-5.9-1-10l-2.6-.6c-2,8.6-3.3,14.3-1.4,17.1,1,1.4,3,2.3,6.4,2.8,8.3,1.2,16.2-.6,20.5-4.6,2.4-2.2,3.5-4.9,3.3-8v-1.8h0ZM863.7,793.33c-1,1.3-2.5,2.3-4.6,2.8-1.5.3-3.2.6-4.9.6-3.2,0-6.4-.8-8.4-2.8-1.2-1.3-2.5-3.5-1.9-7.3h-.7c-1,6.4-4.4,27.8-8.1,46.7-.8,4.4-1.7,8.2-2.5,11.6v.2l2.6.6c.6-2.5,1.6-5.3,3.1-8.3l.4-.8.9-.2c.1,0,2.9-.6,6.1-.6,6.9,0,9.6,2.8,10.7,5.1,1.5,3.2,3.1,6.7,3.1,10h1.8c-.3-10.7.8-41.8,2.4-57.3v-.3h0ZM778.4,1057.93c-.3.5-.9.9-1.6,1h-.1c-.7,0-1.3-.4-1.7-1-3.7.2-6.6.7-7.3.9-.9.4-1.7,1.1-1.6,3.1.4,6.5,10.3,17.9,17.1,19.7,1.3.3,2.6.5,3.9.5,4,0,7.4-1.6,9.1-4.3,1.8-2.9,1.6-6.8-.6-11.4-3.1-6.6-10.8-8.3-17.2-8.5h0ZM789.5,1085.93c-.8.1-1.6.2-2.4.2-1.6,0-3.3-.2-4.9-.7-.9-.2-1.8-.6-2.8-1.1.1.9.3,1.8.4,2.8,1,6.3,2.2,14.1,3.8,20.2,0,.2,0,.3.1.5.2.2.4.4.6.6.3.6.4,1.2.1,1.8,2.1,6.2,3.8,6.6,4.2,6.6s.2,0,.4-.2c3.1-3.4,1.3-22.1.7-28.2-.1-1-.2-1.8-.2-2.5h0ZM759.7,763.83l18.9,290.1c3,0,5.7.5,8.1,1.1l-11.9-284.8c-5.1-2-10.1-4.1-15.1-6.4Z"/>
  <path class="cls-5" d="M1130.4,742.63c2,32.1-19.6,117.9-37.8,161.1-17.2,40.7-137.9,159.8-157.5,179,1.4-17,2.3-35.9,2.5-56.6,0-7.5-.6-14.4-1.8-20.9l1.8-23.6c6.5-2.5,10.5-7.2,11.4-11.5.9-4.4-1.3-8.4-6-10.8-2.9-1.4-6.2-2.2-9.5-2.5v-172.5c0-1.1-.9-2-2-2s-.3,0-.4,0v-.5c39.9-8.5,76.6-25.7,106.6-50.5,44.1-36.5,68.4-85.1,68.4-136.8s0-4.5-.1-6.7c17.5,36,22.1,113.2,24.2,147.6.2,2.5.3,4.9.4,6.9l-.2.3h0ZM1018.9,313.83c-.3-1.6-.7-3.1-1-4.7l-2.9.3-21.7-31.8c11.5,29.7,21.5,70.4,22.1,72.7l1.5,6-19.8-16.8-7.1,20.7-2.7-4.5c3.1,19.8,10.2,62.5,15.5,78.5,12.4,6.9,24.1,14.9,34.9,23.8,9.2,7.6,17.5,15.7,24.9,24.3-15.8-41.6-30.5-108.7-43.6-168.6l-.1.1h0ZM990.5,201.93c-9-21-29.6-39.4-55.6-49.8h0c-1.5-.6-3-1.2-4.5-1.7-33-11.8-89.3-16.9-170.7,25.5-69.2,36.1-113.1,149-137.7,237.3-16,57.4-24.7,107.8-28.5,132.8-5.7,37.8-6.8,59.6-5.7,63.1.5.4.8,1.1.7,1.9-.2,1-1,1.7-2,1.7s-.2,0-.3,0c-2-.3-2.3-2.6-2.5-3.5-2.4-15,8.8-107.3,36.2-203.3,24.7-86.6,68.7-197.4,137.9-233.5,78.1-40.7,133.7-38.2,168-27.7-17.7-14.4-62.5-48.6-123.6-78.8-73.3-36.3-185.8-74.2-305.3-48.8-111,23.6-237.2,95-337.6,190.9-48.7,46.5-88.3,96.3-114.5,144.1-28.3,51.6-40.7,99.1-36.7,141.3,3.1,33.5,5.5,67.4,7.8,100.1,10,141.5,19.5,275.2,84.8,362.3,51.7,68.9,96.6,118.2,139.3,151.7.4.1.8.4,1,.8,31,24.2,60.7,40.1,91.1,49.2,72.7,22,193.5,42.9,211.9,46-.1-10.9-.3-57,5.1-106.4,7.9-72.3,23.5-118.6,46.3-137.7-26-5.8-158.9-36.2-196-62.4-6.9-4.9-12.7-8.8-17.8-12.3-24.2-16.4-27.9-19-26.5-37.5.4-5.1,2.1-13.7,4.2-24.7,6.6-33.7,17.7-90.2,2.1-113.6-2.4-3.6-5.7-9.2-10-16.3-34.5-58-126.3-212.2-258.5-222.8-1.1,0-1.9-1.1-1.8-2.1,0-1.1,1-1.9,2.1-1.8,57.5,4.6,114.2,36.6,168.6,95.2,44.3,47.7,76,100.9,93,129.5,4.2,7.1,7.5,12.7,9.8,16.1,16.5,24.7,5.2,82.2-1.5,116.6-2.1,10.8-3.8,19.3-4.1,24.2-1.2,16.2.8,17.6,24.8,33.9,5.1,3.5,10.9,7.4,17.9,12.3,39,27.5,191.6,61.1,198.5,62.6,5-.1,66.8-1.5,96.6,7,3.7,1.1,7.5,2.4,11.3,4.1,5.7-3.3,37.5-20.9,58.9-22.2h.5l-11.9-183.7c-17-8.3-32.9-18.4-47.2-30.2-44.1-36.5-68.4-85.1-68.4-136.8s0-5.8.2-8.6c-.5-9.2-1.4-16.4-2.1-22.7-3.8-32.2-5.2-44.3,45.4-197.3,26.7-80.7,65.5-134.7,115.2-160.4,43.6-22.5,87.6-19.3,117-15,26.2,3.9,51,23.4,71.6,56.4,15.5,24.8,23.3,48.7,23.4,49l4.3,13.2,2.9-.3c-10.5-48.1-19.7-89.3-27.3-107.2l-.1.3h0ZM722.6,957.93c.3,1.1-.3,2.2-1.4,2.5h-.5c-.9,0-1.7-.6-1.9-1.5-6.6-22.9-.3-89.2,0-92,.1-1.1,1.1-1.9,2.2-1.8,1.1.1,1.9,1.1,1.8,2.2,0,.7-6.5,68.3,0,90.5l-.2.1h0ZM698.2,954.03c.3,1.1-.3,2.2-1.4,2.5h-.5c-.9,0-1.7-.6-1.9-1.5-5.2-19.1-.3-85.2,0-88,0-1.1,1-1.9,2.2-1.8,1.1,0,1.9,1,1.8,2.2,0,.7-5.1,68.1,0,86.6h-.2,0ZM472.4,1069.13c-8.9,79.1-11.7,109-11.7,109.3-.1,1-1,1.8-2,1.8s-.1,0-.2,0c-1.1-.1-1.9-1.1-1.8-2.2,0-.3,2.8-30.3,11.7-109.4,5.1-45.5,18.6-86.3,39.9-121.3.8-1.3,1.5-2.5,1.7-3,.2-.9,1-1.6,1.9-1.6s2,.9,2,2-.4,1.5-2.3,4.6c-21.1,34.5-34.3,74.8-39.4,119.6l.2.2h0ZM873,788.13h-4.6c-1.8,10.7-3.6,53.5-3,64,.3,4.3-1.3,8.2-4.6,11.2-4.2,3.9-10.9,6-18.3,6s-3.7-.1-5.6-.4c-4.6-.6-7.5-2.1-9.1-4.5-2.9-4.2-1.4-10.7.8-20.4.8-3.4,1.7-7.2,2.5-11.5,3.6-18.7,7-39.8,8-46.4-20.9-2.5-41.2-7.3-60.3-14.3l6.9,165.1c5.1-5.6,18.3-15.5,49-16h1.1c3.1,0,6.2.2,9.4.6,6.9-7.6,62.1-68.8,73.2-84.5v-52.5h0c-14.8,2.4-30,3.7-45.4,3.7v-.1h0ZM849.9,922.23c20.2,3.7,41.5,15,57.4,30.8,1.8,1.8,3.7,3.8,5.6,6,1.2-.3,3.1-.8,5.5-1.2v-114.2c-15.1,19.3-57.6,66.6-68.5,78.6h0ZM847.9,787.03c-.5,2.7.4,3.7.8,4.1,1.8,1.9,6.3,1.9,9.6,1.2,2.7-.6,3.2-2.8,3.3-4.4-4.6-.2-9.1-.5-13.6-.9h-.1ZM845.7,839.63c-1.7,0-3.3.2-4.3.4-2.9,6.1-3.5,10.8-1.9,13.5,1.4,2.2,4.2,2.7,6.2,2.7s2.9-.2,4.5-.6c2.6-.7,4.2-1.7,4.9-3.1,1.2-2.5-.7-6.5-2.4-10.1-1.1-2.3-4.5-2.8-7.1-2.8h.1Z"/>
  <path class="cls-2" d="M1134.4,742.43c-.1-2-.3-4.4-.4-6.9-2.2-37.2-7.4-124-28.8-156.6-3-30.6-14.6-59.7-33.8-85.5-17.6-39.1-34.1-114.2-48.6-180.4-11-50.3-20.5-93.8-28.6-112.6-9.4-21.9-30.7-41-57.6-51.9-4.1-3.6-55.4-48-132.5-86.1-47-23.3-94.3-39.7-140.5-48.9-57.8-11.5-114.2-11.6-167.5-.2-111.7,23.8-238.6,95.5-339.6,191.9-49,46.8-88.9,97-115.2,145.1C12.6,402.63.1,450.93,4.1,493.93c3.1,33.5,5.5,67.3,7.8,100.1,10,142.1,19.5,276.4,85.6,364.4,43.9,58.5,81.1,100.7,117.1,133,7.6,6.9,15.2,13.2,22.8,19.2-.7,45.7,35.6,76.7,51.1,90,2.8,2.4,5,4.3,6.2,5.6,4.6,4.8,2.8,14.1,1,23-1.2,6.2-2.4,12.1-1.5,16.9,1.1,6.5,6.3,21.7,10.6,33.7-.9,0-1.7.6-1.9,1.5-2.1,7.9-36.6,55.1-49.7,72.7l-.5.7v.8c.2.8,2.9,17.3,12.1,26.4-4.2,4.2-14.3,16.4-12,36.2.8,7.2,1.5,16.6,2.2,26.6,2.2,31.9,3.7,47.3,7.8,50.3,5.3,3.8,67.3,36.7,122.2,36.7s6.1,0,9.1-.3c13.8-1,28.3-1.8,42.3-2.7,43.9-2.5,85.4-5,105.6-11.4,20.1-6.4,38.5-18.9,46.7-24.9h.1c1.1,0,5.3,1,9.8,2,16.3,3.5,50.3,10.9,83.7,11.6h2.2c46,0,117.5-29.9,120.6-31.2l1.6-.7-.5-1.7c-.2-.5-15.5-54.6-18-64.4-1.7-6.8-16-26-29.2-43.5-2.4-3.2-4.7-6.2-5.8-7.8,1.2-1.8,3.5-5.9,6.1-12.8,3-8.1-1.5-27.2-4.4-39.8-.7-2.9-1.2-5.4-1.6-7.3-1.2-5.9,0-7.8,4.4-14.2,2-3,4.8-7.2,8.2-13.1,9.2-16.5,12.2-107.2,12.8-127.6.6.4,1.2.8,1.9,1.1-.4.3-.7.8-.8,1.4,0,.8-1,20.4,11.7,32.2,15.5,14.5,59.9,15.2,68.7,15.2,22,0,42.4-10.1,56.1-27.7,8.3-10.7,14.7-37.5,18.2-75.1.2,0,.4-.2.6-.4,5.8-5.6,142.2-138.1,161.1-183,18.6-44,40.2-129.5,38.2-162.9v-.3h0ZM1102,594.93c0,104.3-102.7,189.2-229,189.2s-229-84.9-229-189.2,102.7-189.2,229-189.2,229,84.9,229,189.2ZM845.2,921.33c-3.2-.4-6.4-.8-9.4-.8h-1.1c-30.7,1-43.9,10.5-49,16.2l-6.9-165c19.1,7,39.4,11.9,60.3,14.4-1,6.6-4.4,27.7-8,46.4-.8,4.3-1.7,8.1-2.5,11.5-2.2,9.7-3.7,16.2-.8,20.4,1.7,2.4,4.6,3.8,9.1,4.5,1.9.3,3.7.4,5.6.4,7.4,0,14.1-2.1,18.3-6,3.3-3,4.8-6.9,4.6-11.2-.7-10.5,1.2-53.3,3-64h4.6c15.4,0,30.6-1.2,45.4-3.7h0v52.5c-11,15.7-66.3,76.7-73.2,84.3v.1h0ZM918.4,843.63v114.2c-2.4.4-4.3.9-5.5,1.2-1.9-2.2-3.8-4.2-5.6-6-15.9-15.9-37.2-27.1-57.4-30.8,10.9-12,53.4-59.2,68.5-78.6h0ZM784.4,1108.53c-.2-.3-.4-.5-.6-.6,0-.2,0-.3-.1-.5-1.7-6.2-2.9-14-3.8-20.2-.2-1-.3-1.9-.4-2.8,1,.5,1.9.8,2.8,1.1,1.6.4,3.2.7,4.9.7s1.6,0,2.4-.2c0,.6.1,1.5.2,2.5.6,6.1,2.4,24.8-.7,28.2-.2.2-.3.2-.4.2-.3,0-2.1-.3-4.2-6.6.2-.6.2-1.2-.1-1.8h0ZM679.6,1092.83c.7.1,64.5,14.7,76.8,21.8,4.3,2.5,4.3,9.7,4,13.8-1.3,13.6-9.9,29.9-16.9,32.3-10,3.5-63.2-6.4-82.9-10.5-1.1-.2-2.1.5-2.4,1.5-.2,1.1.5,2.1,1.5,2.4,2,.4,33.5,6.9,58.1,9.8.2.2.4.3.6.4,4.8,2.2,7.7,3.5,8.3,5.3.9,2.7-2.4,8.9-8.9,21.3-11.5,21.8-65.7,6.5-66.3,6.3-1.1-.3-2.2.3-2.5,1.4s.3,2.2,1.4,2.5c1.3.4,19.5,5.5,37.5,5.5s3.3,0,4.9-.1v.1c2.4,8.3,1.8,14.6-1.8,19.2-8.8,11.2-34.2,11.3-59.5,10.4-33-1.2-76.7-27.1-83.5-31.2-.2-16.1-1.6-205.7,52.7-244.4,6.7-.2,66.7-1.2,95,6.8,26.9,7.7,56.8,32.2,64,65-21.5-12.9-59.4-32.3-94.3-33h0c-1.1,0-2,.9-2,2s.9,2,2,2c47,.6,101.7,38,108.7,43l.5,7.4c-4.4.2-7.7.9-7.9,1h-.3c-2.9,1.3-4.4,3.8-4.2,7.2.4,6,6.3,14.3,12.7,19.4.3,1.8.6,3.8,1,6.3,1.2,8,2.5,15.3,4,20.9-4,1.5-10.5,2-15.8,2.2h-6.1c-13.7-7.5-74.8-21.4-77.4-22-1.1-.2-2.2.4-2.4,1.5s.4,2.2,1.5,2.4l-.1.1h0ZM712.5,969.83c9.3-5.1,36.5-19.2,54.7-20.3.2,0,.4,0,.5-.1l6,92c-2.2-1.5-5.4-3.6-9.4-6.1-5-29.7-27.8-53.4-51.8-65.5h0ZM787.1,1082.13c-1.3,0-2.6-.2-3.9-.5-6.8-1.8-16.7-13.2-17.1-19.7-.1-2,.7-2.7,1.6-3.1.7-.2,3.6-.9,7.3-1,.4.6,1,.8,1.7.8h.1c.7,0,1.3-.3,1.6-.8,6.4.2,14,2,17.2,8.6,2.2,4.6,2.4,8.6.6,11.5-1.7,2.7-5.1,4.3-9.1,4.3v-.1h0ZM778.7,1053.93l-12.3-191.1h0l-6.6-99c4.9,2.3,9.9,4.4,15,6.4l11.9,284.8c-2.4-.7-5.1-1-8.1-1.1h.1,0ZM845.8,793.93c2,2.1,5.2,2.8,8.4,2.8s3.4-.2,4.9-.6c2.1-.5,3.6-1.5,4.6-2.8-1.5,15.5-2.7,46.6-2.4,57.3v1.7c.2,3.1-.9,5.8-3.3,8-4.3,4-12.2,5.8-20.5,4.6-3.4-.5-5.4-1.4-6.4-2.8-1.9-2.8-.6-8.4,1.4-17.1v-.2c.8-3.4,1.7-7.3,2.5-11.6,3.7-18.9,7.1-40.3,8.1-46.7h.7c-.6,3.7.7,6,1.9,7.3l.1.1ZM847.9,787.03c4.5.4,9.1.7,13.6.9,0,1.5-.6,3.8-3.3,4.4-3.3.8-7.8.7-9.6-1.2-.3-.3-1.3-1.3-.8-4.1h.1ZM1009.9,345.33l-14.8-12.5-6.2,18-55.7-94.5,12.1,46.7-57.6-11.5-15.3-63.6c-.5-2.8-1-4.3-1.1-4.5l-3.8,1.2.9,3.7c1,6,1.7,19.8-6.2,41.1-6.2,16.9-27.7,41.4-45.3,59.6-.2.2-.4.3-.5.5-7,7.3-13.4,13.5-17.9,17.8l12.6-32.1-7.1,7.6c-14.9,15.9-58.1,29.4-77.5,34.9l12.8-9.9c.9-.7,1-1.9.4-2.8,7.9-3.6,16-8.4,20.7-14.2.7-.9.5-2.1-.3-2.8-.9-.7-2.1-.5-2.8.3-6.8,8.5-22.6,14.9-32.3,18.2,5.4-5.6,13.6-14.8,20.9-26.5,10.7-17.2,3.3-47.3.9-57.2-.3-1.1-.6-2.3-.6-2.6,0-1.1-.9-1.9-2-1.9s-1.2.3-1.5.7c-.3.4-.5.8-.5,1.3s.1,1.1.7,3.4c2.3,9.5,9.4,38.4-.4,54.2-11.7,18.8-26.1,31.4-26.3,31.5l-6.5,5.6,8.3-2.2c.6-.1,6.8-1.8,14.6-4.8l-23.8,18.4,9.2-2.2c1.3-.3,16.5-4.1,34.3-10.2-.1,4.9,2,12.2,6.7,19,4.6,6.8,14.9,17.3,33.7,17.3s3.9-.1,6-.3c18.8-2.1,33.6-9.6,41.7-20.9,5.3-7.4,7.3-16,5.6-23.8-2.8-12.6-16-15.7-23.2-16.4,17.2-18,37.1-41.2,43.3-58,3.8-10.2,5.7-18.7,6.5-25.6l12,49.6,66.4,13.2-6.6-25.3,37.5,63.6c.9,5.7,9.3,61.4,16,85.1-36.9-19.5-79.9-29.9-124.7-29.9s-120.6,20.1-164.6,56.5c-35.9,29.7-58.7,67.4-65.9,108.3-.1-1.1-.3-2.3-.4-3.4-3.7-31.6-5.1-43.4,45.2-195.6,15.8-47.6,34.5-82.9,54.9-108.8,55.1-70,121.9-71.4,172.9-63.9,44.8,6.7,73.3,58.9,85.2,86.2l-18.6-27.3h0l-3.3,2.2c12.4,18.3,26.8,71.3,31.5,89.3l-.2.2h0ZM812.1,349.03c-6.4,2.4-11.5,5.5-15.4,9.2-3,2.8-5.2,6-6.5,9.6-2.9,7.6-1.4,14.7-.2,18.4-15.4-.9-23.9-9.8-27.9-15.5-5.3-7.7-6.5-15.3-5.8-18.2,15.8-5.6,33-13,44.2-21.4l-12.1,31,6.3-5.8c1-.9,11.6-10.6,24.4-23.8,4.2.1,20.1,1.4,22.8,13.6.4,1.7.5,3.4.5,5.2-12-10.2-28.9-2.9-30.3-2.3h0ZM841.8,356.33c-.8,3.6-2.4,7.2-4.8,10.5-7.4,10.4-21.2,17.2-38.8,19.2-1.3.1-2.6.2-3.8.3-.9-2.4-3.3-9.5-.4-17.1,2.8-7,9.3-12.6,19.6-16.5h.2c.2-.2,17.6-8.3,28,3.6ZM239.9,1107.63c-42.7-33.6-87.6-82.8-139.3-151.7-65.3-87.1-74.8-220.8-84.8-362.3-2.3-32.8-4.7-66.6-7.8-100.1-3.9-42.2,8.4-89.7,36.7-141.3,26.2-47.8,65.8-97.6,114.5-144.1C259.6,112.23,385.9,40.83,496.8,17.23c119.5-25.4,232,12.5,305.3,48.8,61.1,30.2,105.9,64.4,123.6,78.8-34.3-10.5-90-13-168,27.7-69.2,36.1-113.2,146.9-137.9,233.5-27.4,96-38.6,188.3-36.2,203.3.1.9.5,3.2,2.5,3.5h.3c1,0,1.8-.7,2-1.7.1-.7-.2-1.4-.7-1.9-1.1-3.5,0-25.3,5.7-63.1,3.8-25,12.6-75.4,28.5-132.8,24.6-88.3,68.4-201.2,137.7-237.3,81.4-42.4,137.8-37.1,170.7-25.3,1.5.5,3,.9,4.5,1.9h0c26,10,46.6,28.6,55.6,49.6,7.7,17.9,16.8,59,27.3,107.1.3,1.5.7,3.1,1,4.6,13.1,59.9,27.8,127,43.6,168.6-7.4-8.6-15.7-16.7-24.9-24.3-10.8-9-22.5-16.9-34.9-23.8-5.2-16-12.3-58.7-15.5-78.5l2.7,4.5,7.1-20.7,19.8,16.8-1.5-6c-.6-2.3-10.6-43-22.1-72.7l21.7,31.8-4.3-13.2c0-.2-7.9-24.2-23.4-49-20.6-33-45.4-52.5-71.6-56.4-29.3-4.4-73.4-7.6-117,15-49.8,25.7-88.5,79.7-115.2,160.4-50.6,153-49.2,165-45.4,197.3.7,6.3,1.6,13.5,2.1,22.7-.2,2.9-.2,5.8-.2,8.6,0,51.7,24.3,100.3,68.4,136.8,14.3,11.9,30.2,22,47.2,30.2l6.5,99.4c-40.2,4.5-147.9-3-149-3s-2.1.8-2.1,1.9.8,2.1,1.9,2.1c.7,0,41.1,2.8,81.8,4-.2.3-.3.6-.3.9-.2,2.8-5.1,68.9,0,88,.2.9,1,1.5,1.9,1.5s.3,0,.5,0c1.1-.3,1.7-1.4,1.4-2.5-5-18.5,0-85.9,0-86.6,0-.4,0-.8-.2-1.1,7,.2,14,.3,20.8.4v.4c-.3,2.8-6.6,69.1,0,92,.2.9,1,1.5,1.9,1.5s.4,0,.5,0c1.1-.3,1.7-1.4,1.4-2.5-6.4-22.2,0-89.8,0-90.5v-.8h2.9c14.4,0,27.4-.4,36.8-1.4l5.2,80.3h-.5c-21.5,1.2-53.2,18.9-58.9,22.2-3.8-1.7-7.6-3-11.3-4.1-29.8-8.5-91.6-7.1-96.6-7-6.9-1.5-159.5-35.2-198.5-62.6-7-4.9-12.8-8.8-17.9-12.3-24-16.3-26-17.7-24.8-33.9.4-4.9,2-13.4,4.1-24.2,6.7-34.3,18-91.8,1.5-116.6-2.3-3.5-5.6-9.1-9.8-16.1-17-28.6-48.7-81.9-93-129.5-54.4-58.6-111.2-90.6-168.6-95.2-1.1,0-2.1.7-2.1,1.8s.7,2.1,1.8,2.1c132.2,10.6,224,164.8,258.5,222.8,4.2,7.1,7.6,12.8,10,16.3,15.6,23.3,4.5,79.8-2.1,113.6-2.1,10.9-3.8,19.6-4.2,24.7-1.3,18.5,2.4,21.1,26.5,37.5,5.1,3.5,10.9,7.4,17.8,12.3,37.1,26.1,170,56.6,196,62.4-22.8,19.1-38.4,65.3-46.3,137.7-5.4,49.4-5.2,95.5-5.1,106.4-18.4-3.1-139.2-24.1-211.9-46-30.4-9.2-60.2-25.1-91.1-49.2-.2-.4-.6-.7-1-.8l.2-.7h0ZM256.9,1355.33c6.5-8.7,43.9-59.1,49.3-71.9,2.5,7,4.5,12.2,4.7,12.8.3.8,1.1,1.3,1.9,1.3s.5,0,.7-.1c1-.4,1.6-1.5,1.2-2.6-.1-.4-14.6-38.6-16.6-49.6-.7-4,.4-9.6,1.5-15.4,1.9-9.9,4-20.2-2-26.5-1.4-1.5-3.7-3.4-6.6-5.9-16-13.7-48.8-41.7-49.7-83.8,30.2,23.1,59.7,38.9,89.7,47.9,76.7,23.1,206.4,45.1,214.4,46.5,1.2.8,5,3.1,10.7,6.2-3.8,6.8-16.2,30.8-11.9,45.8,4.6,16.1-5.5,41.1-11.7,50.3-1.7,2.5-3.2,4.6-4.8,6.7-4.7,6.2-8.3,11.1-8.9,19.7-.2,2.9-.6,6-.9,9-1.1,8.4-2.1,16.4,1.4,20.5,1.1,1.2,2.8,2.5,4.8,4,3.2,2.4,8.1,6.1,7.8,8.5-.2,1.4-2.2,2.9-5.8,4.3-12.7,4.9-45.1,16.5-82.3,23.5h-.1c-8.5,1.6-17.3,2.9-26.1,3.9h-.1c-14.4,1.6-29.1,2.1-43.1,1.1-56-4.2-84.8-20.1-98.7-27.7-1.4-.8-2.7-1.5-3.9-2.1-.9-.5-1.8-1.1-2.6-1.7,0,0-.1,0-.2-.1-8.2-6.7-11.4-21-12.1-24.6h0ZM457.9,1414.93c-9.3,3.6-15.5,10-17.5,17.9h-.1c-1.7.5-7.2,1.7-9.8,0-1-.6-1.5-1.6-1.6-3.1-.6-7.8,12.7-18.7,15.5-19.3,37.6-7,70.2-18.8,83-23.7.3-.1.5-.2.8-.3,2,.6,6.1,2.1,7.4,4.6-13.2,2.5-70.5,21.1-77.7,23.8v.1h0ZM537.7,1394.73c2.7,0,6.6,2.2,9.6,5.7,2.3,2.6,3.6,5.5,3.9,7.7-6.9-3.8-12.5-6.3-13-6.5l-.7-.3-.7.3c-23.2,8.3-77.4,27.9-79.9,30.1-1.3,1.2-2,2.9-2.7,4.5-.9,2.3-1.4,3.1-2.1,3-.3,0-.6,0-.9.2-.2,0-.5-.2-.7-.2-1.1,0-4.4-.4-5.7-2.1-.6-.8-.8-2-.4-3.4,2.2-9,10.4-13.3,15-15.1,8-3.1,71.9-23.6,78.3-23.9h0ZM425.4,1425.83c-3.5.1-8.9-.4-10.2-2.8-.9-1.7.3-4.8,3.5-8.8,5.5-.6,11-1.4,16.4-2.3-4.1,3.7-8.3,8.8-9.7,13.8v.1h0ZM258.9,1444.13c-.7-10-1.4-19.5-2.2-26.8-2.1-18.7,7.7-29.9,11.2-33.2.6.4,1.2.8,1.9,1.2,1.1.6,2.4,1.3,3.8,2.1,14.1,7.8,43.5,23.9,100.3,28.2,5,.4,10,.5,15.1.5,8,0,16.2-.4,24.3-1.2-2.6,4.1-3.1,7.4-1.7,10.1,2.3,4.2,8.8,4.9,12.7,4.9s.4,0,.6,0v.2c.2,2.7,1.4,4.8,3.3,6.1,1.9,1.3,4.2,1.7,6.4,1.7s4.4-.4,5.7-.7c.3,1.1.8,2,1.3,2.7,2.7,3.5,8.2,3.6,8.8,3.6s.5,0,.8-.2c.2,0,.4.1.6.2,3.7.2,5.1-3.1,6.1-5.5.5-1.2,1-2.4,1.6-3,3.3-2.1,48-18.4,77.9-29.1,3.9,1.8,23,10.8,32.1,20.7,5.3,5.8,6.6,15.5,6.7,23.1,0,0-.2.1-.2.2-.7.8-.6,2.1.2,2.8h0c-.1,3.4-.4,6.1-.6,7.4-6.7,4.9-65.6,45.9-155.9,37.1-90.1-8.8-152.9-47.1-160.6-52.1v-.8l-.2-.2h0ZM540.8,1513.13c-19.7,6.3-61,8.7-104.6,11.3-14,.8-28.6,1.7-42.4,2.6-55.2,4-123.9-32.2-128.7-35.6-2.8-2.2-4.5-24.2-5.8-41.5,14.6,8.9,75.4,42.9,159.9,51.2,8.8.9,17.4,1.2,25.6,1.2,38.9,0,70.2-8.7,90.9-16.8,27.3-10.7,42.3-22.3,43-22.8l.6-.5v-.8c.2-.3.5-2.4.7-5.5l3.1,2.7,6.6,27.6c-4.7,3.7-26,19.5-48.9,26.9h0ZM802,1471.33c-11.1,4.5-76,30.2-117.5,30.2s-1.4,0-2.1,0c-33-.7-66.7-8-82.9-11.5-2.8-.6-4.9-1-6.5-1.4h0l1-.8-5.8-24.3c.6,0,22.1.4,49.4.4s29.2-.1,44.2-.4c40.8-.9,95.8-29.6,107.7-36,4.6,16.4,10.6,37.7,12.4,43.8h.1,0ZM754.8,1364.93c.4.5.8,1,1.2,1.5,8.7,11.5,26.9,35.5,28.5,42,.7,2.6,2.2,8.2,4.1,15-9.5,5.2-66.3,35.1-106.7,36-44.4,1-92.9,0-93.4,0h0c-.3,0-.6,0-.9.2l-.8-3.3-6.5-5.7c0-8.4-1.3-20-7.8-27.1-4.5-4.9-11.1-9.5-17.3-13.2h0c.7-3.6-1.1-8.3-4.7-12.5-2.6-3-6.6-6.2-10.7-6.9,0-.3,0-.6-.1-.9-.4-1-.9-1.8-1.6-2.6,4.7.8,12.7,2.1,24.7,2.1s3.6,0,5.5,0c7.3-.2,24-2.9,43.8-6.6-.4,2.4.4,4.6,1.3,6.1v1.3c.3,3.2,3.2,5.4,5.2,6.5-.8,2.6-.9,5.6.2,7.9,1,2.1,2.8,3.3,5,3.3s2.4-.3,3.8-1l.3-.2.3-.3s9.2-10.5,32-13.8c6.7-1,16.4-2.5,26.7-4.1,24.1-3.8,54.2-8.5,60.1-8.5s.4,0,.4,0c1.2.3,2.2,1,3.3,1.8,1.4,1,3,2.1,5,2.1s1.9-.3,2.9-.8c2.2-1.2,3.1-4,2.4-7.4-.7-3.2-2.9-6.6-6.5-8.6.3-.8.5-1.6.5-2.4l-.2.1ZM745.7,1360.33c2.4.8,4.4,2.5,4.9,4,.2.5.1,1-.1,1.5-.7-.2-1.5-.3-2.2-.3h-1.2c-10.5,0-56.5,7.2-83.9,11.5-8.1,1.3-14.4,2.2-16.9,2.6-10.9,1.5-22,9.5-25.9,13.8-1.4-.8-3.1-2.1-3.2-3.4v-.2c.2-.3.3-.7.3-1.1.6-1.2,2.2-2.6,4.5-4,8.1-4.8,14.3-6.5,15.8-6.9,28.6-5.9,58.2-12.8,73.6-17.4,14.9-.6,31.9-.9,34.3,0v-.1h0ZM725,1355.93c14.5-3.8,22.6.4,24.3,1.6h0c-.8-.4-1.6-.8-2.3-1-2.5-.8-12.9-.8-22.1-.6h.1ZM615.9,1384.43c0-.8.2-1.6.8-2.4,1.1-.2,2.1-.4,3.2-.6-1.6,1-2.9,2-4,3ZM756.9,1376.73c.4,1.7,0,2.8-.4,3s-.7.3-1,.3c-.8,0-1.7-.6-2.7-1.4-1.3-.9-2.7-1.9-4.6-2.4-.4,0-.8-.1-1.4-.1-6.3,0-35.2,4.5-60.7,8.5-10.2,1.6-19.9,3.1-26.6,4.1-22.4,3.3-32.4,12.9-34.2,14.9-.8.4-1.3.4-1.6.4s-.9,0-1.3-1c-.9-1.9-.4-5.2.9-6.8,3.2-3.7,13.7-11.4,23.8-12.8,2.5-.3,8.6-1.3,17-2.6,25.5-4,73.1-11.4,83.3-11.4s.6,0,.8,0c5.1.4,8.1,3.9,8.9,7.2l-.2.1h0ZM762.4,1267.23c-3.2,5.8-5.9,9.7-8,12.8-4.4,6.6-6.5,9.6-5,17.2.4,1.9,1,4.5,1.7,7.4,2.6,11.4,7.1,30.5,4.5,37.5-2.1,5.8-4.1,9.4-5.2,11.3-4.1-2.2-15.1-6.2-33.3.9-11.3,4.4-45.8,12.6-79.2,19.5h-.4s-.5,0-1.1.3c-7.1,1.5-14,2.8-20.7,4.1-.3,0-.6,0-.9.2-21.1,4-39.1,6.9-46.7,7.2-15.3.5-24.9-1.2-30.1-2.1-1.8-.3-3-.5-3.9-.5s0,0-.1,0c1.1-1.1,1.7-2.3,1.9-3.6.7-4.8-4.7-8.8-9.4-12.3-1.7-1.3-3.4-2.5-4.2-3.4-2.3-2.7-1.4-10.2-.5-17.4.4-3,.8-6.2,1-9.2.5-7.4,3.6-11.6,8.1-17.5,1.5-2,3.2-4.3,4.9-6.8,6.7-10.1,17.2-36.1,12.2-53.7-3.8-13.4,8.1-36.4,11.6-42.8,17.4,9.3,47,23.1,71.8,24,5.5.2,11,.3,16.4.3,20.3,0,38.6-2.2,46.4-12.2,4.3-5.5,5.2-12.9,2.7-22.1,10.6-1.2,20-4.9,24.4-13.3,7.7-14.6,10.6-20.1,9.2-24.4-.5-1.4-1.3-2.5-2.6-3.5,3.2.2,6.2.4,8.7.4s6.4-.3,8.2-.9c9.4-3.3,18.3-21.9,19.6-35.7.6-5.8-.2-10.6-2.2-13.9h.5c3.1,11.5,7.1,18.9,12.1,23.6-.3,11-3.1,112.2-12.3,128.8l-.1-.2h0ZM913.2,1161.33c-13,16.6-32.2,26.2-53,26.2s-54.8-3.7-66-14.1c-11.3-10.5-10.5-28.9-10.5-29.1v-.2c6.8,2.6,14.9,3.1,24.5,3.6,2.4.2,5,.3,7.6.5,1.1,0,2.2.1,3.4.1,29.1,0,81.3-23.3,83.6-24.3,1-.5,1.5-1.6,1-2.6s-1.6-1.5-2.6-1c-.6.3-57.9,25.8-85,23.8-2.7-.2-5.2-.3-7.7-.5-13.5-.8-23.1-1.4-30.3-7.5-.1-.2-.3-.3-.5-.4-4.6-4.1-8.1-10.6-11.1-21.1,4.8-.2,10.3-.9,14.4-2.3,1.9,5.3,4.3,8.4,7.6,8.4s2.4-.5,3.3-1.5c2.1-2.3,2.8-7.3,2.8-14.2,3.6.4,7.2.6,10.9.6,47.2,0,101.6-32.6,104.1-34.1.9-.6,1.2-1.8.7-2.8-.6-.9-1.8-1.2-2.7-.7-.6.4-64.9,38.9-113,32.8-.2-3.9-.5-8.3-1-13.1-.1-1.2-.2-2.4-.3-3.1,2.6-1,4.7-2.7,6.1-4.9,1.8-2.9,3.2-7.8-.3-15.3-.3-.6-.7-1.2-1-1.8,53.8-11.7,100.1-55.4,100.6-55.8.8-.8.8-2,0-2.8s-2-.8-2.8,0c-.5.5-47.3,44.5-100.8,55.3-1.3-1.1-2.8-2.1-4.5-2.9l-2.4-57h.4c.3,0,.7,0,1-.3,1.1-.7,27.1-16.2,37.2-28,9.9-11.6,20.5-25,20.6-25.1.7-.9.5-2.1-.3-2.8-.9-.7-2.1-.5-2.8.3-.1.1-10.7,13.4-20.5,25-9,10.5-32.2,24.7-35.7,26.9l-2.2-52.4c.2-.2.5-.4.6-.7,0-.2,8.8-16.9,48.2-17.5,3.5,0,7.1.2,10.8.7h.5c20.3,2.9,42.3,14.1,58.5,30.2,2,2,4.1,4.2,6.2,6.7h0c8.7,10.4,17.3,24.6,21,43.1v.4c1.2,6.2,1.9,12.9,1.8,20.1-.9,68.3-8.7,120.1-20.4,135.2h0ZM928.7,983.53c1.7,0,3.2-.3,4.7-.6l-.8,10.6c-1.2-3.5-2.5-6.8-3.9-10h0ZM927.1,979.53h-.2c-3.3-6.5-7.1-12.2-11.1-17.1,5.5-1.2,17.5-3.3,25.4.6,2.2,1.1,4.6,3,3.9,6.3-1,4.6-7.6,9.7-18,10.1v.1h0ZM1092.6,903.73c-17.2,40.7-137.9,159.8-157.5,179,1.4-17,2.3-35.9,2.5-56.6,0-7.5-.6-14.4-1.8-20.9l1.8-23.6c6.5-2.5,10.5-7.2,11.4-11.5.9-4.4-1.3-8.4-6-10.8-2.9-1.4-6.2-2.2-9.5-2.5v-172.5c0-1.1-.9-2-2-2s-.3,0-.4,0c-.9.2-1.6,1-1.6,2v172.3c-2.4,0-4.8.2-7,.4v-172.7c0-.3,0-.5-.1-.7,2.9-.5,5.8-1.1,8.6-1.7,40-8.5,76.7-25.7,106.7-50.5,44.1-36.5,68.4-85.1,68.4-136.8s0-4.5-.1-6.7c17.5,36,22.1,113.2,24.2,147.6.2,2.5.3,4.9.4,6.9,2,32.1-19.6,117.9-37.8,161.1l-.2.2h0ZM891.1,381.53c7.2,0,15-3.1,22.4-8.8.1,0,.2-.2.3-.2l.2-.2c3-2.4,6-5.2,8.8-8.4,12.3-13.9,16.7-23.4,13.8-30-3.4-7.8-16-9.6-33.8-9.9-31.4-.6-35.5,26.3-35.5,26.6-1,9.2,1.3,17.5,6.5,23.4,4.4,4.9,10.5,7.6,17.2,7.6l.1-.1ZM917.9,352.53c-1.8,11.4-5.9,16.1-6.6,16.9-6.8,5.4-13.8,8.2-20.2,8.2s-10.6-2.2-14.2-6.2c-.8-.8-1.4-1.8-2-2.7h0c0-.2,9.3-25,24.1-29.6,7.2-2.3,12.8-2,16,.8,3.6,3.1,3.6,8.6,2.9,12.7v-.1h0ZM871.4,351.13c.1-.9,3.5-23.1,30.6-23.1s.5,0,.8,0c13.4.2,27.5,1.3,30.2,7.5,2.1,4.8-2.3,13.4-13,25.5.7-2.3,1.4-4.9,1.9-8,1.1-7.3-.3-13-4.3-16.4-3-2.6-8.9-5-19.8-1.6-13.2,4.1-22,21.1-25.3,28.6-1.2-3.8-1.7-8-1.1-12.6v.1h0ZM903.6,366.33c-2.3,5-7.6,7.5-11.7,5.6-4.1-1.9-5.6-7.5-3.2-12.6,2.3-5,7.6-7.5,11.7-5.6,4.1,1.9,5.6,7.6,3.2,12.6ZM838.7,836.43l-.4.8c-1.5,3-2.6,5.8-3.1,8.3-.9,4.1-.6,7.4,1,10,1.8,3,5.3,4.6,9.6,4.6s3.6-.3,5.5-.8c3.8-1,6.3-2.8,7.5-5.3.5-1.1.8-2.3.8-3.5,0-3.3-1.6-6.8-3.1-10-1.1-2.3-3.8-5.1-10.7-5.1s-6,.6-6.1.6l-.9.2-.1.2ZM845.7,839.63c2.6,0,6,.5,7.1,2.8,1.7,3.5,3.5,7.5,2.4,10.1-.6,1.4-2.3,2.4-4.9,3.1-1.6.4-3.1.6-4.5.6-2.1,0-4.9-.5-6.2-2.7-1.7-2.7-1-7.5,1.9-13.5,1-.2,2.6-.4,4.3-.4h-.1ZM821.6,374.33c-2.3,5-7.6,7.5-11.7,5.6-4.1-1.9-5.6-7.5-3.2-12.6,2.3-5,7.6-7.5,11.7-5.6,4.1,1.9,5.6,7.6,3.2,12.6ZM456.7,1178.03c0-.3,2.8-30.3,11.7-109.4,5.1-45.5,18.6-86.3,39.9-121.3.8-1.3,1.5-2.5,1.7-3,.2-.9,1-1.6,1.9-1.6s2,.9,2,2-.4,1.5-2.3,4.6c-21.1,34.5-34.3,74.8-39.4,119.6-8.9,79.1-11.7,109-11.7,109.3-.1,1-1,1.8-2,1.8s-.1,0-.2,0c-1.1-.1-1.9-1.1-1.8-2.2l.2.2h0Z"/>
</svg>