<?xml version="1.0" encoding="UTF-8"?>
<svg id="_Слой_1" data-name="Слой 1" xmlns="http://www.w3.org/2000/svg" xmlns:xlink="http://www.w3.org/1999/xlink" viewBox="0 0 637.96 864.07">
  <defs>
    <style>
      .cls-1 {
        fill: url(#linear-gradient);
      }

      .cls-1, .cls-2, .cls-3, .cls-4, .cls-5, .cls-6, .cls-7, .cls-8, .cls-9, .cls-10, .cls-11, .cls-12 {
        stroke-width: 0px;
      }

      .cls-2 {
        fill: #000;
      }

      .cls-3 {
        fill: #ff7a7a;
      }

      .cls-4 {
        fill: #3b0000;
      }

      .cls-5 {
        fill: url(#linear-gradient-5);
      }

      .cls-6 {
        fill: none;
      }

      .cls-7 {
        fill: #c03733;
      }

      .cls-8 {
        fill: url(#linear-gradient-2);
      }

      .cls-9 {
        fill: url(#linear-gradient-3);
      }

      .cls-10 {
        fill: #2e2e2e;
      }

      .cls-11 {
        fill: #e34747;
      }

      .cls-12 {
        fill: url(#linear-gradient-4);
      }
    </style>
    <linearGradient id="linear-gradient" x1="147.35" y1="139.3" x2="398.01" y2="139.3" gradientUnits="userSpaceOnUse">
      <stop offset="0" stop-color="#fdc010"/>
      <stop offset="1" stop-color="#ce542c"/>
    </linearGradient>
    <linearGradient id="linear-gradient-2" x1="142.13" y1="740.63" x2="544.32" y2="740.63" gradientUnits="userSpaceOnUse">
      <stop offset="0" stop-color="#622b2c"/>
      <stop offset="1" stop-color="#4f1e1f"/>
    </linearGradient>
    <linearGradient id="linear-gradient-3" x1="173.72" y1="665.7" x2="486.04" y2="665.7" gradientUnits="userSpaceOnUse">
      <stop offset="0" stop-color="#704424"/>
      <stop offset="1" stop-color="#5f391a"/>
    </linearGradient>
    <linearGradient id="linear-gradient-4" x1="68.43" y1="477.68" x2="552.64" y2="477.68" gradientUnits="userSpaceOnUse">
      <stop offset="0" stop-color="#fff"/>
      <stop offset="1" stop-color="#cfd1d2"/>
    </linearGradient>
    <linearGradient id="linear-gradient-5" x1="4.31" y1="420.01" x2="633.25" y2="420.01" gradientUnits="userSpaceOnUse">
      <stop offset="0" stop-color="#ff1e13"/>
      <stop offset="1" stop-color="#a11f20"/>
    </linearGradient>
  </defs>
  <path class="cls-6" d="M512.9,796c-5.21,0-7.73.23-6.81.54,1.91.84,8.49.84,12.24.08,2.15-.46.85-.62-5.43-.62Z"/>
  <path class="cls-2" d="M630.86,469.68c-4.06-6.35-13.93-18.29-18.14-21.89-10-8.5-18.68-8.5-31.46,0l-5.9,4-3.52-.84c-7-1.84-18.6,2.29-25.72,9.18q-3.9,3.75-3.37,7.2c.23,1.91.61,5.05.84,7.12l.46,3.59-13.62,3.75c-7.43,2.15-13.93,3.76-14.47,3.76-1.07-.18-2.11-.55-3.06-1.08-2.07-1.07-2.3-1-12.33,4.44-11.48,6.05-14.69,8.27-15.38,10.26-.46,1.61-3.83,3.14-9.8,4.36-3.52.85-4.52.77-7.65-.23-2.15-.76-3.83-1.83-4.14-2.52s-1.3-7-2.45-13.86c-3.67-21.74-7.73-36.28-17.68-62.15-6.58-16.92-10-27.25-15.85-47.62-9.11-31.61-13.85-52.43-17.6-78.38-2.6-17.45-4.37-25.26-7.43-32.76-2.06-5-2.29-6.05-2.29-14.39,0-12.48-.69-13.63-15.08-28.86-6.2-6.51-12.1-13.09-13.09-14.55-3.45-4.9-3.52-11-.54-22.5,1.61-6.05,1.38-18.07-.38-25.8-2.76-11.48-8-20.44-19.9-34-8.73-9.79-9.88-12.17-10.26-21.28-.61-11.94,1.68-16.91,10.26-22.43,2-1.3,3.59-2.83,3.59-3.44,0-1.91-8.65-4.36-14.39-4.06-12.47.62-19.75,7.73-22.73,22l-.84,3.9-1.31-2.52c-2.79-5.41-5.13-11.05-7-16.84-.61-2.15-1.23-9-1.53-17.07-.23-7.35-.69-13.63-1-13.94s-1.83-.15-3.44.39c-4,1.15-10.79,7.65-13.63,12.93-4.67,8.81-6.35,22.13-4,30.78.53,2.14.76,3.82.45,3.82-1.68,0-11.17-13.47-16.76-23.73-4.75-8.88-9.64-21.58-11.33-29.85-1.07-5-1.68-11-2-20.21-.3-12.63-.3-13.09,1.53-18.29,1-2.91,1.69-5.59,1.3-6-.3-.23-1.91.15-3.59,1-2.93,1.82-5.62,4.01-8,6.51-5.67,5.59-8.73,11.17-12,21.43-3,9.8-2.75,9.57-4.06,5-2.29-7.58-8.8-16.53-13.32-18.45-3.59-1.53-4.28-.53-3.21,4.67.61,3.15.91,6.36.92,9.57,0,6.36-1,8.65-8.88,21.74-6.58,10.87-7.89,13.55-9.42,18.53-1.91,6.12-1.6,13.62,1.07,24.19,1.31,5.2,2.07,10,1.84,11.32s-2.91,8.12-6.12,15.31c-3.21,7.19-6.43,15.39-7.27,18.22-.42,1.91-1.01,3.78-1.76,5.59-.46,0-4.14-8.73-5.06-11.79-.38-1.15.62-4.9,2.76-11.1,3.9-11.25,4.52-15.31,3.21-19.9-1.45-5.28-7.88-10.87-9.56-8.27-.5,1.68-.86,3.39-1.08,5.13-.95,4.08-2.29,8.05-4,11.87-10,21.81-10.87,26.56-6.82,38l2.45,6.89-1.34,3.29c-.69,1.84-4.67,8.73-8.8,15.31s-7.89,13.24-8.42,14.62c-1.08,3.14-1.23,23.5-.31,43,.54,10.26.46,13.24-.54,18.14-2.06,10.49-2.68,16.84-1.83,20.9.61,3.14.53,5-.69,10.87-2.53,12.09-3.14,26-2.76,57.72.46,30.77.84,37.43,5.9,100,4.51,54.74,5,63.39,3.44,63.39-1.57-.92-3.05-1.97-4.44-3.14-5.89-4.67-10.79-7.43-14.54-8.35-4.44-1.22-28.94-19.13-28.94-21.35.08-.69.77-4.6,1.69-8.58,2.45-11.25.84-19-5.44-26.71-3.83-4.6-8-6.36-15.08-6.28l-5.82.08-4.28-4.06c-8-7.81-14.32-11.79-18.22-11.79-3,.08-12.17,3.14-16,5.44-1.38.76-4.75,3.14-7.5,5.2-3.27,2.45-6.66,4.74-10.17,6.84-7.73,4.44-11.41,9.64-12.33,17.6-.38,3-.84,3.76-3.9,6.36-4.13,3.52-6,7.65-6,13.85.1,2.8.57,5.58,1.38,8.27,1.14,3.52,1.14,4.36.3,9-.84,4.44-.84,5.58.31,9.72,1.45,5.59,4.21,10.56,8.88,16,3.52,4.28,5.2,5.74,22.2,20.51,12.86,11.1,29.54,27.71,36.13,36,10,12.48,15,17.07,22.5,20.9,4.58,2.23,8.99,4.82,13.17,7.73,23.11,16.43,53.11,43.61,60.5,54.78,3.68,5.51,4.29,7.89,7,26.26,1.69,11.63,1.69,15.46.31,24.49-.61,3.75-1.3,12.79-1.53,20.14-.38,12.09-.61,13.62-2.07,16.68-2.68,5.36-5.2,7.66-16.3,15.39-5.12,3.51-10,7.34-14.62,11.48-2.43,2.43-5.22,4.47-8.27,6.05-10,4.44-11.64,5.36-15.08,9.11-4.82,5.28-6.81,10.64-6.28,16.91.92,13.78,13,23.35,42.26,33.46,12.09,4.21,12.93,4.59,12.93,6.58.02.93.18,1.86.46,2.75.69,1.84,7.43,4.9,18.83,8.58,33.69,11,74.33,17.22,97.37,14.93,10.95-1.15,12.94-2.07,14.39-7.28.92-3.29,1.61-4.28,4.29-6.12,5.03-3.39,9.17-7.93,12.1-13.24,2-4,2-4.21,2-19l.07-15.08,3.91-3.9c5.89-6,12.93-11.56,16.91-13.4,5.13-2.22,13.09-2.06,21,.54,7.28,2.3,19.68,7.81,19.68,8.73,0,.3-.23,2-.54,3.67-.69,5,3.29,15.31,7.88,19.83,2,2.06,4.37,3.13,11.95,5.58l9.34,3,4.51,8.19c2,3.8,4.31,7.44,6.89,10.87l2.37,2.6,6-.46c15.77-1.38,43.71-9.41,57.95-16.61,5.9-2.91,17.9-11.25,28.6-19.82,12.71-10.19,16.23-13.55,16.23-15.54,0-1.23,2.14-3,9.8-8,13.47-8.65,20.9-14.63,29.55-23.43,11.63-12,16.07-20.13,16.07-29.09,0-10.33-5.2-14.85-21.12-18.67-4.6-1.08-8-2.38-9.73-3.6-6.59-4.74-13.52-8.99-20.74-12.71-3.93-2.07-7.74-4.37-11.41-6.89-6.35-5.2-13.09-17.22-17-30.08-8.42-27.94-9.11-29.55-14-33l-3.29-2.3.46-4.67c1-10.41,3.83-16,12.17-24.11,6-5.82,11.48-10,20.36-15.31,5.59-3.45,6.66-3.75,8.88-3.29,2.98.4,5.99.57,9,.53,5.82,0,7-.23,10.48-2,2.88-1.69,5.53-3.75,7.89-6.12,5.13-5.21,5.82-5.67,18.14-11.18,13-5.74,20.67-8.42,33.22-11.25,12.17-2.76,17.53-4.59,19.68-6.58,3.36-3.14,11.78-28.1,13.24-39,1.49-11.77-1.34-27.46-6.7-35.73ZM548.19,462.18c2.6-2.68,9.41-6.58,14-8s9.56-1.22,11.17.38c2.45,2.45,5.13,12.1,5.59,19.52.38,6.36.23,7-1.38,9.27-2.83,4.28-5.74,5.51-12.86,5.51-5.51,0-6.51-.23-9.11-2-3.75-2.45-7.58-9.95-8.88-17.15l-.92-5.05,2.39-2.48ZM462.98,510.86c.31-5,.61-5.89,1.61-5.89,1.01.16,1.93.68,2.6,1.45,1.15,1.23,1.22,2.76.92,16-.31,13.4-.54,15.23-2.53,22.51-3.82,13.93-10.4,27.14-18.36,37.14-6.81,8.35-22.43,20.44-40.8,31.46-4.13,2.45-8,4.52-8.5,4.52-1.22,0-7.27-6.51-15.92-17.15-9.87-12-9.64-11.4-4.59-12.4,32.84-6.27,50.6-13.62,64.68-26.79,13.02-12.27,18.89-26.58,20.89-50.85ZM437.88,657.61c1.43,3.55,2.68,7.18,3.75,10.86,0,.85-1.22,1.54-4.44,2.3-7.73,2-11.63,2.22-12.63,1s-6.66-17.38-6.66-19c0-.46.69-1.3,1.61-1.68,2.68-1.46,10.18-3.52,12.4-3.37s2.3.55,5.97,9.89ZM437.5,646.35c.15-.07,7.35-2.29,16.07-4.9s17.76-5.28,20.14-6c3.29-1.15,4.51-1.23,5.2-.62,1.6,3.65,2.96,7.41,4.07,11.24,1.91,5.66,3.21,10.48,3.06,10.64-.92.92-37,10.25-39.65,10.25-1.3,0-1.92-.46-2.6-2.68-.46-1.45-2.15-6-3.68-10.18-1.46-4.03-2.61-7.37-2.61-7.75h0ZM420.05,672.15c0,.84-15,.76-18-.15-2.61-.69-16.61-11.18-17.15-12.71-.15-.54.69-1.3,1.76-1.68,1.61-.62,24.5-5.52,26.41-5.67.31-.08.77.61,1.15,1.53.93,2.37,5.83,18.14,5.83,18.68h0ZM395.93,672.46c4.56,2.9,9.83,4.5,15.24,4.61,2.06,0,3.9.3,4.21.69.53.84-2.76,3.29-10.11,7.58-4.49,2.88-8.81,6.02-12.93,9.41-10,8.11-14.32,11.1-16.16,11.1-2.14,0-5.66-5.74-14.08-22.66-7.2-14.62-13.7-29.7-14.47-33.91-.53-2.75.31-3.9,2.76-3.9.92,0,1.76,1.76,3.37,7,2.75,8.88,6.2,16.08,10,20.9,2.84,3.6,5.59,5.74,6.36,5.05.15-.23-1.53-3.52-3.91-7.5-8.19-13.47-8.49-15-2.14-9.11,7.81,7.2,17.45,13.7,19.37,13.09.46-.15-1.31-2.07-3.75-4.28-8.42-7.12-15.85-14.55-19.45-19.37-4.74-6.28-4.74-7.66.46-7.81,1.92-.08,3.37.92,8.42,5.44,3.45,3.13,10,9.18,14.7,13.47,3.87,3.61,7.93,7.02,12.16,10.2h-.05ZM326.5,608c4.9,1.61,9.73,3.37,10.72,3.91l1.69.84-2.76,1.91c-2.53,1.69-2.91,1.76-4.29.84-4.13-3.13-13.24-6.12-18.37-6.12-1.84,0-2.14-.31-2.14-2-.09-.91.13-1.82.61-2.6.77-.84,4.82,0,14.54,3.22h0ZM316.4,600.42l1.76,1.08-2.07-.16c-.93-.06-1.81-.47-2.45-1.15-.38-1.12.54-1.07,2.76.23h0ZM336.15,638.24c-.31-2.37-.23-2.22,1.84,1.68,1.2,2.32,2.61,4.53,4.21,6.59,1.91,2.22,4.44,7.65,5.58,12.09.46,2.14.16,2.22-7.5,3.29l-4.59.54.46-2.61c.61-2.98.61-17.75,0-21.58h0ZM347.78,663.42c.66.12,1.26.47,1.69,1,.61.76.69,1.38.31,1.76s-5.82,1.53-12.1,2.6-11.86,2.07-12.4,2.3c-.69.3-1,1.83-1,5.51,0,3.21-.3,5.59-.84,6.12-.76.77-.61,1.07.54,2,.92.62,1.76,2.76,2.52,5.9l1.08,4.82,2.83.23c4.45-.06,8.9-.36,13.32-.92,17.83-1.91,19.06-2.07,18.52-1.38-.38.31-9.26,1.61-20,2.83l-19.36,2.15-.31-2.15c-1.38-7.19-3.14-28.32-2.37-28.55.25-.08,26.77-4.14,27.57-4.22h0ZM335.31,679.73l-6.66.46v-3.07c0-3.52-.54-3.21,10.18-5.43s12.55-2.3,13.85-.23c.54.92,2.61,5.13,4.44,9.49,2.3,5.36,3.14,8,2.53,8.27-.69.53-9.8,1.53-22.35,2.6-2.6.23-5.05.15-5.59-.15s-.92-2-1.07-3.75l-.23-3.14,6.28-1.53c2.32-.5,4.6-1.19,6.81-2.07,1.3-1.3-1.99-1.91-8.19-1.45h0ZM360.42,639.54c-2,1.07-16.54,3.9-17.69,3.44-.92-.3-6.89-15.76-7.88-20.43-.54-2.07-.31-2.45,2.22-4.06,3.49-2.02,7.18-3.7,11-5,1.69-.61,11.48-.61,11.48,0,0,.31.54,3.91,1.07,8.12,1.57,11.11,1.51,17.09-.2,17.93h0ZM358.5,608.69c-5.82,0-7-.69-4.28-2.45,6.58-4.44,19.74-7.42,23.42-5.51,2.14,1.15,1.68,2-1.53,2.91-2.58.79-5.11,1.74-7.58,2.83-3.08,1.64-6.55,2.41-10.03,2.22h0ZM362.1,597.9l3.37-3.29c1.18-1.22,2.48-2.3,3.9-3.22.85.36,1.61.91,2.22,1.61,3.22,2.91,2.37,3.67-5.51,4.51l-3.98.39ZM331.4,80.82c3.37-1.76,4.75-2.07,10-2.07h6.2l-2.91,3.22c-6.74,7.27-8.65,16-6.36,28.09.43,1.75.66,3.55.69,5.36-.46.61-13.85-6.51-16-8.42s-2.29-2.61-2.29-6.43c-.04-9.04,3.86-16.23,10.67-19.75ZM148.98,253.89c2.22-10.64,2.53-20.82,1.07-36.13-.52-5.85-.67-11.73-.46-17.6.54-9.34,1.15-10.72,9.88-24.19,7-10.87,10-17,10-20.21-.3-2.56-.89-5.08-1.77-7.5-3.72-10.49-3.32-13.19,4.48-30.93,2.61-6.05,5.36-12.4,6-14.31,1.37-3.83,2-3.6,3.59,1.14,1.07,3.45.31,7.12-3.59,17.38-1.61,4.29-2.91,8.65-2.91,9.87s1.3,5.13,2.83,8.81c4.13,9.57,4.51,11.86,4.51,23.42v10.57l-3.75,11.09c-3.36,9.8-3.82,12.1-4.13,18.38-.38,8.34.46,13.47,3.37,19.52,1.84,3.9,4.36,7.12,4.36,5.58-.58-2.05-1.29-4.05-2.14-6-2-5.06-2.07-6-2.14-16.08v-10.75l4.13-11.79.15-.54c4.14-12.17,4.21-12.48,4.75-22.73.61-14.32,1.53-22.36,2.91-25.65.69-1.6,3.59-8,6.66-14.31,6.5-13.78,7-16.69,4.36-25-1.38-4.37-1.68-6.82-1.68-14.93,0-9.57,0-9.87,2.29-14.47,1.23-2.52,4.52-8.26,7.35-12.7,8.19-13.09,8.8-14.63,9.49-23.28.23-4.13.54-7.88.61-8.26.08-1.15,2.07,1.84,4.67,6.89,5.29,10.33,6.13,26.25,2.15,39.5-2.15,7.57-2.22,11.4,0,23.8.8,4.92,1.34,9.87,1.6,14.85l.46,8.65-3.67,10c-4.03,10.8-7.37,21.85-10,33.07-1.53,6.51-1.92,10.33-2.22,21.28-.31,10.18.08,16.3,1.3,20.21.49,1.53,1.3,2.94,2.37,4.13l1.69,1.76-1.07-4.28c-.82-4.78-1.28-9.62-1.38-14.47-.77-17.84,2.45-34.37,10.94-56.49,4.52-11.49,4.83-12.94,5.13-19.29.19-4.94-.06-9.89-.76-14.78-1.84-12.48-2.07-18.29-1.23-24,.77-5.06,1.92-8.5,2.68-7.81.97,2.68,1.79,5.42,2.45,8.19,5.28,20.28,7.81,24.8,22.81,40.8,11.89,12.67,19.98,28.42,23.35,45.47,3.6,17.37,3.37,39.42-.54,52.74-3.06,10.18-3,9.41-1.14,7.81,1.53-1.23,4.44-9.19,5.81-15.62,3.6-16.46,1.92-40-4.28-58.94-4.75-14.39-9.88-22.89-21.9-36-13.77-15-18.75-24.42-21.51-41-3.59-21-1.68-38.35,5.51-51.13,2.91-5.28,12-14.85,12-12.63,0,.15-.53,2.22-1.07,4.51-.76,2.84-1.07,7.74-1.07,16.16,0,11.4.15,12.63,2.45,21.58,3.95,15.43,9.69,28.82,16.89,39.82,1.91,2.91,9,10.87,17.07,19.06,15.92,16.16,18.83,19.68,24.42,28.25,13.39,20.52,17.37,38.2,15.31,66.44-.38,4.9-.38,7.58.07,7.2,2.68-2.91,4.37-20.29,3.14-32.61-2.29-23.35-11.63-42-32.15-64.22-8.65-9.34-10-11.49-11.48-17-2.37-9.41-1-21,3.37-28.17,2.45-4,9.41-11.71,10.64-11.71.31,0,.69,1.23.69,2.6.23,27.64,8,47.08,22.5,56.19,2.53,1.61,7.28,4.44,10.57,6.43,7.78,4.8,14.65,10.94,20.28,18.14,5.05,6.96,8.95,14.69,11.56,22.89,2.22,7.88,2.22,19.14,0,27.63-2.22,8-2.22,14.78-.08,19.14,1.08,2.14,5.82,7.5,14,15.62,6.89,7,13,13.7,13.93,15.38,1.84,3.68,3,10.49,2.38,14.24l-.46,2.76-4.21-4.75c-9.57-10.87-23.35-19.52-34.83-21.89-5.59-1.15-6.36-1.15-11.71,0-16.16,3.29-36.36,18.75-48.61,37.2-2.6,4-5.21,7.5-5.59,7.88-.69.54-4.44-.76-13.32-4.59-39.5-17.07-69.66-24.19-91.93-22-17.38,1.84-27.79,6.89-35.83,17.61l-3.82,5.05-.16-3.44c-.14-1.79.61-7.46,1.61-12.51ZM150.82,436.89c-6.51-90.33-7.27-126.54-3.29-150.11,2.75-15.92,8.42-24.8,19.82-30.85,7.73-4.14,11.56-4.75,28.78-4.67,13.63.08,16.61.31,25.26,1.91,3.37.69,6.66,1.38,10,2.3,14.82,3.6,30.13,8.91,47.59,16.6,16.07,7,14.47,6.81,16.92,2.37,8.68-16.14,21.89-29.39,38-38.12,10.56-5.51,17-6.73,25.18-4.59,7.74,2,19.6,9,26.72,15.46,6.2,5.82,13,16.77,16.38,26.64.69,2.14,2.45,11.79,3.9,21.51,1.23,8.65,2.68,17.3,4.37,26,6.47,34.68,15.98,68.72,28.43,101.73,8.42,22.28,9.72,26.26,13.16,39.81,5.21,20.51,5.82,24.49,5.82,43.17v.77c0,12.55-.31,17.07-1.22,21.43-2.61,11.56-6.82,19.52-14.93,28.09-12.32,13-31.46,22-57.79,27-6.2,1.23-12.33,2.68-13.71,3.3-1.3.45-8,5.81-14.85,11.78l-12.55,10.72-13.93-6.74c-7.58-3.67-14.78-7-15.85-7.11s-7.88.68-15,2.14c-18.6,3.6-27.86,4.74-39,4.74-11.79,0-17.07-1-32.31-6.12-24.34-8.11-31.53-13.09-34.6-23.73-1.2-4.38-2.11-8.83-2.75-13.32-2.38-14.77-4.14-35.82-4.52-55.19-.76-35.9,2.14-55.5,11.18-74.79,3.49-7.81,8.48-14.86,14.69-20.74,4.52-4.29,5.59-5.51,4.37-5.51-1.76,0-7.27,4.13-11.1,8.42-10.57,11.63-18.3,30.85-21.89,53.81-3.14,20.06-1.77,56.65,3.29,88.41.76,5.06,1.38,9.5,1.22,9.95-.38,0-3.21-4.59-6.58-10.64-3.6-6.27-9-15.61-12.17-20.89-3.45-5.74-5.82-10.57-6.05-12.25-.69-5.13-1-5.82-3.83-9.42-3.21-4.13-2.83-1.76-4.44-30-.26-7.57-1.56-27.01-2.71-43.24v-.03ZM309.89,600.35c0,.92-1.3,7.19-6.27,30.08-.16,1.15-.69,2-1.15,2-.84,0-55.8-26.71-55.8-27,1.64.02,3.28.2,4.89.54,7.51,1.14,24.88-.77,47.92-5.52,6.97-1.33,10.41-1.38,10.41-.1ZM33.33,426.28c1.83-1.92,12.09-7.5,16.22-8.81s5.82-1.22,9.34.46c4.21,2.15,13.4,8.58,14.09,9.95s-.31,3.53-4.36,9.57c-1.54,2.3-3.37,4.21-3.91,4.21s-3-1.91-5.28-4.21c-2.57-2.58-5.42-4.86-8.5-6.81-2.45-1.53-4.59-3.21-4.82-3.75-.46-1.38-2.14-1.38-3.29,0-.69.77-2.3,1.07-6,1.07h-5.05l1.56-1.68ZM12.81,447.79c1-7.2,6-13.63,11.1-14.47,1.46-.23,3.22-.54,3.75-.69,2.3-.46,10.72-.31,15.46.38,3.22.22,6.3,1.37,8.88,3.3,7,4.89,16.46,17.52,17.23,23.19.46,3.37-.54,4.13-5.74,4.9-3.14.38-3.22.38-7.43-4.06-5.82-6.2-12.09-10.72-15.54-11.25s-5.89-2.45-7.5-6c-.69-1.53-1.68-2.75-2-2.6-.46.08-.92,1.84-1.07,3.83l-.15,3.59-5.9,1.15c-3.29.61-7.27,1.3-8.73,1.61l-2.83.46.47-3.34ZM4.31,469.07c.08-8.12.85-10,5.29-12.33,7.8-3.9,28.47-5.35,34.29-2.29,3.75,1.83,12.48,11.17,14.39,15.31,2.45,5.35,2.37,8.49-.38,11.1l-2.14,2.06-3.78-2.45c-10.18-6.5-16.91-8.26-29.16-7.73-7.27.38-8.65.61-12.63,2.6-3,1.54-4.67,2-5.21,1.54-.36-.46-.67-3.91-.67-7.81ZM34.86,528.16c-13.25-11.48-23.58-22-26.64-27.1-2.3-3.9-2.45-4.89-2.76-10.71l-.23-6.36,2.38-2.44c3.9-4.06,9-5.67,18.29-5.67,11.87,0,20.44,3.06,26.26,9.42,3.75,4,3.9,7.27.61,12.17-5.36,8-11,9.57-19.67,5.51l-4.83-2.3-3.52,1.84c-2.05,1.16-3.99,2.5-5.81,4-3.53,3-.85,2.76,4.89-.46l4.44-2.53,4.6,2.22c6.5,3.07,11.48,3,16.07-.23,6.36-4.36,9.34-10.41,8.58-17.07-.39-3.13-.23-3.36,2.52-6.12,2.53-2.37,2.91-3.21,2.91-5.74-.04-1.96-.27-3.91-.69-5.82-.76-3.14-.15-3.9,2.76-3.9,1.71-.26,3.37-.81,4.9-1.61,2.68-1.38,3.44-1.45,5.89-.69,3.75,1.15,5.59,1.07,10.26-.3,4.9-1.46,10-6.28,10-9.34v-2.07l-2.68,2.6c-3.59,3.68-8.54,5.72-13.68,5.61-4.44,0-4.51-.08-6.2-2.76-1-1.53-2.9-5-4.36-7.88l-2.6-5.13,3.83-4.9c2.13-2.73,4.59-5.17,7.34-7.27,3.22-2.3,4-2.45,7.81-2.22,2.56.09,5.04.94,7.12,2.45,4.21,3,6.81,7,8.27,12.86,1,4.21,1.07,5.89.38,11.94-.46,3.9-1.22,7.88-1.76,8.95-1.22,2.68-7.35,5.67-15.69,7.58-8.88,2.15-8.65,2.07-8.65,2.83,0,2.38,7.5,1.46,18.29-2.22l6.43-2.14,2.68,2.07c19.52,14.7,27.79,21.05,28.71,22s.53,1.69-2.07,5c-7.19,9-19.6,25.87-23.42,31.69-2.46,3.87-4.54,7.97-6.2,12.25-1.23,3.21-3.14,8-4.37,10.41-2.45,4.9-7.65,10.26-10,10.26-4.14,0-13.94-6.82-29.86-21-5.99-5.05-15.17-13.08-20.53-17.68ZM81.17,577.16c-1.84-2.29-5.44-6.35-8-9.11l-4.74-5,3.21,2c5.59,3.37,11.1,5.59,13.78,5.66,5.66.23,12.48-7.27,15.84-17.37,3.45-10.49,11.26-23.43,24-39.73,3.9-5,8.11-10.72,9.49-12.79l2.45-3.82,7.2,5.89c3.64,2.91,7.09,6.06,10.33,9.42,2.22,2.37,3.29,4.28,3.29,5.59,0,3.06-3.37,7.5-15.15,20.2-6,6.51-15.16,17.38-20.21,24.19-13.55,18.3-19.22,23.35-26.33,23.35-4.6.01-11.1-3.66-15.16-8.49h0s0,0,0,0ZM169.66,651.49c-8.19-12.78-27.38-30.62-57.57-53.51l-12.4-9.33,2.45-.85c3.68-1.14,10.41-7.8,18.53-17.91,14.47-18.14,19.13-23.65,28.63-33.45,7.19-7.35,10.1-9.87,11.17-9.72s2.91,2.68,6.28,8.27c8.42,14,16.23,29.77,19.6,39.49,4.59,13.4,9.49,26.34,13.7,36.06,1.94,4.65,4.11,9.19,6.5,13.62,3.3,5.67,9.57,12.56,11.49,12.56,1.45,0,1.37-.08-3.07-6-4.89-6.35-9.41-15.54-16.3-33.07-3.37-8.57-6.12-15.77-6.12-16,1.42.89,2.72,1.95,3.9,3.14,4.13,3.75,7.81,5.74,28.48,15.16,7,3.14,23.8,11.17,37.43,17.76,33.22,16.15,41.1,19.75,42.18,19.36.91-.38,2.37-5.28,4.28-14.92,1.76-8.27,2.22-9.11,5.44-9.11,3.44,0,12.78,3.06,14.54,4.82.69.69,1.53,3,2,4.9.92,4.82,1.84,40,1,40-.39,0-3.52.53-7.12,1.15-5.44.91-6.74,1.45-8.42,3.21l-1.92,2.14h-54.8c-38.66,0-50.37-.07-56.57-.61-1.83-.17-3.65-.45-5.44-.84-10.26-2.07-18.22-4.75-20.9-7-1.31-1.22-4.37-5.35-6.97-9.33h0ZM318.54,695.66l-11.4.38c-6.13.31-14.16.69-17.76.84s-6.89.16-7.43-.23c-.69-.53-.69-2.6-.07-10.79.53-5.59,1.15-10.56,1.45-11.1.61-.84,7.35-1.38,27.41-1.84,5.12-.15,5.51-.07,5.89,1.38.15,1,.54,4.9.84,8.88s.54,8.35.69,9.8l.38,2.68ZM279.12,674.91l-.46,7.74c-.3,4.28-.61,9.11-.84,10.79l-.38,3.06h-7.46c-4.06,0-7.58-.23-7.74-.53-.3-.46.08-4.52,1.38-17.3l.31-3.76h15.23-.04ZM259.37,685.91l-.84,10.56h-6.35c-8.58,0-42.64-1.53-43.1-1.84-.38-.53-1.38-20.59-1-21.35.22-.39,2.37-.39,4.82-.23s14,.76,25.64,1.07,21.36.92,21.43,1.07c.02,3.59-.18,7.18-.6,10.74v-.02h0ZM204.79,672.07v10.72c0,12.17.08,12-6.12,11.1l-3.22-.38v-23l2,.38c1.08.15,3.14.53,4.67.84l2.67.34ZM191.86,681.49v11.58l-3.37-.54c-2-.23-5-.76-6.81-1.15l-3.3-.69-2-11.33c-1.07-6.2-2.14-12.4-2.37-13.7l-.3-2.29,7.73,2.83c4.36,1.61,8.42,3.06,9.18,3.29,1.08.44,1.24,1.74,1.24,12ZM155.11,827.85c-24.72-8.42-38.76-17.07-42.13-25.95-3.14-8.12,2.22-19.29,11.48-24,2.68-1.45,3.75-1.53,11.71-1.15,7,.31,10,.69,14.39,2.3,13.47,4.52,31.16,15.16,49.6,29.78,10.72,8.49,18,12.63,31.62,18,5,2.06,7.42,3.36,6.81,3.67s-16.84.77-36.28,1l-35.29.54-11.91-4.19ZM235.72,857.85c-10.41-1.68-23.27-4.44-33.07-7-8-2.14-28-8.57-29.47-9.57-1-.61,2.53-1.15,13.24-1.83,20.44-1.31,57.72-4.44,59-5.06,2.14-.76,4.67.16,15.54,5.59,17.15,8.65,29.78,17.07,28.48,19.14-1.36,2.18-36.57,1.34-53.72-1.27ZM293.72,836.34c-.69,10.8-1.3,19.68-1.45,19.83-.38,0-2.3-1.45-4.6-3.37-8.34-6.81-26-16.3-50.21-26.71-19.37-8.35-23-10.41-35.6-20.21-21.35-16.69-40.49-28.1-52.89-31.54-3.52-1-4.36-1.45-2.83-1.45,5.13-.08,28.78,9.11,46.31,18.06,6.05,3.14,11.25,5.44,11.56,5.28.76-.92-4.59-4.9-11.87-9.11-10.21-5.72-20.92-10.51-32-14.31l-8.16-2.74,3.75-1.14c6.27-1.77,19.9-4.75,25.49-5.36,6.3-.66,12.66-.43,18.9.69,16.08,2.68,48.69,13.24,63,20.43,6.36,3.22,9,5.67,15.77,14.09,2.91,3.67,7.73,9.26,10.72,12.32l5.36,5.51-1.25,19.73ZM309.89,834.07l-2.45,3.83c-2.67,4.13-6.66,8.57-9,9.79s-1.84-.53,1.46-5.36c3.67-5.35,7.19-12.4,7.19-14.62,0-3.06-2-6.35-5.89-10-2.15-2-6.13-5.74-8.81-8.26-3.67-3.62-7.09-7.48-10.25-11.56-2.69-3.68-5.71-7.11-9-10.26-7-6.2-24.49-13.78-48.83-21.05-26.87-8.11-37.36-8.88-57.95-4.21-19.29,4.29-23.81,5.2-24,4.9-.69-.54,2.07-2.76,11.26-9,13.55-9.11,15.61-9.95,25.49-10.64,10.31-.91,20.68-.93,31-.08,12.11.66,24.08,2.85,35.64,6.52,25.41,7.73,44.24,17.45,54.65,28.32,8,8.42,9.42,14.16,9.49,39.27v12.41ZM296.98,828.84v-11.77l3.21,3.45c3,3.06,3.29,3.67,3.29,7,0,2.61-.69,4.75-2.37,8-3.77,7.25-4.13,6.72-4.13-6.68ZM413.1,838.33c-2.68-3.75-14.62-30.84-14.62-33.06,0-1.76,25.87-27,45.39-44,11.41-10,28.33-22,38.2-27,5.89-3,28.71-10.95,28.71-10,0,.15-3.68,2.14-8,4.44s-9.57,5.28-11.41,6.43c-2.75,1.84-3,2.07-1.61,2.3.85.15,5.82-1.69,11-4.14,10.72-5.06,21.92-9.06,33.42-11.93,9.11-2.22,10.87-2.3,7.88-.46-1.15.69-5.74,3.29-10.18,5.82-16.53,9.26-27.25,18.45-65.29,56.18-30.62,30.32-41.57,41.8-48.15,51-4.14,5.65-4.36,5.88-5.36,4.42h.02ZM399.78,817.82c-.15.15-2.45-1.07-5.13-2.76l-4.82-3.06,2.3-2.29c1.3-1.31,2.68-2.3,3.13-2.15,1.13,1.57,2.04,3.3,2.68,5.13,1.21,2.76,1.97,5.05,1.82,5.13h.02ZM513.38,803.96c-5.9,5.13-20.9,15.77-28.94,20.6-5.24,3.07-10.69,5.78-16.3,8.11-15.54,6.28-39.42,12.4-46.93,12-3.13-.23-3.67-.46-3.9-1.84-.23-1.84,1.76-6,4.82-9.95,1.3-1.53,8.5-9.42,16.08-17.45l13.85-14.55h32.38l32.46.08-3.52,3ZM518.38,796.62c-3.75.76-10.33.76-12.24-.08-.92-.31,1.6-.54,6.81-.54,6.23,0,7.53.16,5.38.62h.05ZM551.53,722.52c4.74-.92,11.56-1,14.93-.16,4.06,1.1,7.6,3.59,10,7.05,3.36,5.43.53,15.77-7.58,26.64-8.42,11.4-26.1,25.95-40.65,33.22-3.83,2-5.43,2.29-14.24,3-5.51.39-18.21,1.38-28.32,2.15s-20.21,1.6-22.43,1.76-4.21,0-4.21-.31c0-1.76,36.67-36.9,50.37-48.3,13.83-11.73,33.66-23.5,42.08-25.05h.05ZM535.33,707.67c6.5,3.9,9.34,6.12,8.95,6.89-.3.38-2,.69-3.82.69-13.63,0-44.48,7.65-58.87,14.54-12.25,6-32.3,20.82-48.91,36.36-15.39,14.24-46.47,45-46.47,46,0,.45,2.45,2.67,5.44,4.89,1.86,1.39,3.65,2.87,5.36,4.44,0,.54-6-1.6-9.57-3.52-3.75-2-4.44-2.75-6.66-7.12-3.52-7-3.83-10.41-1.53-15.23,4.05-8.11,20.66-25.8,37.43-39.73,21.2-17.6,47.46-34.14,66.82-42.1,11-4.59,33-9.41,41.42-9.18,5.2.23,6.12.54,10.41,3.07ZM497.82,665.57c6.2,16.07,13.55,27.32,22,33.37.76.61,1.22,1.23,1,1.46-2.13.67-4.3,1.18-6.5,1.53-14.32,2.45-31.62,7.88-43.64,13.7-14.85,7.27-46.15,29.16-61.46,43-11.41,10.33-26.18,26-30.16,32l-1.08,1.7-5.74-2.6c-14.08-6.51-25.56-9.5-32.45-8.65-6.13.76-14,5.58-22.74,14.08-2,2-3.82,3.52-4,3.29-.55-1.38-.96-2.82-1.22-4.28-.65-2.48-1.61-4.86-2.85-7.1-3.91-6.66-20-19.91-30.55-25.34-8.26-4.13-42.18-14.7-52.43-16.23-6.28-1-43.18-1.3-50.68-.53l-5.28.61,2.6-4.59c2.45-4.44,2.53-4.67,2.15-10.72-.46-6.74.76-24.42,2.14-31.23l.84-4.29h3.29c1.76,0,8.12.77,14,1.61,23.66,3.29,38,4,80.3,3.44,21.59-.23,40.19-.46,41.34-.53,1.83-.23,2.22.07,2.75,2.06.46,1.46,1.15,2.38,1.92,2.38.61,0,6.35-.77,12.63-1.76q29.39-4.75,30.92-3.45c1.33,1.53,2.56,3.14,3.68,4.82,5.89,9.19,8.26,8.88,22.35-2.37,8.8-7,31.61-22.73,35.13-24.26,2.63-.86,5.3-1.58,8-2.15,8.5-1.68,32.84-8.42,46.08-12.48,6.28-2.06,12.25-3.59,13.25-3.52,1.57.14,2.19,1.05,4.41,7.03h0ZM486.49,635.07c2.22,2.37,4.9,8.11,6.66,14.47,1.38,4.9,1.15,5.51-2,6.27-1.76.39-1.91.23-2.68-2.67-.84-3.22-5-17.53-5.66-19.14s1.77-.93,3.68,1.07ZM523.39,576.36c-.31.69-3.14,2.6-6.36,4.28-9.18,4.67-17,10.11-22,15.31-1.52,1.66-3.13,3.25-4.82,4.75.34-1.42.8-2.8,1.38-4.13,2.45-6,2.83-7.35,1.91-7.35-1.15,0-4.13,5.51-7.27,13.39-2.45,6.2-4.52,15.08-6,25.49-.53,3.3,4.67,1.69-54.73,16.62-28.65,7.22-43.52,10.66-44.52,10.21-.69-.23-4.29-3.3-8-6.59l-6.81-6.12-.39-4.36c-.3-2.45-.53-9-.61-14.78l-.19-10.41,2.83-1.61c3.77-2.06,7.78-3.65,11.94-4.74,1.76-.46,2.6.23,8.58,7,3.67,4.13,7.42,7.73,8.34,8,2.75.77,19.21-8.73,35.21-20,14.16-10,24.37-22.38,30.62-37.13,1.61-3.75,3.37-8,4-9.11l1.07-2.14-.46,2.14c-1,5.13-5.66,17.91-9.34,25.57-5.07,10.38-11.48,20.06-19.06,28.78-9.33,10.79-4.21,8.8,6.36-2.45,9.18-9.87,15.84-21.43,20.74-36.13,4.75-14.16,5.51-19.83,5.82-42.79l.15-20.52,3.52-.45c2.68-.46,5.32-1.13,7.89-2,.07-.08.61.15,1.3.38s2,2.14,3,4.13,8,14.39,15.39,27.48c16.83,29.66,21.04,37.78,20.51,39.31v-.03ZM543.59,575.67c-2.76,1.51-5.85,2.3-9,2.3l-4.82.07-2.38-4.67c-4.9-9.41-14.92-27.4-23.73-42.1-10.64-18-15.23-27.1-15.23-30.31-.16-1.58.66-3.1,2.07-3.83,2.6-1.91,19.52-10.18,20.74-10.18.84.26,1.59.76,2.14,1.45.77.69,2.45,4.14,3.83,7.35s4.59,10.8,7.35,16.69,6.58,14.85,8.65,19.83c4,10.1,5.05,12.24,13.4,25.87,3.21,5.28,5.89,9.95,5.89,10.33.05,1.33-4.47,5.01-8.91,7.23v-.03ZM602.46,548.11c-7.58,1.3-18.14,5.13-31.39,11.18-7.65,3.52-12.7,5.43-13.93,5.28-1.53-.15-2.75-1.53-6.12-6.66-8.88-13.86-11.41-18.22-13.93-24.73-1.38-3.67-5.82-13.39-9.65-21.58-8.49-18-10-21.51-9-22.58.46-.39,5-1.92,10.33-3.52s10.49-3.07,11.48-3.53c3-1.22,5.59-.91,6.13.62.23.76,2.14,3,4.28,5,3,2.68,5.59,4.14,10.95,6.2,3.9,1.53,7.27,3.14,7.58,3.6s.53,2.45.53,4.59c-.11,4.54,1.74,8.91,5.06,12l2.9,2.91-1.6,6.28c-1.38,5.58-1.46,6.73-.62,10.33,2.15,9.57,10.72,13.32,21.74,9.65l4.29-1.54,2.91,2.3c1.53,1.23,2.83,2.45,2.83,2.76s-2.17.94-4.77,1.47v-.03ZM632.16,511.67c-1.45,7.51-6.66,22.74-9.34,27.41-2.07,3.52-6.12,6.2-9.41,6.2-.92,0-4.14-1.68-7.2-3.68l-5.43-3.75-3.07,1.38c-4.28,1.92-11.25,1.84-13.93-.15-4.21-3.06-5-4.9-5-11.64,0-4.51.38-7,1.22-8.49,1.15-2.22,1.46-2.22,11.18-3.75,5.43-.85,10.1-1.61,10.48-1.61s-.23,1.38-1.07,3.06c-2.29,4.44-2.22,10.95.08,14,3.06,4.13,5.59,4,3.37-.15-1-1.77-1.23-3.53-1-6.59.38-5,3-11,4.9-11,2.19.46,4.33,1.18,6.35,2.14,1.94.89,3.94,1.61,6,2.15,1.46-.08-4.59-5.21-8.27-7l-3.36-1.68-10.64,1.45c-18.45,2.45-18.83,2.45-20.75,1.23-1.19-.85-2.16-1.98-2.83-3.29-1.53-3-1.68-8.35-.31-9.72.54-.62,5.44-2,10.8-3.14s11.48-2.61,13.62-3.29c5-1.53,5.05-1.53,5.05.76.14,3.75,1.55,7.34,4,10.18,1.23,1.46,2.53,2.45,2.84,2.15s-.39-2.91-1.38-6c-2-5.81-2.3-7.88-1.15-8.64,2.47-.04,4.94.22,7.35.76,10.79,1.91,12.09,2.07,12.09,1.22,0-.45-4.59-2.29-10.25-4.13l-10.12-3.22-6.51,2.06c-7.66,2.45-21.36,5.59-27,6.2l-4,.46,3.6-2c1.74-.9,3.41-1.92,5-3.06,2.22-2,4-6.35,4.44-10.79.16-1.69.47-3.36.92-5,.46-.76,7.81-4.13,16.15-7.42l3.45-1.38-1.08,1.61c-1.76,2.45-1.45,8.19.54,12.47,3,6.43,5.36,5.51,3-1.14-1.23-3.53-1.46-8.81-.39-10.87.69-1.23,1.61-1.31,7.2-1.31,5.89,0,7.73-.61,5.89-1.76-2.92-.79-5.89-1.4-8.88-1.83l-8.11-1.3-9.57,4.89-9.49,5-1.69-5.51c-3.29-10.34-3.36-9.8,1.08-13,7.27-5.52,10.33-6.74,16.15-6.43,3.9.22,6,.68,8.42,2.14,7.27,4.29,21.81,22.73,25.11,31.84,2.1,6.05,2.71,23.81.95,32.99v-.03Z"/>
  <path class="cls-2" d="M480.98,540.07c-.23.46-2.07,6.2-4.06,12.79-8.19,27.21-19.21,52.46-29.94,68.31-5.51,8.19-6.2,9.57-4.06,8.42,4.29-2.22,13.09-15.23,20-29.24,9.27-19.06,21.21-56.19,19.14-59.86-.39-.69-.78-.85-1.08-.42Z"/>
  <path class="cls-2" d="M375.8,383.79c-5.59.54-17.07,1.61-25.57,2.38s-21.58,2.14-29.16,2.91-21.43,2-30.93,2.9c-25,2.07-35.9,3.3-44.62,5.29-2.82.62-5.61,1.38-8.35,2.29-9.26,3-13.32,4.9-17.22,8.65-19.06,17.76-28.48,63.54-25.34,122.33.62,11.94,1.3,20.74,2.38,27.25,1.91,12.4,5,16.38,10.71,17.76,6.59,1.6,16.38-1,51.83-13.86,31.92-11.48,45.77-16.07,57.94-19.29,20.67-5.2,21.89-5.36,53.66-5.28,20.9,0,31.62.3,40.73,1.22,18.14,1.76,22,1.61,27.25-.92s6.89-4.13,9.56-9.72c1.92-4.13,2-4.9,2.23-16.45,0-1.61.07-3.07.07-4.52,0-11.1-1.15-18.3-4.67-32.3-6.5-25.95-17.91-54.89-28.32-72.34-6.81-11.25-12.4-16.38-20-18.45-4.88-1.22-8.4-1.22-22.18.15ZM366.92,397.19l.84-9,5.06.46c2.83.23,7.27,1,10,1.53,2.26.53,4.44,1.33,6.5,2.38,1.46,1.22,1.46,1.53.69,7.27-.53,3.29-1.15,6.35-1.6,6.81s-2.53,1.15-4.9,1.3c-3.93.67-7.81,1.57-11.64,2.68-4.21,1.15-7.81,2.14-8,2.14s.16-1.37.92-3.21c.91-2.18,1.67-6.31,2.13-12.36ZM327.42,392.83c1.61-.46,8.35-1.46,14.85-2.22,16.31-2.07,16.69-2.07,19.14-2,2,.07,2.14.3,2.37,3,.23,3.22-1.07,13.93-2,15.39-.38.69-5.13,1.22-15.92,2-8.5.46-16.61,1.07-18,1.15-2.45.15-2.52.15-3-3.07-.33-2.77-.51-5.55-.54-8.34l-.08-5.2,3.18-.71ZM272.16,397.73c.91-.85,29.7-3.37,40.72-3.53l7.58-.07.53,2.68c.34,3.61.49,7.24.46,10.87,0,9.49.69,8.65-10.25,10.56-3.68.61-11.49,2.3-17.38,3.67-6,1.38-11.18,2.45-11.71,2.45-1.84,0-11.26-25.29-9.95-26.63ZM263.16,397.95l4,.16,1.92,3.9c1.91,4,5.36,14.93,4.82,15.46s-23,3.83-31.92,4.9l-7.73.85-1.76-2.07c-2.76-3.52-7.05-12.25-6.51-13.47,1.09-3.07,27.88-10.03,37.14-9.73h.04ZM221.75,410.66c.46,0,2.14,2.53,3.75,5.59,4.52,8.65,4.52,8.57.08,9.8-5,1.38-14.93,2.91-15.39,2.37-1.11-.99,9.84-17.76,11.52-17.76h.04ZM219.75,571.72c-.92,1.15-12.17,1.3-14.24.23-1.83-1-4.44-6.13-4.13-8.35.15-1.37,2.14-2.9,9.95-7.42,5.28-3.14,9.87-5.74,10.1-5.74s.77.38,1,1.07c.74,1.99-1.45,18.68-2.71,20.21h.03ZM254.98,560.54c-1.91,1.15-27.25,9.26-29,9.26h-1.9l.54-4.74c.76-7.73,3.83-21.36,4.82-22,1.57-.78,3.21-1.39,4.9-1.84,3.67-1.18,7.27-2.57,10.79-4.15,9.73-4.44,10.72-4.67,10.87-3.14.46,4.26-.38,26.23-1.02,26.61ZM326.55,494.71c-2.07-1.15-3.75-2.37-3.75-2.75,0-1,7.2-4.06,11.33-4.9,4.67-.85,20.06-.92,24.42-.16,6.35,1.23,11.79,3.68,15.15,6.89q3.14,3.06,3.14,8.19v5.09h-8.26c-9.27,0-21.05,1.15-24.81,2.37-2.14.62-2.29.92-1.91,2.76.31,1.53.08,2.22-.84,2.76-2.14,1.14-24.57,5.89-29.78,6.35-4.29.31-5.43.23-9.26-1.53-15.39-6.89-31.92-4.9-43.25,5.2-4.36,3.83-9.95,7-13.32,7.43-1.91.23-2.14.08-2-1.76.08-1.15,1.53-4.82,3.14-8.27,2.52-5.36,4.06-7.35,9.95-13.09,7.48-7.31,14.48-11.75,22.48-13.89,11.4-3.14,34-1.91,50.29,2.83,3.05.84,1.37-1.38-2.69-3.52h-.03ZM300.55,543.47l-18.52,6.74c-10.18,3.67-19.67,7-21,7.35l-2.45.61.53-8.57c.31-4.75.77-9.5,1-10.64l.53-1.92,10.8-.53c5.89-.31,13.85-1,17.53-1.53,9-1.31,9.64-1.31,10.71-.31.46.46.84,2.68.84,4.9l.03,3.9ZM302.7,526.17c-.43,1.4-1.25,2.65-2.37,3.6-1.77,1.15-17.92,2.6-28.94,2.68-7.81.08-12.63-1.23-12.63-3.37,0-1.38,5.51-4.9,10.87-6.89,7.35-2.83,20.36-3.21,28.4-.92,5.43,1.53,5.66,1.8,4.67,4.9ZM345.64,532.83c-.15.23-4.82,1.15-10.33,2.15s-14.78,3.06-20.67,4.51l-10.66,2.68.31-6.28c.38-7.57,1.53-9.79,5.35-10.41,8.28-1.18,16.47-2.94,24.5-5.28,7.27-2.52,7.73-2.52,8.65-1.38s3.39,13.55,2.85,14.01h0ZM367.92,532.14l-18.37.39-.39-1.69c-1.15-4.9-3.06-17.68-2.68-18.06.69-.77,5.67-1,19.22-1.15,6.81-.08,12.63.15,13,.38,1.84,1.15,9,18.37,8,19.29-.18.23-8.6.61-18.78.84h0ZM396.16,533.29l-5.51-.46-2.6-7.58c-1-2.84-1.85-5.72-2.53-8.65,0-1.22,8.19-.76,16.92,1.08,3.14.61,6.2,1.53,6.74,2,1,.76,7.27,13.31,7.27,14.46,0,.53-7.27.22-20.29-.85ZM423.87,535.74c-2-.23-3.75-.84-4.28-1.68-.92-1.23-3.14-8-3.14-9.57s2.45.38,6.81,5c5.05,5.49,5.21,6.79.61,6.25ZM432.29,535.97c-.38,0-1.37-1.38-2.22-3.14-.99-1.86-2.12-3.65-3.36-5.36-2.68-3.52-15.77-12-20.06-13-2.68-.61-17.53-2.3-20.51-2.3-1.12-.6-2.18-1.3-3.16-2.1l-2.84-2.22v-5.59c-.07-4.82-.38-6-2-8.57-2.6-3.9-7-6.89-14-9.34-5.06-1.68-6.66-1.91-15.39-1.91-11.94,0-19.29,1.68-25.95,6.2l-4.36,2.83-10.57-.84c-26.25-2.22-37.28.61-50.9,13.16-8.73,8-15,18.76-16,27.41-.46,4-1.07,4.51-9.18,6.58-5.36,1.38-5.82,1.69-7.28,4.29-1.83,3.14-5.13,5.51-16.53,11.86-4.82,2.68-8.12,4.06-8.5,3.75s-.92-4.51-1.3-9.26c-.77-12.25-.77-61,.08-70.73,1.3-14.31,5.43-34.6,8.72-42.18,1.23-2.91,1.38-3.06,5.51-3.44,7.83-.92,15.58-2.4,23.2-4.44,6.51-1.84,28-4.67,36.13-4.67,4.36,0,4.82.15,7,2.37l2.29,2.38,21.36-3.83c11.94-2.15,21.66-4.21,22-4.75.43-.99.64-2.06.61-3.14v-2.22l6.66-.53c3.6-.31,11.33-.39,17.07-.23,9.26.23,10.72.38,13,1.84l2.53,1.53,6.12-1.61c4.01-1.07,8.07-1.91,12.17-2.53,3.37-.53,6.82-1,7.66-1.15,1.38-.3,1.61-1.14,2.45-7.34.18-2.59.6-5.16,1.24-7.68.62-1,1.53-.38,4.6,2.91,7.34,8.27,17.53,26.79,24.49,44.4,9.57,24.26,18.68,57.26,18.76,67.74-.04,7.09-6.7,24.85-9.54,24.85h0ZM420.51,414.57c12.24,25.41,23.11,58.63,26.63,81.37,1.53,9.95,1.15,26-.68,30.16-1.31,3-5.29,8.42-6.21,8.42-.3,0,.77-4,2.38-8.88,4.21-12.56,4.05-17.38-.92-36.82-8.27-32.77-20.9-64.84-32.46-82.29-2.7-3.95-5.77-7.64-9.18-11-4.75-4.43-11.71-8.57-14.24-8.57-.61,0-.92-.38-.61-.84.84-1.38,11.63-.08,15.92,2,6.12,2.87,11.63,10.45,19.37,26.45Z"/>
  <path class="cls-4" d="M423.03,443.35c-7-17.61-17.15-36.13-24.49-44.4-3.07-3.29-4-3.9-4.6-2.91-.63,2.51-1.04,5.08-1.22,7.66-.84,6.2-1.07,7-2.45,7.34-.84.16-4.29.62-7.66,1.15-4.1.62-8.16,1.46-12.17,2.53l-6.12,1.61-2.53-1.53c-2.29-1.46-3.75-1.61-13-1.84-5.74-.16-13.47-.08-17.07.23l-6.66.53v2.22c.03,1.08-.18,2.15-.61,3.14-.31.54-10,2.6-22,4.75l-21.36,3.83-2.29-2.38c-2.15-2.22-2.61-2.37-7-2.37-8.11,0-29.62,2.83-36.13,4.67-7.62,2.04-15.37,3.52-23.2,4.44-4.13.38-4.28.53-5.51,3.44-3.29,7.58-7.42,27.87-8.72,42.18-.85,9.72-.85,58.48-.08,70.73.38,4.75.92,8.8,1.3,9.26s3.68-1.07,8.5-3.75c11.4-6.35,14.7-8.72,16.53-11.86,1.46-2.6,1.92-2.91,7.28-4.29,8.11-2.07,8.72-2.53,9.18-6.58,1-8.65,7.27-19.37,16-27.41,13.62-12.55,24.65-15.38,50.9-13.16l10.57.84,4.36-2.83c6.66-4.52,14-6.2,25.95-6.2,8.73,0,10.33.23,15.39,1.91,7,2.45,11.4,5.44,14,9.34,1.61,2.6,1.92,3.75,2,8.57v5.59l2.86,2.27c.97.81,2.03,1.53,3.14,2.14,3,0,17.83,1.69,20.51,2.3,4.29,1,17.38,9.49,20.06,13,1.24,1.71,2.36,3.5,3.36,5.36.85,1.76,1.84,3.14,2.22,3.14,2.84,0,9.5-17.76,9.5-24.88-.06-10.52-9.17-43.52-18.74-67.78Z"/>
  <path class="cls-2" d="M162.69,286.07c11.94-9.41,21.28-14.93,29.86-17.53,6-1.91,21.35-2.29,28.7-.84,13.4,2.76,26.87,9.11,50.83,24,8.42,5.13,16.76,10.26,18.6,11.41,1.18.52,2.25,1.28,3.14,2.22-.61.68-7.27-2.38-29-13.25-30.16-15.08-29.32-14.85-43.79-14.85-13,0-15.15.46-25,5.51-14.7,7.58-28.63,26.72-28.63,39.27,0,4.21,1.07,3.83,2.15-.76,3.87-15.34,14.08-28.31,28.09-35.67,7.27-3.83,12.93-5.13,22.66-5.13,12.32,0,19.06,2.22,37.12,12.32,2,1.07,3.91,2.14,5.67,3.06,16.91,9.27,25.64,13,33.22,14.24s9.64.38,18.14-7.88l7-6.89-2,5.36c-1.84,5-1.91,6-1.91,16.84.07,9.34.38,12.55,1.61,17.07,4.21,15.54,12.17,23.42,31.61,31.23,13.7,5.51,20.67,7,31.84,7,10.87.08,13.78-.69,19.06-5.36,4.6-4,5.44-6.73,5.44-17.68,0-8.34-.23-10.33-1.91-15.46-5.13-16.31-13.94-29.86-25.42-39-9.34-7.42-22-12.7-31-12.86-3.37,0-3.67-.15-2.14-.69,1-.45,5.89-.68,11.25-.53,9.19.23,9.41.31,14.93,3,9.56,4.75,19.06,15.7,28.55,33,3.83,7,5.66,8.95,4.67,5.05-.84-3.75-7.5-16.69-11.33-22.2-17.76-25.72-39.98-30.31-66.67-13.78l-2.45,1.53.84-1.53c2.22-4.29,16.3-14.85,23.8-17.83,9.65-3.91,17.46-3.6,29.32,1.22,1.3.46,2.6.61,2.83.31,1.38-1.38-8.49-5.82-15.61-7-3.32-.62-6.74-.49-10,.38-14,2.91-26.64,12.56-42.33,32.23-3.67,4.59-7.27,8.8-8.11,9.26-1.92,1-6.28-.15-11.49-3.06-2.22-1.22-10.64-6.51-18.75-11.71-23.1-14.92-34.93-21.42-47.1-24.64-4.15-1.1-8.37-1.89-12.63-2.38-7.58-.92-10.56-.84-16.91.38-13.55,2.6-28.1,10.79-38.81,21.89-3.98,4.07-2.76,4.53,2.06.73ZM331.98,289.95c6.73-4,9.56-4.37,20.74-3.07,10.26,1.23,18.07,5.13,27.1,13.48,9.41,8.65,19.06,24.95,22.2,37.27,2.14,8.35,2.14,18.45,0,23-3,6.28-8.88,9-19.52,9-7.66,0-14-1.3-25.34-5.05-28.55-9.57-38.27-22.35-37-48.91.76-14.01,3.97-21.13,11.82-25.72Z"/>
  <path class="cls-2" d="M369.75,495.48c1.54-2.84-.46-2.61-6.88.69-5.36,2.67-6.21,3.36-5.13,3.9,2.68,1.53,10.24-1.38,12.01-4.59Z"/>
  <path class="cls-2" d="M360.8,327.99c3.75-13.17-9.95-25.41-23-20.59-3.47,1.08-6.49,3.29-8.57,6.28-5,7-4.06,16,2.14,22.19,9.76,9.8,25.45,5.52,29.43-7.88ZM355.29,317.43c.92,1.14.38,2.52-1.07,2.52-1.08,0-1.77-1.38-1.23-2.75.38-1.13,1.23-1.08,2.3.23h0ZM329.8,320.26c.3-2,1.6-3.91,4.51-6.89l4.14-4.21h4.44c2.3-.01,4.59.3,6.81.92,1.2.53,2.32,1.26,3.29,2.14.77.92.46,1.3-1.76,2.68-1.93,1.04-4.03,1.72-6.2,2-2.6.23-3.9.92-4.9,2.22-2.33,3.04-1.75,7.4,1.29,9.73.34.26.7.49,1.08.68,3,1.53,6,.54,9.34-3.06,1.76-1.91,3.29-2.91,4.52-2.91,2.29,0,2.29,1.22,0,5.74-2.68,5.36-6.51,7.58-12.63,7.58-4,0-5.21-.31-7.73-2-4.71-3.27-7.12-8.96-6.2-14.62Z"/>
  <path class="cls-2" d="M347.63,196.56c3.52-6,5.51-16.84,4.14-22.74-.69-3.06-.69-3.14.38-1.83,3.14,4.05,3.83,7,3.83,16.22,0,12.56,1.53,14.32,3,3.6,1.15-9.11-1.68-18.68-7.27-24.57-2.91-3.06-5-3.67-5-1.38.15,1.48.53,2.93,1.14,4.29.85,2.22,1.08,4.74.85,10.64-.23,7.35-.39,8.11-3.29,14.31-1.15,2.35-2.17,4.75-3.07,7.2-.07,1.07,3.53-2.83,5.29-5.74Z"/>
  <path class="cls-1" d="M151.36,264.84c8-10.72,18.45-15.77,35.83-17.61,22.27-2.22,52.43,4.9,91.93,22,8.88,3.83,12.63,5.13,13.32,4.59.38-.38,3-3.9,5.59-7.88,12.25-18.45,32.45-33.91,48.61-37.2,5.35-1.15,6.12-1.15,11.71,0,11.48,2.37,25.26,11,34.83,21.89l4.21,4.75.46-2.76c.61-3.75-.54-10.56-2.38-14.24-.91-1.68-7-8.42-13.93-15.38-8.19-8.12-12.93-13.48-14-15.62-2.14-4.36-2.14-11.1.08-19.14,2.22-8.49,2.22-19.75,0-27.63-2.61-8.2-6.51-15.93-11.56-22.89-5.63-7.2-12.5-13.34-20.28-18.14-3.29-2-8-4.82-10.57-6.43-14.46-9.11-22.27-28.55-22.5-56.19,0-1.37-.38-2.6-.69-2.6-1.23,0-8.19,7.66-10.64,11.71-4.36,7.2-5.74,18.76-3.37,28.17,1.46,5.51,2.83,7.66,11.48,17,20.52,22.2,29.86,40.87,32.15,64.22,1.23,12.32-.46,29.7-3.14,32.61-.45.38-.45-2.3-.07-7.2,2.06-28.24-1.92-45.92-15.31-66.44-5.59-8.57-8.5-12.09-24.42-28.25-8-8.19-15.16-16.15-17.07-19.06-7.2-11-12.94-24.41-16.84-39.88-2.3-9-2.45-10.18-2.45-21.58,0-8.42.31-13.32,1.07-16.16.54-2.29,1.07-4.36,1.07-4.51,0-2.22-9.11,7.35-12,12.63-7.19,12.78-9.1,30.16-5.51,51.13,2.76,16.61,7.74,26,21.51,41,12,13.09,17.15,21.59,21.9,36,6.2,19,7.88,42.48,4.28,58.94-1.37,6.43-4.28,14.39-5.81,15.62-1.84,1.6-1.92,2.37,1.14-7.81,3.91-13.32,4.14-35.37.54-52.74-3.37-17.05-11.46-32.8-23.35-45.47-15-16-17.53-20.52-22.81-40.8-.66-2.77-1.48-5.51-2.45-8.19-.76-.69-1.91,2.75-2.68,7.81-.84,5.74-.61,11.55,1.23,24,.7,4.89.95,9.84.76,14.78-.3,6.35-.61,7.8-5.13,19.29-8.49,22.12-11.71,38.65-10.94,56.49.1,4.85.56,9.69,1.38,14.47l1.07,4.28-1.69-1.76c-1.07-1.19-1.88-2.6-2.37-4.13-1.22-3.91-1.61-10-1.3-20.21.3-10.95.69-14.77,2.22-21.28,2.63-11.22,5.97-22.27,10-33.07l3.67-10-.46-8.65c-.29-4.98-.86-9.95-1.7-14.87-2.22-12.4-2.15-16.23,0-23.8,4-13.25,3.14-29.17-2.15-39.5-2.6-5-4.59-8-4.67-6.89-.07.38-.38,4.13-.61,8.26-.69,8.65-1.3,10.19-9.49,23.28-2.83,4.44-6.12,10.18-7.35,12.7-2.29,4.6-2.29,4.9-2.29,14.47,0,8.11.3,10.56,1.68,14.93,2.68,8.34,2.14,11.25-4.36,25-3.07,6.27-6,12.71-6.66,14.31-1.38,3.29-2.3,11.33-2.91,25.65-.54,10.25-.61,10.56-4.75,22.73l-.15.54-4.13,11.79v10.71c.07,10.11.15,11,2.14,16.08.85,1.95,1.56,3.95,2.14,6,0,1.54-2.52-1.68-4.36-5.58-2.91-6-3.75-11.18-3.37-19.52.31-6.28.77-8.58,4.13-18.38l3.75-11.09v-10.5c0-11.56-.38-13.85-4.51-23.42-1.53-3.68-2.83-7.66-2.83-8.81s1.3-5.58,2.91-9.87c3.9-10.26,4.66-13.93,3.59-17.38-1.6-4.74-2.22-5-3.59-1.14-.62,1.91-3.37,8.26-6,14.31-7.8,17.76-8.19,20.44-4.44,30.93.88,2.42,1.47,4.94,1.77,7.5,0,3.21-3.07,9.34-10,20.21-8.73,13.47-9.34,14.85-9.88,24.19-.21,5.87-.06,11.75.46,17.6,1.46,15.31,1.15,25.49-1.07,36.13-1,5.05-1.76,10.72-1.61,12.56l.16,3.44,3.83-5.05ZM345.36,195.1c2.9-6.2,3.06-7,3.29-14.31.23-5.9,0-8.42-.85-10.64-.61-1.36-.99-2.81-1.14-4.29,0-2.29,2.14-1.68,5,1.38,5.59,5.89,8.42,15.46,7.27,24.57-1.45,10.72-3,9-3-3.6,0-9.18-.69-12.17-3.83-16.22-1.07-1.31-1.07-1.23-.38,1.83,1.37,5.9-.62,16.77-4.14,22.74-1.76,2.91-5.36,6.81-5.36,5.74.91-2.46,1.96-4.88,3.12-7.23l.02.03ZM301.98,203.91c2.45-8,8.34-15.62,13.78-17.84,2.6-1,3-.92,2.52,1.23-3.13,15.46-2.37,20.59,5,30.77,1.45,2.06,2.22,3.67,1.76,3.82-1.38.54-5.43-3.13-7.35-6.73-3.19-5.6-4.6-12.03-4.06-18.45.31-4.44.16-6.35-.38-6.12-1.84.61-7.73,10.41-8.88,14.92-1.76,6.36-1.76,24.12,0,28.56.61,1.76.84,3.13.46,3.13-1.22,0-3.6-4.28-4.36-8-1.14-5.39-.37-19.32,1.51-25.29ZM253.07,164.91c1.68-1.84,3.36-3.22,3.82-3.07s.92,4,1.23,10.64c.53,11.33,1.38,15.16,5.74,27.56,3.75,10.34,5.74,18.53,5.74,23.58,0,6.2-3.75,17.22-5.36,15.69-.23-.23.15-2,.77-3.9.76-2.45,1.07-6.36,1.07-11.87.08-8.34,0-8.34-4.36-21.58-4.6-13.78-5.75-19.45-5.82-29,0-3.06-.31-5.58-.62-5.58-1.91,0-5.43,6.81-7,13.47-1.38,5.59-1,15.38.77,25.41,2.22,11.94,1.15,21.13-2.53,23.12-1.76.84-1.83-.31-.3-3.9s1.37-11-.39-20.37c-3.38-17.89-1-30.83,7.27-40.24l-.03.04ZM192.13,187.64c.62-1.53,2.22-.92,5.21,2.22,3.14,3.29,4.21,5.13,6.12,11,.31.85.61,1.76.92,2.76,2.22,7.35,4.82,10.72,12.63,16.15,7.5,5.28,11.33,8.65,14,12.33,4.44,6,3.14,6-3.67,0-2.68-2.45-7.89-6.66-11.49-9.34-9.18-6.82-11.4-9.65-14.08-17.92-2.22-6.88-5.36-13.7-6.43-13.7s-1.76,6.59-1.76,15.77c0,8.57.07,9.26,2.22,13.78,1.67,3.17,3.68,6.15,6,8.88,3.44,3.75,4.44,5.43,3.21,5.43-1.53,0-6.2-4.21-8.88-8-4.36-6.27-5.74-10.79-5.74-18.83.01-6.25,1.08-18.5,1.77-20.57l-.03.04ZM338.98,115.42c-.03-1.81-.26-3.61-.69-5.36-2.29-12.1-.38-20.82,6.36-28.09l2.91-3.22h-6.2c-5.21,0-6.59.31-10,2.07-6.81,3.52-10.71,10.71-10.71,19.75,0,3.82.23,4.51,2.29,6.43s15.58,9.07,16.04,8.42Z"/>
  <path class="cls-11" d="M369.14,648.73c-5.05-4.52-6.5-5.52-8.42-5.44-5.2.15-5.2,1.53-.46,7.81,3.6,4.82,11,12.25,19.45,19.37,2.44,2.21,4.21,4.13,3.75,4.28-1.92.61-11.56-5.89-19.37-13.09-6.35-5.89-6.05-4.36,2.14,9.11,2.38,4,4.06,7.27,3.91,7.5-.77.69-3.52-1.45-6.36-5.05-3.82-4.82-7.27-12-10-20.9-1.61-5.2-2.45-7-3.37-7-2.45,0-3.29,1.15-2.76,3.9.77,4.21,7.27,19.29,14.47,33.91,8.42,16.92,11.94,22.66,14.08,22.66,1.84,0,6.2-3,16.16-11.1,4.12-3.39,8.44-6.53,12.93-9.41,7.35-4.29,10.64-6.74,10.11-7.58-.31-.39-2.15-.69-4.21-.69-5.39-.1-10.65-1.67-15.21-4.55-4.21-3.2-8.24-6.63-12.09-10.26-4.72-4.29-11.3-10.34-14.75-13.47ZM376.11,603.64c3.21-.92,3.67-1.76,1.53-2.91-3.68-1.91-16.84,1.07-23.42,5.51-2.76,1.76-1.54,2.45,4.28,2.45,3.47.19,6.93-.58,10-2.22,2.48-1.1,5.02-2.04,7.61-2.83ZM359.57,613.51c0-.61-9.79-.61-11.48,0-3.82,1.3-7.51,2.98-11,5-2.53,1.61-2.76,2-2.22,4.06,1,4.67,7,20.13,7.88,20.43,1.15.46,15.7-2.37,17.69-3.44,1.68-.84,1.75-6.81.22-17.91-.55-4.23-1.09-7.83-1.09-8.14ZM311.98,604.79c-.48.78-.7,1.69-.61,2.6,0,1.68.3,2,2.14,2,5.13,0,14.24,3,18.37,6.12,1.38.92,1.76.85,4.29-.84l2.76-1.91-1.69-.84c-1-.54-5.82-2.3-10.72-3.91-9.74-3.22-13.79-4.07-14.54-3.22Z"/>
  <path class="cls-2" d="M304.84,237.2c.38,0,.15-1.37-.46-3.13-1.76-4.44-1.76-22.2,0-28.56,1.15-4.51,7-14.31,8.88-14.92.54-.23.69,1.68.38,6.12-.54,6.42.87,12.85,4.06,18.45,1.92,3.6,6,7.27,7.35,6.73.46-.15-.31-1.76-1.76-3.82-7.35-10.18-8.11-15.31-5-30.77.46-2.15.08-2.22-2.52-1.23-5.44,2.22-11.33,9.8-13.78,17.84-1.91,6-2.68,19.9-1.53,25.26.78,3.75,3.16,8.03,4.38,8.03Z"/>
  <path class="cls-2" d="M304.38,503.44c-16.61-4.82-22.35-6.2-23.19-5.74-1.61,1,.61,2.06,14.31,6.66,12.1,4,13.93,4.51,19.37,4.51,6.89.08,8.88-1.22,3.06-2-1.95-.29-8.11-1.8-13.55-3.43Z"/>
  <path class="cls-3" d="M329.26,498.23c-16.3-4.74-38.89-6-50.29-2.83-8,2.14-15,6.58-22.43,13.93-5.89,5.74-7.43,7.73-9.95,13.09-1.61,3.45-3.06,7.12-3.14,8.27-.15,1.84.08,2,2,1.76,3.37-.38,9-3.6,13.32-7.43,11.33-10.1,27.86-12.09,43.25-5.2,3.83,1.76,5,1.84,9.26,1.53,5.21-.46,27.64-5.21,29.78-6.35.92-.54,1.15-1.23.84-2.76-.38-1.84-.23-2.14,1.91-2.76,3.76-1.22,15.54-2.37,24.81-2.37h8.26v-5.13q0-5.13-3.14-8.19c-3.36-3.21-8.8-5.66-15.15-6.89-4.36-.76-19.75-.69-24.42.16-4.13.84-11.33,3.9-11.33,4.9,0,.38,1.68,1.6,3.75,2.75,4.05,2.14,5.73,4.36,2.67,3.52ZM314.87,508.87c-5.44,0-7.27-.46-19.37-4.51-13.7-4.6-15.92-5.67-14.31-6.66.84-.46,6.58.92,23.19,5.74,5.44,1.61,11.56,3.14,13.55,3.44,5.82.77,3.83,2.07-3.06,1.99ZM362.87,496.17c6.42-3.3,8.42-3.53,6.88-.69-1.76,3.21-9.33,6.12-12,4.59-1.09-.54-.24-1.23,5.12-3.9h0ZM298.03,521.27c-8-2.29-21.05-1.91-28.4.92-5.36,2-10.87,5.51-10.87,6.89,0,2.14,4.82,3.45,12.63,3.37,11-.08,27.17-1.53,28.94-2.68,1.12-.95,1.94-2.2,2.37-3.6.99-3.1.76-3.37-4.67-4.9Z"/>
  <path class="cls-2" d="M243.3,389.3l8.26-2.75c14.4-4.67,21.67-9.11,31.08-18.76,6-6.27,8-9.56,9.19-15.3,1.91-8.81.08-18.07-5.44-29.32-5.35-10.76-13.95-19.57-24.57-25.19-3.38-1.84-6.99-3.26-10.72-4.21-5.2-1.37-17.29-2.06-22.35-1.22-6.96,1.27-13.69,3.54-20,6.73-4.36,2.22-7.42,4.6-12.32,9.5-5.66,5.58-7,7.42-9.87,13.32-7.89,16.53-9,35.67-3,49.37,3.52,8,11.33,13.93,21.89,16.61,3.75,1,8.12,1.22,21.28,1.22h16.57ZM216.74,386.3c-12.1-1-16-2-21.9-5.89-4.9-3.14-9.57-9.34-11-14.7-.46-1.76-.69-8-.46-16.61l.31-13.7,2.45-5.75c7.8-17.83,20.66-29,37.43-32.38,6.58-1.3,21-1.37,26.1,0,8.27,2.15,19.67,9,24.42,14.93,4.65,5.8,8.55,12.15,11.63,18.91,1.84,4.29,2.15,6.2,2.45,13.16.39,8,.31,8.12-2.06,12.86-2.83,5.59-9.19,12.41-15.69,16.77-15.03,10.17-32.44,14.17-53.68,12.42v-.02Z"/>
  <path class="cls-2" d="M271.16,324.01c-4.59-4.9-14.24-7-20.28-4.36-1.8.88-3.45,2.04-4.9,3.42-9.11,8.65-7,22.58,4.44,28.32,8.72,4.44,19.06.54,24-9.11,2.48-5.21,1.03-13.68-3.26-18.27ZM269.32,329.67c.25.59.22,1.27-.07,1.84-.77,1.15-2.53-.53-2.07-1.91s1.61-1.3,2.14.07ZM271.77,338.78c-2.45,9-14,13.17-21.89,7.73-7.81-5.28-8.19-15.08-.92-22.12,4.59-4.44,9.26-5.05,14.93-2.29,4.51,2.29,4.67,3.29,1.38,5-1.69.87-3.54,1.39-5.44,1.53-3.05-.17-5.83,1.71-6.81,4.6-.92,3-.08,5.51,2.68,7.65s6.35,1.61,9.49-1.91c2.07-2.22,6.28-4.37,7-3.6.27.12-.03,1.7-.42,3.41Z"/>
  <path class="cls-7" d="M335.98,334.88c2.52,1.68,3.75,2,7.73,2,6.12,0,9.95-2.22,12.63-7.58,2.29-4.52,2.29-5.74,0-5.74-1.23,0-2.76,1-4.52,2.91-3.37,3.6-6.35,4.59-9.34,3.06-3.42-1.73-4.8-5.9-3.07-9.32.2-.4.44-.78.72-1.14,1-1.3,2.3-2,4.9-2.22,2.17-.28,4.27-.96,6.2-2,2.22-1.38,2.53-1.76,1.76-2.68-.97-.88-2.09-1.61-3.29-2.14-2.22-.62-4.51-.93-6.81-.92h-4.44l-4.14,4.21c-2.91,3-4.21,4.9-4.51,6.89-.95,5.67,1.46,11.38,6.18,14.67ZM265.19,338.94c-3.14,3.52-6.58,4.13-9.49,1.91s-3.6-4.67-2.68-7.65c.98-2.89,3.76-4.77,6.81-4.6,1.9-.14,3.75-.66,5.44-1.53,3.29-1.68,3.13-2.68-1.38-5-5.67-2.76-10.34-2.15-14.93,2.29-7.27,7-6.89,16.84.92,22.12,7.88,5.44,19.44,1.31,21.89-7.73.39-1.76.69-3.29.46-3.44-.76-.74-4.97,1.41-7.04,3.63Z"/>
  <path class="cls-2" d="M246.21,225.42c-1.53,3.59-1.46,4.74.3,3.9,3.68-2,4.75-11.18,2.53-23.12-1.76-10-2.15-19.82-.77-25.41,1.61-6.66,5.13-13.47,7-13.47.31,0,.62,2.52.62,5.58.07,9.57,1.22,15.24,5.82,29,4.36,13.24,4.44,13.24,4.36,21.58,0,5.51-.31,9.42-1.07,11.87-.62,1.91-1,3.67-.77,3.9,1.61,1.53,5.36-9.49,5.36-15.69,0-5-2-13.24-5.74-23.58-4.36-12.4-5.21-16.23-5.74-27.56-.31-6.65-.69-10.48-1.23-10.64s-2.14,1.23-3.82,3.07c-8.27,9.41-10.65,22.35-7.28,40.18,1.8,9.36,1.96,16.79.43,20.39Z"/>
  <path class="cls-10" d="M458.98,795.85c0,.31,1.92.46,4.21.31s12.33-1,22.43-1.76,22.81-1.76,28.32-2.15c8.81-.69,10.41-1,14.24-3,14.55-7.27,32.23-21.82,40.65-33.22,8.11-10.87,10.94-21.21,7.58-26.64-2.4-3.46-5.94-5.95-10-7.05-3.37-.84-10.19-.76-14.93.16-8.42,1.53-28.25,13.32-42.18,25-13.7,11.45-50.32,46.57-50.32,48.35ZM466.59,782.91c38-37.73,48.76-46.92,65.29-56.18,4.44-2.53,9-5.13,10.18-5.82,3-1.84,1.23-1.76-7.88.46-11.51,2.85-22.72,6.82-33.45,11.86-5.21,2.45-10.18,4.29-11,4.14-1.37-.23-1.14-.46,1.61-2.3,1.84-1.15,7-4.06,11.41-6.43s8-4.29,8-4.44c0-.92-22.82,7-28.71,10-9.87,5-26.79,17-38.2,27-19.52,17.07-45.39,42.26-45.39,44,0,2.22,11.94,29.31,14.62,33.06,1,1.46,1.22,1.23,5.36-4.44,6.55-9.11,17.55-20.59,48.16-50.91ZM452.04,800.9l-13.85,14.55c-7.58,8-14.78,15.92-16.08,17.45-3.06,4-5,8.11-4.82,9.95.23,1.38.77,1.61,3.9,1.84,7.51.38,31.39-5.74,46.93-12,5.61-2.33,11.05-5.04,16.3-8.11,8-4.83,23-15.47,28.94-20.6l3.52-3-32.46-.08h-32.38ZM278.89,798.76c-6.73-8.42-9.41-10.87-15.77-14.09-14.31-7.19-46.92-17.75-63-20.43-6.24-1.12-12.6-1.35-18.9-.69-5.59.61-19.22,3.59-25.49,5.36l-3.75,1.16,8.19,2.76c11.08,3.8,21.79,8.59,32,14.31,7.28,4.21,12.63,8.19,11.87,9.11-.31.16-5.51-2.14-11.56-5.28-17.53-9-41.18-18.14-46.31-18.06-1.53,0-.69.46,2.83,1.45,12.4,3.44,31.54,14.85,52.89,31.54,12.56,9.8,16.23,11.86,35.6,20.21,24.19,10.41,41.87,19.9,50.21,26.71,2.3,1.92,4.22,3.37,4.6,3.37.15-.15.76-9,1.45-19.83l1.23-19.77-5.37-5.52c-2.99-3-7.81-8.64-10.72-12.31ZM260.98,839.94c-10.87-5.43-13.4-6.35-15.54-5.59-1.3.62-38.58,3.75-59,5.06-10.71.68-14.24,1.22-13.24,1.83,1.45,1,21.43,7.43,29.47,9.57,9.8,2.6,22.66,5.36,33.07,7,17.15,2.61,52.36,3.45,53.74,1.23,1.28-2.03-11.35-10.45-28.5-19.1ZM238.55,830.45c.61-.31-1.84-1.61-6.81-3.67-13.63-5.36-20.9-9.5-31.62-18-18.44-14.62-36.13-25.26-49.6-29.78-4.44-1.61-7.42-2-14.39-2.3-8-.38-9-.3-11.71,1.15-9.26,4.75-14.62,15.92-11.48,24,3.33,8.88,17.39,17.53,42.17,25.95l11.87,4.18,35.29-.54c19.44-.22,35.71-.68,36.28-.99Z"/>
  <path class="cls-2" d="M204.98,234.98c1.23,0,.23-1.68-3.21-5.43-2.32-2.73-4.33-5.71-6-8.88-2.15-4.52-2.22-5.21-2.22-13.78,0-9.18.76-15.77,1.76-15.77s4.21,6.82,6.43,13.7c2.68,8.27,4.9,11.1,14.08,17.92,3.6,2.68,8.81,6.89,11.49,9.34,6.81,6,8.11,6,3.67,0-2.68-3.68-6.51-7-14-12.33-7.81-5.43-10.41-8.8-12.63-16.15-.31-1-.61-1.91-.92-2.76-1.91-5.89-3-7.73-6.12-11-3-3.14-4.59-3.75-5.21-2.22-.69,2.07-1.76,14.32-1.76,20.59,0,8,1.38,12.56,5.74,18.83,2.74,3.73,7.41,7.94,8.9,7.94Z"/>
  <path class="cls-2" d="M203.65,653.93c3.44,3.37,1.76-1.68-14.93-41.56-1.76-4.21-3.68-8.73-5.74-13.71-9.72-23.34-12.71-29.39-12.71-25.72,0,1.69,6.43,19.6,12.17,33.91,6.81,16.77,19.83,45.63,21.21,47.08Z"/>
  <path class="cls-8" d="M416.68,755.89c-16.77,13.93-33.38,31.62-37.43,39.73-2.3,4.82-2,8.19,1.53,15.23,2.22,4.37,2.91,5.13,6.66,7.12,3.59,1.92,9.57,4.06,9.57,3.52-1.71-1.57-3.5-3.05-5.36-4.44-3-2.22-5.44-4.44-5.44-4.89,0-1,31.08-31.77,46.47-46,16.61-15.54,36.66-30.31,48.91-36.36,14.39-6.89,45.24-14.54,58.87-14.54,1.83,0,3.52-.31,3.82-.69.39-.77-2.45-3-8.95-6.89-4.29-2.53-5.21-2.84-10.41-3.06-8.42-.23-30.47,4.59-41.42,9.18-19.36,7.95-45.62,24.49-66.82,42.09ZM480.21,662.07c-13.24,4.06-37.58,10.8-46.08,12.48-2.7.57-5.37,1.29-8,2.15-3.52,1.53-26.33,17.3-35.13,24.26-14.09,11.25-16.46,11.56-22.35,2.37-1.12-1.68-2.35-3.29-3.68-4.82q-1.53-1.3-30.92,3.45c-6.28,1-12,1.76-12.63,1.76-.77,0-1.46-.92-1.92-2.38-.53-2-.92-2.29-2.75-2.06-1.15.07-19.75.3-41.34.53-42.33.54-56.64-.15-80.3-3.44-5.89-.84-12.25-1.61-14-1.61h-3.29l-.84,4.31c-1.38,6.81-2.6,24.49-2.14,31.23.38,6.05.3,6.28-2.15,10.72l-2.6,4.59,5.28-.61c7.5-.77,44.4-.46,50.68.53,10.25,1.53,44.17,12.1,52.43,16.23,10.5,5.38,26.59,18.63,30.5,25.31,1.24,2.25,2.19,4.64,2.83,7.12.26,1.46.67,2.9,1.22,4.28.16.23,2-1.3,4-3.29,8.73-8.5,16.61-13.32,22.74-14.08,6.89-.85,18.37,2.14,32.45,8.65l5.74,2.6,1.08-1.68c4-6,18.75-21.67,30.16-32,15.31-13.86,46.61-35.75,61.46-43,12-5.82,29.32-11.25,43.64-13.7,2.2-.35,4.37-.86,6.5-1.53.23-.23-.23-.85-1-1.46-8.42-6-15.77-17.3-22-33.37-2.22-6-2.83-6.89-4.36-7-.98-.16-6.95,1.37-13.23,3.46ZM482.82,634.07c.68,1.61,4.82,15.92,5.66,19.14.77,2.9.92,3.06,2.68,2.67,3.14-.76,3.37-1.37,2-6.27-1.76-6.36-4.44-12.1-6.66-14.47-1.92-2.07-4.22-2.72-3.68-1.07ZM431.91,647.73c-2.22-.15-9.72,1.91-12.4,3.37-.92.38-1.61,1.22-1.61,1.68,0,1.61,5.67,17.84,6.66,19s4.9,1,12.63-1c3.22-.76,4.44-1.45,4.44-2.3-1.07-3.68-2.32-7.31-3.75-10.86-3.67-9.35-3.83-9.74-5.97-9.89ZM395.24,807.56c-.45-.15-1.83.84-3.13,2.15l-2.3,2.29,4.82,3.06c2.68,1.69,5,2.91,5.13,2.76s-.61-2.37-1.84-5.13c-.64-1.83-1.55-3.56-2.68-5.13ZM322.6,696.18l.31,2.15,19.36-2.15c10.72-1.22,19.6-2.52,20-2.83.54-.69-.69-.53-18.52,1.38-4.42.56-8.87.86-13.32.92l-2.83-.23-1.08-4.82c-.76-3.14-1.6-5.28-2.52-5.9-1.15-.92-1.3-1.22-.54-2,.54-.53.84-2.91.84-6.12,0-3.68.31-5.21,1-5.51.54-.23,6.05-1.23,12.4-2.3s11.79-2.22,12.1-2.6.3-1-.31-1.76c-.43-.53-1.03-.88-1.69-1-.84.08-27.32,4.14-27.55,4.21-.79.24.97,21.37,2.35,28.56ZM245.75,754.07c-11.6-3.66-23.62-5.83-35.77-6.45-10.32-.85-20.69-.83-31,.08-9.88.69-11.94,1.53-25.49,10.64-9.19,6.2-11.95,8.42-11.26,9,.23.3,4.75-.61,24-4.9,20.59-4.67,31.08-3.9,57.95,4.21,24.34,7.27,41.87,14.85,48.83,21.05,3.29,3.15,6.31,6.58,9,10.26,3.16,4.08,6.58,7.94,10.25,11.56,2.68,2.52,6.66,6.27,8.81,8.26,3.9,3.6,5.89,6.89,5.89,10,0,2.22-3.52,9.27-7.19,14.62-3.3,4.83-3.75,6.59-1.46,5.36s6.36-5.66,9-9.79l2.45-3.83v-12.4c-.07-25.11-1.45-30.85-9.49-39.27-10.29-10.96-29.11-20.68-54.52-28.4ZM301.09,835.5c1.68-3.29,2.37-5.43,2.37-8,0-3.29-.3-3.9-3.29-7l-3.19-3.43v11.79c0,13.38.36,13.91,4.11,6.64ZM263.58,678.66c-1.3,12.78-1.68,16.84-1.38,17.3.16.3,3.68.53,7.74.53h7.5l.38-3.06c.23-1.68.54-6.51.84-10.79l.46-7.74h-15.23l-.31,3.76ZM197.44,670.85l-2-.38v23l3.22.38c6.2.92,6.12,1.07,6.12-11.1v-10.68l-2.68-.38c-1.52-.31-3.58-.69-4.66-.84Z"/>
  <path class="cls-9" d="M443.78,664.26c.68,2.22,1.3,2.68,2.6,2.68,2.6,0,38.73-9.33,39.65-10.25.15-.16-1.15-5-3.06-10.64-1.11-3.84-2.46-7.6-4.06-11.26-.69-.61-1.91-.53-5.2.62-2.38.76-11.49,3.52-20.14,6s-15.92,4.83-16.07,4.9c0,.38,1.15,3.75,2.6,7.73,1.53,4.18,3.22,8.77,3.68,10.22ZM413.08,651.94c-1.91.15-24.8,5-26.41,5.67-1.07.38-1.91,1.14-1.76,1.68.54,1.53,14.54,12,17.15,12.71,3,.91,18,1,18,.15,0-.54-4.9-16.31-5.82-18.68-.39-.92-.85-1.61-1.16-1.53ZM336.69,683.25l-6.28,1.53.23,3.14c.15,1.76.61,3.37,1.07,3.75s3,.38,5.59.15c12.55-1.07,21.66-2.07,22.35-2.6.61-.31-.23-2.91-2.53-8.27-1.83-4.36-3.9-8.57-4.44-9.49-1.3-2.07-3.21-2.07-13.85.23s-10.18,1.91-10.18,5.43v3.07l6.66-.46c6.2-.46,9.49.15,8.19,1.45-2.21.88-4.49,1.57-6.81,2.07ZM316.63,674.29c-.38-1.45-.77-1.53-5.89-1.38-20.06.46-26.8,1-27.41,1.84-.3.54-.92,5.51-1.45,11.1-.62,8.19-.62,10.26.07,10.79.54.39,3.91.46,7.43.23s11.63-.53,17.76-.84l11.4-.38-.38-2.68c-.15-1.45-.46-5.82-.69-9.8s-.69-7.88-.84-8.88ZM212.91,673.07c-2.45-.16-4.6-.16-4.82.23-.39.76.61,20.82,1,21.35.46.31,34.52,1.84,43.1,1.84h6.35l.84-10.56c.43-3.56.63-7.14.61-10.72-.07-.15-9.72-.61-21.43-1.07s-23.2-.84-25.65-1.07ZM181.45,666.18l-7.73-2.83.3,2.29c.23,1.3,1.3,7.5,2.37,13.7l2,11.33,3.3.69c1.83.39,4.82.92,6.81,1.15l3.37.54v-11.56c0-10.26-.16-11.56-1.23-12-.77-.25-4.83-1.7-9.19-3.31Z"/>
  <path class="cls-12" d="M533.26,532.3c-2.07-5-5.82-13.86-8.65-19.83s-6-13.4-7.35-16.69-3.06-6.66-3.83-7.35c-.55-.69-1.3-1.19-2.14-1.45-1.22,0-18.14,8.27-20.74,10.18-1.41.73-2.23,2.25-2.07,3.83,0,3.21,4.59,12.32,15.23,30.31,8.81,14.7,18.83,32.69,23.73,42.1l2.38,4.67,4.82-.07c3.15,0,6.24-.79,9-2.3,4.44-2.22,9-5.9,9-7.2,0-.38-2.68-5-5.89-10.33-8.44-13.63-9.51-15.77-13.49-25.87ZM487.48,509.56c-1-2-2.37-3.83-3-4.13s-1.23-.46-1.3-.38c-2.57.87-5.21,1.54-7.89,2l-3.52.45-.15,20.52c-.31,23-1.07,28.63-5.82,42.79-4.9,14.7-11.56,26.26-20.74,36.13-10.57,11.25-15.69,13.24-6.36,2.45,7.58-8.72,13.99-18.4,19.06-28.78,3.68-7.66,8.35-20.44,9.34-25.57l.46-2.14-1.05,2.17c-.61,1.15-2.37,5.36-4,9.11-6.28,14.67-16.49,27.04-30.62,37.13-16,11.32-32.46,20.82-35.21,20-.92-.23-4.67-3.83-8.34-8-6-6.81-6.82-7.5-8.58-7-4.15,1.09-8.16,2.69-11.92,4.76l-2.86,1.6.15,10.41c.08,5.74.31,12.33.61,14.78l.39,4.36,6.81,6.12c3.75,3.29,7.35,6.36,8,6.59.92.45,15.84-3,44.47-10.18,59.4-14.93,54.2-13.32,54.73-16.62,1.53-10.41,3.6-19.29,6-25.49,3.14-7.88,6.12-13.39,7.27-13.39.92,0,.54,1.38-1.91,7.35-.58,1.33-1.04,2.71-1.38,4.13,1.69-1.5,3.3-3.09,4.82-4.75,5-5.2,12.79-10.64,22-15.31,3.22-1.68,6.05-3.59,6.36-4.28.53-1.53-3.68-9.65-20.52-39.35-7.33-13.09-14.22-25.41-15.3-27.48ZM462.91,600.35c-6.89,14-15.69,27-20,29.24-2.14,1.15-1.45-.23,4.06-8.42,10.72-15.85,21.74-41.11,29.93-68.28,2-6.59,3.83-12.33,4.06-12.79s.69-.3,1.07.39c2.09,3.67-9.85,40.8-19.12,59.86h0ZM377.41,588.48c-5.05,1-5.28.38,4.59,12.4,8.65,10.64,14.7,17.15,15.92,17.15.54,0,4.37-2.07,8.5-4.52,18.37-11,34-23.11,40.8-31.46,8-10,14.54-23.19,18.37-37.12,2-7.28,2.22-9.11,2.53-22.51.3-13.24.23-14.77-.92-16-.67-.77-1.59-1.29-2.6-1.45-1,0-1.3.92-1.61,5.89-2,24.27-7.88,38.58-20.9,50.83-14.11,13.17-31.84,20.52-64.68,26.79ZM416.45,524.49c0,1.53,2.22,8.34,3.14,9.57.53.84,2.29,1.45,4.28,1.68,4.6.54,4.44-.76-.61-6.28-4.36-4.59-6.81-6.39-6.81-4.97ZM402.44,517.68c-8.73-1.84-16.92-2.3-16.92-1.08.68,2.93,1.53,5.82,2.53,8.65l2.6,7.58,5.51.46c13,1.07,20.29,1.38,20.29.84,0-1.15-6.28-13.7-7.27-14.46-.54-.46-3.6-1.38-6.74-1.99ZM357.2,364.58c11.33,3.75,17.68,5.05,25.34,5.05,10.64,0,16.53-2.75,19.52-9,2.14-4.52,2.14-14.62,0-23-3.14-12.32-12.79-28.62-22.2-37.27-9-8.35-16.84-12.25-27.1-13.48-11.18-1.3-14-.91-20.74,3.07-7.89,4.59-11.1,11.71-11.79,25.72-1.25,26.56,8.42,39.34,36.97,48.91ZM329.26,313.68c2.08-2.99,5.1-5.2,8.57-6.28,13-4.82,26.72,7.42,23,20.59-4,13.4-19.67,17.68-29.4,7.88-6.23-6.2-7.15-15.23-2.17-22.19h0ZM363.78,412.8c.23,0,3.83-1,8-2.14,3.83-1.11,7.71-2.01,11.64-2.68,2.37-.15,4.51-.76,4.9-1.3s1.07-3.52,1.6-6.81c.77-5.74.77-6.05-.69-7.27-2.06-1.05-4.24-1.85-6.5-2.38-2.68-.53-7.12-1.3-10-1.53l-5.06-.46-.84,9c-.46,6.05-1.22,10.18-2.22,12.4-.63,1.8-1.13,3.17-.83,3.17ZM365.7,511.63c-13.55.15-18.53.38-19.22,1.15-.38.38,1.53,13.16,2.68,18.06l.39,1.69,18.37-.39c10.18-.23,18.6-.61,18.83-.84.92-.92-6.2-18.14-8-19.29-.42-.23-6.24-.46-13.05-.38ZM371.59,593c-.61-.7-1.37-1.25-2.22-1.61-1.42.92-2.72,2-3.9,3.22l-3.37,3.29,4-.39c7.88-.84,8.71-1.6,5.49-4.51ZM324.9,407.07c.46,3.22.53,3.22,3,3.07,1.38-.08,9.49-.69,18-1.15,10.79-.77,15.54-1.3,15.92-2,.92-1.46,2.22-12.17,2-15.39-.23-2.68-.38-2.91-2.37-3-2.45-.08-2.83-.08-19.14,2-6.5.76-13.24,1.76-14.85,2.22l-3.14.69.08,5.2c.02,2.79.18,5.58.5,8.36ZM354.22,319.95c1.45,0,2-1.38,1.07-2.52-1.07-1.31-1.92-1.38-2.3-.23-.54,1.37.15,2.75,1.23,2.75ZM335.69,662.43l4.59-.54c7.66-1.07,8-1.15,7.5-3.29-1.14-4.44-3.67-9.87-5.58-12.09-1.6-2.06-3.01-4.27-4.21-6.59-2.07-3.9-2.15-4.05-1.84-1.68.61,3.83.61,18.6,0,21.58l-.46,2.61ZM334.16,520.2c-8.03,2.34-16.22,4.1-24.5,5.28-3.82.62-5,2.84-5.35,10.41l-.33,6.28,10.64-2.68c5.89-1.45,15.23-3.44,20.67-4.51s10.18-1.92,10.33-2.15c.54-.46-2-12.93-2.83-14s-1.36-1.15-8.63,1.37ZM282.11,424.36c.53,0,5.66-1.07,11.71-2.45,5.89-1.37,13.7-3.06,17.38-3.67,10.94-1.91,10.25-1.07,10.25-10.56.03-3.63-.12-7.26-.46-10.87l-.53-2.68-7.58.07c-11,.16-39.81,2.68-40.72,3.53-1.31,1.34,8.11,26.63,9.95,26.63ZM318.16,601.5l-1.76-1.08c-2.22-1.3-3.14-1.37-2.76-.23.64.68,1.52,1.09,2.45,1.15l2.07.16ZM299.48,600.42c-23,4.75-40.41,6.66-47.92,5.52-1.61-.34-3.25-.52-4.89-.54,0,.31,55,27,55.8,27,.46,0,1-.84,1.15-2,5-22.89,6.27-29.16,6.27-30.08,0-1.25-3.44-1.2-10.41.1ZM288.98,534.98c-3.68.53-11.64,1.22-17.53,1.53l-10.8.53-.53,1.92c-.23,1.14-.69,5.89-1,10.64l-.53,8.57,2.45-.61c1.3-.39,10.79-3.68,21-7.35l18.52-6.74v-3.9c0-2.22-.38-4.44-.84-4.9-1.08-1-1.69-1-10.74.31ZM286.09,357.15c2.37-4.74,2.45-4.82,2.06-12.86-.3-7-.61-8.87-2.45-13.16-3.08-6.76-6.98-13.11-11.63-18.91-4.75-5.89-16.15-12.78-24.42-14.93-5.13-1.37-19.52-1.3-26.1,0-16.77,3.37-29.63,14.55-37.43,32.38l-2.45,5.75-.31,13.7c-.23,8.57,0,14.85.46,16.61,1.45,5.36,6.12,11.56,11,14.7,5.9,3.9,9.8,4.89,21.9,5.89,21.28,1.76,38.65-2.3,53.66-12.4,6.52-4.36,12.88-11.18,15.71-16.77ZM250.42,351.41c-11.44-5.74-13.55-19.67-4.44-28.34,1.45-1.39,3.1-2.55,4.9-3.44,6-2.61,15.69-.54,20.28,4.36,4.29,4.59,5.74,13.09,3.22,18.29-4.9,9.67-15.24,13.57-23.96,9.13ZM234.19,423.22l7.73-.85c8.88-1.07,31.46-4.51,31.92-4.9s-2.86-11.48-4.86-15.46l-1.92-3.9-4-.16c-9.26-.3-36.05,6.66-37.2,9.73-.54,1.22,3.75,9.95,6.51,13.47l1.82,2.07ZM269.25,331.51c.29-.57.32-1.25.07-1.84-.53-1.37-1.6-1.37-2.14-.07s1.3,3.06,2.07,1.91ZM245.13,537.07c-3.52,1.6-7.12,3.01-10.79,4.21-1.69.45-3.33,1.06-4.9,1.84-1,.61-4.06,14.24-4.82,22l-.54,4.74h1.9c1.76,0,27.1-8.11,29-9.26.61-.38,1.45-22.35,1-26.64-.13-1.59-1.12-1.36-10.85,3.11ZM225.54,426.07c4.44-1.23,4.44-1.15-.08-9.8-1.61-3.06-3.29-5.59-3.75-5.59-1.68,0-12.63,16.77-11.56,17.76.46.52,10.41-1.01,15.39-2.37ZM221.4,550.44c-.23,0-4.82,2.6-10.1,5.74-7.81,4.52-9.8,6-9.95,7.42-.31,2.22,2.3,7.35,4.13,8.35,2.07,1.07,13.32.92,14.24-.23,1.3-1.53,3.45-18.22,2.68-20.21-.23-.69-.69-1.15-1-1.07ZM197.52,667.71c1.79.39,3.61.67,5.44.84,6.2.54,17.91.61,56.57.61h54.8l1.92-2.14c1.68-1.76,3-2.3,8.42-3.21,3.6-.62,6.73-1.15,7.12-1.15.84,0-.08-35.14-1-40-.46-1.91-1.3-4.21-2-4.9-1.76-1.76-11.1-4.82-14.54-4.82-3.22,0-3.68.84-5.44,9.11-1.91,9.64-3.37,14.54-4.28,14.92-1.08.39-9-3.21-42.18-19.36-13.62-6.54-30.46-14.54-37.37-17.72-20.67-9.42-24.35-11.41-28.48-15.16-1.18-1.19-2.48-2.25-3.9-3.14,0,.23,2.75,7.43,6.12,16,6.89,17.53,11.41,26.72,16.3,33.07,4.44,6,4.52,6,3.07,6-1.92,0-8.19-6.89-11.49-12.56-2.39-4.43-4.56-8.97-6.5-13.62-4.21-9.72-9.11-22.66-13.7-36.06-3.37-9.72-11.18-25.49-19.6-39.49-3.37-5.59-5.21-8.12-6.28-8.27s-4,2.37-11.17,9.72c-9.5,9.8-14.16,15.31-28.63,33.45-8.12,10.11-14.85,16.77-18.53,17.91l-2.45.85,12.4,9.33c30.16,22.89,49.35,40.72,57.57,53.51,2.6,4,5.66,8.11,7,9.19,2.59,2.34,10.55,5.02,20.81,7.09ZM182.98,598.71c2.06,5,4,9.5,5.74,13.71,16.69,39.88,18.37,44.93,14.93,41.56-1.38-1.45-14.4-30.31-21.21-47.08-5.74-14.31-12.17-32.22-12.17-33.91,0-3.72,2.99,2.33,12.71,25.67v.05h0ZM122.66,562.3c5-6.81,14.16-17.68,20.21-24.19,11.78-12.7,15.15-17.14,15.15-20.2,0-1.31-1.07-3.22-3.29-5.59-3.24-3.36-6.69-6.51-10.33-9.42l-7.2-5.89-2.45,3.82c-1.38,2.07-5.59,7.81-9.49,12.79-12.78,16.3-20.59,29.24-24,39.73-3.36,10.1-10.18,17.6-15.84,17.37-2.68-.07-8.19-2.29-13.78-5.66l-3.21-2,4.74,5c2.6,2.76,6.2,6.82,8,9.11,4.06,4.83,10.56,8.5,15.16,8.5,7.11-.02,12.78-5.07,26.33-23.37Z"/>
  <path class="cls-5" d="M606.06,446.87c-2.45-1.46-4.52-1.92-8.42-2.14-5.82-.31-8.88.91-16.15,6.43-4.44,3.21-4.37,2.67-1.08,13l1.69,5.51,9.49-5,9.57-4.89,8.11,1.3c2.99.43,5.96,1.04,8.88,1.83,1.84,1.15,0,1.76-5.89,1.76s-6.51.08-7.2,1.31c-1.07,2.06-.84,7.34.39,10.87,2.37,6.65,0,7.57-3,1.14-2-4.28-2.3-10-.54-12.47l1.08-1.61-3.45,1.38c-8.34,3.29-15.69,6.66-16.15,7.42-.45,1.64-.76,3.31-.92,5-.46,4.44-2.22,8.8-4.44,10.79-1.59,1.14-3.26,2.16-5,3.06l-3.6,2,4-.46c5.66-.61,19.36-3.75,27-6.2l6.51-2.06,10.22,3.23c5.66,1.84,10.25,3.68,10.25,4.13,0,.85-1.3.69-12.09-1.22-2.41-.54-4.88-.8-7.35-.76-1.15.76-.84,2.83,1.15,8.64,1,3.07,1.68,5.75,1.38,6s-1.61-.69-2.84-2.15c-2.45-2.84-3.86-6.43-4-10.18,0-2.29-.07-2.29-5.05-.76-2.14.68-8.27,2.06-13.62,3.29s-10.26,2.52-10.8,3.14c-1.37,1.37-1.22,6.73.31,9.72.67,1.31,1.64,2.44,2.83,3.29,1.92,1.22,2.3,1.22,20.75-1.23l10.64-1.45,3.36,1.68c3.68,1.84,9.73,7,8.27,7-2.06-.54-4.06-1.26-6-2.15-2.02-.96-4.16-1.68-6.35-2.14-1.91,0-4.52,6-4.9,11-.23,3.06,0,4.82,1,6.59,2.22,4.13-.31,4.28-3.37.15-2.3-3.06-2.37-9.57-.08-14,.84-1.68,1.38-3.06,1.07-3.06s-5.05.76-10.48,1.61c-9.72,1.53-10,1.53-11.18,3.75-.84,1.53-1.22,4-1.22,8.49,0,6.74.76,8.58,5,11.64,2.68,2,9.65,2.07,13.93.15l3.07-1.38,5.43,3.75c3.06,2,6.28,3.68,7.2,3.68,3.29,0,7.34-2.68,9.41-6.2,2.68-4.67,7.89-19.9,9.34-27.41,1.76-9.18,1.15-26.94-1-33-3.35-9.08-17.89-27.52-25.16-31.81ZM604.45,543.93l-2.91-2.3-4.29,1.54c-11,3.67-19.59-.08-21.74-9.65-.84-3.6-.76-4.75.62-10.33l1.6-6.28-2.9-2.91c-3.32-3.09-5.17-7.46-5.06-12,0-2.14-.23-4.21-.53-4.59s-3.68-2.07-7.58-3.6c-5.36-2.06-8-3.52-10.95-6.2-2.14-2-4.05-4.21-4.28-5-.54-1.53-3.14-1.84-6.13-.62-1,.46-6.12,2.07-11.48,3.53s-9.84,3.14-10.33,3.55c-1,1.07.46,4.59,9,22.58,3.83,8.19,8.27,17.91,9.65,21.58,2.52,6.51,5,10.87,13.93,24.73,3.37,5.13,4.59,6.51,6.12,6.66,1.23.15,6.28-1.76,13.93-5.28,13.25-6,23.81-9.88,31.39-11.18,2.6-.53,4.82-1.15,4.82-1.45s-1.35-1.55-2.88-2.78ZM555.61,486.83c2.6,1.76,3.6,2,9.11,2,7.12,0,10-1.23,12.86-5.51,1.61-2.22,1.76-2.91,1.38-9.27-.46-7.42-3.14-17.07-5.59-19.52-1.61-1.6-6.66-1.83-11.17-.38s-11.41,5.36-14,8l-2.38,2.45.92,5.05c1.29,7.23,5.12,14.73,8.87,17.18ZM385.22,386.07c-.31.46,0,.84.61.84,2.53,0,9.49,4.14,14.24,8.57,3.41,3.36,6.48,7.05,9.18,11,11.56,17.45,24.19,49.52,32.46,82.29,5,19.44,5.13,24.26.92,36.82-1.61,4.9-2.68,8.88-2.38,8.88.92,0,4.9-5.44,6.21-8.42,1.83-4.21,2.21-20.21.68-30.16-3.52-22.74-14.39-56-26.63-81.37-7.74-16-13.25-23.58-19.37-26.49-4.29-2.02-15.08-3.32-15.92-1.96ZM157.98,510.17c2.84,3.6,3.14,4.29,3.83,9.42.23,1.68,2.6,6.51,6.05,12.25,3.14,5.28,8.57,14.62,12.17,20.89,3.37,6.05,6.2,10.64,6.58,10.64.16-.45-.46-4.89-1.22-9.95-5.06-31.76-6.43-68.35-3.29-88.41,3.59-23,11.32-42.18,21.89-53.81,3.83-4.29,9.34-8.42,11.1-8.42,1.22,0,.15,1.22-4.37,5.51-6.2,5.9-11.18,12.96-14.65,20.78-9,19.29-11.94,38.89-11.18,74.79.38,19.37,2.14,40.42,4.52,55.19.64,4.49,1.55,8.94,2.75,13.32,3.07,10.64,10.26,15.62,34.6,23.73,15.24,5.13,20.52,6.12,32.31,6.12,11.1,0,20.36-1.14,39-4.74,7.12-1.46,13.85-2.37,15-2.14s8.27,3.44,15.85,7.11l13.93,6.74,12.55-10.72c6.89-6,13.55-11.33,14.85-11.78,1.38-.62,7.51-2.07,13.71-3.3,26.33-5,45.47-14,57.79-27,8.11-8.57,12.32-16.53,14.93-28.09.91-4.36,1.22-8.88,1.22-21.43v-.8c0-18.68-.61-22.66-5.82-43.17-3.44-13.55-4.74-17.53-13.16-39.81-12.43-32.98-21.94-67-28.4-101.65-1.69-8.73-3.14-17.38-4.37-26-1.45-9.72-3.21-19.37-3.9-21.51-3.37-9.87-10.18-20.82-16.38-26.64-7.12-6.5-19-13.47-26.72-15.46-8.19-2.14-14.62-.92-25.18,4.59-16.11,8.73-29.32,21.98-38,38.12-2.45,4.44-.85,4.67-16.92-2.37-17.45-7.73-32.76-13.09-47.54-16.61-3.37-.92-6.66-1.61-10-2.3-8.65-1.6-11.63-1.83-25.26-1.91-17.22-.08-21.05.53-28.78,4.67-11.4,6.05-17.07,14.93-19.82,30.85-4,23.57-3.22,59.78,3.29,150.11,1.15,16.23,2.45,35.67,2.75,43.25,1.5,28.18,1.12,25.84,4.29,29.94ZM205.48,388.07c-10.56-2.68-18.37-8.65-21.89-16.61-6.05-13.7-4.9-32.84,3-49.37,2.83-5.9,4.21-7.74,9.87-13.32,4.9-4.9,8-7.28,12.32-9.5,6.31-3.19,13.04-5.46,20-6.73,5.06-.84,17.15-.15,22.35,1.22,3.73.95,7.34,2.37,10.72,4.21,10.62,5.62,19.22,14.43,24.57,25.19,5.52,11.25,7.35,20.51,5.44,29.32-1.23,5.74-3.14,9-9.19,15.3-9.41,9.65-16.68,14.09-31.08,18.76l-8.26,2.75h-16.57c-13.16.01-17.53-.22-21.28-1.22ZM417.98,402.07c10.41,17.45,21.82,46.39,28.32,72.34,3.52,14,4.67,21.2,4.67,32.3,0,1.45-.07,2.91-.07,4.52-.23,11.55-.31,12.32-2.23,16.45-2.67,5.59-4.28,7.28-9.56,9.72s-9.11,2.68-27.25.92c-9.11-.92-19.83-1.22-40.73-1.22-31.77-.08-33,.08-53.66,5.28-12.17,3.22-26,7.81-57.94,19.29-35.45,12.86-45.24,15.46-51.83,13.86-5.74-1.38-8.8-5.36-10.71-17.76-1.08-6.51-1.76-15.31-2.38-27.25-3.14-58.79,6.28-104.57,25.34-122.33,3.9-3.75,8-5.66,17.22-8.65,2.74-.91,5.53-1.67,8.35-2.29,8.72-2,19.59-3.22,44.62-5.29,9.5-.91,23.43-2.22,30.93-2.9s20.67-2.07,29.16-2.91,20-1.84,25.57-2.38c13.78-1.37,17.3-1.37,22.2-.15,7.58,2.09,13.17,7.22,19.98,18.45ZM160.63,285.35c10.71-11.1,25.26-19.29,38.81-21.89,6.35-1.22,9.33-1.3,16.91-.38,4.26.49,8.48,1.28,12.63,2.37,12.17,3.22,24,9.72,47.08,24.65,8.11,5.2,16.53,10.49,18.75,11.71,5.21,2.91,9.57,4.06,11.49,3.06.84-.46,4.44-4.67,8.11-9.26,15.69-19.67,28.32-29.32,42.33-32.23,3.26-.87,6.68-1,10-.38,7.12,1.15,17,5.59,15.61,7-.23.3-1.53.15-2.83-.31-11.86-4.82-19.67-5.13-29.32-1.22-7.5,3-21.58,13.54-23.8,17.83l-.84,1.53,2.45-1.53c26.71-16.53,48.94-11.93,66.67,13.78,3.83,5.51,10.49,18.45,11.33,22.2,1,3.9-.84,2-4.67-5.05-9.49-17.3-19-28.25-28.55-33-5.52-2.67-5.74-2.75-14.93-3-5.36-.15-10.26.08-11.25.53-1.53.54-1.23.69,2.14.69,9,.16,21.66,5.44,31,12.86,11.48,9.11,20.29,22.66,25.42,39,1.68,5.13,1.91,7.12,1.91,15.46,0,10.95-.84,13.63-5.44,17.68-5.28,4.67-8.19,5.44-19.06,5.36-11.17,0-18.14-1.53-31.84-7-19.44-7.81-27.4-15.69-31.61-31.23-1.23-4.52-1.54-7.73-1.61-17.07,0-10.8.07-11.87,1.91-16.84l2-5.36-7,6.89c-8.5,8.26-10.56,9.18-18.14,7.88s-16.31-5-33.22-14.24c-1.76-.92-3.68-2-5.67-3.06-18.06-10.1-24.8-12.32-37.12-12.32-9.73,0-15.39,1.3-22.66,5.13-14.01,7.36-24.22,20.33-28.09,35.67-1.08,4.59-2.15,5-2.15.76,0-12.55,13.93-31.69,28.63-39.27,9.88-5.05,12-5.51,25-5.51,14.47,0,13.63-.23,43.79,14.85,21.74,10.87,28.4,13.93,29,13.25-.88-.96-1.94-1.73-3.12-2.27-1.84-1.15-10.18-6.28-18.6-11.41-24-14.85-37.43-21.2-50.83-24-7.35-1.45-22.66-1.07-28.7.84-8.57,2.57-17.92,8.13-29.86,17.57-4.82,3.8-6.04,3.34-2.06-.72ZM95.25,556.64c1.23-2.45,3.14-7.2,4.37-10.41,1.66-4.28,3.74-8.38,6.2-12.25,3.82-5.82,16.23-22.73,23.42-31.69,2.6-3.29,2.91-3.9,2.07-5s-9.19-7.34-28.71-22l-2.68-2.07-6.43,2.14c-10.79,3.68-18.29,4.6-18.29,2.22,0-.76-.23-.68,8.65-2.83,8.34-1.91,14.47-4.9,15.69-7.58.54-1.07,1.3-5.05,1.76-8.95.69-6.05.61-7.73-.38-11.94-1.46-5.82-4.06-9.88-8.27-12.86-2.08-1.51-4.56-2.36-7.12-2.45-3.83-.23-4.59-.08-7.81,2.22-2.75,2.1-5.21,4.54-7.34,7.27l-3.83,4.9,2.6,5.13c1.46,2.83,3.37,6.35,4.36,7.88,1.69,2.68,1.76,2.76,6.2,2.76,5.16.1,10.13-1.96,13.71-5.67l2.68-2.6v2.07c0,3.06-5.13,7.88-10,9.34-4.67,1.37-6.51,1.45-10.26.3-2.45-.76-3.21-.69-5.89.69-1.53.8-3.19,1.35-4.9,1.61-2.91,0-3.52.76-2.76,3.9.42,1.91.65,3.86.69,5.82,0,2.53-.38,3.37-2.91,5.74-2.75,2.76-2.91,3-2.52,6.12.76,6.66-2.22,12.71-8.58,17.07-4.59,3.22-9.57,3.3-16.07.23l-4.6-2.22-4.47,2.54c-5.74,3.22-8.42,3.44-4.89.46,1.82-1.5,3.76-2.84,5.81-4l3.52-1.84,4.83,2.3c8.65,4.06,14.31,2.45,19.67-5.51,3.29-4.9,3.14-8.12-.61-12.17-5.82-6.36-14.39-9.42-26.26-9.42-9.26,0-14.39,1.61-18.29,5.67l-2.38,2.44.23,6.36c.31,5.82.46,6.81,2.76,10.71,3.06,5.06,13.39,15.62,26.64,27.1,5.36,4.6,14.54,12.63,20.51,17.76,15.92,14.16,25.72,21,29.86,21,2.37-.03,7.57-5.39,10.02-10.29ZM42.82,426.89c1.15-1.38,2.83-1.38,3.29,0,.23.54,2.37,2.22,4.82,3.75,3.08,1.95,5.93,4.23,8.5,6.81,2.3,2.3,4.59,4.21,5.28,4.21s2.37-1.91,3.91-4.21c4.05-6,5.12-8.26,4.36-9.57s-9.88-7.8-14.09-9.95c-3.52-1.68-5.13-1.76-9.34-.46s-14.39,6.89-16.22,8.81l-1.53,1.68h5.05c3.67,0,5.28-.3,5.97-1.07ZM23.91,449.01l5.9-1.15.15-3.59c.15-2,.61-3.75,1.07-3.83.31-.15,1.3,1.07,2,2.6,1.61,3.6,3.9,5.51,7.5,6s9.72,5.05,15.54,11.25c4.21,4.44,4.29,4.44,7.43,4.06,5.2-.77,6.2-1.53,5.74-4.9-.77-5.67-10.18-18.3-17.23-23.19-2.58-1.93-5.66-3.08-8.88-3.3-4.74-.69-13.16-.84-15.46-.38-.53.15-2.29.46-3.75.69-5.13.84-10.1,7.27-11.1,14.47l-.46,3.29,2.83-.46c1.45-.26,5.43-.95,8.72-1.56ZM10.21,475.34c4-2,5.36-2.22,12.63-2.6,12.25-.53,19,1.23,29.16,7.73l3.76,2.45,2.14-2.06c2.75-2.61,2.83-5.75.38-11.1-1.91-4.14-10.64-13.48-14.39-15.31-5.82-3.06-26.49-1.61-34.29,2.29-4.44,2.3-5.21,4.21-5.29,12.33,0,3.9.31,7.35.69,7.81.54.45,2.22,0,5.21-1.54Z"/>
</svg>