<?xml version="1.0" encoding="UTF-8"?>
<svg id="_Слой_1" data-name="Слой 1" xmlns="http://www.w3.org/2000/svg" xmlns:xlink="http://www.w3.org/1999/xlink" viewBox="0 0 637.17 864">
  <defs>
    <style>
      .cls-1 {
        fill: url(#linear-gradient);
      }

      .cls-1, .cls-2, .cls-3, .cls-4, .cls-5, .cls-6, .cls-7, .cls-8, .cls-9, .cls-10 {
        stroke-width: 0px;
      }

      .cls-2 {
        fill: #000;
      }

      .cls-3 {
        fill: #80f0ff;
      }

      .cls-4 {
        fill: #ff7a7a;
      }

      .cls-5 {
        fill: none;
      }

      .cls-6 {
        fill: url(#linear-gradient-2);
      }

      .cls-7 {
        fill: url(#linear-gradient-3);
      }

      .cls-8 {
        fill: #fff;
      }

      .cls-9 {
        fill: url(#linear-gradient-4);
      }

      .cls-10 {
        fill: #001c39;
      }
    </style>
    <linearGradient id="linear-gradient" x1="220.7" y1="783.81" x2="493.22" y2="783.81" gradientUnits="userSpaceOnUse">
      <stop offset="0" stop-color="#002a8a"/>
      <stop offset="1" stop-color="#1a2462"/>
    </linearGradient>
    <linearGradient id="linear-gradient-2" x1="122.78" y1="491.54" x2="497.52" y2="491.54" gradientUnits="userSpaceOnUse">
      <stop offset="0" stop-color="#00b5fa"/>
      <stop offset="1" stop-color="#2068b3"/>
    </linearGradient>
    <linearGradient id="linear-gradient-3" x1="128.46" y1="588.18" x2="523.88" y2="588.18" gradientUnits="userSpaceOnUse">
      <stop offset="0" stop-color="#d4f2ff"/>
      <stop offset="1" stop-color="#48ade2"/>
    </linearGradient>
    <linearGradient id="linear-gradient-4" x1="27.56" y1="281.88" x2="548.56" y2="281.88" gradientUnits="userSpaceOnUse">
      <stop offset="0" stop-color="#0063b9"/>
      <stop offset="1" stop-color="#113767"/>
    </linearGradient>
  </defs>
  <path class="cls-5" d="M284.19,77.21c8.59-.8,17.28-1.6,25.88-1.77,9.57-.18,19.05.26,28.62.53,3.55.09,7.09.26,10.64.62,2.13.18,4.25.71,6.38,1,4.52.71,9.13,1.33,13.65,2,1.77.27,1.15-1,.71-1.33-1.95-1.59-3.81-3.37-6-4.34-8.77-4-17.55-7.89-27.65-9-2.48-.18-5.05-.53-7.62-.53-6.38-.09-12.77-.18-19.15,0-3.7.04-7.39.49-11,1.33-5.8,1.45-11.52,3.25-17.1,5.4-3.88,1.68-7.61,3.67-11.17,5.94-.62.27-.62,1.42-1,2.22.8.28,1.64.4,2.49.35,4.07-.74,8.15-1.98,12.32-2.42Z"/>
  <path class="cls-10" d="M212.93,294.89c-4.61,12.67-6.21,25.88-7.62,39.08-.27,2.31-1.07,4.7-.89,6.91,1,7.54,2.12,15.07,4.61,22.25,1.06,3.28,1.95,3.63,5.14,2.57,3.63-1.24,7.27-2.84,11-3.54,6.77-1.55,13.64-2.62,20.56-3.2,5.18-.16,10.36.52,15.33,2,5.76,1.6,11.26,3.28,16.13,6.56,1.87,1.33,3.64,2.48,5.77,4,.43.78.96,1.5,1.59,2.13,1.24,1,2.57,2.57,3.9,2.57,3.33.09,6.65-.36,9.84-1.33,5.39-1.8,11.14-2.25,16.75-1.33,7.53,1.33,15.16,2.66,22,6.91,6.2,3.73,12.5,7.27,17.1,13,6.12,7.53,11,15.69,13,25.35.88,4.25,1.59,4.7,5,1.95,5.4-4.34,10.46-8.86,13.65-15.6,4.03-8.29,6.18-17.37,6.29-26.59,0-4.7-.26-9.57-.62-14.36-.45-6.22-1.31-12.41-2.57-18.52-2.13-8.51-5-16.93-7.8-25.26-2.57-7.45-5.41-15-9.48-21.89-5.06-8.33-11.79-14.89-19.06-20.92-2.92-2.3-4.43-1.68-7,1.06-4.34,4.44-9,8.87-13.65,12.94-2.13,1.87-5.14,3.2-7.89,2-5.23-2.12-10-5-15.15-7.44-1.24-.53-3.37-1.24-3.9-.62-3.28,2.92-5.94.8-8.69-.53-3.46-1.69-6.65-3.9-10-5.68-3.72-1.95-5.76-4.61-5.31-7.18.71-3.19,1.24-6.29,1.86-9.48,1.24-6.38,2.39-12.76,3.72-19.05.89-4.17-1.5-7.8-5.58-8.16-1.24-.18-2.57-.44-3.81-.53-2.84-.27-5.68-1.06-8.33-.62-6.48,1.07-12.67,3.49-18.17,7.09-5.85,3.67-10.96,8.39-15.07,13.93-4.7,6.29-9.66,12.4-13.56,19.41-3.54,6.47-6.58,13.19-9.09,20.12Z"/>
  <path class="cls-4" d="M347.2,393.8c-5.64-5.34-12.43-9.32-19.85-11.61-4.79-1.51-9.93-1.86-14.89-2.75-7.16-1.13-14.46-.92-21.54.62-2.83.53-5.58,1.24-8.33,1.77-.5.09-1.01.09-1.51,0,.22-.34.43-.7.62-1.06,1.78-2.84,1.16-5.67-1.95-7.36-3.7-1.81-7.48-3.44-11.34-4.87-4.34-1-8.69-2.75-13-2.93-8.77-.17-17.81-1.06-26.5,1.15-4.4,1.25-8.72,2.75-12.94,4.52-2.84,1.07-2.66,3.37-.89,5.15,4.26,4.34,8.42,8.86,13.21,12.67,7.18,5.76,15.07,10.9,22.51,16.48,8.79,6.74,18.48,12.23,28.78,16.31,12.81,4.66,26.2,7.52,39.79,8.51,5.67.44,11.44,0,17.2.09,6.52.04,13.01-.76,19.32-2.39,7.27-1.86,9.39-4.7,6.91-11.08-3.41-8.8-8.74-16.73-15.6-23.22Z"/>
  <path class="cls-8" d="M311.58,283.45c2.71,1.97,5.7,3.52,8.87,4.61,2.62.85,5.44.85,8.06,0,2.57-.89,4.43-3.37,7-5.49,1.86-1.6,3.72-3.2,5.5-4.88,3.1-3,2.92-4.34-1.07-6.29-5.93-2.93-11.87-5.85-17.81-8.87-3-1.5-3.81-1.24-5.41,1.87-2.3,4.43-4.34,9-6.73,13.29-1.41,2.57-.54,4.52,1.59,5.76ZM296.06,279.55c6.21,3.28,6.38,3.64,10.28-2.57,3-4.77,5.72-9.72,8.16-14.8.25-1.03-.02-2.12-.71-2.92-1.97-1.89-4.07-3.64-6.29-5.23-4.44-3.19-9-6.21-13.48-9.4-1.77-1.24-2.66-.35-3.1,1.33-.88,3.46-1.5,7-2.48,10.81-.64,3.22-1.12,6.48-1.42,9.75-.26,2.93-1.33,6.39,2,8.51,2.26,1.63,4.61,3.14,7.04,4.52Z"/>
  <path class="cls-1" d="M490.34,720.22c-12.67,7.18-25.44,14.36-38.91,20.3-10,4.34-20.38,7.89-30.84,11.26-5,1.59-10.19,3.19-15.34,4.6-3.81,1.16-7.62,2.22-11.43,3-4.43,1-8.95,1.42-13.2,2.75-6.2,1.87-12.56,3.17-19,3.89-8.95,1.16-18,1.69-26.95,2.58-5.67.44-11.34,1.06-16.92,1.59-.78.13-1.55.31-2.31.53.8.62,1.51,1.78,2.48,2,6.39,1.95,12.86,3.73,19.41,5.23,1.34.2,2.7-.12,3.82-.88,2.39-1.78,4.87-1.6,6.82.7,5.76,7,10,15.07,14.36,23.14,1.77,2.99,4.35,5.42,7.44,7,10.9,5,22.51,7.09,34.39,8,7.46.62,14.95.79,22.43.53,4.07-.09,8.24-1.42,12.14-2.84,2.3-.8,4.25-2.83,6.56-4.61,3.63-4.87,7.71-9.57,10.9-14.62,4.08-6.38,7.53-13,11.25-19.59,2.93-5.23,6-10.37,8.87-15.69,2.48-4.78,4.69-9.83,6.91-14.71,3.37-7.33,6.65-14.69,9.84-22.07.35-.8,0-1.86,0-2.83-.93.15-1.84.4-2.72.74ZM373.26,819.93c-2.46-2.25-6.23-2.25-8.69,0-4.6,3.99-7.69,9.43-8.77,15.42-.48,3.16.82,6.33,3.37,8.25,3.1,2.39,6.55,3.54,10.63,4.43,3.9,0,7.89,0,11.79.09,1.33.09,2-.18,1.95-1.6-.1-2.7-.34-5.39-.71-8.06-1.59-6.92-4.43-13.39-9.57-18.53ZM327.44,780.14c-6.21,0-11.44-2.75-16.93-5.23-5.85-2.57-11.61-5.32-17.82-6.74-6.38-1.5-13.11-1-19.58-2.13-10.11-1.77-20-4-30-6.38-6.56-1.68-12.85-4-19.41-5.93-2-.62-3.37-.09-2.92,2.21.62,2.75,1.59,5.41,2.3,8.69,4.52,10.19,8.77,20.47,13.56,30.49,1.22,2.48,3.3,4.43,5.85,5.49,5.14,1.77,10.63,2.57,15.95,3.81,8.32,2.07,16.87,3.06,25.44,2.93,6.12-.27,12.14-1.78,18.26-2.31,6.56-.53,11.79-3.63,16.31-8.24,3.72-3.9,7.53-7.8,11.16-12,.77-1.08,1.06-2.43.8-3.73.04-.4-1.91-.93-2.97-.93ZM304.84,823.3c-1.69-.62-3.64-.44-6.12-.71-.18-.18-.35-.53-.62-.53-9.62-1.19-19.3,1.72-26.68,8-1.24,1.06-2.83,3.36-2.48,4.52.82,1.8,2.37,3.15,4.26,3.72,4.97,1.35,10.04,2.35,15.15,3,3.15.55,6.38.43,9.48-.35,5.5-1.51,8.16-5.94,9.05-11.35.44-2.22.7-5.06-2.04-6.3Z"/>
  <path class="cls-6" d="M404.01,177.63c-.7,1.15-1.59,2.3-2.3,3.63-6.65,11.79-8.86,24.73-9,38-.18,6,.62,12.06,1.15,18,.62,7.88,3.19,15.15,6.56,22.15,2.8,5.86,6.38,11.32,10.64,16.22,5.59,6.65,12.25,12.32,19.72,16.77,8.69,5.14,18,9,28,9.75,9.39.8,18.88.53,28.18-2.12,8.6-2.4,10.73-5.14,10.55-14.45-.18-10.64-.62-21.27-1.15-31.91-.2-5.36-.85-10.7-1.95-15.95-1.98-7.9-4.4-15.68-7.27-23.31-1.51-4.08-3.37-8.33-8-10.28-13.65-5.85-24.81-15.42-35.63-25.35-5.76-5.23-11.52-10.46-17.55-15.51-1.59-1.42-3.45-3.46-6.29-1.86s-3.37,3.9-3.54,6.73c-.27,5.59,2.21,10.46,4.69,15.07,3.44,6.83,7.41,13.38,11.88,19.59,5.05,7.27,10.81,14,16.22,21.54,4.43,4.69,6.82,10.45,9.13,16.21,1.24,3.37,2.3,6.74,3.37,10.29.17.62-.36,1.5-.45,2.21-.57-.29-1.05-.72-1.41-1.24-1.6-2.39-2.84-5.14-4.61-7.44-4.17-5.59-8.51-11.08-12.85-16.49-1.72-2.19-3.59-4.26-5.59-6.2-.35-.45-1.24-.45-1.86-.62.12.56.33,1.1.62,1.59.62,1.33,1.51,2.75,2.13,4,.21.49.39.99.53,1.51-.54-.1-1.05-.31-1.51-.62-8.67-8-17.33-16.07-26-24.2-.66-.69-1.23-1.46-1.69-2.3-.22-.54-.31-1.11-.26-1.69.48.11.95.26,1.41.44,1.19.63,2.32,1.38,3.37,2.22,4.17,3.9,8.24,7.89,12.41,11.7.98.7,2.06,1.26,3.19,1.68-.44-1.06-.53-2.39-1.24-3.28-2.57-3.36-5.5-6.55-8.07-10-5.54-7.17-9.74-15.27-12.4-23.93-.64-2.18-1.71-2.41-3.13-.55ZM421.58,254.12c-.44-.27-1.15-.54-1.41-1-2.4-3.54-4.52-7.27-7.1-10.64-3.89-5.22-8.06-10.1-12.14-15.24-.07-.66-.1-1.33-.09-2,.71.18,1.78.09,2.13.53,4.08,4.79,8.33,9.4,12,14.45,2.65,3.72,4.52,8.07,6.73,12.14.22.43-.05,1.13-.12,1.76ZM423.44,221.12c7.61,6.79,12.39,16.18,13.39,26.33.62,5.58.88,11.25,1.24,16.84-.09.57-.3,1.11-.62,1.59-.36-.44-1-.88-1.15-1.41-1.42-5.59-2.57-11.35-4.35-16.93-2.32-7.98-6.44-15.32-12.05-21.45-1.15-1.07-2.48-2-3.81-3.1-3.9-1.78-7.71-3.47-11.43-5.06-.79-.35-1.54-.8-2.22-1.33-.26-.28-.5-.57-.71-.88.44-.27.8-.71,1.15-.8,7.7-.6,14.7.82,20.54,6.22l.02-.02ZM228.17,153.34c-1.51-2.74-3.28-2.12-5-1.06-12.68,7.66-24.51,16.66-35.27,26.85-7.27,6.83-14,14.27-20.57,21.72-7.75,8.9-14.46,18.65-20,29.07-8.06,14.53-14.8,29.78-19.05,45.82-2.22,8.4-3.91,16.92-5.06,25.53-.79,6.91-.35,14.18,0,21.27.19,7.15.78,14.28,1.78,21.36,1.15,7.44,2.92,14.8,4.78,22,4.43,16.66,12,32.08,21.36,46.35,5.33,8.04,11.13,15.77,17.37,23.13,4.66,5.8,9.86,11.16,15.51,16,6.59,5.6,13.76,10.5,21.37,14.62,7.29,4.09,14.87,7.61,22.69,10.55,9.13,3.19,18.35,6.38,27.83,9,8.75,2.45,17.63,4.46,26.59,6,7.45,1.15,14.97,1.77,22.51,1.86,7.36.17,14.63-.18,22-.54s14.63-1,22-2c6.12-.7,12.5-1.32,18.44-3,13.29-3.9,26.5-8.15,39.62-12.76,15.1-5.18,29.51-12.21,42.89-20.92,4.44-2.92,5.94-6.29,6.39-11.08.35-3.72.62-7.53,1.33-11.34s0-5.05-3.64-6.38c-6.91-2.31-13.47-5.23-18.52-10.82-1.15-1.15-1.6-2.12-.36-3.54,1.69-1.95,3.11-4.26,5-6,7.71-7.71,15-15.6,20.65-24.9,5.94-10,12.32-19.95,17.9-30.23,4.43-8.42,8-17.37,11.52-26.14,1.52-3.67,2.56-7.51,3.11-11.44.44-3.45-.71-3.81-4.26-3.1-5.42,1.33-10.94,2.23-16.5,2.68-4.53.36-9.13-.62-13.74-1.06-9.06-.95-17.9-3.41-26.15-7.27-13.47-6.13-25-15.85-33.32-28.09-10.55-15.16-16.05-31.82-15.87-50.26.18-5,.62-9.92,1.24-14.89.71-5.58,1.86-11.17,2.84-16.75.53-3.1,1.06-6-.27-9.22-3.19-7.71-12.94-10.54-20-6.91-4.61,2.48-8.95,5.32-13.47,7.71-7.58,3.94-15.58,7.03-23.84,9.22-8.23,2.36-16.71,3.73-25.26,4.08-5.52.11-11.05-.3-16.49-1.25-7.52-1.39-14.82-3.81-21.67-7.21-4-2-8.16-3.82-12-6.12-6.82-4-13.29-8.42-17.46-15.42-3.01-5.01-6.2-9.98-8.95-15.12ZM330.1,202.71c.73-.99,1.56-1.9,2.48-2.71,3.74-3.65,8.5-6.09,13.65-7,5.58-1.06,10.72-1.15,15.33,3.28,4.88,4.66,8.24,10.68,9.66,17.28.27.89-.35,2-.62,3-.61-.58-1.17-1.21-1.68-1.87-2-3.36-3.55-6.91-5.85-10-4.88-6.65-12.15-8.24-19-5.85-4.17,1.51-8.24,3.81-12.41,5.76-.68.27-1.39.45-2.12.53.04-.83.23-1.65.56-2.42h0ZM346.4,226c-.39.2-.81.35-1.24.44-3.9.45-7-1.5-10.1-3.81-1.14-1.17-2.21-2.41-3.19-3.72-.44-.71-.27-1.77-.44-2.66.7.44,1.41.8,2.12,1.33,3.11,2,6.12,4.08,9.22,6.12.96.43,1.93.82,2.93,1.15.35.15.44.73.7,1.15ZM252.46,233.89c9.92-6.47,20.47-8,31.19-2.93,5.77,2.66,11,6.74,16.4,10.2.8.53,1.6,1.15,2.48,1.86,8.18,5.95,16.84,11.23,25.88,15.77,10.76,5.23,21.16,11.18,31.11,17.82,6.74,4.61,11.88,11.52,16.22,18.88,5.83,10.17,10.5,20.96,13.92,32.17,3.1,9.75,5.93,19.59,7.09,29.78.79,7.09,2,14.36,1.68,21.36-.35,6.47-2.66,12.85-4,19.14-1.8,7.79-5.8,14.89-11.52,20.48-7.71,7.8-17.37,12.14-28,14.44-9.15,2.1-18.55,2.88-27.92,2.31-11.49-.65-22.89-2.49-34-5.5-10.72-3-21.18-6.56-30.84-12.05-9.49-5.5-18.79-11.52-27.83-17.73-7.09-5-13.74-10.46-20.3-16s-9.34-13.31-11.44-21.38c-3.28-12.5-3-25.35-2.31-38.11,1.07-18.49,6.48-36.46,15.78-52.47,3.63-6.29,8.42-11.79,12.85-17.46,6.54-8.33,14.78-14.89,23.56-20.56v-.02h0ZM421.65,825.16c-6.47-.71-13-.8-19.5-1.33-6.2-.62-12.32-1.68-18.43-2.48-1.15-.09-2.31-.09-3.46-.09.27,1.15.27,2.48.89,3.46,2.57,4.87,5.23,9.66,5.94,15.77.44,1.87.7,3.73,1.24,5.59s1.24,3.54,3.81,3.19c2.86-.24,5.7-.65,8.51-1.24,10.19-2.48,18-8.51,24-16.84,3.12-4.19.72-5.67-3-6.03ZM383.01,168.5c3.72,1.68,6.47,4.25,9.3,7,1.16,1.15,2.66,1.15,3.9-.62,1.87-2.48,3.82-5,5.94-7.53,3.28-3.64,6.74-7.09,10.11-10.64,1.5-1.68,1.59-3.46-.09-5s-3.72-2.57-6-4.26c-1.77-1.15-3.54-2.39-5.41-3.54-2.15-1.34-4.97-.68-6.31,1.47-.02.04-.05.08-.07.12-4,5.85-8,11.61-12,17.37-1.8,2.53-2.03,4.48.63,5.63ZM407.58,704.27c-3.41-1.61-6.91-3.03-10.48-4.27-9.23-3.38-17.69-8.57-24.9-15.25-3.55-3.37-6.92-7-10.55-10.46-.44-.44-1.51-.44-2.31-.44-3.81.44-7.71,1-11.61,1.15-4.69.36-9.39.44-14,.71-2.92.18-4.16,2.39-3.72,5.67.08,2.06,1.81,3.67,3.86,3.59.39-.01.77-.09,1.14-.22,2.39-.71,4.7-1.86,7.09-2.57.81-.19,1.65-.25,2.48-.18-.44.89-.62,2-1.24,2.49-2.08,1.23-4.24,2.32-6.47,3.27-5.05,2.13-10.19,3.82-15.07,6.3-3,1.59-5.58,4.07-8.24,6.38-.71,1.01-1.07,2.23-1,3.46,0,.26,1.86.88,2.83.79,1.71-.13,3.41-.42,5.06-.88,3.9-.62,7.88-1.24,11.87-2,2.57-.53,2.75.8,2.57,2.75-.44,5.85-1,11.61-1.15,17.46.07,1.89.49,3.75,1.24,5.49.36.89,1.69,1.51,2.57,2.22.71-1,1.86-1.86,2.13-2.93,1-4.52,1.42-9.13,2.57-13.56.71-2.3,2.48-4.43,3.9-6.56.18-.26.8-.44,1.24-.62,0,.53.35,1,.27,1.42-.54,1.86-1,3.63-1.69,5.41-1.24,3.54-2.66,7.26-1.86,11,.62,2.93,1.76,5.72,3.37,8.24,1.77,2.75,5.76,1.15,6.73-2.93,1.16-4.6,1.69-9.39,2.57-14.18.27-1.41,1.25-2.74,1.87-4.07.35,1.68.7,3.45,1.06,5.14,0,.09-.18.17-.18.26-.62,5.06-1,10.2,1.51,14.81.71,1.32,2,2.92,3.37,3.19.79.17,2.48-1.69,3-3,1.12-2.48,2.01-5.06,2.66-7.71.62-2.39,1.77-4.08,4.34-4.16,4.34-.09,8.69-.09,13.56-.09.9-.25,1.82-.43,2.75-.53,7.18-.18,12.94-3.46,17.81-8.42,2.57-2.62,2.31-4.57-.95-6.17ZM386.91,139.69c-.2-1.51-1.13-2.83-2.48-3.54-4.43-1.15-9-2.48-13.56-2.39-12.85,0-25.79.62-38.65,1.06-1.37.11-2.73.32-4.07.62-.83.33-1.63.71-2.4,1.15.89.62,1.78,1.69,2.66,1.77,6.74.54,13.39.89,20.74,1.24,1.95.27,3.81.45,5.76.71,3.81.45,7.54,1,11.35,1.24,5.85.45,11.61,1,17.37,1,1.5-.35,2.73-1.42,3.28-2.86ZM307.85,140.49c-9.48,2.13-18.79,5.41-28.1,8.33-10.9,3.28-21.18,8.42-32.7,9.66-2.84.36-4.25,2.31-2.93,4.26,1.11,1.63,2.42,3.12,3.9,4.43,4.52,3.54,9,7.09,13.92,10.19,12.05,7.8,25.26,12.32,39.62,12.59,5.22,0,10.44-.38,15.6-1.16,2.82-.31,5.55-1.15,8.06-2.48,3-1.83,6.5-2.67,10-2.39,1.2-.21,2.26-.92,2.92-1.95.36-.53-.53-2-1.24-2.84-6.82-7.53-16.13-9.75-25.7-10.19-8.51-.44-17,.36-25.62.44-.82-.14-1.6-.44-2.3-.88.54-.52,1.17-.94,1.86-1.24,6.91-2,13.92-4.43,21.18-4.43,4.14.04,8.27.43,12.34,1.17,9.31,1.42,17.29,5.32,22.25,13.82.29.37.55.76.8,1.16,1.41,2.12,3.19,1.68,4.69.35,1.08-.96,1.91-2.18,2.4-3.54,2.57-8.42-1.15-14.54-10-17.82-3.19-1.24-6.82-1.68-10.19-2.57-.55-.21-1.06-.51-1.51-.89.53-.39,1.14-.66,1.78-.79,4.6-.09,9.12-.18,13.56,1.68,5.67,2.39,11.08,10,10.72,16-.03,1.13.03,2.25.18,3.37,1.22-.44,2.4-.97,3.54-1.59,3.52-2.4,6.9-5,10.11-7.8,3.13-2.78,6.01-5.84,8.59-9.13,1.78-2.4,1.24-3.37-1.68-3.81-4.52-.71-9.31-.89-13.74-2-10.46-2.22-20.65-4.79-31.64-7.27-2.57-.53-5.14-1.24-7.8-1.6-4.36-.57-8.88-1.97-12.87-1.08ZM321.85,179.84c.18,0,.36.27.45.36,1.15.62,2.3,1.15,3.36,1.77-1.32.27-2.83.89-4.07.71-4.08-.62-8.07-1.42-12.06-2.39-.62-.18-1.06-1.16-1.5-1.95,4.87-1.51,9.3.66,13.82,1.5ZM272.58,824.63c4.6-3.37,9.3-6.47,15.51-6.29,5.31.09,10.54-.09,15.59,1.77.54.18,1.69-.8,1.95-1.51,1-2.3-1.24-5.14-3.81-5.05-7,.09-13.91.44-20.91.53-3.19,0-6.3-.35-10.11-.62-1,0-2,.09-2.92,0-4.61-.53-9-1.24-13.56-1.77-2.48-.27-3.1.71-2.22,3.19,2.09,5.51,5.14,10.61,9,15.07,2.13,2.3,3.81,2.48,5.85.18,1.69-2.01,3.58-3.85,5.63-5.5ZM260.17,137c-.71-.08-1.42-.53-2.13-.35-1.08.28-2.12.7-3.1,1.24-5.41,2.3-10.82,4.61-16,7.27-.89.62-1.16,2.57-1.69,3.9,1.24.09,2.66.53,3.81.18,1.72-.55,3.36-1.32,4.88-2.31,1.95-1,3.9-2,5.76-3.1,2.57-1.51,5.14-3.1,7.62-4.79.39-.63.67-1.32.85-2.04ZM197.68,677.86c1.07,3.1,1.78,6.29,3.1,9.3.8,1.6,2.22,3.9,3.64,4.08,2.3.36,2.66-2.48,3.45-4.16.12-.37.15-.77.09-1.16.62-12.32-2.74-22.86-12.85-30.75-6.82-5.23-15-6.38-23-6.56-3.81-.18-8,1.42-11.7,2.92-8.69,3.37-15.25,9.31-18.52,18.35-1.85,5.2-2.31,10.79-1.31,16.22.86,5.68,2.9,11.11,6,15.95,2.66,2.84,5.05,5.68,7.8,8.25.89.79,2.39.71,3.63,1.06.27-1.33.8-2.75.54-3.9-.45-2-1.51-4-2.13-6-.07-.67-.01-1.35.18-2,.63.16,1.26.37,1.86.62,4.16,1.59,8.33,3.27,12.58,4.78,1,.27,2.22-.09,3.37-.09-.44-1.15-.62-2.66-1.42-3.45-1.77-2-3.9-3.46-5.67-5.32-.89-.89-1.24-2.31-1.86-3.46,1.3.16,2.57.46,3.81.89,3.55,1.33,6.91,2.83,10.46,4.16,1.03.14,2.07.14,3.1,0-.18-1.15-.09-2.48-.62-3.45-1.15-2.22-2.66-4.17-3.81-6.38-2.75-5.41-4.88-11.08-5.05-17.29,0-.71.62-1.33,1-2,.54.47,1.02,1.01,1.42,1.6,1.15,1.77,2,3.9,3.28,5.49,1.68,1.87,3.9,4.08,6.47,3,1.15-.45,1.77-3.46,1.77-5.23-.09-3.72-.8-7.45-1.15-11.08.13-.78.34-1.56.62-2.3.71.63,1.31,1.38,1.77,2.21.9,2.06,1.61,4.19,2.13,6.38.71,2.48,1.6,5.06,1.42,7.54-.27,4.61-1.51,7.35-5.85,8.15-1.95.44-3,1.51-2.48,3.55.44,2.21,2.74,1.68,3.63,1.24,2.27-1.05,4.27-2.59,5.85-4.52,1.24-1.6,1.33-4.08,2-6.12.26-1,.89-1.68,1.24-2.66.47.67.87,1.39,1.21,2.14Z"/>
  <path class="cls-7" d="M517.58,670.5c.8,1.42,1.59,2.84,2.39,4.17.52.77,1.08,1.51,1.69,2.21.71-.88,1.86-1.77,2-2.83.25-2.39.28-4.79.09-7.18-.09-.71-.71-2-1.16-2-1,0-2.39.18-2.92.8-.91,1.51-1.62,3.13-2.09,4.83ZM517.58,678.39c-.29-1.36-.67-2.7-1.15-4-1-2-2.48-2.39-4.26-.88-2.12,1.94-4.25,4.07-6.56,5.93-5.4,4.7-8.15,9.75-3.81,16.75,1.51,2.57,2.66,3.55,4.88,1.6,3.3-2.93,6.4-6.07,9.3-9.39,2.46-2.65,3.16-5.84,1.6-10.01ZM213.9,719.34c5.79,2.61,11.78,4.74,17.91,6.38,6.36,1.68,12.81,3.01,19.32,4,6.29,1.06,12.67,1.77,19.05,2.39,8.51.8,17.11,1.6,25.62,1.77,10.45.18,21-.26,31.37-.62.8,0,2.13-1,2.13-1.59,0-3.81-.27-7.54-.53-12,.56-2.84.94-5.71,1.15-8.6.16-1.61-.28-3.22-1.24-4.52-.53-.62-2.75.09-4.08.45-2.75.8-5.32,1.77-8,2.66-2.78,1.06-5.92.16-7.71-2.22-2.12-2.57-1.77-5.58-.09-8.33,3.11-5.14,7.89-8.24,13.57-10.19,1.49-.61,2.66-1.79,3.27-3.28.45-1.51,0-3.46-.35-5.23-.85-3.66,1.43-7.31,5.09-8.16.45-.1.91-.16,1.38-.17,6.38-.09,12.76-.09,19.06-.09,7.09,0,7.53,0,7-6.83-.53-7.09,1.86-13.29,5.67-18.87,3.19-4.79,7-9.22,13.38-10,2.44-.23,4.51-1.86,5.32-4.17.81-2.21,1.4-4.49,1.77-6.82,2-9,3.64-18,5.59-26.94,2-9.49,4.25-19,6.73-28.45,1.33-5.23,2.57-10.82,9.13-12.41.43-.12.82-.33,1.15-.62,9.58-7.71,19.86-13.39,32.18-15.51,7.1-1.31,14.39-1.19,21.45.35,11.87,2.84,21.89,9.31,28.18,20.12,3.19,5.5,5.76,11.43,8.69,17.11.44.88,1,2.48,2.66.88,1-1,1.59-1.06,1.86-.44.21.5.27,1.05.17,1.59-.35,3.73-.79,7.54-1.15,11.35-.8,8.86-3.37,17.28-6.38,25.52-4.17,11.53-9.48,22.61-16.75,32.53-7.52,10.28-15.67,19.94-26.89,26.62-2.75,1.77-6,3.81-6.3,7.54-.28,3.21-1.34,6.3-3.1,9-3,5.31-6.47,10-12.85,11-3.37.53-6.74.44-10,1-1.5.18-3.45.89-4.16,2-1.82,2.78-3.4,5.71-4.7,8.77-.22.99-.34,1.99-.35,3,.98.03,1.95-.03,2.92-.18,8.42-2.66,17-5.14,25.44-8.24,10.37-3.81,20.91-7.54,31-12.23,8.3-4,16.27-8.66,23.84-13.92,10.16-6.61,19.29-14.67,27.12-23.93.93-1.11,1.35-2.56,1.15-4-3-8.86-3.54-18.08-4.78-27.21-1.16-8.42-1.86-16.92-3-25.43-1.06-7.18-1.86-14.45-3.72-21.45-.44-1.69-.89-3.28-1.33-5-3.72-13.65-7.62-27.39-12.23-40.77-3.28-9.58-8.15-18.71-12.58-27.83-1.16-2.49-3.11-5.32-6.74-4.61-1.76.37-3.46,1-5.05,1.86-9.31,5.49-18.7,10.9-28,16.57-7.8,4.7-15.51,9.93-23.31,14.71s-15.78,9.75-23.93,14.1c-9.36,5.36-19.01,10.21-28.89,14.53-9.4,3.9-19.32,6.56-29.07,9.57-9.4,2.84-19.15,4.17-28.81,5.06-4.87.53-9.84.17-14.71.08s-9.93-.17-14.89-.7c-5.39-.38-10.75-1.21-16-2.49-11.34-2.92-22.51-6.29-33.59-9.83-6.2-2-12.23-4.79-18.34-7-12.74-4.56-24.86-10.69-36.08-18.25-2.65-1.78-5.05-3.9-7.71-5.76-.83-.43-1.72-.7-2.65-.8.3.68.63,1.35,1,2,3.63,5.31,7.18,10.63,11,15.77,2.3,3.19,5,5.94,5.5,10.19.44,4.53,1.59,8.87,2.3,13.3,1.06,7.36,2.22,14.71,3,22.07.71,6.65.53,13.29,1.42,19.85.29,3.98,1.63,7.8,3.9,11.08,3.93,5.28,6.35,11.53,7,18.08.42,3.29,1.64,6.42,3.55,9.13,6.29,8.6,10.1,17.9,8.95,28.72-.48,3.06-1.6,5.99-3.28,8.59-1.68,2.84-6,2.66-9.84.09-.9-.49-1.85-.88-2.83-1.15-.22.75-.31,1.52-.27,2.3,2.08,10.39,7.22,18.82,17.32,23.16ZM491.94,691.42c-3.64,2.3-7.18,4.52-10.82,6.73-4.61,2.75-5.67,4.26-4.78,7.54.71,2.3,1.59,4.61,2.39,6.82,1.06,3,2,3.55,4.7,2,3.63-2.22,7.09-4.79,10.72-7.09,2.39-1.59,4.34-3.54,4.61-7.18-.35-2.3-.71-4.52-1.24-6.73-.71-3.69-2.39-4.22-5.58-2.09ZM445.49,675.64c2.53-1.77,4.85-3.82,6.92-6.11,4-4.08,7.89-8.25,12-12.68.36-.53.71-1.15,1.06-1.68,5.8-5.89,10.45-12.81,13.74-20.39,5-10.72,9.57-21.53,14-32.44,1.67-4.25,2.65-8.73,2.92-13.29,0-3.63-1.6-7.45-2.92-10.9-3.46-8.69-8.51-16.66-16-22.43-11.61-8.86-25.26-11-39.26-8.59-10.19,1.86-19.32,6.65-28.36,12-7.54,4.35-10.28,10.37-11.08,18.17-.53,5.32-1,10.64-1.86,15.87-1,6.29-2.49,12.41-3.55,18.61-1.46,9.23-4.11,18.23-7.89,26.77-1.06,2.21-1.06,6.11,1.42,8.06,2,1.51,3.72,3.19,5.58,4.88,7,6.2,14.85,11.36,23.32,15.33,8,3.81,16.21,6.82,24.46,9.84,1.9.44,3.89.07,5.5-1.02ZM473.41,500.69c1.77-.18,3.37-1.07,5.59-1.69.26-.18.44-.44.7-.53,7.45-3.19,8-9.93,4.53-16.22-2.22-4-6.39-5.23-10.2-7-.98-.22-1.99-.34-3-.36.09,1-.09,1.95.09,2.84,1.77,7,2.48,13.92.53,21-.19.54,1.23,2.13,1.76,1.96ZM469.33,704.71c-6.29,2.84-12.67,5-19,7.71-3.1,1.24-6.74,2-8.6,6,.85,3.58,1.85,7.12,2.43,10.58.54,3.9,2.22,5.4,5.76,3.72,7.09-3.46,14.27-7.09,21.19-11,2.92-1.6,4.78-4.17,4.07-8-.53-2.3-.71-4.69-1.59-6.91-.53-1.74-1.51-3.34-4.26-2.1ZM440,511.5c1.06,4.52,2.21,5,6.56,3,5.31-2.48,10.45-5,15.68-7.62,2.49-1.33,4.7-2.93,5.68-6,2.48-8.42,2.57-16.84-.62-25-2-5.32-4.88-10.28-7.36-15.42-3.1-6.3-3.55-6.47-9.22-2.66-4.43,3-8.95,6.2-13.29,9.57-.84,1.05-1.1,2.44-.71,3.72,3.1,4.7,2.57,9.84,1.51,14.54-1.33,6-2.57,11.79.44,18,.44,2.64.71,5.3,1.33,7.87ZM434.24,718.18c-7.27,2.13-14.54,4.61-21.81,6.56-2.39.71-3.19,2-2.83,4.17.53,4,1.15,8,1.77,12s2,5.06,5.58,4c5.77-1.68,11.44-3.63,17.73-5.49,1-.36,1.95-.71,2.93-1.15,2.12-1,4.16-1.87,3.54-5-.71-3.9-1.15-7.8-1.86-11.61-.62-3.39-1.95-4.36-5.05-3.48ZM428.83,698.15c5-1.86,7.62-6.38,11.08-10.63.18-.62.62-1.33.53-1.86-.18-1.33-.35-3.28-1.15-3.73-1.94-.8-4.02-1.25-6.12-1.32-1.15.03-2.22.58-2.92,1.5-1.77,4.34-3.37,8.78-4.88,13.12-.26.89-.08,2.48.45,2.84.62.53,2.04.35,3.01.08ZM406.58,537.47c8-4.7,16-9.4,24.2-14.45.84-.43,1.64-.93,2.39-1.51,1.51-1.77,4.08-3.54,4.08-5.31-.09-4.35-1.42-8.69-1.95-13-.62-3.73-1.77-7.63-1.15-11.17.88-5.58,1.86-11,1.51-16.66-.27-3.9-2.93-5.59-6.47-4.17-1.6.71-3,1.51-4.61,2.13-8,3.54-15.87,7.18-23.85,10.55-5.14,2.12-6.29,4.43-5.85,9.66.45,4.61.09,9.3.09,14,0,3.1-.17,6.29.54,9.22,1.59,6.29,3.9,12.49,5.84,18.79,1.16,3.25,2.31,3.69,5.23,1.92ZM425.29,678.48c-5.41-3.19-10.82-6.12-16.22-9-2-1-3.28-.62-4.26,1.5-1,2.31-2.18,4.53-3.54,6.65l-6,9c-1.68,2.57-1.33,5.14.89,6,2,.8,4.07,1.51,6.38,2.39,3.1,1,6.2,1.69,9.21,2.66,4.26,1.24,7.18.44,9.31-3.19s3.81-7.18,5.59-10.72c1.12-2.19.67-4.14-1.36-5.29ZM400.38,727.23c-5.94,1-11.88,1.94-17.81,2.39-5,.53-9,1.59-12,6.29-2.57,4.43-3.54,8.51-2.39,13.47,1.68,6.83,1.5,6.92,8.86,6.38.31-.21.65-.39,1-.53,9.21-2.48,18.34-5.05,27.56-7.18,2.57-.62,2.84-2.21,2.66-4-.18-3.63-.71-7.17-1.15-10.72-.44-4.6-2.92-6.64-6.73-6.1ZM381.68,652.42c-3.19,4.26-6.12,8.78-9,13.21-3.63,5.49-3.55,7.8,1.15,12.23,3.28,3,6.83,5.58,10.19,8.42,2.66,2.21,4.88,2.3,7-.36,3.72-4.52,7.18-9.3,10.54-14.18,1.6-2.3,2.31-5.14,0-7.27-2.83-2.74-6.11-5.05-9.57-7.88-1.86-1.69-3.72-3.28-5.58-5s-3.67-.59-4.73.83ZM350.66,561c.35,3.55.53,3.55,4.16,2.49,13.74-4.35,26.15-11.26,38.74-17.82,4.34-2.3,5.93-5.41,5-8.51-1.42-4.61-3.19-9.22-4.61-13.91-1.06-3.64-2.3-7.45-2.48-11.26-.36-6,.44-12.23.35-18.26,0-4.78-1.68-5.67-6.29-4.34-2.48.71-5.05,1.42-7.89,2.39-.42-.05-.84-.02-1.24.09-8.77,1.77-17.46,3.55-26.24,5.41-1.86.44-3.45,1.33-3.18,3.81.26,3.72.44,7.36.62,11.08.35,9.84.7,19.67,1.24,29.51.4,6.42,1.2,12.8,1.82,19.32ZM376.45,639.84c-7.27,3.45-11,9.48-13,17.28.36,3.1.71,6.2,1.33,9.3.09.71,1.24,1.6,2.13,1.78.44,0,1.33-1.07,1.77-1.78,3.55-5,6.91-10.28,10.55-15.24,2.3-3,3.1-6,1.77-9.48-.83-2.13-2.07-3.11-4.55-1.86ZM354.11,737.68c-3.27,2-6.2,1.33-9.21-.62-3.81-2.39-7.89-1.42-12-.62-.35.09-.71,1-1.15,2,.27,2.57.53,5.14.62,7.62.27,3.9.35,7.8.71,11.61.27,2.31,1.42,3.55,4.08,3.11,2.83-.62,5.76-.45,8.51-.8,5.67-.53,11.34-1.07,16.92-1.77,1.51-.27,2.93-.89,2.66-3.11-.42-1.89-.63-3.82-.62-5.76.45-4.61-1.42-8-4.78-10.81-1.83-1.64-3.78-2.18-5.74-.85ZM293.05,566.8c.26,5.76,2.57,7.89,8.33,7.45,6.71-.42,13.39-1.25,20-2.48,7.71-1.42,15.42-3.55,23.22-5.32,2.75-.62,3.28-2.57,3-4.88-.62-5.22-1.42-10.45-1.78-15.68-.62-7.8-.88-15.69-1.33-24.11-.17-6.56-.44-13.21-.44-19.77-.09-2.39-.71-3.1-3.1-3-13.65.09-27.3,0-40.95.09-2.17-.02-4.34.19-6.47.62-1.05.46-1.88,1.32-2.3,2.39-.7,1.78-1.07,3.68-1.07,5.59-.23,4-.2,8.01.09,12,.44,5,1.77,9.75,2,14.63.53,10.76.33,21.67.8,32.47ZM326.37,737.06c-4.61-.17-9.13-.09-14.27-.09-4.87.27-9.74.36-14.71.71-3.45.18-4.43,1.24-4.43,4.61,0,4.26-.09,8.51.09,12.76,0,2.84.8,5.32,3.9,6.12,1.58.46,3.22.7,4.87.71,8.25-.09,16.4-.35,24.55-.71,1.07,0,2.93-1.33,2.93-2,0-6.82-.18-13.56-.62-20.38,0-.66-1.51-1.73-2.31-1.73ZM243.33,565.21c4.07,1.06,8.24,1.95,12.41,3.1,10.36,2.66,20.74,5.67,31.64,5.58,3,0,3.63-.35,3.19-3.28-.87-5.04-1.44-10.13-1.69-15.24-.26-7,.36-14,.45-21,.11-2.15-.14-4.3-.75-6.37-2.35-8.02-2.54-16.52-.53-24.64.88-3.63-.45-5.67-3.9-6.11-2.77-.19-5.52-.52-8.25-1-.84.04-1.67-.05-2.48-.26-8.86-2.22-17.64-4.43-26.41-6.65-3.81-1-5.58.18-6.2,4.08-.39,2.34-.6,4.71-.63,7.09-.08,4.7-.08,9.48.27,14.27.06,1.22.2,2.43.44,3.63,0,.09.09.53.18,1.15.27,1.86.62,3.64.89,5.41-.05.37-.18.72-.38,1.03.27,3.81.45,7.71.45,7.8,0,2.57.17,5.14,0,7.63-.53,6.47-1.24,12.85-1.78,19.32-.44,2,.83,3.98,2.83,4.42.09.01.17.03.25.04ZM287.47,737.15c-8.07-.62-16.05-1.33-24-1.24-5.06.09-5.14.71-5.06,6.12.08,2.55.28,5.09.62,7.62.89,5.58,2.22,6.82,8,8.06,1.52.21,3,.6,4.43,1.16,3.81.53,7.71,1,11.44,1.77,4.34.89,7-.36,7.09-4,.09-5.49.17-10.9-.09-16.31-.13-1.14-1.55-3.09-2.43-3.18ZM251.92,734.05c-6.64-1.42-13.29-2.66-19.94-3.63-2.83-.45-4.25,1.24-3.9,4.16.27,2.75.71,5.5,1.24,8.33.43,3.26,2.77,5.95,5.94,6.83,5.23,1.68,10.46,3.37,15.6,4.87,3.9,1.07,5.23,0,5.05-3.9,0-2.48-.35-4.87-.62-8-.18-1.87,0-3.9-.62-5.77-.5-1.29-1.49-2.33-2.75-2.89ZM198.66,548.1c8.68,4,17.55,7.54,26.41,11,3.22,1.11,6.55,1.91,9.92,2.4.63.08,2-1,2-1.69.54-4.78.8-9.75,1.33-14.62.45-3.81,1.16-7.62,1.86-11.35,0-.17.09-4.34.27-8.24-.11-.1-.2-.22-.27-.35-.67-1.78-1.29-3.55-1.86-5.32-3.19-9.18-3.19-19.18,0-28.36,1.51-4.52.8-4.35-3.37-6.38-5.84-2.84-12.05-5.23-18-7.8-6.73-3-13.29-6.21-20-9-1.06-.44-3.81.18-4,.8-1.9,7.01-1.99,14.39-.26,21.45,1.15,4.79,2.57,9.48,3.81,14.27.09.27.35,2.92.71,5.67.35.8.8,1.6,1.06,2.39.14.62.14,1.25,0,1.87-1.42,8-2.48,16.13-4.43,24-1.21,5.16.56,7.31,4.82,9.26ZM225.51,743.18c.02-4.26-.19-8.52-.62-12.76-.39-1.45-1.44-2.63-2.83-3.19-4.7-2-9.58-3.73-14.45-5.32-1.4-.6-3.02.05-3.62,1.46-.09.21-.15.43-.19.66-1.69,5.94.17,11.44,4.69,13.83,3.64,1.95,7.27,4.08,10.91,5.94,1.28.61,2.66.97,4.07,1.06.71-.53,2.04-1.15,2.04-1.68ZM196.97,715.53c.18,2.83.09,5.76.36,8.59.16,1.31.49,2.59,1,3.81.43.47.94.87,1.51,1.16.18-.36.62-.8.62-1.24.18-4.61,3.81-9.49-1.24-13.92-1.18,0-2.42-.35-2.25,1.6ZM157.09,648.88c5.76-2.84,11.7-3.11,18-3.11,6.15-.06,12.23,1.24,17.82,3.81.79.36,2.3.71,2.83.27.67-.82.9-1.9.62-2.92-1.03-5.4-3.8-10.32-7.89-14-7.71-7-17.28-7.62-27-6.91-2.21.09-4.34,1.06-7.18,1.68-3.19,1.69-6.47,3-9.48,5-5.76,3.9-10,9.13-10.72,16.22-.41,4.99-.41,10.01,0,15,.08,1.6,1.5,3,2.39,4.52,1.15-1.33,2.66-2.48,3.54-4.07,3.86-7.25,9.89-11.86,17.07-15.49ZM195.91,512.83c.07-.31.18-.62.35-.89-.71-2.83-1.41-5.94-1.59-6.29-.86-1.99-1.57-4.03-2.13-6.12-1.59-4.69-3.54-9.3-4.43-14.18-1-5.76.27-11.43,2.39-16.84.89-2.12.53-3.37-1-4.61-6.47-5.49-13.12-10.72-19.15-16.57-3.72-3.54-7.2-7.33-10.42-11.33-1.07,2.93-2.66,6.92-2.84,7.36-2.39,9.84-2.92,19.59,1,29.25,2.65,6.08,3.75,12.71,3.2,19.32-.27,2.84-.54,5.5-.54,8.24-.17,4.61,0,9.13-.09,13.65-.22,3.61.95,7.16,3.28,9.93,3.18,3.56,6.68,6.82,10.46,9.75,3.89,3.06,8.01,5.81,12.32,8.24,3,1.77,4.26.8,4.26-2.66.08-2.12-.27-4.34.17-6.38,1.43-6.7,3.08-13.31,4.76-19.87ZM141.4,628.58c6.38-5.5,13.74-8.6,22.34-8.15,4.25.17,8.51,0,12.76,0s5.49-1,5.41-5.5c-.18-5.58-.36-11.17-.62-16.75s-.18-11-.71-16.4c-.39-4.01-1.14-7.99-2.22-11.87-2.91-9.96-7.72-19.27-14.18-27.39-3.11-4.08-6.52-7.94-10.19-11.52-2.13-2-3.73-1.51-4.7,1.06-2.66,6.56-5.14,13.3-7.44,20-2.93,8.86-5.68,17.82-8.51,27.39-1.6,8.24-4.08,16.39-4.61,24.64-.71,11,.17,22.15.35,33.15.12.67.33,1.32.62,1.94.71-.22,1.37-.58,1.95-1.06,3.28-3.12,6.29-6.62,9.75-9.54ZM152.39,524.62c.27.79.27,1.86.8,2.48,1.59,1.33,3.28,2.3,4.79,3.63,1.77,1.42,1.41-.09,1.41-1.68-1.27-1.39-2.63-2.69-4.07-3.9-.74-.53-1.95-.36-2.93-.53ZM147.34,488.37c.18,3.19.09,6.55,1.06,9.48,1.69,5.49,4.08,10.9,6.21,16.31.36.68.8,1.3,1.33,1.86.47-.68.83-1.43,1.06-2.22.09-3.81-.09-7.71.09-11.52-.06-2.77.11-5.54.49-8.28,1-4.88,1.15-9.75-.62-14.36-3.46-9-7.27-17.9-4.78-27.92.74-3.09,1.65-6.14,2.74-9.13,1.3-2.54,2.75-4.99,4.35-7.35-1-1.24-2-2.4-2.84-3.55-4.08-5.23-7.71-10.81-11.61-16.13-1.24-1.6-2.66-1.51-3,.71-.66,2.94-1.05,5.94-1.16,8.95,0,5.05.18,10.11.54,15.16.31,3.36.81,6.7,1.5,10,1.24,6.56,3,13,3.9,19.59.74,6.08.47,12.28.74,18.4Z"/>
  <path class="cls-9" d="M529.52,275c-.36.45-.7.93-1,1.42-1.6,2.66-3.28,5.32-5.23,8.24-.22.34-.49.64-.8.89-4.6,4.52-8.95,9.31-13.73,13.56-3,2.75-6.12,5.32-7,9.57-2.35,11.13-6.04,21.93-11,32.17-4,8.51-8.42,16.76-12.76,25.09-5.94,11.25-13.83,21.18-22.6,30.31-4.25,4.52-9,8.6-13.38,12.94-2.75,2.66-2.4,5.23,1,6.29,8.24,2.48,16.58,4.61,24.91,7.09,1.06.27,1.95,1.24,2.92,1.77-.89.8-1.68,2.13-2.75,2.31-5.85,1.33-5.93,1.95-6.29,8.15-.54,5.57.07,11.19,1.77,16.52,3.11,9.13,7.72,16.93,17.73,19.67,5,1.33,10.1,2.13,14.89-1.15.46-.36.91-.74,1.33-1.15-.49-.51-1.1-.91-1.77-1.15-6-1.51-12.15-3.19-16.93-7.18-7.17-5.83-11.93-14.1-13.39-23.22-.08-.71.54-1.6.8-2.31.58.48,1.12,1.02,1.6,1.6.26.44.35,1.06.62,1.51,1.75,5.25,4.48,10.12,8.06,14.35,5.77,6.38,13.21,8.78,21.45,9.84,3.19.36,7.36.18,7.09,5.5-.09.71,1.95,2.21,3,2.21,3.45-.07,6.88-.4,10.28-1,3.45-.8,3.81-2.31,1.86-5.14-3.46-4.7-6.38-9.58-6.83-15.43-.32-7.13,1.14-14.23,4.26-20.65,4.52-10.19,9.57-20.12,13.82-30.4,4.52-10.63,9.75-21.18,11.7-32.79,1.69-9.22,3.55-18.52,4.7-27.74.8-6.47.53-13,.71-19.5,0-1.51-.53-3-.62-4.61-.18-5.14,0-10.46-.71-15.6-.8-6.91-2.13-13.82-3.54-20.65-1.42-6.47-3.19-12.85-4.88-19.23-.16-.55-.43-1.07-.8-1.51-.44.45-1.24.8-1.42,1.42-1.15,3.19-2.3,6.29-3.18,9.57s-1.6,6.47-.63,9.84c.7,2.51,1.09,5.1,1.16,7.71,0,7.18-.53,14.45-.53,21.63.13,8.52-.91,17.01-3.1,25.24-2.57,9.13-5.23,18.43-8.42,27.38-3,8.51-7.27,16.67-10.28,25.18-4.16,12-8.68,23.93-11.17,36.42-1.59,8-3.28,15.87-1.24,24.11.18.71-.71,1.68-1.15,2.66-.53-.62-1.33-1.15-1.51-1.86-.79-2.84-2-5.76-1.86-8.51.27-7,.54-14,1.86-20.83,1.62-7.15,3.75-14.16,6.39-21,3.36-9,7.44-17.73,10.81-26.77,4.77-11.94,8.8-24.16,12.05-36.6,2.27-8.92,3.75-18.03,4.43-27.21.62-8.07.62-16.22.71-24.29-.03-1.06-.24-2.11-.62-3.1-.19-.56-.46-1.09-.79-1.58ZM510.19,198.81c-2.37-2.84-4.88-5.56-7.53-8.15-.57-.44-1.29-.63-2-.54-.83,1.13-1.46,2.39-1.86,3.73-1.33,4.61-3.28,8.51-8.24,10.19-2.49.89-2.84,2.84-1.6,5.14,1.61,2.74,3.04,5.58,4.26,8.51,3.89,10,7.53,19.85,9.3,30.58,1.92,10.47,2.92,21.09,2.98,31.73,0,2.57.35,5.05.53,7.62.18,2,1.77,1.15,2.21.71,4-5.41,8.25-10.73,11.7-16.4,4.88-8.07,7.62-17.19,9.66-26.32,1.07-5.06,1.24-10.46-1.24-15.42-3.54-7-7.18-14-11.08-21.37-2.3-3.27-4.52-6.82-7.09-10.01ZM507.09,472.86c-2.83-1.07-5-.27-7.27,1.24-1.28.84-2.46,1.81-3.54,2.9-.71.71-1.77,1.68-1.6,2.22.43.97,1.23,1.74,2.22,2.12,2.41.63,4.87,1.05,7.36,1.24,8.5.71,16-2.21,23.22-6.11.62-.27.71-1.42,1.06-2.22-.6-.29-1.22-.52-1.86-.71-1.07-.08-2.22-.08-3.9-.08-5.2.99-10.64,1.26-15.69-.6ZM495.75,175.15c1.86,4.43,4.25,8.68,7.8,11.78,6.94,6.28,13.2,13.26,18.7,20.83.78,1.12,1.64,2.19,2.57,3.19.79.53,2,.53,2.92.89-.04-.83-.13-1.66-.26-2.48-.4-1.36-.87-2.69-1.42-4-2.22-5.32-4.43-10.64-7-15.87-3.81-8.06-9.22-15.24-15.43-22.24-4-3.1-7.88-6.3-11.87-9.31-.89-.62-2.39-.44-3.64-.62.18,1.15.09,2.48.63,3.46,2.21,4.88,4.83,9.49,7,14.37ZM432.02,154.85c-1.47.46-2.28,2.01-1.83,3.48.13.43.37.81.68,1.13,3.54,3.45,7.09,6.91,10.81,10.19,6.12,5.32,12.32,10.55,18.7,15.6,6.47,5.23,12.85,10.81,21.36,12.94,2.57.62,5.14,1.15,8.25-.27.8-.84,1.51-1.75,2.12-2.74,2.4-4.7,1.42-9.58.18-14.27-2.3-8.6-6.65-16.22-11.88-23.58-3.28-4.61-7.35-6.91-12.94-6.73-7.26.17-14.62,0-21.89.79-4.61.36-9.13,2.13-13.56,3.46ZM401.58,118.69c.36,4-.18,8-.53,12-.27,3.11,1.33,4.43,3.81,5.41,1.95.68,3.84,1.51,5.67,2.48.54.27.62,1.33.89,2h-1.86c-1.6-.27-3.1-.62-4.79-.89-.19.48-.22,1.01-.08,1.51,4.69,2.92,9.21,6,14.09,8.69,1.51.71,3.27.71,4.78,0,10.9-5.41,22.43-7.63,34.48-7.8,1.23-.07,2.45-.28,3.63-.62,3-.71,3.28-1.07.89-3.11-4.61-4-9.22-8.15-14.18-11.78-14.36-10.37-29.16-20.12-45-28-1.42-.71-3.2-.71-4.79-1,.18,1.51.27,3,.53,4.44.73,5.59,1.97,11.08,2.46,16.67ZM431.4,212c1.08.67,2.25,1.2,3.46,1.59-.37-1-.82-1.98-1.33-2.92-5.23-8.25-10.81-16.31-15.51-24.82-2.57-4.79-3.64-10.37-5.5-15.6-.14-.52-.32-1.02-.53-1.51-.44.54-1.15.89-1.15,1.42-.09,2.31-.62,4.7.09,6.83,3.37,11.34,9.39,21.27,17.1,30.66,1.16,1.53,2.13,3.04,3.37,4.35ZM240.05,138.45c4.52-1.15,8.95-2.48,13.38-3.63,5.58-1.33,11.35-2.48,17-3.64.8-.17,1.59-.26,2.39-.44-.26,1-.26,2.22-.88,2.84-3.2,3.19-6.48,6.2-9.84,9.13-2.93,2.39-6,4.52-9,6.82-1.16.89-.54,1.6.53,1.6,1.15.04,2.29-.14,3.37-.53,1.86-.8,3.72-1.78,5.67-2.4,14.09-4.52,28.27-8.95,42.36-13.56,7.54-2.48,15.07-4.7,23-5.23,8.86-.62,17.73-1,26.5-1.24,3.63-.09,7.36.44,11,.53,7.09.09,14.18-.09,21.27,1.86,3.1.8,4.43-.08,4.52-3.45.27-6.56,1.06-13.3-.18-19.68-1.68-8.6-4.6-17.19-15.15-19.32-8.33-1.68-16.66-3.46-25.08-4.79-4.95-.75-9.95-1.19-14.96-1.32-7.8-.35-15.69-1.15-23.4-.88-9.2.46-18.38,1.4-27.48,2.83-8,1.16-15.86,2.93-23.75,4.79-5.41,1.33-9.84,4.34-12.23,9.66-.24.62-.06,1.33.44,1.77,2.22-.26,4.43-.62,6.56-1.06,8.33-1.86,16.66-4,25.08-5.49,7.45-1.33,15.16-2,22.78-2.75.99-.02,1.99.12,2.93.44-.77.62-1.6,1.16-2.49,1.6-3,.71-6.11,1.24-9.21,1.86-6.12,1.06-12.32,1.86-18.44,3.28-7.71,1.68-15.42,3.72-23,5.85-5.32,1.41-10.73,3-12.68,9.13-.8,2.48-1.86,4.87-2.39,7.26-1.13,4.85-2.01,9.76-2.61,14.71-.48,3.28.8,4.16,3.99,3.45ZM369.45,145.72c-4.43-.35-8.95-.8-13.38-1.15-.54-.09-1.16.35-1.78.53.45.26.92.47,1.42.62,3.55.8,7.09,1.77,10.81,2.39,3.23.43,6.49.64,9.75.62.53,0,1.15-.62,1.69-.88-.51-.59-1.11-1.1-1.78-1.51-1.1-.32-2.22-.53-3.36-.62-1.16,0-2.24.09-3.37,0ZM89.82,248.18c6.59-1.22,13.06-3.03,19.32-5.41,6.74-2.48,13.29-5.49,19.76-8.6,3.82-1.86,8.16-3.72,10.82-6.73,5.05-5.94,8.95-12.85,13.65-19.15,6.29-8.06,12.58-16.13,19.41-23.75,4.34-4.87,9.48-9,14.44-13.38,9.75-8.69,20-16.84,31.65-23,3.27-1.68,6.73-3.81,7.17-7.53,1-6.74,1.07-13.47,1.33-20.21.18-3.45-.79-4.08-3.54-2.13-6.65,4.61-13.47,9.13-19.41,14.63-7.22,6.88-14.08,14.13-20.56,21.71-6.65,7.15-12.06,15.36-16,24.29-.57,1.29-1.35,2.49-2.3,3.54-.35.45-1.15.53-1.68.8,0-.62-.45-1.42-.18-1.86,1.95-4.34,4-8.69,6.11-12.94,5.94-12,14.27-22.07,23.93-31.82,3.64-3.1,7-6.38,10.73-9.3,5.85-4.61,11.79-9.05,18-13.12,4.17-2.66,8.07-5.59,10.72-9.66,1.42-2.31,2.75-4.61,4-6.92.71-1.33.71-2.48-1.33-1.59-5.85,2.3-11.79,4.34-17.46,7-9.84,4.61-19.49,9.39-28.27,16-5.85,4.52-12.23,8.42-17.55,13.65-8.23,7.95-16.04,16.32-23.4,25.08-6.98,8.22-13.36,16.92-19.6,25.52-5.59,7.53-10.55,15.6-16.4,22.87-5.41,6.64-11.61,12.67-17.55,18.87-7.81,8.48-17.32,15.22-27.92,19.77-1.33.53-2.3,2-3.54,3.1,1.59.53,3.19,1.6,4.69,1.51,7.04-.18,14.13-.18,20.96-1.24ZM136.35,408.42c-2.69,2.93-5.18,6.04-7.45,9.31-1.06,1.68-4,3-2.65,5.32,1,1.68,3.19,2.92,5.14,3.54,1,.27,2.92-1,3.72-2.13,1.15-1.68,1.68-3.9,2.48-6.47s1.51-5,2-7.62c.26-1.06-.27-2.3-.36-3.46-.93.54-2.17.71-2.88,1.51ZM134.49,397.61c-1.24-3.46-2.93-6.83-4.17-10.37-2.74-7.71-5.4-15.6-7.89-23.4-1.44-4.94-2.62-9.94-3.54-15-1.24-7.35-2.48-14.8-3.1-22.33-.45-7-.18-14.1,0-21.19,0-4.08.42-8.14,1.24-12.14,1.51-6.73,3.63-13.29,5.32-19.94,3.34-12.68,8-24.98,13.91-36.69.39-1.02.6-2.1.62-3.19-.92.26-1.81.62-2.66,1.06-11.04,7.55-23.13,13.44-35.89,17.46-4.88,1.51-10,1.95-15.07,3.1-4.7,1.36-9.65,1.57-14.45.62-6.64-1.33-12.76-3.45-17.72-8.51-3.9-3.62-6.77-8.2-8.33-13.29-.18-.71-1.24-1.15-1.87-1.77-.51.61-.86,1.34-1,2.12-.18,1.51.18,3.11-.09,4.52-1.59,7.75-.73,15.81,2.48,23.05,2.13,4.87,1.42,6.2-3.9,6-2.83-.17-5.67-.79-8.51-1.24-2.12-.35-2.65.71-2.12,2.31,2.09,6.55,5.84,12.44,10.9,17.1,3.54,3.19,7.36,6,11.08,9.13.44.36.62,1.07,1,1.6-.65.18-1.33.24-2,.18-1.69-.54-3.3-1.32-4.78-2.31-4.34-3.54-8.51-7.36-12.85-10.9-.68-.5-1.39-.94-2.13-1.33-.18.8-.71,1.6-.62,2.3.8,3,1.51,6,2.48,9,2.22,6.74,5,12.86,11.08,17.29,9.66,6.91,20.74,8.68,32.17,9.57,4.52.35,9,0,13.65.18,1.13.02,2.2.54,2.93,1.41.25,1.07.05,2.19-.53,3.11-3,5.85-8.07,9.39-13.57,12.32-7.09,3.81-14.53,2.74-21.8,1.15-2.75-.71-3.28.35-3.28,2.3-.09,6.3,1.42,7.18,7.36,9.93,7,3.19,14.53,3.63,22.16,3.72.88,0,1.68.8,2.57,1.15-.79.57-1.7.97-2.66,1.16-8.69.44-17.46.44-25.44-3.64-1.51-.79-2.22-.35-2.22.89.09,2.92-.17,6,.8,8.6,4.17,10.63,9,20.91,18.08,28.54,1.36,1.16,2.92,2.06,4.61,2.65,7.71,1.6,15.42.36,23-.62,2.48-.35,5-.79,7.53-1.15.65.14,1.28.38,1.86.71-.53.53-1,1.51-1.5,1.6-6.21,1.33-12.32,2.48-18.53,3.81-.65.16-1.27.4-1.86.71.53.79.71,1.86,1.42,2.21,1.98,1.03,4.06,1.86,6.2,2.48,5.59,1,11.08,2.4,16.66,2.93,6.9.5,13.82-.5,20.3-2.93,2.85-.89,3.82-2.93,2.67-6.03Z"/>
  <path class="cls-2" d="M637.02,841.74c-1.32-4.11-4.01-7.63-7.62-10-3.82-2.53-8.25-4-12.82-4.27-8.06-.89-16.13-2-24.2-3.11-2.3-.35-5-.71-6.64-2.12-5.67-5.14-12.68-6.12-19.59-6.12-12.23-.18-24.46.36-36.78,1.15-3.95.35-7.77,1.59-11.17,3.64-4.61,2.92-8.33,8.06-4.08,13.65,2.66,2,5,4,7.54,5.67,3.1,2.21,6.11,4,6.47,8.6.26,2.74,2.39,5.67,4.43,7.71,3.9,3.63,9,5.4,14.18,6,7.58.87,15.21,1.29,22.84,1.26,15.06,0,30.31,1.07,45.29-1.77,8.68-1.59,15.68-5.85,20.38-13.2,1.24-2.04,2.33-4.97,1.77-7.09ZM622.13,847.94c-4.74,2.85-10.08,4.56-15.59,5-2.58.27-5.23.45-7.89.62-9,.27-17.46.89-25.79.54-9-.45-18.09.35-26.77-2.31-2.22-.76-4.33-1.8-6.29-3.1-2-1.33-1.6-3.19-.09-4.79,1.15-1.06,2.21-2.12,3.28-3.19,1.5-1.68,1-3.45-1.16-4.07-4.43-1.25-9-2.31-13.38-3.73-1.33-.44-2.39-1.86-3.63-2.74,1.24-.71,2.3-1.78,3.54-2.13,3.64-.71,7.27-1.33,11.08-1.69,4.32-.47,8.66-.67,13-.62,7.62.18,15.33.62,22.87,1.24,1.77.18,3.45,1.51,5,2.4,2.48,1.15,4.78,2.92,7.35,3.45,4.79.89,9.58.8,14.36,1.42,6.56.89,13.3,1.6,19.32,4.61,1.69.8,3.9,2.75,4,4.17.07,1.55-1.61,4.03-3.21,4.92ZM552.38,165.31c-1.95.62-4.52,3.19-4.7,5.14-.26,2.57,1.87,5.05,5.06,5.67,1.11.18,2.19.54,3.19,1.06,6.29,2.93,12.49,5.94,18.88,9,3.45,2.31,6.73,4.44,10,6.39,6.74,3.81,13.47,7.53,20.3,11.16,6,3.11,12.76,2.48,19.14,1.95,5.67-.44,14.18-10.81,10.73-20-2.66-7.18-7.54-12.14-14-15.86-11.52-6.47-24.19-8.42-37-9.4-4.43-.35-9,.45-13.47,1.16-6.11.88-12.17,2.13-18.13,3.73ZM594.13,171.25c8.33,1.41,16.3,4,23.22,8.77,3.28,2.22,7.62,4.79,7.09,10.28-.08,3.16-2.6,5.72-5.76,5.85-4.17.44-7.8-1.06-11.44-2.48-3.36-1.42-6.56-3.19-9.83-4.88-9.75-5.85-19.33-11.43-28.81-17-.53-.27-.8-1.15-1.24-1.69.8-.44,1.6-1.24,2.3-1.15,4.08,0,8.16.18,12.15.53,4.16.35,8.15,1.06,12.32,1.77ZM612.3,237.45c.17-9.39-4.52-16-11.7-21.27-7.36-5.4-15.87-8.33-24.55-11-5.06-1.51-10.11-2.75-15.43-2.39-2.39.18-3.54,1-3.63,3.72-.09,2.57,1.6,4,2.93,5.41,5.93,6.11,9,13.73,12.31,21.36,4,9.21,6.21,19.05,12.06,27.47,3,4.43,6.82,7.27,12.32,7.54s11.17-4.17,14-10.73c2.13-6.72,1.6-13.46,1.69-20.11ZM600.15,254.2c-.26.49-.55.97-.88,1.42-2.93,2-4.88,1.77-6.38-1-2.4-4.52-4.61-9.22-6.65-13.92-2.84-6.47-5.5-13.12-8.24-19.67-.45-1.24-1.16-2.57-1.51-3.9-.27-1.07-.27-2.22-.44-3.28,1.15.09,2.48-.27,3.45.17,6.92,3.55,13.83,7.18,19.15,13,2.74,3,3.45,6.83,3.81,10.55.71,5.65-.09,11.39-2.31,16.63ZM600.42,497.14c6.47-1.24,10.9-8.69,9.39-15.16-1.75-8.35-5.93-16-12-22-4.08-3.63-8-7.26-12.14-10.63-.62-.62-2.13-.62-3.11-.36-3.36.89-3.63,4-3.63,6.56.18,6.21.62,12.32,1.15,18.53.8,8,3.55,15.15,10.46,19.85,2.97,1.97,6.33,3.83,9.88,3.21ZM595.1,483.85c-1.75-1.28-3.13-3.01-4-5-1.5-3.54-2.48-7.35-3.72-11.17-.18-1.86-.53-3.19-.53-4.52.13-.93.34-1.85.62-2.74.8.44,2,.71,2.48,1.5,1.66,2.15,3.14,4.44,4.43,6.83,2.22,4.16,4.61,8.24,4,13.2-.26,2.34-1.42,3.31-3.28,1.9ZM577.58,497c-2.74-4.07-6.64-7.35-10.1-10.9-2.22-2.3-5.14-.62-5.5,1.95-.53,4.43-.88,8.78-1.24,13.47-.09,9.4-.09,18.62,2.48,27.48,2.13,7.53,5.94,13.91,13.56,17.55,6,2.92,14.54-1.24,15.52-6.92,1.5-7.53,1.59-14.8-2-21.53-3.88-7.24-8.12-14.29-12.72-21.1ZM580.86,534.94c-3,1.06-4.08-2-5.49-3.81-3.46-4.08-3.55-9.31-4.88-14.1-.35-1.15-.44-2.39-.71-3.72-.35-4.52-.79-8.51-1.15-12.5.11-.61.29-1.2.53-1.77.62.44,1.6.62,1.86,1.15,4.7,9,9.75,17.91,11.44,28,.32,2.19,1.56,5.55-1.63,6.71l.03.04ZM487.33,130.3c.71,2.3,4.43,3.54,7.18,2.66,2.3-.71,4.52-2.22,6.82-2.31,9.48-.44,19.06-.26,28.36,1.95,10.9,2.57,21.89,4.7,33.24,4.88,5.32,0,10-3.81,12.94-9.4,1.32-3.89.69-8.17-1.69-11.52-4.43-6.82-11.43-9.66-19.23-10.28-11.41-.75-22.86.3-33.94,3.1-11.35,2.66-22,7.27-31.2,14.71-1.95,1.6-3.23,3.64-2.48,6.21ZM515.42,118.42c5-.88,10-1.68,15.07-2.39,2.75-.44,5.58-.71,8.33-1,5.5-.2,11.01-.05,16.49.45,3.72.44,7.18,2.12,9,6,1.5,3.11.35,5.94-4.08,5.85-5.94-.08-11.88-1.24-17.9-2-5-.71-9.93-1.87-14.89-2.66-4-.62-8-.8-11.88-1.24-.8-.09-1.51-1-2.22-1.51.75-.43,1.24-1.32,2.08-1.5ZM531.58,688c4-7.09,2.75-15.15,1.6-22.69-1.15-8-4.34-15.69-4.7-24.11s-1.51-17.1-2.3-25.61c-.54-4.7-.62-9.48-1.33-14.09-.71-5.05-2-9.93-3-14.8-1.41-7.36-2.57-14.72-4.43-21.89-2.27-8.83-5.08-17.52-8.42-26-3.63-8.78-8.42-17.11-12.76-25.62-2.22-4.43-5.5-8.51-1.68-13.65.64-.68,1.18-1.46,1.59-2.3,1.77-4.43,3.72-4.88,8.78-4.79,3.19,0,6.29.53,9.48.53,8.09.1,15.85-3.16,21.45-9,7.71-7.62,10-17.28,9.13-27.74-.2-2.1-2.07-3.64-4.17-3.44-.43.04-.85.16-1.24.34-2.32,1-4.55,2.22-6.65,3.63-3.36,2.13-5.4,2.22-7.27-.53-2-3.1-3.45-6.82-2.3-10.37,2.76-8.64,5.95-17.13,9.57-25.44,4.79-11.07,10.28-21.89,15.07-32.88,2.78-6.29,4.98-12.81,6.56-19.5,2-8.77,3.1-17.72,4.34-26.76,1.07-7.54,2-15,2.39-22.6.18-4.79-.7-9.58-1.15-14.36-.35-3.64-.62-7.18-1.24-10.73-.88-5-1.95-9.92-3-14.89-1.51-6.73-2.93-13.47-4.7-20.2-1.51-5.85-3.72-11.61-4.87-17.64-1.78-8.78-2.75-17.64-4.44-26.41-2.13-11.1-5.95-21.8-11.34-31.73-6.18-11.32-14.52-21.32-24.55-29.43-4.88-4-10-7.62-16.13-9.57-7.62-2.48-14-7.18-20-12.23s-12-10.37-17.91-15.42c-9.9-8.09-20.45-15.34-31.55-21.68-2-1.24-2-2.57.18-3.9,1.68-1.15,3.26-2.46,4.7-3.9,5-5.14,7.62-11.7,9.39-18.61,1.33-5.32,2.3-10.81,1-16.4-.8-3.27-6.39-7.53-9.4-6.55-4.79,1.41-8.69,4.43-9.84,9.21-1.38,6.27-2.24,12.65-2.57,19.06-.26,4.08.45,8.33.53,12.5,0,3.9-1.24,4.87-4.69,3.36-4.95-2.01-9.72-4.41-14.29-7.17-4.43-2.92-8.33-6.82-12.59-10-6.98-5.22-14.53-9.62-22.51-13.12-8.9-4.1-18.49-6.5-28.27-7.09-10.11-.35-20.3-.44-30.49.89-7.54,1.06-15,2.39-22.16,5.05-9.82,3.63-18.9,9-26.82,15.85-4.16,3.63-8.33,7.17-13.56,9-15.15,5.22-29.95,11.16-43.87,19.41-11.6,6.8-22.39,14.88-32.17,24.1-10.72,10.37-21.09,21-29.6,33.33-7.18,10.37-14.45,20.83-21.19,31.55-5.14,8.15-10,16.4-17,23-2.75,2.57-5.59,5-8.51,7.35-7.84,6.43-16.76,11.44-26.33,14.8-2.92,1.07-5.05.09-5.84-3-1.6-6.74-3.11-13.56-4.17-20.39-.44-2.92-3.1-5.4-6.29-3.19-5.49,3.79-9.67,9.18-12,15.43-3.1,7.53-2.3,15.59-3.1,23.48-.27,3.28-1,3.9-4.08,2.84-6.38-2.13-9.39-.09-9.22,6.82.17,6.91.09,14,.63,21,.39,5.17,1.22,10.3,2.48,15.33,2.12,8.95,6.29,16.84,13.38,22.87,2.57,2.3,5.5,4.16,8,6.29.86.89,1.39,2.05,1.5,3.28-.44,4.79-1.33,9.57-1.68,14.45-.04,2.85.14,5.69.53,8.51.44,3.81.44,7.88,1.33,11.61,1.68,7.31,4.38,14.34,8,20.91,4.32,7.97,10.45,14.82,17.9,20,10.81,7.71,22.87,12.86,36.52,12.94,3.72,0,4.87,1.87,3.81,5.59-.81,2.81.35,5.81,2.83,7.35,4.29,2.98,9.06,5.2,14.1,6.56,2,.53,3.9,1.6,4.25,4.61.56,4.9,1.56,9.73,3,14.45,3.11,8.86,3.9,17.9,4.26,27.12.09,6-.36,12.05.8,17.9s3.81,11.52,5.58,17.37c.69,2.04.72,4.24.09,6.3-1.68,4.52-4.08,8.77-6,13.29-3.28,7.8-6.82,15.69-9.48,23.67-3.31,9.37-5.83,19.01-7.54,28.8-1.67,8.89-2.65,17.9-2.92,26.94,0,3.28-.18,6.56,0,9.75.37,5.03,1.02,10.04,1.95,15,.8,4.17,2.3,8.16,3.46,12.14,1.68,5.59,3.28,11.08,4.87,16.58,1.51,5,3,9.93,4.26,14.89.79,3.46,1.15,7,1.86,10.55,1.33,5.99,4.07,11.58,8,16.3,3.9,5,7.63,10.46,14.45,11.61,3.81.71,8,1.51,10.81-1.77,4.7-5.4,10.73-6.11,17.11-6.38,2.13-.09,3,.89,3.1,3,.09,3.37.27,6.74.62,10.11.89,8.68,5.23,15.15,12.59,19.85,4.24,2.59,7.36,6.67,8.77,11.43,2.92,9.66,6.35,19.15,10.28,28.45,3.9,9.4,9.49,17.73,18.53,23.14,3,1.77,4.6,4.43,5.67,7.71s2,6.56,3.28,9.84c2.48,6.38,7.09,11.16,12.23,15.06,4.41,3.29,9.2,6.03,14.27,8.16,3.81,1.5,8.24,1.42,12.41,2.3,6.73,1.33,13.38.89,19.58-2.13,9.58-4.6,14.45-17.72,11.44-28.89-.89-3.28-1.16-6.91,1.33-9.75,6.64-7.71,13.47-15.24,20.29-22.87,2.13-2.3,3.73-2.12,5.32.71,3.1,5.77,6.21,11.7,9,17.73,1.68,3.63,1.42,7.09-1.33,10.64-5.4,6.73-8,14.62-6.47,23.39.89,5.06,2.84,9.4,7.45,12.41,7.88,5.14,16.84,6.56,25.88,7.09,5.38.27,10.78.09,16.13-.53,5.21-.48,10.37-1.4,15.42-2.77,7.89-2.4,13.91-7.63,18.7-14.19,2.3-3.1,4.7-6.38,5.94-9.92s3.37-5.5,6.47-6.3c7.35-1.86,12.76-6.29,17-12.23,8.55-11.92,16.17-24.48,22.78-37.58,5.85-11.43,11-23.13,16.4-34.83.33-.77.56-1.57.71-2.39,1.15-3,2.39-5.94,3.54-9.13.8-3.54,1.16-7,2.31-10.19,2-5.32,6.11-9.13,10.28-12.68,7.03-5.97,13.23-12.56,17.87-20.56ZM424.13,58.86c.12-.42.33-.82.62-1.15.57-.66,1.18-1.28,1.83-1.86.44.8,1.24,1.68,1.15,2.39-.27,3.37-.89,6.83-1.33,10.28-.18,1-.27,2-.44,2.84,0,1.15-.21,2.29-.62,3.37-.57.87-1.24,1.67-2,2.39-.53-.89-1.6-2-1.51-2.84.53-5.14,1.5-10.28,2.3-15.42ZM522.51,664.86c.45.09,1.07,1.33,1.16,2,.19,2.39.16,4.79-.09,7.18-.09,1.06-1.24,2-2,2.83-.61-.7-1.17-1.44-1.69-2.21-.8-1.33-1.59-2.75-2.39-4.17.44-1.71,1.12-3.34,2-4.87.62-.62,2.08-.79,3.01-.79v.03h0ZM526.68,473.59c.64.19,1.26.42,1.86.71-.35.8-.44,2-1.06,2.22-7.27,3.9-14.72,6.82-23.22,6.11-2.49-.19-4.95-.61-7.36-1.24-.99-.38-1.79-1.15-2.22-2.12-.17-.54.89-1.51,1.6-2.22,1.07-1.1,2.26-2.07,3.54-2.92,2.22-1.51,4.44-2.31,7.27-1.24,5,1.86,10.46,1.59,15.69.62,1.68-.03,2.8-.03,3.9.05v.03h0ZM530.93,279.67c-.09,8.07-.09,16.22-.71,24.29-.68,9.18-2.16,18.29-4.43,27.21-3.25,12.44-7.28,24.66-12.05,36.6-3.37,9-7.45,17.73-10.81,26.77-2.64,6.84-4.77,13.85-6.39,21-1.32,6.83-1.59,13.83-1.86,20.83-.09,2.75,1.07,5.67,1.86,8.51.18.71,1,1.24,1.51,1.86.44-1,1.33-1.95,1.15-2.66-2-8.24-.35-16.13,1.24-24.11,2.49-12.49,7-24.46,11.17-36.42,3-8.51,7.27-16.67,10.28-25.18,3.19-8.95,5.85-18.25,8.42-27.38,2.19-8.21,3.23-16.68,3.11-25.17,0-7.18.53-14.45.53-21.63-.07-2.61-.46-5.2-1.16-7.71-1-3.37-.35-6.56.63-9.84s2-6.38,3.18-9.57c.18-.62,1-1,1.42-1.42.37.44.64.96.8,1.51,1.69,6.38,3.46,12.76,4.88,19.23,1.41,6.83,2.74,13.74,3.54,20.65.71,5.14.53,10.46.71,15.6.09,1.6.62,3.1.62,4.61-.18,6.47.09,13-.71,19.5-1.15,9.22-3,18.52-4.7,27.74-2,11.61-7.18,22.16-11.7,32.79-4.25,10.28-9.3,20.21-13.82,30.4-3.12,6.42-4.58,13.52-4.26,20.65.45,5.85,3.37,10.73,6.83,15.43,2,2.83,1.59,4.34-1.86,5.14-3.4.6-6.83.93-10.28,1-1.07,0-3.11-1.5-3-2.21.27-5.32-3.9-5.14-7.09-5.5-8.24-1.06-15.68-3.46-21.45-9.84-3.58-4.23-6.31-9.1-8.06-14.35-.27-.45-.36-1.07-.62-1.51-.48-.58-1.02-1.12-1.6-1.6-.26.71-.88,1.6-.8,2.31,1.46,9.12,6.22,17.39,13.39,23.22,4.78,4,10.9,5.67,16.93,7.18.67.24,1.28.64,1.77,1.15-.42.41-.87.79-1.33,1.15-4.79,3.28-9.84,2.48-14.89,1.15-10-2.74-14.62-10.54-17.73-19.67-1.7-5.32-2.3-10.93-1.77-16.49.36-6.2.44-6.82,6.29-8.15,1.07-.18,1.86-1.51,2.75-2.31-1-.53-1.86-1.5-2.92-1.77-8.33-2.48-16.67-4.61-24.91-7.09-3.37-1.06-3.72-3.63-1-6.29,4.43-4.34,9.13-8.42,13.38-12.94,8.77-9.13,16.66-19.06,22.6-30.31,4.34-8.33,8.78-16.58,12.76-25.09,4.96-10.24,8.65-21.04,11-32.17.89-4.25,4-6.82,7-9.57,4.78-4.25,9.13-9,13.73-13.56.31-.25.58-.55.8-.89,1.95-2.92,3.63-5.58,5.23-8.24.3-.49.64-.97,1-1.42.33.47.59.97.79,1.51.37.97.57,2,.61,3.04v.03h0ZM471.11,477.73c-.18-.89,0-1.86-.09-2.84,1.01.02,2.02.14,3,.36,3.81,1.77,8,3,10.2,7,3.45,6.29,2.92,13-4.53,16.22-.26.09-.44.35-.7.53-2.22.62-3.82,1.51-5.59,1.69-.53.17-2-1.42-1.77-1.95,1.95-7.09,1.25-14.01-.52-21.01ZM190.95,539.06c0,3.46-1.24,4.43-4.26,2.66-4.31-2.43-8.43-5.18-12.32-8.24-3.78-2.93-7.28-6.19-10.46-9.75-2.33-2.77-3.5-6.32-3.28-9.93.09-4.52-.08-9,.09-13.65,0-2.74.27-5.4.54-8.24.55-6.61-.55-13.24-3.2-19.32-3.89-9.66-3.36-19.41-1-29.25.18-.44,1.77-4.43,2.84-7.36,3.23,4.01,6.72,7.8,10.45,11.35,6,5.85,12.68,11.08,19.15,16.57,1.5,1.24,1.86,2.49,1,4.61-2.12,5.41-3.36,11.08-2.39,16.84.89,4.88,2.84,9.49,4.43,14.18.56,2.09,1.27,4.13,2.13,6.12.18.35.88,3.46,1.59,6.29-.17.27-.28.58-.35.89-1.68,6.56-3.37,13.2-4.79,19.85-.44,2.04-.09,4.26-.17,6.38ZM157.95,530.73c-1.51-1.33-3.2-2.3-4.79-3.63-.53-.62-.53-1.69-.8-2.48,1,.17,2.22,0,2.93.53,1.44,1.21,2.8,2.51,4.07,3.9.03,1.59.39,3.1-1.38,1.68h-.03ZM366.26,141.55c-3.81-.26-7.54-.79-11.35-1.24-1.95-.26-3.81-.44-5.76-.71-7.35-.35-14-.7-20.74-1.24-.88-.08-1.77-1.15-2.66-1.77.77-.44,1.57-.82,2.4-1.15,1.34-.3,2.7-.51,4.07-.62,12.86-.44,25.8-1.06,38.65-1.06,4.52-.09,9.13,1.24,13.56,2.39,1.35.71,2.28,2.03,2.48,3.54-.55,1.43-1.78,2.5-3.28,2.84-5.76,0-11.52-.53-17.37-.98ZM377.96,147.85c-.54.26-1.16.88-1.69.88-3.26.02-6.52-.19-9.75-.62-3.72-.62-7.26-1.59-10.81-2.39-.5-.15-.97-.36-1.42-.62.62-.18,1.24-.62,1.78-.53,4.43.35,8.95.8,13.38,1.15,1.15.09,2.21,0,3.37,0,1.14.09,2.26.3,3.36.62.67.41,1.27.92,1.78,1.51ZM328.5,143.24c11,2.48,21.18,5,31.64,7.27,4.43,1.06,9.22,1.24,13.74,2,2.92.44,3.46,1.41,1.68,3.81-2.58,3.29-5.46,6.35-8.59,9.13-3.21,2.8-6.59,5.4-10.11,7.8-1.14.62-2.32,1.15-3.54,1.59-.15-1.12-.21-2.24-.18-3.37.36-6-5.05-13.65-10.72-16-4.44-1.86-9-1.77-13.56-1.68-.64.13-1.25.4-1.78.79.45.38.96.68,1.51.89,3.37.89,7,1.33,10.19,2.57,8.87,3.28,12.59,9.4,10,17.82-.49,1.36-1.32,2.58-2.4,3.54-1.5,1.33-3.28,1.77-4.69-.35-.25-.4-.51-.79-.8-1.16-5-8.5-12.94-12.4-22.25-13.82-4.07-.74-8.19-1.12-12.32-1.15-7.26,0-14.27,2.39-21.18,4.43-.69.3-1.32.72-1.86,1.24.7.44,1.48.74,2.3.88,8.6-.08,17.11-.88,25.62-.44,9.57.44,18.88,2.66,25.7,10.19.71.8,1.6,2.31,1.24,2.84-.66,1.03-1.72,1.74-2.92,1.95-3.5-.28-7,.56-10,2.39-2.51,1.33-5.24,2.17-8.06,2.48-5.16.77-10.37,1.14-15.58,1.12-14.36-.27-27.57-4.79-39.62-12.59-4.88-3.1-9.4-6.65-13.92-10.19-1.48-1.31-2.79-2.8-3.9-4.43-1.32-2,.09-3.9,2.93-4.26,11.52-1.24,21.8-6.38,32.7-9.66,9.31-2.92,18.62-6.2,28.1-8.33,4-.89,8.51.53,12.85,1.15,2.64.31,5.21,1.02,7.78,1.55ZM245.9,147c-1.52.99-3.16,1.76-4.88,2.31-1.15.35-2.57-.09-3.81-.18.53-1.33.8-3.28,1.69-3.9,5.22-2.66,10.63-5,16-7.27.98-.54,2.02-.96,3.1-1.24.71-.18,1.42.27,2.13.35-.19.71-.49,1.38-.89,2-2.48,1.69-5.05,3.28-7.62,4.79-1.82,1.14-3.77,2.14-5.72,3.14ZM254.58,184c3.81,2.3,8,4.08,12,6.12,6.84,3.38,14.12,5.79,21.62,7.17,5.44.95,10.97,1.36,16.49,1.25,8.55-.35,17.03-1.72,25.26-4.08,8.26-2.19,16.26-5.28,23.84-9.22,4.52-2.39,8.86-5.23,13.47-7.71,7.09-3.63,16.84-.8,20,6.91,1.33,3.19.8,6.12.27,9.22-1,5.58-2.13,11.17-2.84,16.75-.62,5-1.06,9.93-1.24,14.89-.18,18.44,5.32,35.1,15.87,50.26,8.32,12.24,19.85,21.96,33.32,28.09,8.25,3.86,17.09,6.32,26.15,7.27,4.61.44,9.21,1.42,13.74,1.06,5.55-.41,11.06-1.27,16.48-2.57,3.55-.71,4.7-.35,4.26,3.1-.55,3.93-1.59,7.77-3.11,11.44-3.54,8.77-7.09,17.72-11.52,26.14-5.58,10.28-12,20.21-17.9,30.23-5.67,9.3-12.94,17.19-20.65,24.9-1.86,1.77-3.28,4.08-5,6-1.24,1.42-.79,2.39.36,3.54,5.05,5.59,11.61,8.51,18.52,10.82,3.64,1.33,4.26,2.66,3.64,6.38s-1,7.62-1.33,11.34c-.45,4.79-2,8.16-6.39,11.08-13.38,8.71-27.79,15.74-42.89,20.92-13.12,4.61-26.33,8.87-39.62,12.76-5.94,1.69-12.32,2.31-18.44,3-7.35,1-14.62,1.51-22,2s-14.62.71-22,.54c-7.54-.09-15.06-.71-22.51-1.86-8.96-1.54-17.84-3.55-26.59-6-9.48-2.66-18.7-5.85-27.83-9-7.8-3-15.36-6.59-22.62-10.74-7.65-4.14-14.83-9.07-21.45-14.71-5.65-4.84-10.85-10.2-15.51-16-6.24-7.36-12.04-15.09-17.37-23.13-9.39-14.27-16.93-29.69-21.36-46.35-1.86-7.18-3.63-14.54-4.78-22-1-7.08-1.59-14.21-1.78-21.36-.35-7.09-.79-14.36,0-21.27,1.15-8.61,2.84-17.13,5.06-25.53,4.25-16,11-31.29,19.05-45.82,5.54-10.42,12.25-20.17,20-29.07,6.56-7.45,13.3-14.89,20.57-21.72,10.76-10.19,22.59-19.19,35.27-26.85,1.77-1.06,3.54-1.68,5,1.06,2.75,5.14,5.94,10.11,9,15.16,4.2,7.09,10.67,11.52,17.49,15.51v.08h0ZM419.52,202.17c2.57,3.46,5.5,6.65,8.07,10,.71.89.8,2.22,1.24,3.28-1.13-.42-2.21-.98-3.19-1.68-4.17-3.81-8.24-7.8-12.41-11.7-1.05-.84-2.18-1.59-3.37-2.22-.46-.18-.93-.33-1.41-.44-.05.58.04,1.15.26,1.69.46.84,1.03,1.61,1.69,2.3,8.67,8.15,17.33,16.21,26,24.2.46.31.97.52,1.51.62-.14-.52-.32-1.02-.53-1.51-.62-1.24-1.51-2.66-2.13-4-.29-.49-.5-1.03-.62-1.59.62.17,1.51.17,1.86.62,2,1.94,3.87,4.01,5.59,6.2,4.34,5.41,8.68,10.9,12.85,16.49,1.77,2.3,3,5,4.61,7.44.36.52.84.95,1.41,1.24.09-.71.62-1.59.45-2.21-1.07-3.55-2.13-6.92-3.37-10.29-2.31-5.76-4.7-11.52-9.13-16.21-5.41-7.54-11.17-14.27-16.22-21.54-4.47-6.21-8.44-12.76-11.88-19.59-2.48-4.61-5-9.48-4.69-15.07.17-2.83.7-5.23,3.54-6.73s4.7.44,6.29,1.86c6,5,11.79,10.28,17.55,15.51,10.82,9.93,22,19.5,35.63,25.35,4.61,2,6.47,6.2,8,10.28,2.87,7.63,5.29,15.41,7.27,23.31,1.1,5.25,1.75,10.59,1.95,15.95.53,10.64,1,21.27,1.15,31.91.18,9.31-2,12.05-10.55,14.45-9.3,2.65-18.79,2.92-28.18,2.12-10-.79-19.32-4.61-28-9.75-7.48-4.44-14.16-10.1-19.76-16.75-4.26-4.9-7.84-10.36-10.64-16.22-3.37-7-5.94-14.27-6.56-22.15-.53-5.94-1.33-12-1.15-18,.18-13.29,2.39-26.23,9-38,.71-1.33,1.6-2.48,2.3-3.63,1.42-1.86,2.49-1.6,3.11.53,2.69,8.63,6.91,16.71,12.46,23.85v.08h0ZM410.84,170.26c0-.53.71-.88,1.15-1.42.21.49.39.99.53,1.51,1.86,5.23,2.93,10.81,5.5,15.6,4.7,8.51,10.28,16.57,15.51,24.82.51.94.96,1.92,1.33,2.92-1.21-.39-2.38-.92-3.46-1.59-1.24-1.33-2.21-2.84-3.37-4.35-7.71-9.39-13.73-19.32-17.1-30.66-.71-2.21-.18-4.6-.09-6.91v.08h0ZM193.84,538.97c1.95-7.89,3-16,4.43-24,.14-.62.14-1.25,0-1.87-.26-.79-.71-1.59-1.06-2.39-.36-2.75-.62-5.4-.71-5.67-1.24-4.79-2.66-9.48-3.81-14.27-1.73-7.06-1.64-14.44.26-21.45.18-.62,2.93-1.24,4-.8,6.74,2.75,13.3,5.94,20,9,5.94,2.57,12.15,5,18,7.8,4.17,2,4.88,1.86,3.37,6.38-3.19,9.18-3.19,19.18,0,28.36.54,1.77,1.16,3.55,1.86,5.32.07.13.16.25.27.35-.18,3.9-.27,8.07-.27,8.24-.7,3.73-1.41,7.54-1.86,11.35-.53,4.87-.79,9.84-1.33,14.62,0,.71-1.41,1.77-2,1.69-3.37-.49-6.7-1.29-9.92-2.4-8.86-3.45-17.73-7-26.41-11-4.26-2.08-6.03-4.23-4.79-9.34l-.03.08ZM241.97,541.54c.17-2.49,0-5.06,0-7.63,0-.09-.18-4-.45-7.8.22-.32.38-.68.45-1.06-.27-1.77-.62-3.55-.89-5.41-.09-.62-.18-1.06-.18-1.15-.24-1.2-.38-2.41-.44-3.63-.35-4.79-.35-9.57-.27-14.27.03-2.38.24-4.75.63-7.09.62-3.9,2.39-5.05,6.2-4.08,8.77,2.22,17.55,4.43,26.41,6.65.81.21,1.64.3,2.48.26,2.73.48,5.48.81,8.25,1,3.45.44,4.78,2.48,3.9,6.11-2,8.09-1.82,16.56.52,24.56.6,2.07.84,4.24.71,6.39-.09,7-.71,14-.45,21,.27,5.1.85,10.19,1.74,15.22.44,2.93-.18,3.28-3.19,3.28-10.9.09-21.28-2.92-31.64-5.58-4.17-1.15-8.34-2-12.41-3.1-2.03-.29-3.44-2.17-3.15-4.2.01-.08.02-.16.04-.23.53-6.47,1.24-12.85,1.77-19.32l-.03.08ZM290.27,519.73c-.29-3.99-.32-8-.09-12,0-1.91.37-3.81,1.07-5.59.42-1.07,1.25-1.93,2.3-2.39,2.13-.43,4.3-.64,6.47-.62,13.65-.09,27.3,0,40.95-.09,2.39-.09,3,.62,3.1,3,0,6.56.27,13.21.44,19.77.45,8.42.71,16.31,1.33,24.11.36,5.23,1.16,10.46,1.78,15.68.26,2.31-.27,4.26-3,4.88-7.8,1.77-15.51,3.9-23.22,5.32-6.61,1.23-13.29,2.06-20,2.48-5.76.44-8.07-1.69-8.33-7.45-.45-10.81-.27-21.71-.71-32.52-.29-4.91-1.62-9.69-2.06-14.66l-.03.08ZM347.62,512.2c-.18-3.72-.36-7.36-.62-11.08-.27-2.48,1.32-3.37,3.18-3.81,8.78-1.86,17.47-3.64,26.24-5.41.4-.11.82-.14,1.24-.09,2.84-1,5.41-1.68,7.89-2.39,4.61-1.33,6.29-.44,6.29,4.34.09,6-.71,12.23-.35,18.26.18,3.81,1.42,7.62,2.48,11.26,1.42,4.69,3.19,9.3,4.61,13.91.88,3.1-.71,6.21-5,8.51-12.59,6.56-25,13.47-38.74,17.82-3.63,1.06-3.81,1.06-4.16-2.49-.62-6.47-1.42-12.85-1.77-19.32-.56-9.92-.91-19.71-1.26-29.59l-.03.08ZM395.48,516.81c-.71-2.93-.54-6.12-.54-9.22,0-4.7.36-9.39-.09-14-.44-5.23.71-7.54,5.85-9.66,8-3.37,15.87-7,23.85-10.55,1.59-.62,3-1.42,4.61-2.13,3.54-1.42,6.2.27,6.47,4.17.35,5.67-.63,11.08-1.51,16.66-.62,3.54.53,7.44,1.15,11.17.53,4.34,1.86,8.68,1.95,13,0,1.77-2.57,3.54-4.08,5.31-.74.55-1.53,1.03-2.36,1.44-8.2,5.07-16.2,9.77-24.2,14.47-2.92,1.77-4.07,1.33-5.23-2-1.94-6.25-4.25-12.47-5.84-18.74l-.03.08ZM438.2,485.7c1.06-4.7,1.59-9.84-1.51-14.54-.39-1.28-.13-2.67.71-3.72,4.34-3.37,8.86-6.56,13.29-9.57,5.67-3.81,6.12-3.64,9.22,2.66,2.48,5.14,5.32,10.1,7.36,15.42,3.19,8.15,3.1,16.57.62,25-1,3.1-3.19,4.7-5.68,6-5.23,2.66-10.37,5.14-15.68,7.62-4.35,2-5.5,1.51-6.56-3-.62-2.57-.89-5.23-1.33-7.89-2.98-6.27-1.74-12.03-.41-18.06l-.03.08ZM529.57,245.7c-2,9.13-4.78,18.25-9.66,26.32-3.45,5.67-7.71,11-11.7,16.4-.44.44-2,1.33-2.21-.71-.18-2.57-.53-5.05-.53-7.62-.03-10.67-.99-21.32-2.89-31.82-1.77-10.73-5.41-20.57-9.3-30.58-1.22-2.93-2.65-5.77-4.26-8.51-1.24-2.3-.89-4.25,1.6-5.14,5-1.68,6.91-5.58,8.24-10.19.4-1.34,1.03-2.6,1.86-3.73.71-.09,1.43.1,2,.54,2.65,2.59,5.16,5.31,7.53,8.15,2.57,3.19,4.79,6.74,7.09,10,3.9,7.36,7.54,14.36,11.08,21.37,2.42,4.97,2.25,10.37,1.16,15.43v.09ZM491.76,158c4,3,7.89,6.21,11.87,9.31,6.21,7,11.62,14.18,15.43,22.24,2.57,5.23,4.78,10.55,7,15.87.55,1.31,1.02,2.64,1.42,4,.13.82.22,1.65.26,2.48-1-.36-2.13-.36-2.92-.89-.93-1-1.79-2.07-2.57-3.19-5.48-7.59-11.74-14.59-18.67-20.89-3.55-3.1-5.94-7.35-7.8-11.78-2.13-4.88-4.79-9.49-7-14.36-.54-1-.45-2.31-.63-3.46,1.22.18,2.72,0,3.61.67ZM480.41,157.38c5.23,7.36,9.58,15,11.88,23.58,1.24,4.69,2.22,9.57-.18,14.27-.61.99-1.32,1.9-2.12,2.74-3.11,1.42-5.68.89-8.25.27-8.51-2.13-14.89-7.71-21.36-12.94-6.38-5.05-12.58-10.28-18.7-15.6-3.72-3.28-7.27-6.74-10.81-10.19-1.08-1.09-1.07-2.85.02-3.93.32-.31.7-.55,1.13-.68,4.43-1.33,8.95-3.1,13.56-3.46,7.27-.79,14.63-.62,21.89-.79,5.59-.23,9.66,2.07,12.94,6.68v.05h0ZM403.31,98.62c15.86,7.89,30.66,17.64,45,28,5,3.63,9.57,7.8,14.18,11.78,2.39,2,2.13,2.4-.89,3.11-1.18.34-2.4.55-3.63.62-12,.17-23.58,2.39-34.48,7.8-1.51.71-3.27.71-4.78,0-4.88-2.66-9.4-5.77-14.09-8.69-.14-.5-.11-1.03.08-1.51,1.69.27,3.19.62,4.79.89h1.86c-.27-.71-.35-1.77-.89-2-1.83-.97-3.72-1.8-5.67-2.48-2.48-1-4.08-2.3-3.81-5.41.35-4,.89-8,.53-12-.44-5.59-1.68-11.08-2.48-16.66-.26-1.42-.35-2.93-.53-4.44,1.61.23,3.39.23,4.81.94v.05ZM400.73,144c1.87,1.15,3.64,2.39,5.41,3.54,2.31,1.69,4.26,2.84,6,4.26s1.59,3.28.09,5c-3.37,3.55-6.83,7-10.11,10.64-2.12,2.48-4.07,5.05-5.94,7.53-1.24,1.77-2.74,1.77-3.9.62-2.83-2.75-5.58-5.32-9.3-7-2.66-1.15-2.48-3.1-.71-5.59,4.08-5.76,8.06-11.52,12-17.37,1.23-2.21,4.02-3,6.23-1.77.08.05.16.09.23.14ZM270.36,77.12c3.58-2.28,7.33-4.26,11.22-5.94,5.58-2.15,11.3-3.95,17.1-5.4,3.61-.84,7.3-1.29,11-1.33,6.38-.18,12.77-.09,19.15,0,2.57,0,5.14.35,7.62.53,10.1,1.06,18.88,5,27.65,9,2.22,1,4.08,2.75,6,4.34.44.36,1.06,1.6-.71,1.33-4.52-.71-9.13-1.33-13.65-2-2.13-.26-4.25-.79-6.38-1-3.55-.36-7.09-.53-10.64-.62-9.57-.27-19.05-.71-28.62-.53-8.6.17-17.29,1-25.88,1.77-4.17.44-8.25,1.68-12.32,2.48-.85.05-1.69-.07-2.49-.35.33-.86.33-2.01.95-2.28ZM241.02,113c1.95-6.12,7.36-7.72,12.68-9.13,7.62-2.13,15.33-4.17,23-5.85,6.12-1.42,12.32-2.22,18.44-3.28,3.1-.62,6.2-1.15,9.21-1.86.89-.44,1.72-.98,2.49-1.6-.94-.32-1.94-.46-2.93-.44-7.62.8-15.33,1.42-22.78,2.75-8.42,1.5-16.75,3.63-25.08,5.49-2.13.44-4.34.8-6.56,1.06-.5-.44-.68-1.15-.44-1.77,2.39-5.32,6.82-8.33,12.23-9.66,7.89-1.86,15.77-3.63,23.75-4.79,9.13-1.42,18.32-2.36,27.55-2.81,7.71-.27,15.6.53,23.4.88,4.99.14,9.96.58,14.89,1.33,8.42,1.33,16.75,3.11,25.08,4.79,10.55,2.13,13.47,10.72,15.15,19.32,1.24,6.38.45,13.12.18,19.68-.09,3.37-1.42,4.25-4.52,3.45-7.09-1.95-14.18-1.77-21.27-1.86-3.63-.09-7.36-.62-11-.53-8.77.27-17.64.62-26.5,1.24-7.89.53-15.42,2.75-23,5.23-14.09,4.61-28.27,9-42.36,13.56-1.95.62-3.81,1.6-5.67,2.4-1.08.39-2.22.57-3.37.53-1.07,0-1.69-.71-.53-1.6,3-2.3,6.11-4.43,9-6.82,3.36-2.93,6.64-5.94,9.84-9.13.62-.62.62-1.86.88-2.84-.8.18-1.59.27-2.39.44-5.67,1.16-11.44,2.31-17,3.64-4.43,1.15-8.86,2.48-13.38,3.63-3.19.71-4.43-.17-4-3.45.59-4.95,1.45-9.86,2.57-14.72.58-2.39,1.64-4.78,2.44-7.28ZM67.66,244.81c10.6-4.56,20.11-11.31,27.92-19.81,5.94-6.2,12.14-12.23,17.55-18.87,5.85-7.27,10.81-15.34,16.4-22.87,6.29-8.6,12.67-17.28,19.58-25.53,7.36-8.76,15.17-17.13,23.4-25.08,5.32-5.23,11.7-9.13,17.55-13.65,8.78-6.65,18.43-11.43,28.27-16,5.67-2.66,11.61-4.7,17.46-7,2-.89,2,.26,1.33,1.59-1.24,2.31-2.57,4.61-4,6.92-2.65,4.07-6.55,7-10.72,9.66-6.2,4.07-12.14,8.51-18,13.12-3.72,2.92-7.09,6.2-10.73,9.3-9.66,9.75-18,19.85-23.93,31.82-2.12,4.25-4.16,8.6-6.11,12.94-.27.44.18,1.24.18,1.86.53-.27,1.33-.35,1.68-.8.95-1.05,1.73-2.25,2.3-3.54,3.94-8.93,9.35-17.14,16-24.29,6.48-7.58,13.34-14.83,20.56-21.71,5.94-5.5,12.76-10,19.41-14.63,2.75-1.95,3.72-1.32,3.54,2.13-.26,6.74-.35,13.47-1.33,20.21-.44,3.72-3.9,5.85-7.17,7.53-11.62,6.21-21.9,14.36-31.65,23-5,4.34-10.1,8.51-14.44,13.38-6.83,7.62-13.12,15.69-19.41,23.75-4.7,6.3-8.6,13.21-13.65,19.15-2.66,3-7,4.87-10.82,6.73-6.47,3.11-13,6.12-19.76,8.6-6.26,2.38-12.73,4.19-19.32,5.41-6.83,1.06-13.92,1.06-21,1.24-1.5.09-3.1-1-4.69-1.51,1.3-1.01,2.27-2.52,3.6-3.05ZM111.44,406.65c-5.58-.53-11.07-1.95-16.66-2.93-2.14-.62-4.22-1.45-6.2-2.48-.71-.35-.89-1.42-1.42-2.21.59-.31,1.21-.55,1.86-.71,6.21-1.33,12.32-2.48,18.53-3.81.53-.09,1-1.07,1.5-1.6-.58-.33-1.21-.57-1.86-.71-2.57.36-5.05.8-7.53,1.15-7.54,1-15.25,2.22-23,.62-1.69-.59-3.25-1.49-4.61-2.65-9-7.63-13.91-17.91-18.08-28.54-1-2.57-.71-5.68-.8-8.6,0-1.24.71-1.68,2.22-.89,8,4.08,16.75,4.08,25.44,3.64.96-.19,1.87-.59,2.66-1.16-.89-.35-1.69-1.15-2.57-1.15-7.63-.09-15.16-.53-22.16-3.72-5.94-2.75-7.45-3.63-7.36-9.93,0-2,.53-3,3.28-2.3,7.27,1.59,14.71,2.66,21.8-1.15,5.5-2.93,10.55-6.47,13.57-12.32.58-.92.78-2.04.53-3.11-.73-.87-1.8-1.39-2.93-1.41-4.61-.18-9.13.17-13.65-.18-11.43-.89-22.51-2.66-32.17-9.57-6-4.43-8.86-10.55-11.08-17.29-1-3-1.68-6-2.48-9-.09-.7.44-1.5.62-2.3.74.39,1.45.83,2.13,1.33,4.34,3.54,8.51,7.36,12.85,10.9,1.48.99,3.09,1.77,4.78,2.31.67.06,1.35,0,2-.18-.35-.53-.53-1.24-1-1.6-3.72-3.1-7.54-5.94-11.08-9.13-5.06-4.66-8.81-10.55-10.9-17.1-.53-1.6,0-2.66,2.12-2.31,2.84.45,5.68,1.07,8.51,1.24,5.32.18,6-1.15,3.9-6-3.21-7.24-4.07-15.3-2.48-23.05.27-1.41-.09-3,.09-4.52.14-.78.49-1.51,1-2.12.63.62,1.69,1.06,1.87,1.77,1.56,5.09,4.43,9.67,8.33,13.29,5,5.06,11.08,7.18,17.72,8.51,4.8.95,9.75.74,14.45-.62,5-1.15,10.19-1.59,15.07-3.1,12.76-4.02,24.85-9.91,35.89-17.46.85-.44,1.74-.8,2.66-1.06-.02,1.09-.23,2.17-.62,3.19-5.91,11.71-10.57,24.01-13.91,36.69-1.69,6.65-3.81,13.21-5.32,19.94-.82,4-1.23,8.06-1.24,12.14-.18,7.09-.45,14.18,0,21.19.62,7.53,1.86,15,3.1,22.33.92,5.06,2.1,10.06,3.54,15,2.49,7.8,5.15,15.69,7.89,23.4,1.24,3.54,2.93,6.91,4.17,10.37,1.15,3.1.18,5.14-2.75,6.11-6.46,2.39-13.35,3.36-20.22,2.85ZM137.58,418c-.8,2.57-1.33,4.79-2.48,6.47-.8,1.16-2.75,2.4-3.72,2.13-1.95-.62-4.17-1.86-5.14-3.54-1.33-2.31,1.59-3.64,2.65-5.32,2.27-3.27,4.76-6.38,7.45-9.31.71-.8,1.95-1,2.92-1.51.09,1.16.62,2.4.36,3.46-.52,2.62-1.32,5.13-2.04,7.62ZM142.72,450.44c-.69-3.3-1.19-6.64-1.5-10-.36-5.06-.54-10.11-.54-15.16.11-3.01.5-6.01,1.16-8.95.35-2.22,1.77-2.31,3-.71,3.9,5.32,7.53,10.9,11.61,16.13.89,1.15,1.86,2.31,2.84,3.55-1.6,2.36-3.05,4.81-4.35,7.35-1.09,2.99-2,6.04-2.74,9.13-2.49,10,1.32,18.88,4.78,27.92,1.77,4.61,1.6,9.48.62,14.36-.4,2.73-.57,5.48-.53,8.24-.18,3.81,0,7.71-.09,11.52-.23.79-.59,1.54-1.06,2.22-.53-.56-.97-1.18-1.33-1.86-2.13-5.41-4.52-10.82-6.21-16.31-1-2.93-.88-6.29-1.06-9.48-.27-6.12,0-12.32-.71-18.35-.86-6.58-2.64-13.04-3.88-19.61h-.01ZM131.65,638.15c-.58.48-1.24.84-1.95,1.06-.29-.62-.5-1.27-.62-1.94-.18-11-1.06-22.16-.35-33.15.53-8.25,3-16.4,4.61-24.64,2.83-9.57,5.58-18.53,8.51-27.39,2.3-6.73,4.78-13.47,7.44-20,1-2.57,2.57-3,4.7-1.06,3.67,3.58,7.08,7.44,10.19,11.52,6.46,8.12,11.27,17.43,14.18,27.39,1.08,3.87,1.83,7.84,2.22,11.84.53,5.41.53,10.9.71,16.4s.44,11.17.62,16.75c.08,4.52-1,5.5-5.41,5.5s-8.51.17-12.76,0c-8.6-.45-16,2.65-22.34,8.15-3.46,2.92-6.47,6.42-9.75,9.57ZM136.44,668.37c-.89-1.5-2.31-2.92-2.39-4.52-.41-4.99-.41-10.01,0-15,.7-7.09,5-12.32,10.72-16.22,3-1.95,6.29-3.28,9.48-5,2.84-.62,5-1.59,7.18-1.68,9.75-.71,19.32-.09,27,6.91,4.09,3.68,6.86,8.6,7.89,14,.28,1.02.05,2.1-.62,2.92-.53.44-2,.09-2.83-.27-5.59-2.57-11.67-3.87-17.82-3.81-6.29,0-12.23.27-18,3.11-7.18,3.63-13.21,8.24-17.11,15.42-.84,1.66-2.36,2.77-3.5,4.14ZM193.25,684.37c-1.58,1.93-3.58,3.47-5.85,4.52-.89.44-3.19,1-3.63-1.24-.53-2,.53-3.11,2.48-3.55,4.34-.8,5.58-3.54,5.85-8.15.18-2.48-.71-5.06-1.42-7.54-.52-2.19-1.23-4.32-2.13-6.38-.46-.83-1.06-1.58-1.77-2.21-.28.74-.49,1.52-.62,2.3.35,3.63,1.06,7.36,1.15,11.08,0,1.77-.62,4.78-1.77,5.23-2.57,1.06-4.79-1.15-6.47-3-1.33-1.59-2.13-3.72-3.28-5.49-.4-.59-.88-1.13-1.42-1.6-.35.71-1,1.33-1,2,.17,6.21,2.3,11.88,5.05,17.29,1.15,2.21,2.66,4.16,3.81,6.38.53,1,.44,2.3.62,3.45-1.03.14-2.07.14-3.1,0-3.55-1.33-6.91-2.83-10.46-4.16-1.24-.43-2.51-.73-3.81-.89.62,1.15,1,2.57,1.86,3.46,1.77,1.86,3.9,3.37,5.67,5.32.8.79,1,2.3,1.42,3.45-1.15,0-2.39.36-3.37.09-4.25-1.51-8.42-3.19-12.58-4.78-.6-.25-1.23-.46-1.86-.62-.19.65-.25,1.33-.18,2,.62,2,1.68,4,2.13,6,.26,1.15-.27,2.57-.54,3.9-1.24-.35-2.74-.27-3.63-1.06-2.75-2.57-5.14-5.41-7.8-8.25-3.1-4.84-5.14-10.27-6-15.95-1.02-5.42-.58-11.02,1.25-16.22,3.27-9,9.83-15,18.52-18.35,3.72-1.5,7.89-3.1,11.7-2.92,8.06.18,16.22,1.33,23,6.56,10.11,7.89,13.47,18.43,12.85,30.75.06.39.03.79-.09,1.16-.79,1.68-1.15,4.52-3.45,4.16-1.42-.18-2.84-2.48-3.64-4.08-1.32-3-2-6.2-3.1-9.3-.31-.78-.7-1.52-1.15-2.22-.35,1-1,1.69-1.24,2.66-.67,2.17-.76,4.65-2,6.25v-.05h0ZM200.43,727.8c0,.44-.44.88-.62,1.24-.57-.29-1.08-.68-1.51-1.16-.51-1.22-.84-2.5-1-3.81-.27-2.83-.18-5.76-.36-8.59-.17-1.95,1.07-1.6,2.22-1.6,5.08,4.48,1.42,9.36,1.27,13.97v-.05ZM196.58,696.2c-.04-.78.05-1.55.27-2.3.98.27,1.93.66,2.83,1.15,3.81,2.57,8.16,2.75,9.84-.09,1.68-2.6,2.8-5.53,3.28-8.59,1.15-10.82-2.66-20.12-8.95-28.72-1.91-2.71-3.13-5.84-3.55-9.13-.65-6.55-3.07-12.8-7-18.08-2.27-3.28-3.61-7.1-3.9-11.08-.89-6.56-.71-13.2-1.42-19.85-.79-7.36-2-14.71-3-22.07-.71-4.43-1.86-8.77-2.3-13.3-.54-4.25-3.2-7-5.5-10.19-3.81-5.14-7.36-10.46-11-15.77-.37-.65-.7-1.32-1-2,.93.1,1.82.37,2.65.8,2.66,1.86,5.06,4,7.71,5.76,11.21,7.56,23.31,13.7,36.04,18.26,6.11,2.22,12.14,5.06,18.34,7,11.08,3.54,22.25,6.91,33.59,9.83,5.25,1.28,10.61,2.11,16,2.49,5,.53,9.93.53,14.89.7s9.84.45,14.71-.08c9.66-.89,19.41-2.22,28.81-5.06,9.75-3,19.67-5.67,29.07-9.57,9.88-4.32,19.53-9.17,28.89-14.53,8.15-4.35,16-9.22,23.93-14.1s15.51-10,23.31-14.71c9.31-5.67,18.7-11.08,28-16.57,1.59-.86,3.29-1.49,5.05-1.86,3.63-.71,5.58,2.12,6.74,4.61,4.43,9.12,9.3,18.25,12.58,27.83,4.61,13.38,8.51,27.12,12.23,40.77.44,1.68.89,3.27,1.33,5,1.86,7,2.66,14.27,3.72,21.45,1.16,8.51,1.86,17,3,25.43,1.24,9.13,1.77,18.35,4.78,27.21.2,1.44-.22,2.89-1.15,4-7.83,9.26-16.96,17.32-27.12,23.93-7.57,5.26-15.54,9.92-23.84,13.92-10.11,4.69-20.65,8.42-31,12.23-8.42,3.1-17,5.58-25.44,8.24-.97.15-1.94.21-2.92.18.01-1.01.13-2.01.35-3,1.3-3.06,2.88-5.99,4.7-8.77.71-1.06,2.66-1.77,4.16-2,3.28-.53,6.65-.44,10-1,6.38-1,9.84-5.68,12.85-11,1.76-2.7,2.82-5.79,3.1-9,.27-3.73,3.55-5.77,6.3-7.54,11.25-6.65,19.4-16.31,26.94-26.59,7.27-9.92,12.58-21,16.75-32.53,3-8.24,5.58-16.66,6.38-25.52.36-3.81.8-7.62,1.15-11.35.1-.54.04-1.09-.17-1.59-.27-.62-.89-.53-1.86.44-1.69,1.6-2.22,0-2.66-.88-2.93-5.68-5.5-11.61-8.69-17.11-6.29-10.81-16.31-17.28-28.18-20.12-7.06-1.54-14.35-1.66-21.45-.35-12.32,2.12-22.6,7.8-32.18,15.51-.33.29-.72.5-1.15.62-6.56,1.59-7.8,7.18-9.13,12.41-2.48,9.48-4.69,19-6.73,28.45-1.95,8.95-3.64,17.9-5.59,26.94-.37,2.33-.96,4.61-1.77,6.82-.81,2.31-2.88,3.94-5.32,4.17-6.38.8-10.19,5.23-13.38,10-3.81,5.58-6.2,11.78-5.67,18.87.53,6.83.09,6.83-7,6.83-6.3,0-12.68,0-19.06.09-3.75.09-6.73,3.2-6.64,6.95.01.46.07.92.17,1.38.35,1.77.8,3.72.35,5.23-.61,1.49-1.78,2.67-3.27,3.28-5.68,1.95-10.46,5-13.57,10.19-1.68,2.75-2,5.76.09,8.33,1.79,2.38,4.93,3.28,7.71,2.22,2.66-.89,5.23-1.86,8-2.66,1.33-.36,3.55-1.07,4.08-.45.96,1.3,1.4,2.91,1.24,4.52-.21,2.89-.59,5.76-1.15,8.6.26,4.43.53,8.16.53,12,0,.62-1.33,1.59-2.13,1.59-10.37.36-20.92.8-31.37.62-8.51-.17-17.11-1-25.62-1.77-6.38-.62-12.76-1.33-19.05-2.39-6.51-.99-12.96-2.32-19.32-4-6.13-1.64-12.12-3.77-17.91-6.38-10.11-4.4-15.25-12.83-17.33-23.2ZM471.16,721.73c-6.92,3.9-14.1,7.53-21.19,11-3.54,1.68-5.22.18-5.76-3.72-.62-3.46-1.59-7-2.48-10.55,1.86-4.08,5.5-4.79,8.6-6,6.38-2.66,12.76-4.87,19-7.71,2.75-1.24,3.73.36,4.26,2.13.88,2.22,1.06,4.61,1.59,6.91.71,3.77-1.15,6.34-4.07,7.94h.05ZM437.58,738.22c-1,.44-1.95.79-2.93,1.15-6.29,1.86-12,3.81-17.73,5.49-3.63,1.07-5,.09-5.58-4s-1.24-8-1.77-12c-.36-2.13.44-3.46,2.83-4.17,7.27-2,14.54-4.43,21.81-6.56,3.1-.88,4.43.09,5.05,3.46.71,3.81,1.15,7.71,1.86,11.61.65,3.15-1.39,4.04-3.54,5.02ZM390.69,718.81c-.93.1-1.85.28-2.75.53-4.87,0-9.22,0-13.56.09-2.57.08-3.72,1.77-4.34,4.16-.65,2.65-1.54,5.23-2.66,7.71-.53,1.33-2.22,3.19-3,3-1.33-.27-2.66-1.87-3.37-3.19-2.48-4.61-2.13-9.75-1.51-14.81,0-.09.18-.17.18-.26-.36-1.69-.71-3.46-1.06-5.14-.62,1.33-1.6,2.66-1.87,4.07-.88,4.79-1.41,9.58-2.57,14.18-1,4.08-5,5.68-6.73,2.93-1.61-2.52-2.75-5.31-3.37-8.24-.8-3.73.62-7.45,1.86-11,.71-1.78,1.15-3.55,1.69-5.41.08-.44-.27-.89-.27-1.42-.44.18-1.06.36-1.24.62-1.42,2.13-3.19,4.26-3.9,6.56-1.15,4.43-1.6,9-2.57,13.56-.27,1.07-1.42,2-2.13,2.93-.88-.71-2.21-1.33-2.57-2.22-.75-1.74-1.17-3.6-1.24-5.49.18-5.85.71-11.61,1.15-17.46.18-1.95,0-3.28-2.57-2.75-4,.8-8,1.42-11.87,2-1.65.46-3.35.75-5.06.88-1,.09-2.83-.53-2.83-.79-.07-1.23.29-2.45,1-3.46,2.66-2.31,5.23-4.79,8.24-6.38,4.88-2.48,10-4.17,15.07-6.3,2.23-.95,4.39-2.04,6.47-3.27.62-.45.8-1.6,1.24-2.49-.83-.07-1.67-.01-2.48.18-2.39.71-4.7,1.86-7.09,2.57-1.94.7-4.08-.3-4.78-2.23-.13-.36-.21-.75-.22-1.14-.44-3.28.8-5.49,3.72-5.67,4.61-.27,9.31-.35,14-.71,3.9-.18,7.8-.71,11.61-1.15.8,0,1.87,0,2.31.44,3.63,3.46,7,7.09,10.55,10.46,7.21,6.7,15.69,11.9,24.93,15.3,3.57,1.24,7.07,2.66,10.48,4.27,3.28,1.6,3.54,3.55,1,6.12-4.92,4.96-10.68,8.24-17.86,8.42h-.03ZM405.58,748.05c-9.22,2.13-18.35,4.7-27.56,7.18-.35.14-.69.32-1,.53-7.36.54-7.18.45-8.86-6.38-1.15-5-.18-9,2.39-13.47,2.93-4.7,7-5.76,12-6.29,5.93-.45,11.87-1.42,17.81-2.39,3.81-.54,6.29,1.5,6.74,6.11.44,3.55,1,7.09,1.15,10.72.2,1.78-.07,3.37-2.67,3.99ZM365.25,755.14c.27,2.22-1.15,2.84-2.66,3.11-5.58.7-11.25,1.24-16.92,1.77-2.75.35-5.68.18-8.51.8-2.66.44-3.81-.8-4.08-3.11-.36-3.81-.44-7.71-.71-11.61-.09-2.48-.35-5.05-.62-7.62.44-1.06.8-2,1.15-2,4.08-.8,8.16-1.77,12,.62,3,2,5.94,2.66,9.21.62,2-1.33,3.91-.79,5.77.89,3.36,2.84,5.23,6.2,4.78,10.81-.01,1.92.2,3.84.62,5.72h-.03ZM425.34,695.23c1.51-4.34,3.11-8.78,4.88-13.12.7-.92,1.77-1.47,2.92-1.5,2.1.07,4.18.52,6.12,1.32.8.45,1,2.4,1.15,3.73.09.53-.35,1.24-.53,1.86-3.46,4.25-6,8.77-11.08,10.63-1,.27-2.39.45-3-.08-.51-.36-.69-1.95-.43-2.84h-.03ZM421,694.52c-2.13,3.63-5.05,4.43-9.31,3.19-3-1-6.11-1.68-9.21-2.66-2.31-.88-4.34-1.59-6.38-2.39-2.22-.89-2.57-3.46-.89-6,2-3,4.08-6,6-9,1.36-2.12,2.54-4.34,3.54-6.65,1-2.12,2.31-2.48,4.26-1.5,5.4,2.92,10.81,5.85,16.22,9,2,1.15,2.48,3.1,1.33,5.32-1.72,3.51-3.49,7.17-5.53,10.69h-.03ZM440.06,676.62c-8.25-3-16.49-6-24.46-9.84-8.47-3.97-16.32-9.13-23.32-15.33-1.86-1.69-3.63-3.37-5.58-4.88-2.48-2-2.48-5.85-1.42-8.06,3.78-8.54,6.43-17.54,7.89-26.77,1.06-6.2,2.57-12.32,3.55-18.61.88-5.23,1.33-10.55,1.86-15.87.8-7.8,3.54-13.82,11.08-18.17,9-5.31,18.17-10.1,28.36-12,14-2.4,27.65-.27,39.26,8.59,7.45,5.77,12.5,13.74,16,22.43,1.32,3.45,2.92,7.27,2.92,10.9-.27,4.56-1.25,9.04-2.92,13.29-4.44,10.91-9,21.72-14,32.44-3.29,7.58-7.94,14.5-13.74,20.39-.35.53-.7,1.15-1.06,1.68-4.16,4.43-8.07,8.6-12,12.68-2.07,2.29-4.39,4.34-6.92,6.11-1.6,1.08-3.58,1.45-5.47,1.02h-.03ZM386.35,651.62c1.86,1.69,3.72,3.28,5.58,5,3.46,2.83,6.74,5.14,9.57,7.88,2.31,2.13,1.6,5,0,7.27-3.36,4.88-6.82,9.66-10.54,14.18-2.13,2.66-4.35,2.57-7,.36-3.36-2.84-6.91-5.41-10.19-8.42-4.7-4.43-4.78-6.74-1.15-12.23,2.92-4.43,5.85-9,9-13.21,1.12-1.45,2.81-2.6,4.76-.83h-.03ZM379.17,651.18c-3.64,5-7,10.19-10.55,15.24-.44.71-1.33,1.78-1.77,1.78-.89-.18-2-1.07-2.13-1.78-.62-3.1-1-6.2-1.33-9.3,2-7.8,5.76-13.83,13-17.28,2.48-1.25,3.72-.27,4.52,1.86,1.39,3.45.59,6.47-1.71,9.48h-.03ZM329.27,759.18c0,.71-1.86,2-2.93,2-8.15.36-16.3.62-24.55.71-1.65-.01-3.29-.25-4.87-.71-3.1-.8-3.9-3.28-3.9-6.12-.18-4.25-.09-8.5-.09-12.76,0-3.37,1-4.43,4.43-4.61,5-.35,9.84-.44,14.71-.71,5.14,0,9.66-.08,14.27.09.8,0,2.31,1.07,2.31,1.69.47,6.81.65,13.55.65,20.37l-.03.05ZM289.92,756.7c-.09,3.63-2.75,4.88-7.09,4-3.73-.8-7.63-1.24-11.44-1.77-1.43-.56-2.91-.95-4.43-1.16-5.76-1.24-7.09-2.48-8-8.06-.34-2.53-.54-5.07-.62-7.62-.08-5.41,0-6,5.06-6.12,8-.09,15.95.62,24,1.24.88.09,2.3,2,2.39,3.19.33,5.35.25,10.76.16,16.25l-.03.05ZM255.92,750.76c.18,3.9-1.15,5-5.05,3.9-5.14-1.5-10.37-3.19-15.6-4.87-3.17-.88-5.51-3.57-5.94-6.83-.53-2.83-1-5.58-1.24-8.33-.35-2.92,1.07-4.61,3.9-4.16,6.65,1,13.3,2.21,19.94,3.63,1.27.57,2.26,1.62,2.75,2.92.62,1.87.44,3.9.62,5.77.28,3.05.61,5.44.61,7.92v.05ZM208.5,737.91c-4.52-2.39-6.38-7.89-4.69-13.83.23-1.51,1.64-2.54,3.15-2.31.23.03.45.1.66.19,4.87,1.59,9.75,3.28,14.45,5.32,1.39.56,2.44,1.74,2.83,3.19.43,4.24.64,8.5.62,12.76,0,.53-1.33,1.15-2,1.68-1.41-.09-2.79-.45-4.07-1.06-3.69-1.91-7.32-4.04-10.96-5.99v.05ZM261.14,830c-3.86-4.46-6.91-9.56-9-15.07-.88-2.48-.26-3.46,2.22-3.19,4.52.53,8.95,1.24,13.56,1.77.88.09,1.95,0,2.92,0,3.81.27,6.92.62,10.11.62,7-.09,13.91-.44,20.91-.53,2.57-.09,4.79,2.75,3.81,5.05-.26.71-1.41,1.69-1.95,1.51-5.05-1.86-10.28-1.68-15.59-1.77-6.21-.18-10.91,2.92-15.51,6.29-2.04,1.65-3.91,3.49-5.59,5.5-2.08,2.25-3.76,2.07-5.89-.18ZM306.88,829.64c-.89,5.41-3.55,9.84-9.05,11.35-3.1.78-6.33.9-9.48.35-5.11-.65-10.18-1.65-15.15-3-1.89-.57-3.44-1.92-4.26-3.72-.35-1.16,1.24-3.46,2.48-4.52,7.38-6.28,17.06-9.19,26.68-8,.27,0,.44.35.62.53,2.48.27,4.43.09,6.12.71,2.74,1.2,2.48,4.04,2.04,6.25v.05ZM329.65,784.89c-3.63,4.16-7.44,8.06-11.16,12-4.52,4.61-9.75,7.71-16.31,8.24-6.12.53-12.14,2-18.26,2.31-8.57.13-17.12-.86-25.44-2.93-5.32-1.24-10.81-2-15.95-3.81-2.55-1.06-4.63-3.01-5.85-5.49-4.79-10-9-20.3-13.56-30.49-.71-3.28-1.68-5.94-2.3-8.69-.45-2.3,1-2.83,2.92-2.21,6.56,1.95,12.85,4.25,19.41,5.93,9.93,2.4,19.85,4.61,30,6.38,6.47,1.16,13.2.63,19.58,2.13,6.21,1.42,12,4.17,17.82,6.74,5.49,2.48,10.72,5.23,16.93,5.23,1.06,0,3,.53,3,1,.22,1.27-.08,2.57-.83,3.61v.05ZM381.58,848.12c-3.9-.09-7.89-.09-11.79-.09-4.08-.89-7.53-2-10.63-4.43-2.55-1.92-3.85-5.09-3.37-8.25,1.09-5.99,4.19-11.43,8.79-15.42,2.46-2.25,6.23-2.25,8.69,0,5.14,5.14,8,11.61,9.57,18.53.37,2.67.61,5.36.71,8.06.08,1.42-.63,1.69-1.97,1.6ZM424.66,831.19c-6,8.33-13.83,14.36-24,16.84-2.81.59-5.65,1-8.51,1.24-2.57.35-3.28-1.42-3.81-3.19s-.8-3.72-1.24-5.59c-.71-6.11-3.37-10.9-5.94-15.77-.62-1-.62-2.31-.89-3.46,1.15,0,2.31,0,3.46.09,6.11.8,12.23,1.86,18.43,2.48,6.47.53,13,.62,19.5,1.33,3.71.36,6.11,1.84,3.01,6.03h-.01ZM493.08,722.26c-3.19,7.33-6.47,14.69-9.84,22.07-2.22,4.88-4.43,9.93-6.91,14.71-2.84,5.32-5.94,10.46-8.87,15.69-3.72,6.56-7.17,13.21-11.25,19.59-3.19,5-7.27,9.75-10.9,14.62-2.31,1.78-4.26,3.81-6.56,4.61-3.9,1.42-8.07,2.75-12.14,2.84-7.48.26-14.97.09-22.43-.53-11.88-.89-23.49-3-34.39-8-3.09-1.58-5.67-4.01-7.44-7-4.34-8.07-8.6-16.13-14.36-23.14-1.95-2.3-4.43-2.48-6.82-.7-1.12.76-2.48,1.08-3.82.88-6.55-1.5-13-3.28-19.41-5.23-1-.17-1.68-1.33-2.48-2,.76-.22,1.53-.4,2.31-.53,5.58-.53,11.25-1.15,16.92-1.59,9-.89,18-1.42,26.95-2.58,6.44-.72,12.8-2.02,19-3.89,4.25-1.33,8.77-1.78,13.2-2.75,3.81-.8,7.62-1.86,11.43-3,5.15-1.41,10.29-3,15.34-4.6,10.46-3.37,20.83-6.92,30.84-11.26,13.47-5.94,26.24-13.12,38.91-20.3.89-.36,1.81-.62,2.75-.79-.02,1.02.33,2.08-.02,2.88h-.01ZM494.14,707.46c-3.63,2.3-7.09,4.87-10.72,7.09-2.66,1.51-3.64,1-4.7-2-.8-2.21-1.68-4.52-2.39-6.82-.89-3.28.17-4.79,4.78-7.54,3.64-2.21,7.18-4.43,10.82-6.73,3.19-2.13,4.87-1.6,5.58,2.13.53,2.21.89,4.43,1.24,6.73-.26,3.6-2.17,5.55-4.6,7.14h-.01ZM506.64,697.8c-2.22,2-3.37,1-4.88-1.6-4.34-7-1.59-12.05,3.81-16.75,2.31-1.86,4.44-4,6.56-5.93,1.78-1.51,3.28-1.16,4.26.88.48,1.3.86,2.64,1.15,4,1.59,4.17.89,7.36-1.6,10-2.89,3.33-6,6.47-9.29,9.4h-.01ZM456.13,70.83c6.2-4.52,12.05-9.57,18.26-14.45,1-.8,1.86-1.42,2.66-2.13,5.23-5,10.72-9.83,15.59-15.24,2.92-3.29,5.4-6.96,7.36-10.9,3.63-6.56-2.13-13.74-7.09-15.16-6.2-1.68-12.41-.53-18.35,2-6.82,2.75-11.16,8.24-15.77,13.74-9.13,10.85-11.21,23.61-10.82,37,.09,6.2,4.7,7.53,8.16,5.14ZM463.04,40.07c4.08-7,9.57-12.94,17-16.66,1.81-.87,3.78-1.35,5.78-1.41,1.15-.09,3.19.45,3.55,1.33.43,1.45.27,3.01-.45,4.34-2.29,3.41-4.87,6.61-7.71,9.58-4.78,5-9.92,9.66-14.89,14.35-2.75,2.49-5.23,4.61-7.8,6.56-.53.36-1.86.71-2.13.36-.57-.62-.81-1.48-.62-2.31,2.31-5.41,4.35-11,7.27-16.14h0ZM401.71,215.74c.21.31.45.6.71.88.68.53,1.43.98,2.22,1.33,3.72,1.6,7.53,3.29,11.43,5.06,1.33,1.15,2.66,2,3.81,3.1,5.61,6.13,9.73,13.47,12.05,21.45,1.78,5.58,2.93,11.34,4.35,16.93.17.53.79,1,1.15,1.41.32-.48.53-1.02.62-1.59-.36-5.59-.62-11.26-1.24-16.84-1-10.15-5.78-19.54-13.39-26.33-5.85-5.4-12.85-6.82-20.56-6.2-.35.06-.71.53-1.15.8ZM414.92,240.2c-3.64-5-7.89-9.66-12-14.45-.35-.44-1.42-.35-2.13-.53-.01.67.02,1.34.09,2,4.08,5.14,8.25,10,12.14,15.24,2.58,3.37,4.7,7.1,7.1,10.64.26.44,1,.71,1.41,1,.09-.63.36-1.33.09-1.78-2.18-4.05-4.04-8.4-6.7-12.12ZM228.88,254.47c-4.43,5.67-9.22,11.17-12.85,17.46-9.3,16.01-14.71,33.98-15.78,52.47-.71,12.76-1,25.61,2.31,38.11,2.12,8.07,5,15.78,11.43,21.36s13.21,11.08,20.3,16c9,6.21,18.34,12.23,27.83,17.73,9.66,5.49,20.12,9,30.84,12.05,11.11,3.01,22.51,4.85,34,5.5,9.37.57,18.77-.21,27.92-2.31,10.64-2.3,20.3-6.64,28-14.44,5.72-5.56,9.73-12.64,11.56-20.4,1.33-6.29,3.64-12.67,4-19.14.36-7-.89-14.27-1.68-21.36-1.16-10.19-4-20-7.09-29.78-3.42-11.21-8.09-22-13.92-32.17-4.34-7.36-9.48-14.27-16.22-18.88-9.95-6.64-20.35-12.59-31.11-17.82-9.03-4.57-17.67-9.87-25.84-15.85-.88-.71-1.68-1.33-2.48-1.86-5.41-3.46-10.63-7.54-16.4-10.2-10.72-5-21.27-3.54-31.19,2.93-8.83,5.71-17.07,12.27-23.63,20.6ZM355.88,428.1c-6.3,1.63-12.79,2.43-19.3,2.39-5.76-.09-11.53.35-17.2-.09-13.6-.99-26.99-3.85-39.8-8.51-10.31-4.08-20.01-9.57-28.81-16.31-7.44-5.58-15.33-10.72-22.51-16.48-4.79-3.81-8.95-8.33-13.21-12.67-1.77-1.78-2-4.08.89-5.15,4.22-1.77,8.54-3.27,12.94-4.52,8.69-2.21,17.73-1.32,26.5-1.15,4.34.18,8.69,1.95,13,2.93,3.86,1.43,7.64,3.06,11.34,4.87,3.11,1.69,3.73,4.52,1.95,7.36-.19.36-.4.72-.62,1.06.5.09,1.01.09,1.51,0,2.75-.53,5.5-1.24,8.33-1.77,7.08-1.54,14.38-1.75,21.54-.62,5,.89,10.1,1.24,14.89,2.75,7.42,2.29,14.21,6.27,19.85,11.61,6.87,6.48,12.21,14.4,15.63,23.2,2.48,6.4.36,9.24-6.91,11.1h-.01ZM322.12,262.53c5.94,3,11.88,5.94,17.81,8.87,4,2,4.17,3.28,1.07,6.29-1.78,1.68-3.64,3.28-5.5,4.88-2.57,2.12-4.43,4.6-7,5.49-2.62.85-5.44.85-8.06,0-3.17-1.09-6.16-2.64-8.87-4.61-2.12-1.24-3-3.19-1.59-5.76,2.39-4.34,4.43-8.86,6.73-13.29,1.6-3.11,2.4-3.4,5.41-1.87ZM287.02,266.53c.3-3.27.78-6.53,1.42-9.75,1-3.81,1.6-7.35,2.48-10.81.44-1.68,1.33-2.57,3.1-1.33,4.44,3.19,9,6.21,13.48,9.4,2.22,1.59,4.32,3.34,6.29,5.23.69.8.96,1.89.71,2.92-2.44,5.08-5.16,10.03-8.16,14.8-3.9,6.21-4.07,5.85-10.28,2.57-2.41-1.38-4.75-2.89-7-4.52-3.37-2.13-2.3-5.59-2.04-8.52h0s0,0,0,0ZM250.51,241.53c5.5-3.6,11.69-6.02,18.17-7.09,2.65-.44,5.49.35,8.33.62,1.24.09,2.57.35,3.81.53,4.08.36,6.47,4,5.58,8.16-1.33,6.29-2.48,12.67-3.72,19.05-.62,3.19-1.15,6.29-1.86,9.48-.45,2.57,1.59,5.23,5.31,7.18,3.37,1.78,6.56,4,10,5.68,2.75,1.33,5.41,3.45,8.69.53.53-.62,2.66.09,3.9.62,5.14,2.48,9.92,5.32,15.15,7.44,2.75,1.16,5.76-.17,7.89-2,4.61-4.07,9.31-8.5,13.65-12.94,2.57-2.74,4.08-3.36,7-1.06,7.27,6,14,12.59,19.06,20.92,4.07,6.91,6.91,14.44,9.48,21.89,2.84,8.33,5.67,16.75,7.8,25.26,1.26,6.11,2.12,12.3,2.57,18.52.36,4.79.62,9.66.62,14.36-.11,9.22-2.26,18.3-6.29,26.59-3.19,6.74-8.25,11.26-13.65,15.6-3.37,2.75-4.08,2.3-5-1.95-2-9.66-6.83-17.82-13-25.35-4.6-5.76-10.9-9.3-17.1-13-6.82-4.25-14.45-5.58-22-6.91-5.61-.92-11.36-.47-16.75,1.33-3.19.97-6.51,1.42-9.84,1.33-1.33,0-2.66-1.6-3.9-2.57-.63-.63-1.16-1.35-1.59-2.13-2.13-1.51-3.9-2.66-5.77-4-4.87-3.28-10.37-5-16.13-6.56-4.97-1.48-10.15-2.16-15.33-2-6.92.58-13.79,1.65-20.56,3.2-3.72.7-7.36,2.3-11,3.54-3.19,1.06-4.08.71-5.14-2.57-2.49-7.18-3.64-14.71-4.61-22.25-.18-2.21.62-4.6.89-6.91,1.41-13.2,3-26.41,7.62-39.08,2.53-6.93,5.58-13.66,9.13-20.12,3.9-7,8.86-13.12,13.56-19.41,4.1-5.54,9.2-10.26,15.03-13.93ZM383.27,47.16c1.85-1.65,3.53-3.49,5-5.49,4.25-5,6.38-11.08,8.51-17.37.62-5.5,1.86-10.73,1.68-15.87s-4.73-9.13-9.6-8.33c-4.11.61-7.56,3.44-8.95,7.36-1.24,3.28-1.69,6.82-2.57,10.19-1.95,8.6-1.42,17.28-.54,25.88.27,2.66,4.08,5.76,6.47,3.63ZM383.98,22.79c.89-3.81,1.6-7,2.57-10.1.18-.71,1.33-1.16,2.13-1.78.44.89,1.33,1.6,1.33,2.48.53,6.92-1.77,13.3-3.72,19.86-.18.62-.89,1-1.42,1.33-.44-.53-1.42-1.15-1.33-1.78.09-3.36.27-6.64.44-10.01ZM344.1,198.81c6.82-2.39,14.09-.8,19,5.85,2.3,3.1,3.81,6.65,5.85,10,.51.66,1.07,1.29,1.68,1.87.27-1,.89-2.13.62-3-1.42-6.6-4.79-12.63-9.67-17.29-4.61-4.43-9.75-4.34-15.33-3.28-5.16.91-9.93,3.37-13.67,7.04-.92.82-1.76,1.75-2.48,2.75-.32.76-.5,1.57-.53,2.39.73-.08,1.44-.26,2.12-.53,4.17-1.99,8.24-4.29,12.41-5.8ZM333.58,217.6c-.71-.53-1.42-.89-2.12-1.33.17.89,0,1.95.44,2.66.98,1.31,2.05,2.55,3.19,3.72,3.1,2.31,6.2,4.26,10.1,3.81.43-.09.85-.24,1.24-.44-.26-.44-.35-1-.7-1.15-1-.33-1.97-.72-2.93-1.15-3.13-2.04-6.14-4.17-9.22-6.12ZM309.58,180.29c4,1,8,1.77,12.06,2.39,1.24.18,2.75-.44,4.07-.71-1.06-.62-2.21-1.15-3.36-1.77-.09-.09-.27-.36-.45-.36-4.52-.88-8.95-3-13.82-1.5.39.79.83,1.77,1.5,1.95ZM210.45,808.68c-9.05-4.88-19.06-6.21-29.16-7.27-5.94-.62-12.06-.71-18.08-1.33-3.34-.32-6.66-.85-9.93-1.6-5.14-1.15-10.28-2.74-15.42-3.81-8.16-1.5-16.4-2.83-24.64-4.25-5.85-.89-11.61-2-17.46-2.31-8.6-.35-17.2-.35-25.79,0-5.33.2-10.63.79-15.87,1.78-6.91,1.33-12.58,5.14-15.78,11.16-2,3.82-4.07,5.23-8.24,5.14-4.07.45-8,1-11.87,1.25-5.65.18-10.98,2.68-14.72,6.91-3.63,3.9-4.78,10.9-1.77,15.24,3.97,6.05,9.83,10.62,16.66,13,10.96,3.85,22.52,5.71,34.13,5.5,10.1-.36,20.12-.27,30.13-.62,9.75-.45,19.5-1.51,29.25-1.78,6.11-.08,12.23,1.16,18.35,1.07,22.42-.36,44.93,1.68,67.26-2.31,6.39-1.15,12.68-2.39,18.35-5.49,6.38-3.55,8.33-7.8,7.89-12.5-.98-8.3-6.16-13.97-13.29-17.78ZM212.22,830.92c-4.71,1.57-9.59,2.6-14.54,3.08-7.71,1.16-15.42,1.78-23.22,2.49-3.54.35-7.09.62-10.63.62-11.88.26-23.76.35-35.63.71-13.56.26-27.12.79-40.69,1.15-8.77.18-17.54.8-26.23.53-11.7-.44-23.31-1.68-34.65-4.79-1.16-.35-2.31-.79-3.46-1.24-3.19-2-6.47-3.1-8.78-5.23-5.31-5.14-2.57-8.86,2.4-10.45,3.3-.93,6.68-1.56,10.1-1.87,6.65-.7,13.3-1.24,19.94-1.86,2.66-.26,2.48-2.21,1.95-4.07-1.33-5.06-.79-5.76,4.17-8.16,6.56-3.28,13.47-4,20.47-4.08,7.54-.08,15.07,0,22.51.63,6.83.53,13.56,1.86,20.3,3,7.62,1.15,15.16,2.3,22.69,3.63,5.76,1.07,11.43,2.48,17.11,3.55,4.69.8,9.39,1.24,14.09,1.86,4.43.62,9,1,13.56,1.86,6.82,1.51,13.65,2.84,20.38,5,3.46,1.16,6.74,3.46,9.84,5.5,2.93,1.94,3.46,6.37-1.68,8.14h0ZM143.79,73.4c9.22,1.06,18.44-.09,27.75-1.24,9-1.07,18-2.66,26.94-4.17,2.59-.27,5.17-.68,7.71-1.24,2.13-.35,3.28-1.68,2.39-4-2.57-6.82-8.15-10.46-14.35-13.74-7.09-4-14.81-5-22.34-5.76-7.69-.71-15.45-.11-22.95,1.75-6.92,1.53-13.11,5.38-17.55,10.9-1.98,2.22-2.43,5.41-1.15,8.1,2.46,5.37,7.65,8.98,13.55,9.4ZM142.02,59.31c1.51-1.78,4-2.93,6.21-4,8.59-4.08,17.9-3.19,26.94-3,5.94.27,12,1,17.55,3.64.38.08.72.26,1,.53.71.8,1.51,1.59,2.13,2.39-.87.58-1.83,1-2.84,1.24-5.13.53-10.19.89-15.33,1.33-.26,0-.53.36-1,.53-10.26,1.54-20.63,2.16-31,1.87-2.86-.1-5.16-2.84-3.66-4.53h0ZM129.79,101c2.93,1.24,6.56,1.07,9.93,1.07,8.15-.18,15.51-3.28,22.15-7.72,2.08-1.36,3.71-3.3,4.7-5.58,1.07-2.84-1-5.32-4.43-7.36-3.77-2.38-8.23-3.44-12.67-3-3.46.18-6.92.36-10.73.53-4.69,1.69-9,3.55-12,7.54-3.77,5.18-3.42,11.82,3.05,14.52ZM136.71,89.92c2.09-1.39,4.32-2.58,6.64-3.54,1.69-.62,3.64-.45,5.41-.71,1.77-.07,3.55-.04,5.32.09.44,0,1.06.88,1.06,1.42-.12.64-.48,1.21-1,1.59-4.67,3.12-10.17,4.75-15.78,4.7-.96-.05-1.84-.54-2.39-1.33-.24-.48.29-1.81.74-2.26v.04h0ZM67.84,146.43c5.03.95,10.23.46,15-1.42,3.45-2.48,6.82-4.61,10-7.09,7.13-5.2,12.49-12.48,15.34-20.83,1.32-3.72-.18-7.53-3-7.71-5.49-.35-11.08-.35-16.22,1.69-5.3,2.22-10.4,4.9-15.24,8-6.38,3.9-10.19,10.11-11.88,17.29-1,4.04.59,8.83,6,10.07ZM73.33,133.84c1.94-3.01,4.17-5.83,6.65-8.42,3.9-3.54,7.89-6.91,13.12-8.33,1.41-.2,2.83-.32,4.25-.35-.35,1.59-.17,3.54-1.15,4.61-3.72,4-7.8,7.8-11.79,11.61-2.38,1.71-4.9,3.22-7.53,4.52-1.15.53-2.66.17-4.08.17.18-1.24-.17-2.83.53-3.81ZM60.93,561.57c-3.9,7-7.18,14.36-6.47,22.69.44,6.56,5.67,11.79,13.73,10.2s12.59-7.45,15.16-14.18c5-12.32,8.86-25.26,12.94-37.94.68-2.26.49-4.69-.53-6.82-1.33-2.13-4.17-1.69-6.38-.62-2.84,1.33-6.12,2.39-8.42,4.34-4.88,4-9.22,8.6-13.92,13.12-2.24,2.93-4.28,6.01-6.11,9.21ZM82.37,546.68c.27-.26.45-.53.71-.62.86-.36,1.75-.65,2.66-.88-.17.71-.17,1.33-.35,2.12s-.36,1.6-.62,2.4c-3.9,9.39-7.45,18.61-11.35,27.65-1,2.22-2.92,4.08-4.61,5.85-.72.58-1.66.8-2.57.62-.83-.48-1.36-1.34-1.42-2.3.45-3.55.63-7.18,1.87-10.46,3.41-9.16,8.76-17.48,15.68-24.38h0ZM75.37,479c-7.18-.18-13.12,2.93-18.79,6.74-6.29,4.34-10.63,9.92-10.1,18.17.18,2.74,3.1,7,5.41,7.26,6.11.54,12.05-.26,16.92-5,2.69-2.8,5.2-5.76,7.54-8.86,3-4.11,4.25-9.24,3.45-14.27-.08-2.32-2.03-4.13-4.35-4.04-.03,0-.05,0-.08,0ZM71.58,488.72c-2.92,3.72-6,7.36-9.22,10.9-.76.83-1.69,1.46-2.74,1.86-1.13.06-2.27-.06-3.37-.35,1.42-6.38,5.85-9.75,10.28-12.94.97-.77,2.04-1.4,3.19-1.86.78-.08,1.56.01,2.3.26-.1.71-.02,1.69-.44,2.13Z"/>
  <path class="cls-3" d="M567.36,170.09c.44.54.71,1.42,1.24,1.69,9.48,5.58,19.06,11.16,28.81,17,3.27,1.69,6.47,3.46,9.83,4.88,3.64,1.42,7.27,2.92,11.44,2.48,3.16-.13,5.68-2.69,5.76-5.85.53-5.49-3.81-8.06-7.09-10.28-6.92-4.79-14.89-7.36-23.22-8.77-4.17-.71-8.16-1.42-12.32-1.78-4-.35-8.07-.53-12.15-.53-.7-.08-1.5.72-2.3,1.16ZM621.42,838.81c-6-3-12.76-3.72-19.32-4.61-4.78-.62-9.57-.53-14.36-1.42-2.57-.53-4.87-2.3-7.35-3.45-1.6-.89-3.28-2.22-5-2.4-7.54-.62-15.25-1.06-22.87-1.24-4.34-.05-8.68.15-13,.62-3.81.36-7.44,1-11.08,1.69-1.24.35-2.3,1.42-3.54,2.13,1.24.88,2.3,2.3,3.63,2.74,4.43,1.42,9,2.48,13.38,3.73,2.13.62,2.66,2.39,1.16,4.07-1.07,1.07-2.13,2.13-3.28,3.19-1.51,1.6-1.86,3.46.09,4.79,1.96,1.3,4.07,2.34,6.29,3.1,8.68,2.66,17.81,1.86,26.77,2.31,8.33.35,16.75-.27,25.79-.54,2.66-.17,5.31-.35,7.89-.62,5.51-.44,10.85-2.15,15.59-5,1.6-.89,3.28-3.37,3.28-5-.17-1.34-2.38-3.29-4.07-4.09ZM598.65,227.08c-5.32-5.85-12.23-9.48-19.15-13-1-.44-2.3-.08-3.45-.17.17,1.06.17,2.21.44,3.28.35,1.33,1.06,2.66,1.51,3.9,2.74,6.55,5.4,13.2,8.24,19.67,2,4.7,4.25,9.4,6.65,13.92,1.5,2.74,3.45,3,6.38,1,.33-.45.62-.93.88-1.42,2.21-5.22,3.01-10.94,2.31-16.57-.36-3.78-1.07-7.59-3.81-10.61ZM594.39,468.78c-1.29-2.39-2.77-4.68-4.43-6.83-.53-.79-1.68-1.06-2.48-1.5-.28.89-.49,1.81-.62,2.74,0,1.33.35,2.66.53,4.52,1.24,3.82,2.22,7.63,3.72,11.17.87,1.99,2.25,3.72,4,5,1.86,1.41,3,.44,3.28-1.87.61-5.01-1.81-9.07-4-13.23ZM570.99,500.15c-.26-.53-1.24-.71-1.86-1.15-.24.57-.42,1.16-.53,1.77.36,4,.8,8,1.15,12.5.27,1.33.36,2.57.71,3.72,1.33,4.79,1.42,10,4.88,14.1,1.41,1.77,2.48,4.87,5.49,3.81,3.19-1.16,2-4.52,1.6-6.74-1.69-10.1-6.74-18.97-11.44-28.01ZM527.48,122.68c5,.79,9.92,1.95,14.89,2.66,6,.79,12,2,17.9,2,4.43.09,5.58-2.74,4.08-5.85-1.86-3.9-5.32-5.58-9-6-5.48-.5-10.99-.65-16.49-.45-2.75.27-5.58.54-8.33,1-5,.71-10.1,1.51-15.07,2.39-.8.18-1.33,1.07-2,1.51.71.53,1.42,1.42,2.22,1.51,3.82.43,7.81.61,11.8,1.23ZM458.52,58.15c2.57-1.95,5-4.07,7.8-6.56,5-4.69,10.11-9.39,14.89-14.35,2.84-2.97,5.42-6.17,7.71-9.58.72-1.33.88-2.89.45-4.34-.36-.88-2.4-1.42-3.55-1.33-2,.07-3.96.55-5.76,1.42-7.45,3.72-12.94,9.66-17,16.66-2.92,5.14-5,10.73-7.27,16.13-.19.83.05,1.69.62,2.31.25.35,1.58,0,2.11-.36ZM425.29,74.73c.41-1.08.62-2.22.62-3.37.17-.89.26-1.86.44-2.84.44-3.45,1.06-6.91,1.33-10.28.09-.71-.71-1.59-1.15-2.39-.64.58-1.23,1.2-1.78,1.86-.29.33-.5.73-.62,1.15-.8,5.14-1.77,10.28-2.39,15.42-.09.89,1,2,1.51,2.84.77-.71,1.46-1.52,2.04-2.39ZM384.87,34.58c.53-.36,1.24-.71,1.42-1.33,2-6.56,4.25-12.94,3.72-19.86,0-.88-.89-1.59-1.33-2.48-.8.62-2,1.07-2.13,1.78-1,3.1-1.68,6.29-2.57,10.1-.17,3.37-.35,6.65-.44,10-.09.64.89,1.26,1.33,1.79ZM213.9,822.77c-3.1-2-6.38-4.34-9.84-5.5-6.73-2.12-13.56-3.45-20.38-5-4.52-.89-9.13-1.24-13.56-1.86-4.7-.62-9.4-1.06-14.09-1.86-5.68-1.07-11.35-2.48-17.11-3.55-7.53-1.33-15.07-2.48-22.69-3.63-6.74-1.15-13.47-2.48-20.3-3-7.44-.63-15-.71-22.51-.63-7,.09-13.91.8-20.47,4.08-5,2.4-5.5,3.1-4.17,8.16.53,1.86.71,3.81-1.95,4.07-6.64.62-13.29,1.16-19.94,1.86-3.42.31-6.8.94-10.1,1.87-5,1.59-7.71,5.31-2.4,10.45,2.31,2.13,5.59,3.28,8.78,5.23,1.15.45,2.3.89,3.46,1.24,11.34,3.11,22.95,4.35,34.65,4.79,8.69.27,17.46-.35,26.23-.53,13.57-.36,27.13-.89,40.69-1.15,11.87-.36,23.75-.45,35.63-.71,3.54,0,7.09-.27,10.63-.62,7.8-.71,15.51-1.33,23.22-2.49,4.95-.48,9.83-1.52,14.54-3.1,5.14-1.74,4.61-6.17,1.68-8.12ZM145.66,63.83c10.37.29,20.74-.33,31-1.87.44-.17.71-.53,1-.53,5.14-.44,10.2-.8,15.33-1.33,1.01-.24,1.97-.66,2.84-1.24-.62-.8-1.42-1.59-2.13-2.39-.28-.27-.62-.45-1-.53-5.58-2.66-11.61-3.37-17.55-3.64-9-.17-18.35-1.06-26.94,3-2.22,1.06-4.7,2.21-6.21,4s.82,4.44,3.66,4.53ZM154.17,88.73c.52-.38.88-.95,1-1.59,0-.54-.62-1.42-1.06-1.42-1.77-.13-3.55-.16-5.32-.09-1.77.26-3.72.09-5.41.71-2.32.96-4.55,2.15-6.64,3.54-.45.45-1,1.78-.71,2.22.55.79,1.43,1.28,2.39,1.33,5.6.05,11.09-1.59,15.75-4.7ZM76.88,137.48c2.63-1.3,5.15-2.81,7.53-4.52,4-3.81,8.07-7.62,11.79-11.61,1-1.07.8-3,1.15-4.61-1.42.03-2.84.15-4.25.35-5.23,1.42-9.22,4.79-13.12,8.33-2.48,2.59-4.71,5.41-6.65,8.42-.7,1-.35,2.57-.53,3.81,1.42,0,2.93.35,4.08-.17ZM64.82,581.52c.06.96.59,1.82,1.42,2.3.91.18,1.85-.04,2.57-.62,1.69-1.77,3.64-3.63,4.61-5.85,3.9-9,7.45-18.26,11.35-27.65.26-.8.44-1.6.62-2.4s.18-1.41.35-2.12c-.91.23-1.8.52-2.66.88-.26.09-.44.36-.71.62-6.92,6.9-12.27,15.22-15.68,24.38-1.24,3.28-1.42,6.94-1.87,10.46ZM66.51,488.19c-4.43,3.19-8.86,6.56-10.28,12.94,1.1.29,2.24.41,3.37.35,1.05-.4,1.98-1.03,2.74-1.86,3.19-3.54,6.3-7.18,9.22-10.9.44-.44.36-1.42.44-2.13-.74-.25-1.52-.34-2.3-.26-1.15.46-2.22,1.09-3.19,1.86Z"/>
</svg>