<?xml version="1.0" encoding="UTF-8"?>
<svg id="Layer_1" data-name="Layer 1" xmlns="http://www.w3.org/2000/svg" xmlns:xlink="http://www.w3.org/1999/xlink" viewBox="0 0 1031.27 1548.07">
  <defs>
    <style>
      .cls-1 {
        fill: url(#linear-gradient);
      }

      .cls-1, .cls-2, .cls-3, .cls-4, .cls-5, .cls-6, .cls-7, .cls-8 {
        stroke-width: 0px;
      }

      .cls-2 {
        fill: #000;
      }

      .cls-3 {
        fill: #2f1812;
      }

      .cls-4 {
        fill: url(#linear-gradient-5);
      }

      .cls-5 {
        fill: url(#linear-gradient-2);
      }

      .cls-6 {
        fill: url(#linear-gradient-3);
      }

      .cls-7 {
        fill: #4cc8a3;
      }

      .cls-8 {
        fill: url(#linear-gradient-4);
      }
    </style>
    <linearGradient id="linear-gradient" x1="3.18" y1="581.63" x2="1026.79" y2="581.63" gradientUnits="userSpaceOnUse">
      <stop offset="0" stop-color="#f68529"/>
      <stop offset="1" stop-color="#f26522"/>
    </linearGradient>
    <linearGradient id="linear-gradient-2" x1="316.67" y1="615.31" x2="856.78" y2="615.31" gradientUnits="userSpaceOnUse">
      <stop offset="0" stop-color="#fff"/>
      <stop offset="1" stop-color="#cdcfd0"/>
    </linearGradient>
    <linearGradient id="linear-gradient-3" x1="185.97" y1="904.05" x2="699.03" y2="904.05" gradientUnits="userSpaceOnUse">
      <stop offset="0" stop-color="#e6d5c3"/>
      <stop offset="1" stop-color="#cdbfb0"/>
    </linearGradient>
    <linearGradient id="linear-gradient-4" x1="243.17" y1="890.09" x2="693.07" y2="890.09" gradientUnits="userSpaceOnUse">
      <stop offset="0" stop-color="#ee794d"/>
      <stop offset="1" stop-color="#c86640"/>
    </linearGradient>
    <linearGradient id="linear-gradient-5" x1="478.76" y1="1195.87" x2="683.33" y2="1195.87" gradientUnits="userSpaceOnUse">
      <stop offset="0" stop-color="#80331f"/>
      <stop offset="1" stop-color="#5d2009"/>
    </linearGradient>
  </defs>
  <path class="cls-2" d="M519.97,2.09c5.9-3.9,13.4-1.7,19.1,1.4,13.7,7.2,22.6,20.8,28.8,34.6,3.3-11.6,8.2-23.6,18-31.2,9.9-7.7,23.8-8.1,35.2-3.9,10.8,3.9,19.1,12.6,24.7,22.4,8,14.2,11.8,30.3,14.2,46.3,4.4,30.6,3.1,61.7.6,92.5,13.2-27.9,29.2-55.1,51.8-76.5,16.3-15.4,37-27.2,59.6-29.8,21.8-2.6,45.4,0,63.7,12.9,15.6,10.7,25.4,27.9,31.1,45.6,14.3-5.8,29.2-10.4,44.6-12,20.5-1.9,41.7,0,61,7.4,18.4,7.1,34,20.8,43.3,38.2,11.7,21.2,14.9,45.7,15.6,69.5-.5,25.5-4.2,51-11.4,75.4,0-9.5.8-19.1-.1-28.6-2-26.4-8.4-53.3-23.2-75.6-10.8-16.4-27.4-28.8-46.4-33.9-20-5.9-41.4-3.5-61.2,2.1,17.8,2.2,35.7,5.5,52,13.2,17.5,8,33.4,21.3,41.2,39.2,13.7,32.5,19.8,68.3,17,103.5-1.1,0-2.1,0-3.2-.1-.8-24.3-7.5-48.6-20.7-69.1-10.2-16.2-24.6-29.6-41.3-39.1-18.4-10.5-39.2-16.5-60.2-19.2-.6,8.8-1.5,17.6-2.7,26.4,20.1,2.9,39.8,10.1,56.1,22.4,18.6,13.9,32.4,33.5,41.6,54.7,7.8,18.1,12.6,37.5,14.3,57.2-.8,0-2.4.2-3.2.3-1.3-10.2-3.6-20.4-7.8-29.8-6.4-14.9-18-27.2-31.9-35.5-20.9-12.4-45.5-17-69.5-18.7-19.9-1.2-40.4-2-59.8,3.6-23.4,6.3-44.6,18.9-63.2,34.1-27.2,22.4-49.7,50.2-67.8,80.5,22.6,24.9,53.8,39.5,77.9,62.8,2.9,3.1,6.6,7.2,5.2,11.9-2.7,5.3-9.6,5.3-14.8,5.7-20.6-.3-40.8-5.6-60.2-12.2-8.9-2.9-17.5-7-25.1-12.6-3.2,13.1-6.4,26.1-8,39.5,26.5-10,57.1-11.2,83.1.8,22.8,10.1,40.7,29.6,51,52.1,8.8,19.4,12.9,41.3,9.5,62.5-3.7,20.9-10.4,41.2-20.4,60,14.7-14.1,29.5-28.3,41.8-44.6,12-14.8,32-21.6,50.7-19.8,13.5,1.3,26.5,6.8,37.4,15,10.9,8.8,17.4,21.9,20.9,35.2,5.9,23.3,3.3,48.4-5.8,70.6-14,34.2-44.2,60.5-78.8,72.6-22.6,7.7-46.2,12.3-69.9,15.5-50.3,6.7-101.3,6.8-151.8,3.9-5.2,8.2-10.5,16.3-15.8,24.5,3.3,3.1,6.9,7,6.4,12-.4,6.3-5.7,10.5-9.3,15.2,12.7,5.1,25.1,10.9,36.7,18.1,14.2,8.8,28,19.4,37.2,33.6,5,7.4,7.2,16.2,10.7,24.3,4.5,11.1,10.2,21.7,13.2,33.4,2.8,11.2.9,23.1-2.8,33.9-8.1,23.5-15.3,47.4-19.9,71.9-2,10.3-3.8,21.6,1,31.4-5.7,4-13.2,2.3-19.7,2.4,1.2,5.5,3.9,11.3,9.2,13.9,7.2,3.4,15.8,3,23.4,1.2,4.9-1.2,9.6-5.5,14.8-3.4,4.3,1.8,9.3,4.7,9.9,9.8,0,4-4,5.9-6.8,7.8.3,3.6,1.2,7.8-1.3,10.9-3.3,4.6-9.1,5.9-14.1,7.4-1.6,3.1-3.4,6.3-6.7,7.8-4.6,2.5-10,1.3-15,1.4-4.4,1.5-8.3,4.5-13.1,4.6-6.3.6-11.7-3.3-17.1-5.9-7.9-3.9-15.2-9.2-20.6-16.2,4.1,28.2,8.2,56.5,15.6,84.1,2.7,9.4,5.2,19,10.6,27.3,11.4,15.7,25.7,29.3,35,46.5,5.9,10.2,3.5,24.4-5.8,31.8-6.7,5.5-15.6,6.6-23.8,8.4-13.2,3.1-26.4,6.6-40,7.4-.4,23.7-.9,47.4,1.5,71,.8,9.1,6.8,16.8,14.1,21.9,10.7,6.9,23.7,7.5,35.9,9.9,16.2,2.9,32.3,6.2,48.6,8.8,9.9,1.5,20,3.1,30.1,2.5,11.4-.6,22.1,8.1,24.6,19.1,1.3,6.9,1.1,14.1-.3,20.9-1.1,4.6-5.9,6.3-10,7.2-11.6,2.3-23.6,1.4-35.3.7-16.8-1.2-33.4-3.8-50-6.5-27.7-4.2-55.7-6.6-83.6-9.8-4.7,4.7-11,7.1-16.3,11-4.2,3-8.1,6.4-11.2,10.5-3.3,4.3-5,9.8-8.9,13.7-4.7,4.7-10.3,8.5-16.3,11.5-17.4,8.5-38.2,11.8-56.8,5.5-6.9-2.3-14.4-5.2-18.2-11.8-3.3-6.1-.9-13.3,1.8-19.1,3.7-8.2,11-14,18.3-18.8,8.8-5.6,18.1-10.5,28.1-13.5,3.6-1.2,7.7-1.5,10.4-4.4,3.7-3.6,6.5-7.9,9.3-12.2,2.6-4.3,5.4-8.5,6.7-13.4,2.4-2.7,3.9-6.1,5.3-9.3,1.6-3.6,3.9-7.3,3.5-11.4-.7-20.7-1.3-41.3-2-62-17-3-33.4-9.2-48-18.4-9-5.9-18-14.1-19.6-25.3-1.5-10.6,4.7-20.1,11.3-27.8,7.2-8.9,17.3-14.7,24.3-23.7,6.2-8,9-18,10.6-27.8,8.4-51.1,17-102.2,24.1-153.5,2.3-17.1,4.8-34.3,5.9-51.6,1.1-17.2-.4-34.5-2.6-51.5-2.6-18.7-6.2-37.4-11.9-55.4-4.3-13.4-11.9-25.5-16-39-31.1-15-62.6-29.2-94.6-42.2-17.2-6.8-34.5-13.6-52.3-18.9-24.2-7.6-49.6-9.4-74.6-12.8-28.9-3.7-57.7-6.9-86.5-11.1-8.2-1.3-16.4-2.5-24.4-4.8-2.6-.8-5.9-2.3-5.8-5.6-.9-15.3,3.1-30.3,6.3-45.2-32.1-6.1-64.3-12.1-96.5-18.1-11.4,8.1-23,15.9-35,23.1-6.7,4.1-13.9,8.6-22.1,8.2-7.8,0-15.4-5.5-17.1-13.3-3.3-12,4-25,15.2-29.7,7.6-3,15.4-5.7,23-8.8-10.2,1.6-20.2,5.3-30.7,5.2-12.1-1.3-24.2-10.3-26.4-22.8v-3.2c1.4-11.2,13.5-17.7,24.1-16.6,14.7,1.6,29.5,3.1,44.2,3.5-11.9-4.8-23.8-9.4-35.5-14.8-6.6-3.1-13.3-6.3-18.5-11.4-8.8-8.7-8.1-24.7.9-33,6.7-5.9,16.8-4.9,23.9-.4,15.3,9.4,30.7,18.8,46.2,27.9-7.9-14.6-16.1-29-25.2-42.9-3.3-5.4-6.8-11.3-6.1-17.9.8-5.6,5.4-9.7,9.8-12.8,3.9-2.8,9.2-4.8,13.8-2.4,6,3.1,10,8.7,13.6,14.2,12.1,19,22.7,38.8,33.9,58.3,2.8,4.7,8.8,3.7,13.3,3.3,7.1-9.7,14.1-19.5,21.1-29.2,8.3-11.5,28-13.9,37.3-2.5,6,8.1,8.3,20.7,1.1,28.9-5,7-14.6,10.3-16.9,19.1-2.8,11,.3,22.2,2.2,33.1,3.6,1.5,7.4,2.6,11.2,3.3,5.2,1,10.1,3.2,15.4,4,9.8,1.6,19.3,5.1,28.2,9.7,18.1,9.9,36.7,18.6,55.2,27.5,39.9,18.9,80,37.5,120.8,54.3,17,7.1,34.6,12.7,51.9,18.9,24,8.5,47.9,17.3,71.7,26.4-1.8-4.3-3.8-9.1-2.2-13.8,1.6-5.6,6.6-9.3,11.4-12.1-.9-7.5-2.4-15.4-7.5-21.2-1.2-1.7-3.4-1.9-5.3-2.1-23.4-2.4-46.6-5.4-69.8-9.3-42.9-7.3-85.8-17.4-125-36.6-13.5-6.8-27.1-14-38.2-24.3-16.6-15.1-28.7-34.7-36.8-55.6-8.6-22.6-13-47.1-10.2-71.2,2-15.7,9.3-31.3,21.9-41.2,10.5-8.2,24.3-10.7,37.3-9.9,13,1,26.2,3,38.1,8.7,14.3,6.7,27.4,16.9,35.2,30.9,4.2,7.3,5.2,16,9,23.5-.3-31.8,4-64.4,18.2-93.1,9.9-20.2,25.7-37.7,45.8-48.1,22.5-12,48.6-15,73.7-13.6,11.4.6,22.4,4.4,32.2,10.4-2.7-14.1-9-27.1-16.5-39.2-9.9,3.4-20.1,6.2-30.5,6.9-18.8,1.3-37.8.1-56.4-3-6.5-1.2-13.3-2.5-19.1-6-2.2-1.2-4-4.3-2.2-6.6,2.5-3.2,6.6-4.4,10.3-5.7,27.3-7.6,54.6-15.9,80.2-28.2-12.8-28.9-29.6-56.1-51.1-79.3-19.7-20.9-44.5-38.7-73.3-43.8-29.8-5.3-60.3,3.4-86.6,17.1-33.5,17.7-62.6,43-87.3,71.5-.7-.5-2-1.4-2.7-1.8,15.6-26.3,34.8-50.5,56.9-71.6,24.4-23,53.3-42.1,85.9-50.9,34.3-9.1,71.6-5,103.8,9.5-13.7-24.1-35.6-44.2-62.2-52.9-26.7-9-56.7-6.6-82.1,5.5-30.9,14.6-55.9,40-73.6,68.9-.8-.3-2.3-1-3.1-1.3,17.2-32.8,39.1-63.6,66.7-88.4,19.9-17.8,44.2-31.6,71-34.8-16.1-5.8-33.5-8-50.4-6-23.2,2.7-45,13.5-62.5,28.8-6.8,5.7-12.6,12.4-19,18.4,4.1-7.3,8.9-14.3,14.1-21,23.2-29.2,54.7-52.2,90.5-63.3,22.8-7,47.3-9.2,70.9-5.3,19.9,3.3,38.6,12,55.4,23-1-26.2,1.9-52.8,10.5-77.6,3.7-9.4,8-19.6,16.8-25.3l-.2-.3ZM594.37,75.79c11.7,28.5,15.4,59.4,17.4,89.9.7-5.7.6-11.4.5-17-.6-29.8-3.4-59.5-8-89-4.1,4.9-7.1,10.5-10,16.1h.1ZM519.17,82.89c-3.7,12.6-4,25.8-3.6,38.8,15,12.4,28.2,26.8,39.9,42.2-1.5-14.1-4.8-28-8.5-41.7-5-18.5-10.6-36.8-16.9-54.8-5.5,3.5-9,9.3-10.9,15.5ZM769.67,110.29c-18.1,11.1-31.5,28.2-43.5,45.4-22.5,33.8-39.4,71.1-53.7,109,24.1-25.8,49.7-50.2,76.7-72.8,29.1-24.4,60-46.8,93.6-64.5-8.6-12.5-22.1-21.9-37.2-24.3-12.4-2.4-25.4.5-36,7.2h.1ZM803.37,201.49c-11.7,7.4-22.7,16-33.5,24.8,31.1-9.9,63.9-16.5,96.6-13.2-.4-8.3-1.1-16.6-2.2-24.8-20.8.8-42.1,3.7-60.9,13.2h0ZM625.27,909.29c-4.1,26.8-8.2,53.6-11.4,80.5-1.7,14.1-.1,28.2.2,42.3,11-12.3,21.1-25.7,27.3-41,5.1-15.8,6.6-32.7,4.8-49.2-.9-6.6-1.9-13.6-6-19.1-4.1-5.4-9.3-9.8-15-13.5h.1Z"/>
  <path class="cls-1" d="M513.47,12.69c3.4-5,8.6-10.4,15.2-9.2,10,2.2,18.3,9.2,24.4,17.1,5.3,7.1,9.9,14.9,12.6,23.4-6.4,35.2-3.7,71.3.6,106.6,1.7,13.2,3.8,26.4,6.4,39.5.8,0,2.4-.3,3.1-.3.2-25.7,2-51.5,6.8-76.8,2.3-11,4.7-22,9.2-32.3,7.1,17.7,10.6,36.7,13.1,55.5,3.1,24.5,4.5,49.2,4.4,73.9-1.2,24-3.5,48-5.2,72-5.4-37.7-20-73.8-40.9-105.5-1.6-2.7-3.8-4.9-4.9-7.8-1.2-16.9-5.2-33.4-9.6-49.8-4.8-17.6-10.3-35-16.2-52.3,2.7-.2,5.5,0,8.2.2,1.8.8,2.7-2.5.9-2.8-6.3-1.9-13.8-.5-18.5,4.3-6,6.1-8.3,14.7-9.9,22.8-2.9,17.8-1.9,35.9-.2,53.8,1.3,14.4,3.7,28.7,6.1,43-1.3-1.5-2.7-3-3.4-4.9-6.9-16.7-12.6-34-16.6-51.7-6.2-26-4.9-53.2,0-79.2,2.9-13.7,6.6-27.5,14.2-39.4l.2-.1ZM570.57,38.79c-5.3,20.6-5.6,42.1-5,63.2,1,23.6,3.4,47.1,7.5,70.4,1.1-26.9,3.8-54,11.2-80,4.1-13.5,9.5-27.2,19.4-37.5,6.2-6.3,15-10.5,24-9.8,1.1.6,1.4,1.5.8,2.7-2.6.7-5.4.5-8,1.1-5.4,1.1-10.1,4.2-14,7.8,6.2,39.8,9.7,80.1,7.9,120.3-1,26.2-2.8,52.4-4.9,78.5-1.8,20.8-3.2,41.7-6.1,62.4.2,2.2-3.4,4.3-3.5,1.1,1.2-8.3,2.9-16.6,2.1-25-2.1-30.7-11.8-60.5-25.5-88-6.3-12.2-13.1-24.3-21.5-35.2-1.4-2.4-2.9-4.6-4.6-6.7-10.5-13.9-22.3-26.7-35.5-38,1.1,21.5,4.1,42.9,8,64,.2,1.1.4,2.2,1.2,3.1,31.8,36.3,52.9,81.5,61.3,128.9,1.4,2.4-3.2,3.5-3,.7-8.2-45.3-27.9-88.8-57.7-123.9,1.1,5.4,2.4,10.8,3.5,16.2-5.4-8.9-9.9-18.3-14.2-27.7-9.1-9.9-19.7-18.5-30.7-26.2-24.7-17-54.3-28.3-84.6-27.7-25,.7-48.1,12.7-67.3,28.1-22.2,18-40.7,40.3-56,64.3,19.5-22.2,43.9-41.1,72.6-49.5,25.7-7.6,54.3-5.9,78.6,5.5,23.3,10.9,42.2,30.2,54.1,52.9.6,1.4,2,2,3.2,2.7,22.7,12.2,41.5,30.9,55.8,52.2,10.2,15.1,18.1,31.5,25.5,48.1-1.1,2.1-3.3,1.1-3.8-.8-6.4-13.4-12.5-27-20.6-39.6-15.3-24.7-36.5-46.2-62.6-59.3-25.1-12.6-53.8-17.6-81.7-15.3-32.7,3-63.2,18.1-88.9,38.1-25.1,19.6-46.5,43.7-64.3,70,14-13.9,28.6-27.2,44.7-38.6,25.8-18.4,55.2-33.2,87-36.8,21.1-2.5,42.9,1.3,61.8,11,19.1,9.5,35.4,23.6,49.5,39.5,19.6,22.4,35.2,48.1,47.2,75.2,8.2-4.5,16.8-9.2,22.5-16.9,4.8-6.1,10.4-12,17.4-15.6,3.8-1.9,8.6-2.7,12.3-.3,4.1,2.6,5.8,7.6,6.6,12.2,2.1,12.9.2,26.8-7.1,37.9-7.9,12.1-20.7,20-33.9,25.3,8.1,13.1,15.1,27.5,16.9,43,14.6,11.3,25,27.1,33.3,43.4,14.3-13.3,30.9-24.2,48.9-31.7,1-12.2,3.9-24.1,6.7-36.1.6-2.3.9-4.8,2.6-6.5-15.5-12.6-25.5-31.3-29.1-50.8-2.2-9.5-2.1-19.6,1.2-28.8,1.6-4.3,4.3-8.7,8.9-10.2,6.6-1.7,13.8.7,18.6,5.5,8.1,7.6,11.6,18.4,17.2,27.7,17.1-28.1,37.8-54.2,62.7-75.8,22.7-19.6,49.6-35.6,79.3-41.3,15.1-3,30.6-2.4,45.8-1.8,25,1.4,50.5,5.4,72.7,17.4,14.8,7.9,27.3,20,34.9,34.9-8.2-28.3-23.3-55.6-47.1-73.7-16.1-12.3-35.6-19.6-55.5-22.4-.3,1.4-.5,2.8-.8,4.3-.8,0-2.4-.2-3.1-.3,0-1.5-.1-3-.2-4.5-32.6-3.3-65.3,3.3-96.2,13.3-3.3,1.2-7.1,1.8-9.8,4.3-18.1,15.5-35.3,32.2-50.6,50.4-8.4,10.1-16.4,20.7-22.8,32.2-1.6,2.7-2.6,5.6-4.5,8.1-2.1,0-2.5-1.8-1.5-3.3,6.5-13.7,15.7-25.9,25.2-37.6,20-23.9,42.9-45.3,67.4-64.6,26.6-20.9,55.2-39.5,86.2-53.1-3.3-12.6-7.9-24.9-15-35.8-36.7,19.1-69.9,44.1-101.2,70.9-25.4,21.9-49.5,45.2-72.2,69.8-2,1.9-2.8,4.6-3.7,7.2-6,17.7-11.9,35.5-15.3,53.9-.4,1.5-1.5,2-3.2,1.5.9-10,4.1-19.7,6.8-29.4,10.9-36.4,24.9-71.8,41.9-105.8,13.1-25.5,27.7-50.6,47.3-71.7,11.8-12.3,25.9-23.8,43.2-26.9,15.6-2.3,32.1,2.1,44.3,12,12.6,10.1,20.7,24.7,26.1,39.7,5.8,16.3,9,33.5,10.1,50.8,2.8-21.8,2.6-44-.9-65.7-3.3-19.6-10.2-39.4-24-54.1-11.3-12.1-27.1-19.2-43.4-21.2-16.1-2-32.9-.9-48.2,4.8-15.3,5.6-28.8,15.2-40.4,26.5-14,13.7-25.3,29.9-35,46.9-15.8,27.7-27.5,57.6-37.1,87.9-10.6,34.1-18.7,68.9-24.3,104.1,0,2-1.8,2.4-3.3,1.9,1.6-13.8,4.5-27.5,7.3-41.2,8.5-39.4,19.6-78.4,35.4-115.5,1.8-5.7,1.6-11.8,2.4-17.7,2.4-28.2,3-56.7-.6-84.9-2.2-15.6-5.6-31.4-13.1-45.4-5.1-9.5-12.7-18.2-22.9-22.2-10.6-4.2-23.6-4.1-32.9,3.1-9.2,7.1-13.8,18.3-16.7,29.2l.6.3ZM283.27,146.29c12.1-9.4,25.7-17,40.5-21.4,24.5-7.5,51.6-5.9,75.2,4,4.7,1.9,10,1.1,14.9,1.9,36.9,3.9,70.6,23.1,97,48.5-8.8-22.5-16.1-45.9-18.4-70-16.8-11.4-35.4-20.4-55.5-23.9-22.2-3.8-45.1-2-66.7,4.1-33.8,9.7-64.1,30.3-86.9,56.8h-.1ZM873.17,160.39c18.4-6.5,37.9-11.2,57.6-10,17.7,1.2,35.1,7.4,49,18.5,13.1,10.4,22.7,24.5,29.2,39.8,7.9,18.6,11.8,38.7,13.2,58.7,3.3-16.9,4.8-34.2,4.6-51.4-.4-21.4-3.8-43.2-13.7-62.3-7.3-14.3-18.8-26.4-32.9-34.1-17.8-9.8-38.4-12.8-58.4-12.6-19,.2-37.4,5.5-54.9,12.7,3.7,13.3,5.6,27.1,6.3,40.8v-.1ZM873.17,184.09c28.2,3.5,56.3,12.9,78.5,31,23.1,18.6,38.2,46,43.8,74.9-.6-20.4-4.5-40.7-10.7-60.1-3.4-10-6.8-20.3-13.2-28.8-9.4-13-23.2-22-37.9-27.9-16.8-6.7-34.8-10-52.9-10.9-2.6-.3-5.1.6-7.5,1.5.3,6.8.1,13.6-.1,20.3h0ZM863.07,185.09c-.9-5.3-1.9-10.6-3.1-15.9-14.9,6.6-29.3,14.2-43,23,15-4.4,30.6-6.7,46.2-7.1h-.1ZM429.07,497.29c-11.4,14.5-18.9,31.7-23.6,49.4-5.5,20.9-7.5,42.7-6.7,64.3.1,1.6,0,3.5,1.2,4.8,8.2,10.6,19.2,18.7,31.1,24.6,16.6,8.3,35.1,12.3,53.6,12.9,2.1-.4,2.4,3.4.2,3.1-20.5-.4-41.1-5.6-59.2-15.3-14-7.6-27.1-18.3-34.2-32.8-2.8-5.4-3.5-11.5-6-17.1-4.3-9.9-11.8-18.2-20.4-24.6-11.3-8.3-24.5-14-38.4-15.9-14.1-2.4-29.5-3.2-42.5,3.6-14.9,7.8-23.9,24-26.7,40.2-3.6,21.8,0,44.3,6.9,65.2,9.5,28.3,26.6,55.2,51.8,72,27,17.1,57.3,28.4,88,36.7,41.1,11.1,83.4,17.2,125.7,21.9,34.9,3.7,69.9,6.4,104.9,8.3,40,1.9,80.1,1.6,120-2.4,27.5-2.9,55-7.4,81.4-15.5,29-8.6,55.3-26.9,72.2-52.1,15.3-23,22.5-51.6,18.7-79.1-2-13.9-6.9-27.9-16.4-38.5-4.9-5.7-11.4-9.6-18.1-12.8-9.5-4.6-20.1-7.2-30.7-6.8-13.2.4-26.3,5.6-36.1,14.5-4.6,4.1-7.6,9.7-11.8,14.2-13.8,15.7-28.9,30.1-44.1,44.5l-2.3-2.3c9.6-13.7,16.1-29.3,21-45.2,4.4-14.9,8.2-30.4,6.9-46.1-2.4-32.2-18.9-63.7-45.8-82-18-12.3-40.4-17.6-62.1-15.8-19.6,1.6-38.4,8.6-55.2,18.6-11.4,6.8-22.2,14.8-31.5,24.3-5.6-11.6-12.1-23-20.4-32.9-8.3-10.1-18.9-18.6-31.5-22.7-11.4-3.8-23.6-3.5-35.4-3.1-17.1.8-34.3,4.2-49.8,11.8-13.6,6.6-25.5,16.3-34.8,28.2l.1-.1ZM537.67,468.39c15.6,4.5,30.8,11.8,42.4,23.4,8.4,8.3,14.6,18.7,17.7,30.1,12.7-12,27-22.4,42.6-30.4,15.3-7.8,32.1-13.1,49.4-13.7,18.5-.6,37.4,4,52.8,14.4,14.6,9.8,25.4,24.4,32.8,40.1,6,12.9,10.1,26.6,12.3,40.6.8,1.7-1.4,3.2-2.6,1.9-1.1-3.3-1.4-6.7-2.2-10-3.9-17.7-10.5-35-21.2-49.7-8.3-11.4-19.3-20.8-32.2-26.6-17.3-7.7-37.1-9.4-55.6-5.6-19,3.9-36.7,12.7-52.5,23.7-9.1,6.4-17.8,13.6-25.4,21.7-2.5-13.9-9.7-26.8-20.2-36.3-13.8-12.6-31.7-19.6-49.8-23.3-27.9-5.6-57.7,2.2-80.4,19.2-1.9,1.8-3.9-1.7-1.6-2.7,26.2-20,62.1-26.9,93.7-16.9v.1ZM520.67,478.99c16,2.1,31.3,8.9,43.7,19.3,14.2,11.8,24.7,27.6,31.6,44.7.2,2.1,1.8,0,2.1-.7,14.1-23.5,37.4-42.2,64.5-47.9,19.8-4.1,40.8-1.6,59.2,6.4,15.2,6.7,28.2,17.8,37.6,31.5,11,15.9,17.5,34.6,20.3,53.6,1.3,9.3,1.9,19-.9,28.1-9.1,30.7-37.5,53.7-68.9,58.5-19,3.2-38.5.4-57-4.8-15.7-4.4-30.9-11.1-43.8-21.2-9.4-7.3-17.5-16.5-22.3-27.4-15.3,13.9-35.7,21.1-56,23.5-19.5,2.2-39.5.8-58.5-4.1-18.2-4.8-36.2-14.1-47.3-29.9-10.3-14.2-13.3-32.7-10.2-49.7,5-28.6,21.7-56.1,47.7-70.1,17.6-9.6,38.4-12.3,58.2-9.8h0ZM338.67,602.19c8.5,4.9,15,12.4,21.1,19.8,11,13.6,21.2,28,33.8,40.2,11.6,11.4,25.5,20.9,41,26.1,10.2,3.6,21.1,4.7,31.8,6.4,44.3,6.6,88.8,11.6,133.4,15.6,23.7,2.1,47.4,4,71.1,4.7,17.2.7,34.4-.7,51.4-3.5,15.9-2.6,31.6-6.6,47.6-8.8,6.6-1,13.4-.5,19.7-3.1,14.4-5.6,26.1-16.2,37.2-26.7,6.4-6,12.2-12.6,18.8-18.3,7.3-6.3,18-9.2,27.2-5.6,9.4,3.5,15.9,11.9,20.4,20.5,4,7.4,3.7,16.6.6,24.3-4.2,10.5-12.3,19-21.1,25.9-22.7,17.2-51,25.3-78.9,29-36.1,4.1-72.6,4.1-108.9,2.9-17.7-.9-35.4-1.8-53.1-3.6-21-1.4-41.9-3.4-62.8-5.3-41.5-2.9-83-7.4-124-14.4-23-4-45.9-8.8-68.2-16-14.6-4.8-29.2-10.5-41.8-19.6-14.9-10.6-27.5-25.3-33.6-42.7-3.8-11-5-23.4-.8-34.4,2.8-7.5,8.8-13.9,16.6-16.2,7.1-2.1,15.1-1.1,21.5,2.7v.1ZM57.07,592.09c.9,7,5.5,12.7,9.1,18.5,9.8,15.6,18.8,31.8,27.5,48.1-18.9-11.2-37.8-22.5-56.5-34.1-6.2-3.9-15.3-4.8-20.8.9-7.1,7.7-7.2,21.9,1.3,28.7,5.2,4.4,11.6,7.4,17.8,10.3,17.3,7.8,35.1,14.4,52.8,21.3-4.1.3-8.3-.2-12.4-.4-17-1-34-1.8-50.9-4.1-6.8-.8-14.4,1.2-18.9,6.8-3.4,4.1-3.8,10.2-1.2,14.8,3.6,6.7,10.3,11.5,17.6,13.7,6.4,2,13-.2,19.3-1.3,13.5-2.9,26.9-6.3,40.2-9.8.3,1,.7,2,1,3.1-15.4,6.1-30.6,12.3-46.2,17.9-7.5,2.8-13.7,9.5-15.2,17.5-1.2,6.2.4,13.6,6,17.2,6.5,4.4,15.2,2.8,21.6-1,14.9-8.4,29-18.1,43-27.9,31,5.7,62,12,93.1,17.3,4.8.9,9.5,2.4,14.1,4,3-11.1,5.3-22.3,7.2-33.6.4-3.6,1.5-8.5-2.1-10.9-6.5-4.4-15-3.4-21.8-7.1-1.3-.7-2.6-1.8-2.8-3.3-1.4-6.6-2.7-13.2-3.1-20-.4-7.3,0-15.5,4.9-21.3,5-5.3,11.7-9,15.4-15.4,4-6.9,1.6-15.6-2.5-21.8-7.9-10.2-25.2-8-32.4,1.9-6.8,9.5-13.6,19-20.5,28.5-1.4,2.4-4.5,2.2-6.8,2.5-4.8.5-10.4-.9-12.8-5.4-10.7-18.9-21.1-38-32.7-56.4-3.4-5.3-7.1-10.9-12.6-14.4-3.9-2.4-8.4-.2-11.6,2.2-4.1,3-8.8,7.2-8,12.8l-.1.2ZM549.97,817.79c10.9,9.4,25.6,13.3,39.8,12.8,4.7-.3,10.2-1.4,12.9-5.7,5.2-7.9,10.3-16,15.5-24-25.2-1.7-50.4-3.5-75.5-6.1,4.8,6.7,6.8,14.9,7.4,23h-.1ZM620.27,1127.09c.9,6.6,4.2,12.7,9,17.3,6.5,6.3,14.9,10,22.8,14.1,4.9,2.7,10.6,1.2,15.3-1-9.9-2.2-20.2-4.7-28.5-10.8-1.7-.8-1.4-3.5.7-3.2,11.1,7.8,24.8,10.7,38.1,12.1,5,.6,10.5-1.1,13.1-5.8-10.6,1.1-21.4.5-31.7-2.3-6.2-1.7-12.4-4.1-17.2-8.5,1.9-4,5,.3,7.4,1.4,11.2,5.6,24,7.2,36.4,6.6,6.4-.6,13.3-1.1,18.6-5.2,3-2.2,3.1-6.3,2.3-9.6-9.5,2.6-19.1,4.7-28.9,5.3-10,.6-20.4-1.6-28.6-7.4.1-3.9,4-1.2,5.9-.3,12.9,6.8,28,4.6,41.6,1.6,5.6-1.4,11.9-2.2,16.1-6.4,1.7-1.8,0-4.1-1.6-5.3-2.9-2.2-6.8-4.9-10.4-2.8-9.1,4.7-20.1,5.7-29.9,3.2-8.3-2.3-13.6-10.4-14.4-18.7-14.8-1.8-28.8-8.2-40.3-17.7,1,14.6,2.3,29.1,4.2,43.6v-.2ZM581.77,1025.99c1.6,6.3,8.6,11,15,9.2,7.3-1.7,11.5-10.3,9-17.2-1.9-6.4-9.2-10.7-15.6-8.4-6.6,2.1-10.4,9.9-8.4,16.4h0ZM602.87,1018.09c1.6,4.6-1.6,9.8-6.2,11-4.7,1.5-10.5-1.3-11.8-6.2-1.3-4.2,1.2-8.9,5.2-10.5,4.8-2.2,11.3.4,12.8,5.6v.1Z"/>
  <path class="cls-5" d="M484.57,483.79c14.8-3.3,30.4-3.3,45.1.2,17,4.1,32.2,14.2,43.5,27.5,9.7,11.3,17.3,24.5,21.8,38.7-4.6,21.5-7.1,43.4-9,65.2-13.6,12.9-31.9,20-50.1,23.2-20.3,3.3-41.2,2.1-61.2-2.8-17.6-4.4-35.1-13-46.1-27.8-9.8-12.8-13.2-29.7-11-45.5,2.8-19.1,10.7-37.6,23.3-52.3,11.2-13.2,26.8-22.6,43.7-26.4h0ZM499.27,526.69c-14.8,2.4-25.9,17.4-23.7,32.3,1.5,15,16.1,27,31.2,25.5,16-.8,29.1-16.7,26.7-32.6-1.5-16.1-18.3-28.5-34.2-25.1v-.1ZM668.37,496.69c16.7-2.4,34-.2,49.7,6,15.5,6.2,28.8,17.1,38.4,30.7,11.2,15.8,17.7,34.6,20.2,53.6,1.1,8.6,1.7,17.6-.9,26-5.3,17.8-17.5,33-32.9,43.2-15,10-33.2,14.7-51.2,14.5-15.1-.2-30-3.5-44.4-8-17-5.6-33.5-14.2-45.8-27.4-5.1-5.6-9.8-12-12.2-19.3,1.5-19.1,3.7-38.3,7.3-57.1,1.3-5.7,1.9-11.7,5.3-16.6,14.8-23.2,38.8-41.6,66.5-45.5v-.1ZM659.17,547.69c-15,2.7-25.9,18.5-23,33.4,2.2,15.4,18.3,26.9,33.6,23.9,15.6-2.2,27.1-18.7,23.8-34.1-2.5-15.5-19.1-26.8-34.4-23.2h0ZM517.47,552.09c2.1,1.8,4.9,4,7.8,2.4,4.5-1.8,3.9-9-.8-10.1-4-1.3-7.4,2.6-7.2,6.4l.2,1.3h0ZM682.97,573.69c4,.5,6.7-3.8,5.7-7.4,0-.4-.3-1.3-.3-1.7h-.4c-2.5-1.2-5.7-2.6-8-.4-3.7,2.8-1.6,9.4,3,9.5h0ZM338.97,625.69c3.1,7.3,10.1,11.8,17.1,15.1,4.5,2.1,10.2,3.5,14.5.2-9.9-12.2-18.6-25.9-31.7-35-2.1,6.3-2.7,13.5.1,19.7ZM396.47,684.19c5.6,2.4,13.2,3.5,17.5-1.9-14.9-9-27.2-21.5-38.2-34.8-2.6,6.4-3,13.9.2,20.2,4.1,8.1,12.4,13,20.4,16.5h.1ZM813.77,688.89c-9.9,7.9-21.2,15.1-34.2,16.4,3.6,2.9,7.6,5.7,12.1,7.1,8.5,2.9,18.8,1.2,25.1-5.4,6.5-6.7,9.4-16,10.1-25.1,1.5.9,2.9,2.2,4.8,2.1,5.3-.1,10.2-2.7,14.6-5.6,8.2-5.8,11.8-16.6,10.1-26.4-4.2,1.6-8,4.1-11.2,7.2-10.3,10-20.1,20.6-31.4,29.6v.1ZM350.07,698.39c1.4-4.3.6-9-1.8-12.8-3.7-5.8-9-10.5-15-13.8-5-2.9-11.4-3.5-16.6-.6,8.9,11.4,20.6,20.6,33.4,27.2h0ZM409.67,718.09c-1-7.7-5.2-15-11.9-19.1-7.1-4.4-15.8-6.5-24.1-5.5-5.8.7-10.8,4.5-13.3,9.7,15.9,6.5,32.5,11.1,49.2,14.9h.1ZM458.17,706.59c8.8,4.5,18.8,6.1,28.6,6.2,7.6,0,16.4-2,20.4-9.1-20.2-2.6-40.4-5.4-60.5-8.7,2.4,5.1,6.6,9.1,11.5,11.6ZM568.07,723.59c9.4,4.9,20.2,6.3,30.7,5.5,9.5-.8,19-5.2,24.2-13.5-23.2-1.8-46.4-4.1-69.5-6.5,3.2,6.2,8.4,11.3,14.6,14.5ZM696.57,732.59c9.3,1.8,19.1.5,27.8-3.3,7.7-3.4,13.9-9.9,16.5-17.9-21.2,4.3-42.7,7.5-64.3,7.1,4.2,7.4,11.7,12.6,20.1,14.2l-.1-.1ZM479.67,730.49c-6.2-11.4-19.4-17.2-31.9-17.8-8.2-.4-16.4,2.9-22.2,8.8,17.9,3.7,36,6.6,54.1,9ZM563.37,739.19c-6.8-7.2-15.6-13-25.6-14.8-12.4-2.3-25.5,1.3-35.3,9.1,20.2,2.4,40.5,4.4,60.8,5.7h.1ZM790.77,745.89c13.7-1.5,27.3-4.3,40.4-8.6-1.7-2.8-3.6-5.5-6.5-7.1-4.9-2.9-11-2.2-16.1-.2-7.7,2.9-13.6,9.1-17.8,16v-.1ZM687.87,748.39c-1.1-4.5-4.3-8.2-8.4-10-8.6-4-18.4-3.8-27.6-3.2-7.9.8-16.8,2.7-21.6,9.7,19.2,1.6,38.4,2.8,57.6,3.5ZM774.57,747.39c-1.3-3.2-3.2-6.2-6-8.2-5.9-4.5-13.8-4.8-20.9-3.7-9.2,1.4-17.8,6.4-23.4,13.8,16.8,0,33.6-.6,50.4-1.8l-.1-.1Z"/>
  <path class="cls-7" d="M497.07,530.59c13.9-4.6,30.1,5.1,32.8,19.4,3.4,13.9-7,29-21.1,31-13.5,2.6-27.6-7.4-29.8-20.8-2.7-12.6,5.7-26.1,18.1-29.6h0ZM491.07,556.09c.3,7.7,8.2,13.8,15.7,12.2,7.4-1.1,12.4-9.1,10.7-16.3,2.1,1.8,4.9,4,7.8,2.4,4.5-1.8,3.9-9-.8-10.1-4-1.3-7.4,2.6-7.2,6.4-2.3-4.8-6.9-9-12.6-8.9-7.6-.5-14.5,6.7-13.7,14.2l.1.1ZM643.47,561.69c4.5-6.7,12.2-11.1,20.2-11.4,9.9-.6,19.9,5.1,24.2,14.1-2.5-1.1-5.7-2.5-8-.2-3.7,2.8-1.6,9.4,3,9.5,4,.5,6.7-3.8,5.7-7.4,5.4,10.8.7,24.9-9.2,31.4-6.5,4.4-15.1,5.6-22.5,3.1-7.9-2.5-14.3-9.1-16.7-17-2.3-7.4-1.1-15.7,3.3-22.1h0ZM660.97,563.19c-6.2,1.7-10.5,8.4-9.4,14.8.8,7.1,8.2,12.5,15.2,11.2,7.5-.9,12.9-9,11-16.2-1.5-7.2-9.7-12-16.7-9.7l-.1-.1Z"/>
  <path class="cls-6" d="M209.27,709.39c9.8,2,19.4,5.3,28.1,10.1,7.9,4.4,16,8.4,24.1,12.4-2.1,17.7-5.1,35.4-10.1,52.5-2.7,9-6.1,18-11.9,25.4-13.3-1.6-26.6-3.5-39.8-5.8-4.7-.9-9.5-1.5-13.7-3.8,11.4-26.2,20-53.8,24-82.2.4-2.9,0-5.8-.7-8.6h0ZM185.97,791.89c4.8-11.4,8.9-23.1,12.4-35-2-.7-4-1.4-6-2.1-2.8,12.2-5.3,24.5-6.4,37v.1ZM304.67,817.89c19,2.6,38.2,4.4,57,8.6,1.9-3.5,3.3-7.3,4.2-11.2,2.6-10.6,4-21.4,5.2-32.2-17.2-7.6-34.2-15.4-51.2-23.3-3,19.8-5.9,40.2-15.1,58.2l-.1-.1ZM412.37,831.09c-1,3.9-1.3,8.1-.1,12.1,14.6,5.6,29.1,11.5,43.4,17.8-1.5-14.3,4.4-28,10-40.9-14.1-5.1-28.4-9.6-42.4-15-4.5,8.2-8.7,16.8-10.9,26h0ZM543.37,846.59c12.6,3,25.5,5.2,38.5,5.7,6.5,0,13.4,0,19.3-3,3.7-3.2,7.7-7.1,8-12.3.2-3.6-2.5-6.3-4.9-8.5-3.7,3.3-8.5,5-13.3,5.2-15.3.8-31.2-3.3-43-13.4-4.2,2.4-8.7,5.7-9.8,10.7-1.1,5.8,2.6,10.7,5.2,15.5v.1ZM506.37,871.09c.9,5.4,2.4,11,6.1,15.2,3.6,2.5,7.9,3.9,11.7,6,1.5,5.4,3.2,11.1,6.2,15.8,15.4,4.5,31.3,7.6,47.2,9.5,14.2,1.4,28.9,2.2,42.6-2.2.6-3.5.9-7,1.7-10.4,5.7-10.8,10.6-23.3,8.1-35.7-8.8-5.4-18.4-9.5-28-13.4-.2,3.4,0,6.9,1,10.3-4.2,6.4-12.1,9.1-19.4,9.4-13.7,1-27-5-37.1-13.8.2-2.1.7-4.4-.7-6.2-2-2.8-3.8-5.7-6.1-8.1-10.7-4.4-21.7-8.3-32.6-12.4-1.8,11.8-2.8,24-1,35.9l.3.1ZM635.47,913.49c3.9,3.5,7.3,7.7,9.8,12.3,11.2-4.7,20.9-13.6,25.2-25-5.2-6.5-11.5-12.2-18-17.4-1,11.8-6.9,23.4-16.9,30.1h-.1ZM646.57,982.39c8.1,4.6,16.7,8.4,25.5,11.4,7.2,2.3,14.9,4.5,22.4,2.7,2.9-8.5,5.2-17.5,4.4-26.6-.6-8.1-3.7-15.7-6.8-23.1-13,6.8-28.1,7.8-42.5,6.7,0,9.7-.8,19.4-3,28.9h0ZM553.47,997.09c8.5,2.2,17.1,4,25.9,5.1,9.9,1,20.5,1.9,29.8-2.3.4-7.1,1.2-14.1,2.1-21.1-7.1,2.9-14.9,3.3-22.5,3.1-12.9-.5-25.6-2.7-38.1-5.6,1.1,6.9,2.1,13.8,2.9,20.7l-.1.1ZM615.77,1078.79c15.6,14.7,38.1,22.2,59.4,19.3-2.4-5.7-2.7-12-2.1-18.1,1-10.2,3.3-20.2,5.6-30.1-10.7-.3-21.4-1.9-31.7-5.1-9.8-3.1-19.4-8-26.2-16-2.3,2.8-4.8,5.5-7.3,8.2.6,14,1.3,28,2.2,41.9l.1-.1Z"/>
  <path class="cls-8" d="M259.07,767.59c2.4-11.3,4.2-22.7,5.5-34.1,17.3,8.4,34.7,16.7,52.1,24.8-1.6,12.3-3.8,24.6-6.9,36.7-2.1,7.8-4.5,15.6-8.7,22.6-19.3-2.5-38.7-4.7-57.9-7.2,8.8-12.6,12.5-28,15.9-42.8ZM408.37,841.79c-1-13.6,5.8-26.2,11.9-37.9-15.5-6.2-30.9-12.8-46.1-19.5-1.8,14.5-3,29.6-9.3,43,14.8,3.9,29.3,8.9,43.6,14.4h-.1ZM461.77,838.99c-2.1,7.1-4.3,14.6-2.7,22,0,1.6,1.7,2.1,2.9,2.7,15.1,6.5,30,13.3,44.9,20.4-6.9-15.7-5-33.5-2.7-50-11.8-4.3-23.6-8.7-35.5-12.9-2.6,5.8-5,11.7-7,17.8h.1ZM550.37,860.79c8.9,7,19.9,12.2,31.4,11.8,6.5,0,13.3-1.8,18-6.6-.9-4.1-1.1-8.3-.3-12.4-17.5,4.4-35.7.5-53-2.9,2.4,2.9,4.2,6.3,3.9,10.1h0ZM625.57,905.89c2.5,1.7,5,3.5,7.4,5.4,10.2-6.4,16.1-18.3,16.3-30.2-5-3.4-10-6.7-15.2-9.8,1.2,12.1-3.2,23.9-8.4,34.7l-.1-.1ZM649.47,950.29c13.9,1,28.6.2,41.2-6.4-2-4.6-4.1-9.3-6-13.9-3.8-8.7-6.1-18.2-11.9-25.9-5.4,11.2-14.9,20.3-26.5,24.9,2,7,2.8,14.2,3.2,21.4v-.1ZM550.07,972.89c8.9,2.1,18,3.8,27.2,4.9,11.5,1.3,23.5,2,34.5-2.4,2.5-18.8,5.2-37.6,8.1-56.3-11,3.2-22.6,3.4-34,2.6-18.3-1.3-36.3-5-54-9.7,9.8,19,14.5,40,18.3,60.9h-.1ZM622.97,1026.19c5,6.1,11.9,10.4,19.2,13.3,11.9,4.7,24.6,6.6,37.3,7.2,3.7-15.7,8.4-31.2,13.6-46.5-6.5.7-13-.5-19.2-2.3-9.8-2.9-19.1-7.2-28.1-12-4.2,15.1-13.3,28.2-22.9,40.3h.1Z"/>
  <path class="cls-3" d="M553.37,1000.79c4.5.3,8.8,1.8,13.3,2.6,7.4,1.5,14.8,2.4,22.3,2.8-2.6,1.7-5.1,3.5-7.6,5.4-8.8-1.7-17.3-4.5-25.6-7.8-1.4-.4-2.1-1.7-2.4-3ZM604.57,1009.69c1.6-.7,3.3-1.3,4.9-2-.1-1.4-.3-2.8-.4-4.2-3.8,1-7.5,1.9-11.3,2.7,2.3,1.1,4.5,2.3,6.7,3.5h.1ZM555.17,1021.79c7.1,3.8,15.3,5.1,23.3,4.4-.5-4,0-8,1.2-11.8-8.6-1.8-16.8-4.9-25.1-7.6.1,5,.5,10,.7,15h-.1ZM589.37,1024.39c3,3.4,9.5,2,10.6-2.5,1.4-4.8-4.6-8.8-8.8-6.5-3.5,1.4-4.6,6.4-1.8,9ZM594.67,1358.89c-3.6,2.8-8.5,3.5-12,6.3-1.4,8.5-1.3,17.3-2,25.9-.6,12.1-1,24.2-.3,36.2.3,3.8.8,7.8,2.8,11.1,5.4,9.2,8.6,19.8,7.9,30.5-.5,6.8-.2,13.5-.9,20.3,27.9,3.1,55.8,5.6,83.6,9.8,21.5,3.6,43.2,6.7,65.1,7.1,7.6,0,15.4,0,22.7-2.5,3.1-1.1,4.2-4.6,4.3-7.6.4-6.7,1.2-13.8-2-20-3.3-6.8-10.3-11.9-18-12.3-22.4.8-44.2-5-66.1-8.5,1.7,3.8,3.6,7.7,3.4,12-.7,0-2.1-.2-2.7-.2-.4-4.2-2.2-8.1-4.5-11.6-4.2,2.7-7.7,6.4-10.5,10.6-.7-.6-1.4-1.2-2-1.9,1.7-4.3,5.6-7,8.8-10.1-4.7-1.3-9.5-2-14.2-2.7,1.7,3.7,3.8,7.5,3.2,11.8-.6,0-1.9-.1-2.6-.2-.5-4.3-2.1-8.3-4.8-11.8-2.9,2.3-5.8,4.7-8.1,7.7-1.1,1-2,3.2-3.9,2.3-.2-5,5.1-7.7,8.1-11-5-1.1-10-2.4-14.9-4.1,1.7,4.5,4.2,8.9,3.8,13.8-.6,0-1.8-.3-2.4-.4-1.2-4.7-2.9-9.2-5-13.5-1.9,1.2-4,2.5-5.4,4.4-1.6,1.8-2.7,4.4-5.4,4.9-.3-5.6,5.1-8.5,8.5-12-2.7-2-5.4-4-7.9-6.2-3.9,2.7-6.5,6.8-8.9,10.8-.8-.3-1.6-.6-2.4-.9,1.6-4.6,5.1-8.1,8.1-11.8-3.8-.6-7.7-.3-11.5.4-1.3.2-1.8-1.1-1.4-2.1,3.5-2.2,7.9-1.6,11.8-1.6-1.2-2.7-2.6-5.3-4.2-7.8-3.8,1.3-7,4.1-11.1,4.3.6-3.8,4.9-4.6,7.5-6.5-2.1-1-4.2-1.8-6.2-2.8-1.6-.1-1.2-3,.3-2.6,3.4.1,6.3,2.3,9.3,3.7-.3-2.9-.5-5.9-1.1-8.8-2.2-1.5-4.4,1-6.4,1.7-1.6.8-4.9,3.1-5.2,0,2-2.1,4.8-3.1,7.3-4.5-2.3-1.3-4.7-2.3-7.1-3.6v-1.8c4.2-.8,7.6,2.4,11.1,4,0-3.4-.1-6.8-.4-10.2-3.7,1.4-7,3.8-11,4.4.4-3.9,4.8-4.6,7.4-6.7-2.3-1-4.7-2-7-2.9v-2.6c3.8.4,7.2,2.3,10.6,4.1,0-3.2,0-6.4-.5-9.5-3.3,1.1-6.2,3.4-9.7,4.1-.2-.4-.5-1.2-.7-1.6,1.7-2.4,4.9-3.3,7.3-4.9-2.4-1.1-4.8-2.1-7.1-3.3v-1.8c3.7-.9,6.9,1.9,10.2,3.2.1-3.1.1-6.2-.1-9.3-3.5,1.4-6.6,3.8-10.5,4.3.1-4,4.7-4.6,7.4-6.5-2.2-1.2-4.6-2.3-7-3.1v-2.6c3.6.4,6.9,2.1,10.2,3.6.1-6.2.4-12.5.2-18.7-2.1-1.4-4.9-1.1-7.4-1.5-1.4,5.1-3.5,10.6-8.2,13.5l-.2-.2ZM546.67,1377.79c5.2,2.3,9.7-2.2,14.9-1.9,0,.6,0,1.9.1,2.5-1.8.5-3.6,1.1-5.3,1.8,2.3,1.5,6,2.5,5.5,6-3.6-.9-6.6-3.5-10.2-3.9-1.8.6-3.3,1.8-4.9,2.9v5.9c5.2,2.7,9.9-2.4,15.2-1.4.3,3.3-3.4,2.9-5.5,3.7,2.1,1.8,6.3,3,4.9,6.5-3.2-1.4-6.1-3.6-9.6-4-1.7.6-3.5,1.5-4.5,3.1-.3,2.3,0,4.6.3,6.9,5.2,2.2,9.8-1.9,15.1-1.9v2.7c-1.8.4-3.6.9-5.4,1.3,1.9,1.8,6.4,2.7,5.3,6-4.4-.4-8.7-6-12.9-2.1-3.2,1.3-1.9,5-1.7,7.6,5.1,2.1,9.6-3,14.7-1.6,1.3,3.2-3.4,2.5-5.2,3.6,2.1,1.7,6.1,3,5.1,6.5-3.3-1.3-6.3-3.6-9.8-4-1.8.5-3.2,1.8-4.8,2.8,0,2.9.2,5.9.3,8.9,5-.5,9.5-3.4,14.7-3.1.5,3.7-4.3,3.2-6.7,4.3,2.4,1.9,6.9,2.5,6.7,6.4-4.3-.8-7.8-3.9-12.2-4.1-6,1.4-8.6,7.4-10.2,12.7,7.1-.6,13.9-4.5,21.1-3.2,1.6.7,1.7,1.5.4,2.6-5.2.6-10.6.5-15.3,3,4,2.4,8,4.9,11.4,8.2,1.2.9,1.4,2.4,1.8,3.8-1.4-.3-2.9-.5-4-1.6-4.1-3.4-8.3-6.9-13.3-8.9-5-.2-7.3,4.6-9.1,8.4,6.8,1.6,14-.9,20.9,1,0,.7-.1,2-.2,2.6-4.6-.2-9.2-.5-13.8,0,1.5,1.6,3.4,2.9,4.2,5.1-.4.2-1.1.6-1.4.8-3.8-.9-6.2-6.5-10.7-5-3.8.6-5.1,4.7-7.2,7.4,6.3-.2,12.6-1.4,19-1,0,.6-.1,1.9-.1,2.5-4.3.5-8.6.8-12.9,1.3,2.9,3.1,6.6,6.1,7.7,10.4.3.9.1,1.8-.6,2.5-1.8.3-2.1-1.7-2.9-2.9-1.9-4.2-5.7-7.5-9.9-9.3-4,0-7.2,2.6-11,3.5-10.1,2.4-19.5,7.1-28.4,12.5-6.6,4.1-13.2,8.8-17.8,15.2-2.8,4.7-5.3,10.1-5.4,15.7,0,5.5,4.7,9.4,9.2,11.6,10.5,5,22.3,7.4,33.9,6.2,15.3-1.6,30.6-7.1,42.4-17.3,5.2-4.2,6.8-11.1,11.1-16,6.1-7.9,14.8-12.9,23.2-17.8,4.5-2.3,4.5-7.9,4.6-12.3-.2-7.6,1.2-15.3-.2-22.9-1-5.6-2.9-11.1-5.7-16.1-2.3-3.6-3.8-7.7-4.1-12-1.9-21.3.5-42.7,1.4-64-10.6,3.1-21.7,4-32.6,3,0,3,0,5.9.3,8.9h.1ZM635.67,356.89c-3.6,8.9-3.5,18.9-1.3,28.2,3.7,20,14.5,39.2,31.2,51.2,11.2,8.3,24.9,12,38,16.1,15.6,4.2,31.8,8.2,48.1,6.8,2.7-.5,7-.7,7.5-4.1-.8-4.5-4.7-7.6-7.8-10.7-15-13.3-31.9-24.1-47.9-36.1-10.8-8.3-22-16.8-30-28.1-4.6-7.8-7.7-16.5-13.6-23.4-3.9-5.1-10.3-8.7-16.9-7.5-3.9.5-6,4.3-7.4,7.6h.1ZM549.47,375.69c-10.3,7.3-21.9,12.7-33.6,17.5-20.8,8.5-42.3,15.1-64,21-3.5.9-6.7,2.6-9.3,5,3.3,3.3,8.1,4.4,12.5,5.5,19.2,4.4,39.1,5.2,58.7,4.6,10.9-.3,21.6-2.8,31.9-6.4,12.2-4.2,24.1-10.5,32.8-20.2,7.8-8.6,11.9-20.2,11.7-31.8,0-6.6-.3-14.2-5.2-19.2-5-3.2-11,.2-15,3.4-8,5.6-12.3,15-20.5,20.5v.1ZM609.47,1019.09c.3-2.7.4-5.4.2-8.1-1.1.3-2.1.6-3.1.9.9,2.4,1.8,4.8,2.9,7.1v.1Z"/>
  <path class="cls-4" d="M555.27,1025.49c7.6,3.4,15.9,4.3,24.2,4,1.8,2.7,3.8,5.5,6.7,7.1,5.8,3.6,14.1,2.5,18.7-2.6,1.5-1.7,3-3.4,5-4.4,1.6,27.2,2.5,54.4,5.3,81.5,4.2,36.5,9,73.1,17.7,108.9,3.1,11.8,6.1,23.9,12.7,34.3,9.9,13.3,21.4,25.3,30.8,39.1,3.1,4.8,6.2,9.8,6.9,15.6.4,6.2-1.4,12.9-5.9,17.4-4.1,4.2-9.8,6.4-15.5,7.6-13.7,2.8-27.2,6.8-41.1,8.6-5.8.7-11.8,1.1-17.5-.5.9-14.7-4.6-28.6-5.9-43.1-2.2-21.9-2.4-43.9-3-65.9-1-54.4-.4-108.7-.2-163.1,0-8.1.5-16.1,0-24.2h-3c-.3,58.5-.8,116.9-.1,175.3.6,24.3.8,48.6,2.7,72.8.7,10,2.8,19.9,4.8,29.7,1.5,8.7,3,18.1-.4,26.5-2.7,6.5-9.9,8.9-15.9,11.4-18.3,7.2-38.9,5.7-57.2-.9-13.4-4.8-26.9-10.6-37.3-20.4-5.2-5-9.3-11.7-9-19.2.3-8.1,5.2-15,10.1-21.1,5.5-6.8,12.7-12,19.1-18,5.2-4.8,9.4-10.5,12.1-17,3.6-8.3,4.9-17.4,6.4-26.3,8.1-49.1,16.2-98.2,23.1-147.5,2.7-21.8,6.3-43.6,6-65.6h-.3Z"/>
</svg>