<?xml version="1.0" encoding="UTF-8"?>
<svg id="_Слой_1" data-name="Слой 1" xmlns="http://www.w3.org/2000/svg" xmlns:xlink="http://www.w3.org/1999/xlink" viewBox="0 0 472.13 863.97">
  <defs>
    <style>
      .cls-1 {
        fill: url(#linear-gradient);
      }

      .cls-1, .cls-2, .cls-3, .cls-4, .cls-5, .cls-6, .cls-7, .cls-8, .cls-9, .cls-10 {
        stroke-width: 0px;
      }

      .cls-2 {
        fill: #000;
      }

      .cls-3 {
        fill: url(#linear-gradient-5);
      }

      .cls-4 {
        fill: none;
      }

      .cls-5 {
        fill: #4d0000;
      }

      .cls-6 {
        fill: url(#linear-gradient-2);
      }

      .cls-7 {
        fill: url(#linear-gradient-3);
      }

      .cls-8 {
        fill: #f18ac7;
      }

      .cls-9 {
        fill: #fff;
      }

      .cls-10 {
        fill: url(#linear-gradient-4);
      }
    </style>
    <linearGradient id="linear-gradient" x1="198.36" y1="727.44" x2="357.84" y2="727.44" gradientUnits="userSpaceOnUse">
      <stop offset="0" stop-color="#007957"/>
      <stop offset="1" stop-color="#006648"/>
    </linearGradient>
    <linearGradient id="linear-gradient-2" x1="196.96" y1="367.18" x2="372.28" y2="367.18" gradientUnits="userSpaceOnUse">
      <stop offset="0" stop-color="#a52980"/>
      <stop offset="1" stop-color="#78135d"/>
    </linearGradient>
    <linearGradient id="linear-gradient-3" x1="78.26" y1="204.12" x2="468.86" y2="204.12" gradientUnits="userSpaceOnUse">
      <stop offset="0" stop-color="#009d00"/>
      <stop offset="1" stop-color="#07883e"/>
    </linearGradient>
    <linearGradient id="linear-gradient-4" x1="71.64" y1="515.5" x2="360.97" y2="515.5" gradientUnits="userSpaceOnUse">
      <stop offset="0" stop-color="#00b57a"/>
      <stop offset="1" stop-color="#009071"/>
    </linearGradient>
    <linearGradient id="linear-gradient-5" x1="84.96" y1="478.29" x2="393.87" y2="478.29" gradientUnits="userSpaceOnUse">
      <stop offset="0" stop-color="#6ed364"/>
      <stop offset="1" stop-color="#4a8c5b"/>
    </linearGradient>
  </defs>
  <path class="cls-4" d="M184.22,257.6l-3.31-3.23c-1.2-1.27-2.58-2.36-4.1-3.23-.47,0-.78,1.42-.78,3.23v3.23h8.19Z"/>
  <path class="cls-4" d="M64.05,116.67c-.79,0-1,.15-.48.39.45.23,1,.2,1.42-.08.21-.23-.19-.39-.94-.31Z"/>
  <path class="cls-1" d="M340.61,675.77c-.55,0-11,3.39-23.25,7.49-25.23,8.59-25.54,8.59-38.15,10.16-5.13.56-10.17,1.27-11.27,1.5-2.45.47-3-.79,8.11,17.19,4.58,7.48,12.22,20.17,16.87,28.06,7.81,13.24,21.28,34.84,23.73,38.07,1,1.34,1.18,1.26,5-1.26,7.1-4.81,28.3-13.4,32.79-13.4,3,0,3.79-1.42,3.24-6.31-1-8.43-4-28.93-5.76-39-1.65-9.3-8.12-36.57-9.77-40.83-.36-.96-1.1-1.67-1.54-1.67ZM259.66,732.13l3.39-1.66v-8.91c0-4.88-.16-12.77-.47-17.57l-.48-8.75-4.33-.32c-17.19-1.5-23-2.28-39.18-5.59-10-1.9-18.6-3.71-19.23-4-.55-.16-1-.16-1,.07s2.53,6.23,5.76,13.33c6.93,15.76,9,20.88,12.85,32.63,2.91,8.91,3.07,9.22,5.36,9.54,6.11,1.16,27.55-3.9,37.33-8.77Z"/>
  <path class="cls-6" d="M280.05,323.34l-2.92,1,2.92,1.5c6.77,3.54,18,15.21,25.14,26.09,4.81,7.25,6.46,10.95,9.3,20.89,2.13,7.09,2.6,7.64,11.59,13.32,8.65,5.4,17.88,9.82,27.51,13.16,7.09,2.37,18,4.81,18.68,4.18.24-.24-3.47-4.41-8.28-9.38-8.9-9.22-10.8-11.9-18.36-26.64-2.32-4.43-4.9-8.72-7.73-12.85-7.17-9.54-21.36-20.73-35.07-27.67-7.65-3.78-8.52-4.1-14-4.26-2.94-.17-5.9.05-8.78.66ZM294.34,342.66c-4.1-4.5-14.9-13.64-17.26-14.51-5.28-2-11.43.32-12.22,4.57-.87,4.5-.31,5.68,3.71,7.26,8.35,3.46,15.05,9.3,18.68,16.31,2.2,4.5,3.78,12.61,3.86,19.79,0,8.75.08,8.9,9,16.94,3.96,3.73,8.17,7.18,12.61,10.33,6.07,3.94,16.55,9.22,16.55,8.28-1.36-2.71-2.91-5.32-4.65-7.81-6.7-10.24-8.51-14.42-14.43-34.28-2.76-9.54-8.14-18.54-15.85-26.88ZM260.92,337.53v-2c.19-1.74.67-3.43,1.42-5l1.34-3h-1.63c-.65-.03-1.29.08-1.89.32-1.1,1-30.58,3.86-48.63,4.57-7.65.39-14,.79-14.35,1s-.24,2.45.08,4.81l.47,4.42h2.76c1.58,0,7.41-1.19,13-2.53l10.32-2.52h37.13l-.02-.07Z"/>
  <path class="cls-5" d="M181.54,263c4.89.95,7.33.4,4.73-1-2.07-.65-4.21-1.07-6.38-1.26-6.54-.61-5.44.88,1.65,2.26ZM138.19,264.62c.12,1.16.46,2.28,1,3.31.71.71,7.26-.87,7.26-1.73,0-.4-.32-.63-.79-.63-1.54-.43-3.03-1.04-4.42-1.82l-3.54-1.81.49,2.68Z"/>
  <path class="cls-8" d="M370.33,849.81c-2.5-1.36-4.8-3.04-6.86-5-2.36-2.21-6.38-5.6-8.91-7.65s-5-3.78-5.59-3.78c-1,0-2.21,9.22-1.27,10,.4.39,2.92,1.18,5.6,1.81,5.6,1.42,7.41,2.29,17.26,8.28s14.82,7.56,23.34,7.64c6.46,0,6.78-.08,8.51-2.05,2.29-2.68,2.13-3.78-.79-6.7l-2.52-2.52-7.73.47c-12.06.84-18.32.69-21.04-.5ZM348.73,847.76c0,.79,3.86,2,7.88,2.52l3.23.4-2.83-1.1c-3.96-1.58-8.28-2.53-8.28-1.82ZM256.27,819.7l-2.21.55h2.52c1.46-.01,2.92-.19,4.34-.55q1.73-.55-.39-.55c-1.44.03-2.86.22-4.26.55ZM262.73,806.93c-2.68-.08-1.89-.23-19.47,4.65l-14.34,4-15.45-.47c-15.22-.32-15.45-.32-18.84,1.42-1.89.94-3.71,2-3.86,2.44-.71,1.1.86,2.76,4.25,4.49,2.53,1.42,3.94,1.58,11.91,1.58,5.19,0,10.36-.53,15.44-1.58,3.63-.78,14-2.91,23.1-4.8,11.11-2.29,16.95-3.79,17.81-4.58.8-1.22,1.29-2.63,1.42-4.09.16-2.74,0-2.9-1.97-3.06ZM173.82,265.8c-5-.08-9.62-.08-10.41.16s-5.59,1.42-10.79,2.6c-10.25,2.37-14.75,3.94-14.75,5.05.13.75.39,1.47.79,2.12.71,1.34,1.19,1.5,4.42,1,2.05-.32,6.93-1.26,10.87-2.29,5.52-1.34,10.57-2,20.42-2.44,7.33-.39,13.4-.79,13.64-1,.79-.78-.48-2.6-2.84-3.7-1.73-.95-4.57-1.3-11.35-1.5ZM173.66,240c-5.91-3-9.69-2.45-21.75,2.68-3.17,1.29-6.41,2.43-9.7,3.39-3.47,1-6,2.2-7.41,3.62-1.81,1.89-2,2.52-2,6.86,0,4.89,1.1,10.8,2.21,11.51.31.16.47-2.37.39-5.68-.16-7.72.55-8.51,8-10.17,4.02-1,7.93-2.39,11.67-4.17,5.44-2.6,6.7-3,11.51-3,7-.08,10.95,1.74,16.63,7.57,2.28,2.44,4.25,4.1,4.25,3.86,0-1.34-4.25-8-7.17-11.27-1.93-2.06-4.17-3.81-6.63-5.2Z"/>
  <path class="cls-7" d="M454.2,353.38c.63,0,1-.63,1-1.42,0-2.13-5-11.43-6.3-11.83-3.39-.94-7.26-1.26-7.73-.55s2.13,4.81,5.28,8.51c1.76,1.98,6.6,5.29,7.75,5.29ZM466.41,352.59c-1.46.36-2.84.97-4.09,1.81-8.83,5.05-17.58-.55-25.46-16.08-6.47-13-6.39-12.93-6.39-43.67s1.81-55.41,7.49-101.44c2.05-16.79,2.84-29.8,3.31-52.5l.39-20.18-6.14-15.45c-6.31-15.53-8.91-20.49-14-26.09-3.15-3.55-13.08-12.06-14-12.06-.31,0,.71,1.81,2.29,4.25,2.83,4.18,3.47,5.84,2.2,5.84-1,0-3.15-2.21-7.56-7.65-7.25-9.22-17.5-16.63-38.23-27.9s-39.41-19.08-54.63-23c-1.18-.31-2.36-.63-3.47-.87-18.07-4.51-32.78-6.6-57.76-8.6-13.17-1-20.65-2.2-26.17-4-3.94-1.34-42.25-1.57-48.32-.31-6.94,1.42-24.12,5.83-28.3,7.17-4.49,1.5-12.14,5.44-11.67,5.83.16.24,4.66,0,9.94-.47,10.16-.87,32.55-.47,47,.87,11.2,1,44.54,9.3,62.43,15.45,14.9,5.32,29.06,12.5,42.17,21.36,5.52,3.86,15.22,12.45,15.22,13.56,0,1.49-2.21.31-8.28-4.58-13.94-10.82-29.37-19.57-45.8-26-12.61-4.65-40-12.14-56.67-15.45-14.66-3-41.15-3.62-62.35-1.49-6.07.63-8,1.1-12.93,3.54-9.49,4.69-16.58,10.29-22.1,17.62-5.52,7.17-8.83,12.45-8.2,13,.24.24,1.9-.55,3.63-1.89,5.28-3.54,22.23-11.51,24.59-11.51l2.13.08-1.81,1.42c-3.55,2.34-7.27,4.42-11.12,6.23-14.1,7.09-19.94,11.59-26,20.1-3.86,5.44-8.43,14.82-8,16.79.24,1.34,1.26.63,8.52-5.28,9.45-8,12.69-9.7,23.41-12.69,14.74-4,23.49-5.2,42.72-5.6,16.26-.45,32.52.45,48.63,2.68,31.77,4.1,51.63,5.75,77.25,6.46,12.77.32,19.87.79,20.42,1.34,1.5,1.5-3.08,1.82-23.1,1.34-22.43-.35-44.8-2.14-67-5.36l-19.78-2.68h-59.77l-8.59,2.13c-10.88,2.52-18.61,5.21-23.57,8.28-5.92,3.55-19.55,15.29-20.1,17.34-.71,2.6-.71,9.7,0,11.67.6,1.06,1.27,2.09,2,3.07,1,1.42,2.36,3.31,3.78,5,2.26,2.78,4.34,5.7,6.23,8.75.63,1.34,1.5,2.36,2,2.36s4.18-3.07,8.2-6.78c8.27-7.65,9-8.12,17.5-10.8,6-2,6.46-2,22.7-2,22.86.16,32.39,1.26,67.55,8.36,30.9,6.22,50.05,9.38,62.35,10.17l6.78.47,1.65-2.13c1.5-2.13,1.74-2.21,3.94-1.5,3.24,1.11,4.89,2.68,4.89,4.65-.07.79.22,1.57.79,2.13.39.24,9.38.71,19.94,1l19.24.47,12.92-5.12c15-6.07,29.25-10.72,39-13,8.51-2,13.64-2.21,12.93-.16-.16.55-1.66,1.18-3.47,1.5-6.62,1.26-11.43,2.21-15.84,3.31-8,2-14.59,4.33-27.75,9.46-8,3.07-15.29,5.83-16.32,6.15-3.31.79-2.12,5.28,1.5,5.28,2.44,0,6.54,4,7.1,7,.47,2.21.15,2.84-2.13,5.21l-2.68,2.68,1.26,9.69c.63,5.28,1.42,9.93,1.73,10.17,1.18,1.42,28.06-3.63,44.7-8.43,3.94-1.11,7.48-2.13,9.77-2.68,1.34-.32,2.21-.56,2.36-.56,2.05,0-.07,7.1-3.07,10.09-3.39,3.31-19.63,7.33-42.41,10.49l-9.22,1.26v8.83c0,7.64.16,8.9,1.26,9.46.71.39,4.26.94,8,1.26,2.56.12,5.12.38,7.65.78.79.32.23,1.9-2,6.23l-3.16,6.15c-2.06-.31-4.09-.78-6.07-1.42-3.38-.87-6.14-1.26-6.46-.94-1.18,1.26-2.36,26.95-1.89,40.59.87,24.67,2.68,39.81,5.12,42.49.59.66.97,1.48,1.11,2.36,0,2.13,11.74,32.79,15,39.18,5.13,10.09,21.21,31.21,33.19,43.59,9.77,10.09,17.26,16.31,25.46,21,5.6,3.16,6.15,3.31,11.51,3.31,5,0,6.07-.31,10.8-2.6,13.47-6.85,21.36-14.11,26.8-25.3,3-5.83,3.46-7.49,3.78-12.37.29-5.85-.82-11.52-2.4-11.52ZM314.68,82.38c-3,2.21-18.53,4.73-36.89,6.15-18.92,1.34-26.57.86-61.48-3.55-23.42-3-33.58-3.71-53.68-3.71s-24.28.71-36.89,4.81c-11.59,3.71-21.37,9.62-31.3,18.76-2.76,2.53-5.2,4.42-5.52,4.18-3.15-2,12.14-15,25.54-21.83,7.26-3.55,20.66-7.33,31.3-8.67,2.6-.4,10.88-.71,18.36-.71,11.59-.08,17.58.31,39.26,2.75,14.11,1.58,27.9,3.24,30.58,3.71s13.4,1,23.73,1.1c20.81.48,29.95-.08,46.58-3.15,2.99-.6,6.02-1.01,9.07-1.22,2.6-.28,2.91.2,1.34,1.38ZM378.37,100c-.08,0-.24-.08-.32-.08-.47-.24-3.46-4.5-6.46-9.54-2.76-4.7-5.82-9.23-9.14-13.56-8.6-10.92-21.52-21.32-46.27-37.82-7.49-4.88-13.56-9.14-13.56-9.45.06-.37.22-.72.47-1,.24-.24,1-.08,2.29.55,2.83,1.34,8.19,4.65,16.39,10.17,30.51,20.5,42.88,32.4,54,51.87,2.83,5.11,3.94,8.86,2.6,8.86ZM390.19,156h-.08c-.39,0-1.49-2.76-2.28-6-3.16-11.75-7.65-21.44-12.3-26.41-1.26-1.26-1.66-2.36-1.34-3.23.16-.31.32-.55.55-.55.63,0,1.66,1,3.94,3.47,4.65,5,6.55,8.43,9.62,18.13,2.29,6.94,3.23,14.59,1.89,14.59ZM419.59,204.24c3.94-28.77,5.52-43.2,5.92-55.18.23-6.7.7-12.37,1-12.37,2.36,0,2.68,10.48,1,28.14-1.1,11-1.57,14.66-5,40.28-2.45,17.58-3.86,34.29-4.89,57.54-.87,19.78-1.18,23.09-2.6,23.65-2.52.86.32-50.92,4.57-82.06h0ZM440.17,374.9c-1.34,0-12.14-9.15-20.66-17.58-7.88-7.81-9.06-9.3-12-15.53-5.12-10.41-8.12-22.15-9.85-39.57-.79-7.33-1-71.26-.32-73.94,1.58-5.91,2.45,5.91,2.45,35.08.08,36.57,1.5,52,6.23,67.24,3.94,12.61,9.53,20.17,24.59,33.26,9.08,7.88,11.76,11.04,9.56,11.04ZM338.33,300.09c-2.12.93-4.18,2.01-6.15,3.23-3,1.82-10,5.21-15.69,7.73-10.09,4.33-11.43,5.51-6.23,5.59,2.84,0,12.85,2.84,20.5,5.84,4.8,2.07,9.39,4.59,13.71,7.52,4.5,2.92,8.12,5.21,8.2,5.13.24-.16-8.75-23.89-11.59-30.59-1.03-2.48-2.2-4.45-2.75-4.45ZM271.32,165.46c.48,0-.07-.47-1-1-.78-.46-1.63-.8-2.52-1-.4,0,.08.47,1,1,.79.45,1.64.79,2.52,1ZM245.47,170.5c-4.57-1.2-9.27-1.83-14-1.89-8.51-.39-9.14-.31-11,1.18-1.52,1.46-2.84,3.1-3.94,4.89-1.65,3-2,4.18-2,9.22,0,5.29.32,6.39,2.76,11.28,4.89,9.93,10.64,14.18,19.23,14.26,5.23.19,10.38-1.33,14.67-4.33,5.83-3.94,8.74-9.46,10.09-18.37.47-2.76.39-2.84-.56-1.18-1.34,2.29-3.23,3-5.51,2.13-1.42-.55-2-.48-2.53.47-4,6.78-6,8.28-11.74,8.83-8,.71-13.32-2.68-15.29-9.85-1.19-4.58.08-9.15,3.86-13.4l2.92-3.39,6.46.39c7.17.55,8.91,1.34,11.82,5.6,1,1.49,2.29,2.44,2.92,2.28,3-.55,4.57-.23,5.91.95,2.05,1.81,1.74-.08-.31-2.21-2.25-2.21-7.61-4.89-13.76-6.86ZM189.27,144.26c-4.1-1.82-7.57-3.24-7.8-3.24-.95,0-.4,1.42,1.33,3.55,4.18,5,15.85,8,40.68,10.88,7.33.79,17.1,2.13,21.91,2.91,4.65.79,8.83,1.34,9.3,1.19,1.34-.48-14.26-3.94-23.25-5.21-25.93-3.7-28.3-4.25-42.17-10.08ZM150.33,109.1c-.82-.75-1.89-1.17-3-1.18l-2,.08,1.74,1.34c.87.76,1.93,1.28,3.07,1.49,1.69,0,1.77-.31.19-1.73ZM132.05,136c2.92,0,2.76-.87-.47-3.55-5.12-4.18-9.38-2.44-13.09,5.2-3.62,7.41-3.62,15.77,0,25.39,2.45,6.46,8.83,12.53,12.14,11.5,1.5-.55,4.34-4.65,4.34-6.3,0-.63-1-1.26-2.21-1.58-3.23-.63-6.23-4.18-7.88-9.54-2.44-8.12-1.58-14.66,2.52-18.76,1.65-1.67,3.07-2.36,4.65-2.36Z"/>
  <path class="cls-10" d="M186.12,391c.21,3.39.66,6.76,1.34,10.08.23.32,5-.15,10.72-.94,15.6-2.21,24.59-1.81,38.54,1.81l2.13.55-.47-3.54c-.2-3.08-.07-6.18.39-9.23.39-3.23.79-11.11.87-17.65.08-7.18.47-12.93,1-14.59,1.11-3.38,8.28-11.19,13.17-14.26,3.54-2.29,3.62-2.45,2-2.92-3.19-.37-6.41-.53-9.62-.47h-8l-5.14,3.6c-7.07,5.25-13.71,11.05-19.86,17.35-3.47,3.39-6.15,5.51-6.86,5.36-.94-.24-7.88-11.59-9.69-16.08-.71-1.5-16.95,11.35-17,13.4-.08.71,1.26,5,2.84,9.61,2.45,7.02,3,10.09,3.64,17.92ZM218.43,461.6c19.79,0,20.81-.08,29.17-2.05,10.25-2.28,13.64-3.78,13.87-5.91.24-1.5.16-1.58-4.33-.55-5.68,1.26-31.53,1.34-38.94.24-7.8-1.51-15.34-4.14-22.39-7.81-2.76-1.42-5.28-2.68-5.6-2.76s-.55,3.39-.55,8v8.28l4.18,1.26c3.55,1.22,6.94,1.38,24.59,1.3ZM264.55,455.3c-1.66,2.75-2.76,3.54-6.31,4.65-1.73.39-3.07,1.18-3.07,1.57.69,2.13,1.53,4.22,2.52,6.23,1.34,3.15,2.52,6.15,2.52,6.86,0,2.44-1.89.47-4.81-4.89-4.1-8-4-7.88-9.93-6.62-3.15.63-12.14,1.18-23.88,1.5l-18.76.55-.63,3.23c-.95,4.81-2.45,4.81-2.45-.08v-3.94l-3.78-.47c-4.42-.63-4.1-.95-9.22,8.67-3.47,6.46-5,8.2-5,5.44.6-2.41,1.45-4.76,2.52-7q5-11.19-3.62-3.23c-5.84,5.44-8.28,6.86-8.28,5,0-.48,3.23-4.18,7.17-8.2l7.18-7.25v-4.58c.07-1.97-.17-3.94-.71-5.83-.4-.79-.95-1.42-1.26-1.42-.79,0-10.8,5.6-15,8.36-5.36,3.62-13.24,12.14-22.15,24-15.09,20.15-18.08,25.29-38.02,65.15-16.56,32.95-21.52,42.17-31,57.23-4.18,6.7-6.94,11.9-6.94,13.08,0,1.34,1.42,3.31,5,6.94,5.67,6,8.91,7.72,27,14.18,6.3,2.29,12.37,4.73,13.47,5.52l1.9,1.42,1.49-4.89c.79-2.68,3.31-11.74,5.76-20,10.48-36.57,23.41-73.7,33.34-95.77,7.17-15.84,9.93-21.2,11.11-21.2,1.5,0,.87,2.36-3.15,11.19-17.31,37.85-30.51,75.68-44.51,127.78l-1.66,6.23,2.52,3.31c1.8,2.21,3.81,4.25,6,6.07,6.55,5.2,33.66,17.89,49.74,23.41,10.65,3.14,21.5,5.56,32.48,7.25,3.23.48,3.39.48,3.86-1.49.55-2.21-.32-124-1.1-164-.24-13.48-.24-24.75.08-25.14s.94-.32,1.57.16c1.18,1.34,1.66,22.93,2.29,115.08l.55,77.09,7.25,1.5c12.61,2.6,19.79,3.23,34.61,3.23,21.51.08,30.82-1.66,49.18-8.91q6-2.36,5.44-4.57c-.47-2.44-26.17-85.6-30.27-98-3-9.46-16.24-46.35-22.46-62.74-4.58-12.3-5.21-14.74-3.24-13.09,2.13,1.74,4.58,7.57,15,36.34,10.56,29.16,18.76,54.55,38.7,119.42,2.76,9.06,5.36,17,5.68,17.73.63,1.11,1,1.11,4.89.16,9.61-2.21,32.87-11.59,35.55-14.27.77-.82,1.22-1.88,1.26-3,0-1-2.92-8.51-6.39-16.71-6.91-15.94-12.67-32.35-17.26-49.11-8.59-29.64-24-70.7-33.82-90.41-6.54-13-17.65-28.53-31.52-43.83l-6.23-6.85-1.2,1.96Z"/>
  <path class="cls-9" d="M255.24,181.62c-.72.83-.64,2.1.2,2.82.34.3.77.47,1.22.49,1.34,0,1.74-1.18.95-3.15-.56-1.42-1.34-1.42-2.37-.16ZM185.48,173.58c-5.51,2.6-6.62,4.57-6.62,12,0,4.33.4,5.67,2.92,10.64,5.02,10.57,14.31,18.5,25.54,21.78,15.92,5.2,30.27,6.07,41.7,2.68,7.33-2.13,16.16-6.15,19.62-8.75,4.58-3.55,6.47-9.38,5.21-16.32-1.11-6.31-3.31-11-6.39-13.64l-2.6-2.28-.39,5c-1.26,13.09-5.68,20.34-15.22,25.15-4.73,2.36-5.51,2.52-11.66,2.44-3.63,0-7.57-.39-8.83-.87-9.62-3.54-17.58-16.39-17.5-28.14.08-5.12,1.18-8.75,3.86-12.29l2-2.52-6.7.07c-10.98.08-17.21,1.34-24.94,5.05ZM147.57,259c1-4,2-3.86,2.84.16,1.1,5.28,1.26,5.28,10.95,4.26,4.73-.48,9.07-1.18,9.7-1.58,1.81-1,2-13.24.16-13.87-2.71-.48-5.5-.46-8.2.08-.55.23-3.78,1.57-7.17,3.07-3.78,1.61-7.69,2.92-11.67,3.94-7.09,1.58-7.25,3.16-.71,6.47,2.76,1.47,3.15,1.28,4.1-2.53ZM107.61,121.63c-.73-.59-1.52-1.1-2.37-1.5-.47,0-2.28,8-3.78,16.87-.84,5.34-1.13,10.76-.87,16.16.16,7.88.47,9.62,2.13,13.17,4.57,10,12.3,14.34,22,12.45l2.21-.47-4.88-4.81c-7.09-7-8.2-10.33-8.28-23.81,0-11.35.24-12.37,4.73-18.05.82-.93,1.51-1.96,2.05-3.07,0-.24-2.44-1.5-5.44-2.92s-6.32-3.23-7.5-4.02Z"/>
  <path class="cls-3" d="M351.57,767.13c-9.3,2.52-27.12,10.72-29.8,13.63-1.34,1.5-1.34,1.66-.16,4.1.71,1.42,6,9.93,11.91,18.92s12.06,18.44,13.71,21.12c2.21,3.47,5.13,6.62,11,11.51,14.82,12.46,15.13,12.53,25.06,11.83,7.41-.64,10.33-1.34,10.57-2.68.16-.64-1.89-3.47-4.5-6.39-11.42-13.08-17.81-23.17-21.2-33.66-1.18-3.62-3.55-13.79-5.28-22.46s-3.39-16.16-3.71-16.56c-.59-1.02-2.01-.94-7.6.64ZM297.49,184.06c-18.91-.23-18.91-.55-1.18,6,12.06,4.5,18.76,6.39,29,8.2,3.63.55,7.17,1.26,8,1.42,1.5.39,1.58,0,2.05-4.34.31-2.85.31-5.74,0-8.59-.47-3.47-.63-3.94-2.05-3.86-.87.08-5.6.39-10.56.79s-16.27.46-25.26.38ZM331.05,154.42c-.24-.63-.64-1.18-1-1.18s-3.63,1.58-7.57,3.23-14.43,5.53-23.17,8.36-16,5.67-16.08,6.07c0,1.26,4.33,5.44,5.59,5.44,2.21,0,38.63-3,41.07-3.31l2.52-.4-.47-8.59c-.13-3.22-.43-6.43-.89-9.62ZM314.76,132.43c-4.5-.39-12.54-.79-18-1l-9.7-.48-1.66,4c-2.05,5-7.09,12.69-12.53,19.32-1.54,1.7-2.91,3.55-4.1,5.51,0,.32,1.82,1.5,4,2.45,3,1.57,4.5,1.89,6.47,1.57,8.27-1.57,41.77-19.31,45.08-23.88.95-1.18.63-5.12-.47-6.07-.58-.55-4.68-1.18-9.09-1.42ZM277.05,173c-2.6-1.11-2.52-1.11-5.83-.32-5.52,1.26-3.31,2.84,4,2.84,5.64.03,6.19-.76,1.83-2.52ZM265.89,166.33c-3-1-3.79-1-4.81.07-2.37,2.29.71,3.47,5.44,2.29,2.2-.63,2.05-1.5-.63-2.36ZM271.56,345.1c-7.49-3.78-10.32-3.31-18.84,2.76-7.72,5.52-10.56,11.35-10.56,21.91v5.28l2.76-3.47c1.21-1.6,2.55-3.1,4-4.49,2.21-1.81,2.36-.08.23,3.39-6.93,11.67-8,16.48-7.4,30.11.39,10.41-.32,15.92-2.37,17.82-.87.78-4.26,1.57-9.54,2.28-15.53,2.05-25.46,3.86-30.11,5.36-6,1.89-16.55,7-16.55,7.88,0,2.05,21.36,12.93,29.87,15.3,5.13,1.34,7.57,1.57,23,1.57,26.25.08,28.14-.71,34.92-14.89,4.41-9.38,9.85-22.47,13.71-33.66l2.45-6.78v-32.4l-2.45-4.57c-3.58-6.78-7.29-10.5-13.12-13.4ZM263.84,744.19c-.16-5.44-.71-9.7-1.11-9.86-1.74.42-3.42,1.06-5,1.9-6.23,2.91-15.85,5.51-26.49,7.09-3.2.38-6.39.94-9.53,1.66-.16.15.63,3.31,1.89,7.09,2.91,9.3,10.72,37.44,10.72,38.54,0,2.68-11.12,11-23,17.42l-6.7,3.63,2.84.63c3.65.39,7.33.54,11,.47,7.57-.07,9.7-.39,23.73-4.09,8.51-2.21,17.26-4.26,19.23-4.5l3.87-.55-.48-24.91c-.26-13.63-.66-29.16-.97-34.52ZM227.05,418.09c4.25-.39,8.27-1.18,9.14-1.81,2.6-1.66,4.1-8.67,2.28-10.25-1.65-1.34-9.53-3-17.89-3.78-4.57-.32-8.91-.63-9.69-.55-14,1-26.41,4-53.6,12.92-18.29,6-23.49,8.36-26.73,11.91-4.49,5.28-7.8,14.66-7.8,22.7,0,4.33.24,5,1.89,6.22s2.92,1.5,9.22,1.5c6.78,0,7.81-.08,11.43-2.05,5-2.68,22.63-13.95,31.46-20.26,3.55-2.55,7.26-4.87,11.11-6.93,9.28-4.81,22.29-7.96,39.18-9.62ZM212.36,343.37c-5.12,1.18-10.09,2.28-10.95,2.52-.86.04-1.57.71-1.66,1.57,0,2,5.6,13.09,6.86,13.48.71.32,3-1.34,6.62-4.81,3.08-2.83,8.36-7.48,11.9-10.16s6.31-5.13,6.31-5.28c0-.4-6.39-.24-8.28.23-.86.08-5.67,1.18-10.8,2.45ZM175.47,395.31c4.26,2,7.89,3.47,8,3.31.03-2.63-.08-5.26-.32-7.88-.34-5.4-1.4-10.72-3.15-15.84-1.5-4.5-2.92-8.52-3.16-8.83-.78-.79-19.54,19.55-19.54,21,0,.24,2.36,1.42,5.28,2.53,2.73,1.14,8.56,3.66,12.89,5.71ZM134.41,419.59c2.52-1.1,14.26-5.2,26.32-9.07s21.76-7.41,21.76-7.72c0-.79-16.4-8.59-22.15-10.48-5.44-1.82-11.82-2-15.29-.32-3.79,1.89-10.88,9.38-13.17,14.11-2,4.1-3.31,12.06-2.44,14.42.32.95,1.03.79,4.97-.94ZM336.28,290.47c-2.84-13.71-3.87-38.3-2.84-63.76.39-9,.63-16.32.63-16.4s-5.68-1.73-12.38-3.7c-18.91-5.52-35.7-12.7-43.43-18.37-1.34-1-2.6-1.74-2.76-1.58.09,1.81.38,3.61.87,5.36,2.68,12.77,0,19.08-10.48,25.15-5.52,3.07-18,7.17-25.15,8.12-11.27,1.49-30.19-1.82-41.62-7.49-14.07-6.8-24.91-22.94-23.57-34.92,1-8.51,6.47-15.61,13.72-17.82,8.75-2.6,35.23-3.15,50.45-1,5.51.79,10.87,1.5,12,1.5,2.2,0,3.39-1.34,2-2.21s-11.9-2.68-25.15-4.33c-6.54-.79-14.74-1.74-18.36-2.21-9.86-1.18-22.47-4.57-25.78-6.94-5-3.47-8.12-9.93-6.07-12.61.87-1.18,1.34-1,7.41,1.89,14,6.86,23.49,9.62,39.18,11.27,9.61,1,13.24,1.66,24.75,4.42l9.22,2.36,1.66-1.89c1.73-2,13.4-21.2,14.81-24.51.56-1.11.79-2.21.48-2.45s-5.68-1-12.14-1.73c-15.14-1.81-31.45-4.65-55.57-9.7-26.09-5.36-34.61-6.78-44.46-7.33l-8.35-.39-.95,2c-1.34,2.76-4.49,3.86-6.78,2.44-.95-.55-3.23-2-5.2-3.23-2.84-1.81-4.34-2.13-8.52-2.29-2.64-.09-5.28.1-7.88.56-6,1.41-13.32,3.78-13.32,4.25,0,.79,3.63,3.79,11.51,9.78,8.91,6.62,14.58,11.82,16.71,15.29,1.42,2.28,1.58,3.55,1.58,11.9,0,11.59-1.11,15.53-6.07,22.62-4.42,6.39-8.28,8.75-14.66,9.3-9.7.79-16.64-3.46-21.44-13.32l-2.37-4.81.16-14c.08-11,.39-15.37,1.5-20.17.53-2.05.95-4.13,1.26-6.23-1.25.83-2.41,1.78-3.47,2.84l-3.39,3-2.97,12.29c-5.28,22.7-6.07,28.3-6.07,46-.13,8.17.31,16.34,1.34,24.44,5.21,36.49,17.82,62.19,41.94,85.36,7.17,6.94,21.6,18.21,27.9,21.92,4.89,2.83,18.21,7.41,25.86,8.75,8.83,1.65,37.2,1.57,53.68-.08,35.62-3.55,63.76-11.28,90-24.6,12.86-6.59,11.99-5.56,10.58-12.74ZM147.18,213.7c-1.9,0-12.62-11.67-11.83-12.93s.95-1,5.91,3.71c5.21,5.12,7.97,9.22,5.92,9.22ZM130.47,196.44c1.19-1.37,2.92-2.15,4.73-2.13,3,0,4.09-1.18,4.57-5.05.47-3.23,1.34-3.7,2.44-1.18.95,2,.39,6.47-1,7.49-1.59.75-3.27,1.28-5,1.58l-4.18.78v5.21c0,6.38.87,9.46,3.55,13.55,2.36,3.47,2.68,5,1.18,5-3.15,0-7.72-9.85-8.2-17.81-.22-5.08-.14-5.24,1.91-7.44ZM192.89,271.08c-.47,2.84-.39,2.84-17.65,3.71-6.89.32-13.74,1.16-20.5,2.52-4.08,1-8.21,1.79-12.37,2.37l-4.42.47-1.9-2.92c-1.64-2.85-2.98-5.87-4-9-3.39-9.86-2.68-19.32,1.66-22.08,2.88-1.29,5.82-2.42,8.83-3.38,4.41-1.4,8.72-3.07,12.92-5,5.44-2.44,6.15-2.6,11.2-2.29,7.09.4,11.19,2.45,15.92,7.65,6.69,7.54,11.65,20.94,10.31,27.95h0Z"/>
  <path class="cls-2" d="M417.7,262.65c1-23.25,2.44-40,4.89-57.54,3.39-25.62,3.86-29.25,5-40.28,1.66-17.66,1.34-28.14-1-28.14-.32,0-.79,5.67-1,12.37-.4,12-2,26.41-5.92,55.18-4.25,31.14-7.09,82.92-4.49,82.06,1.34-.56,1.65-3.87,2.52-23.65ZM430.63,363.86c-15.06-13.09-20.65-20.65-24.59-33.26-4.73-15.22-6.15-30.67-6.23-67.24,0-29.17-.87-41-2.45-35.08-.7,2.68-.47,66.61.32,73.94,1.73,17.42,4.73,29.16,9.85,39.57,2.92,6.23,4.1,7.72,12,15.53,8.52,8.43,19.32,17.58,20.66,17.58,2.18,0-.5-3.16-9.56-11.04ZM378.68,123.29c-2.28-2.45-3.31-3.47-3.94-3.47-.23,0-.39.24-.55.55-.32.87.08,2,1.34,3.23,4.65,5,9.14,14.66,12.3,26.41.79,3.23,1.89,6,2.28,6h.08c1.34,0,.4-7.65-1.89-14.58-3.07-9.71-4.97-13.18-9.62-18.14ZM321.77,39.26c-8.2-5.52-13.56-8.83-16.39-10.17-1.26-.63-2.05-.79-2.29-.55-.25.28-.41.63-.47,1,0,.31,6.07,4.57,13.56,9.45,24.75,16.51,37.67,26.91,46.27,37.79,3.32,4.33,6.38,8.86,9.14,13.56,3,5,6,9.3,6.46,9.54.08,0,.24.08.32.08,1.34,0,.23-3.71-2.6-8.83-11.12-19.47-23.49-31.37-54-51.87ZM135.35,200.77c-.79,1.26,9.93,12.93,11.83,12.93,2.05,0-.71-4.1-5.92-9.22-4.96-4.73-5.21-4.89-5.91-3.71ZM166.65,235.53c-5.05-.31-5.76-.15-11.2,2.29-4.2,1.93-8.51,3.6-12.92,5-3.01.96-5.95,2.09-8.83,3.38-4.34,2.76-5,12.22-1.66,22.08,1.02,3.13,2.36,6.15,4,9l1.89,2.92,4.42-.47c4.16-.58,8.29-1.37,12.37-2.37,6.76-1.36,13.61-2.2,20.5-2.52,17.26-.87,17.18-.87,17.65-3.71,1.34-7-3.62-20.41-10.32-27.9-4.71-5.23-8.81-7.3-15.9-7.7ZM141.26,263.75c1.39.78,2.88,1.39,4.42,1.82.47,0,.79.23.79.63,0,.86-6.55,2.44-7.26,1.73-.54-1.03-.88-2.15-1-3.31l-.47-2.68,3.52,1.81ZM144.18,255.08c3.98-1.02,7.89-2.33,11.67-3.94,3.39-1.5,6.62-2.84,7.17-3.07,2.7-.54,5.49-.56,8.2-.08,1.81.63,1.65,12.85-.16,13.87-.63.4-5,1.1-9.7,1.58-9.69,1-9.85,1-10.95-4.26-.87-4-1.82-4.18-2.84-.16-.95,3.79-1.34,3.94-4.1,2.53-6.54-3.31-6.42-4.89.71-6.47h0ZM188.05,271c-.24.24-6.31.64-13.64,1-9.85.47-14.9,1.1-20.42,2.44-3.94,1-8.82,2-10.87,2.29-3.23.47-3.71.31-4.42-1-.4-.65-.66-1.37-.79-2.12,0-1.11,4.5-2.68,14.75-5.05,5.2-1.18,10-2.36,10.79-2.6s5.44-.24,10.41-.16c6.78.16,9.62.55,11.35,1.5,2.32,1.1,3.59,2.92,2.84,3.7ZM179.93,260.76c2.17.19,4.31.61,6.38,1.26,2.6,1.42.16,2-4.73,1-7.13-1.4-8.23-2.89-1.69-2.26h.04ZM176.05,257.6v-3.23c0-1.81.31-3.23.78-3.23,1.52.87,2.9,1.96,4.1,3.23l3.31,3.23h-8.19ZM183.3,252.6c-5.68-5.83-9.62-7.65-16.63-7.57-4.81,0-6.07.4-11.51,3-3.74,1.78-7.65,3.17-11.67,4.17-7.49,1.66-8.2,2.45-8,10.17.08,3.31-.08,5.84-.39,5.68-1.11-.71-2.21-6.62-2.21-11.51,0-4.34.16-5,2-6.86,1.42-1.42,3.94-2.6,7.41-3.62,3.29-.96,6.53-2.1,9.7-3.39,12.06-5.13,15.84-5.68,21.75-2.68,2.49,1.38,4.75,3.13,6.7,5.2,2.92,3.23,7.17,9.93,7.17,11.27-.09.28-2.06-1.38-4.34-3.82l.02-.04ZM136.85,221.66c1.5,0,1.18-1.5-1.18-5-2.68-4.09-3.55-7.17-3.55-13.55v-5.21l4.18-.78c1.73-.3,3.41-.83,5-1.58,1.34-1,1.9-5.44,1-7.49-1.1-2.52-2-2.05-2.44,1.18-.48,3.87-1.58,5.05-4.57,5.05-1.81-.02-3.54.76-4.73,2.13-2.05,2.2-2.13,2.36-1.82,7.41.39,7.99,4.96,17.84,8.11,17.84ZM313.34,81c-3.05.22-6.08.65-9.07,1.26-16.63,3.07-25.77,3.63-46.58,3.15-10.33-.15-21-.78-23.73-1.1s-16.47-2.13-30.58-3.71c-21.68-2.44-27.67-2.83-39.26-2.75-7.48,0-15.76.31-18.36.71-10.64,1.34-24,5.12-31.3,8.67-13.41,6.77-28.69,19.82-25.54,21.77.32.24,2.76-1.65,5.52-4.18,9.93-9.14,19.71-15,31.3-18.76,12.61-4.06,17.31-4.79,36.89-4.79s30.26.71,53.68,3.71c34.91,4.41,42.56,4.89,61.48,3.55,18.36-1.42,33.89-3.94,36.89-6.15,1.57-1.18,1.26-1.66-1.34-1.38ZM471.77,359.21c-1.65-9.46-3.86-12.06-8-9.22-1.42.94-2.83,1.81-3.31,2.12-.63.4-1.81-1.26-3.7-5.2-2.84-5.75-7.73-13-8.67-13-.75.3-1.4.79-1.89,1.42-1.74,2-2.45,1.81-5.6-.79-6.46-5.28-7.33-10.57-7.33-43.12,0-18.13.31-27.59,1.18-35.23.63-5.76,1.34-13.4,1.66-16.95s1.65-18,3.23-32c3.78-33.82,5.75-61.17,5.75-78.91,0-6.54,0-6.62-6-22.15-3.39-8.51-7.09-17.26-8.2-19.31-2.55-4.87-18-20.57-22.84-23.17-2-1.19-9.54-6-16.95-10.88-13.67-9.14-28.04-17.17-43-24-18-8.28-29.64-12.14-52.18-17-15.61-3.31-23.73-4.33-43.28-5.75-11.19-.79-18.13-1.66-23.72-2.92-11.2-2.59-35.55-3.93-47.14-2.67-4.18.39-25.7,5.91-33.89,8.59-4.6,1.44-9.01,3.4-13.17,5.83-18.92,11.75-20.49,12.93-27.51,20-7.72,7.59-12.22,14.1-14.66,21.47-.99,2.71-2.43,5.24-4.26,7.48-4.11,4.95-7.53,10.44-10.16,16.32-.87,2.21-1.9,4-2.21,4-1.34,0-13.87-15.29-20.81-25.38-4.41-6.54-5.68-7.41-7.73-5.91-4.65,3.23-1.57,9.85,10.17,22.78,4.57,5,8.75,9.38,9.23,9.69,1.29,1.01,2.45,2.18,3.46,3.47l2.45,2.84-5.76-3.07c-8.83-4.81-30-20.74-38.15-28.62-2.73-2.77-5.31-5.69-7.73-8.73-2.29-2.84-4.65-5.2-5.13-5.2-1.34,0-4.65,3.7-5.12,6-.79,3.07.79,5.76,6.31,10.72,14.53,13.07,30.99,23.81,48.8,31.84,6.62,2.91,8.59,4.65,8.59,7.25,0,1.65-.39,1.57-11-3.71-23.29-11.74-41.45-22.62-51.59-31.14-6.07-5.13-8.12-6.23-10-5.13s-2.36,2.68-1.49,5.76c1.57,5.91,8.74,12.29,21.91,19.39,2.36,1.34,7.57,4.26,11.51,6.54,10.75,6.1,22.04,11.2,33.73,15.21,9.7,3.24,12,4.26,13.33,5.92s.31,1.49-12.93-.71c-13.56-2.21-20.42-4.42-29.56-9.07-7.25-3.7-9.46-3.94-10.33-1.34s.55,5,4.26,8.44c6.46,5.91,12.85,7.25,38.15,8l15.84.47,1.19,3.63c2.05,5.51,1.65,10.79-1.9,28.06-3.15,14.89-3.31,16.63-3.7,30.66-.47,17.26.31,26.72,3.47,41.3,4.65,21.44,12.69,40.68,22.78,55,9.46,13.48,35.31,37,47.69,43.51,8.59,4.42,17.81,6.86,35.7,9.46,2.21.32,2.21.4,3.08,6.31.39,3.23.79,6.23.79,6.7s-2.13,2.44-4.81,4.26c-4.89,3.46-30.19,28.14-34.84,34-2.05,2.6-3.15,3.23-6.78,4.18-8,2.05-15.53,8.67-20,17.57-2.05,4.26-2.37,5.44-2.68,13.33-.4,7.17-.79,9.37-2.45,13.32-2.6,6.07-4.73,14.5-4.73,18.68,0,6.22,5.13,10.09,13.33,10.09,9.14-.08,14.42-2.37,34-15.22,7.17-4.65,13.56-8.51,14.11-8.51,1.39.52,2.65,1.33,3.7,2.37l2.76,2.36-4.25,1.58c-12.54,4.57-23.26,14-37.68,33.26-15.85,21.05-18.92,26.49-40.91,70.15-15.77,31.38-22,42.81-31.3,57.07l-6.12,9.4,3.07,3.79c4.65,6,11.43,12.06,15.13,13.63,1.74.79,8.67,3.39,15.3,5.84s12.84,4.88,13.79,5.44c2.17,1.82,4.1,3.91,5.75,6.22,2.41,3.02,5.09,5.82,8,8.36,7.41,6.15,31.38,17.26,53.13,24.51,7.33,2.45,13,4.73,13.56,5.52,1.73,2.21,7.72,15.13,12,26,5.76,14.58,12.69,35.24,18.13,54.08,4.89,17.18,6,23.25,4.65,25.77s-12.77,9.7-25.85,16.32c-12.69,6.38-16.71,9.06-16.71,11.11,0,1.66,4.1,5.52,7.41,6.86,7.64,3.23,17,2.84,33.1-1.18,8.28-2,9.78-2.21,22.31-2.29,11-.08,13.64-.31,14.42-1.18,1.13-1.76,2.01-3.68,2.61-5.68,2-5.91,2-11.74.39-69.44-.71-23.25-.87-42.57-.55-42.88.55-.55,8.67,12.37,27.9,44.61,8,13.48,21.52,34.53,42.72,66.45,4.42,6.62,8.28,12.85,8.52,13.8.15,1.82.01,3.66-.4,5.44-1.57,7.48-.55,15,2.29,16.86.87.56,5.36,1.66,9.85,2.45,6.62,1.18,9.38,2.13,14.43,4.73,8.9,4.57,13.32,5.75,22.54,5.83h7.78l2.45-2.68c4.41-4.81,3.47-7.25-6.7-17.66-14.31-14.63-23.14-27.4-26.75-38.75-3.55-11-7.73-33.26-15.45-82.37-1-6.54-3.63-19.08-5.84-28.06s-3.94-17.11-4.09-18.29c-.16-2,.15-2.28,7-5.75,7.33-3.71,12.61-7.25,12.61-8.44,0-.86-5.2-13.4-10.4-25.22s-8.59-21.83-15.61-45.88c-10.56-36.33-29.22-83.94-39.17-99.87-4.1-6.62-17.58-23.57-27.2-34.13l-6.7-7.49,2.37-2.75c4.09-4.73,15.84-32.4,19.78-46.67,1.18-4.41,2.52-8.67,2.68-9.46.47-1.18,1.58-.39,7.49,5.13,3.91,3.62,8.04,6.99,12.37,10.09,6.39,4.49,17.66,10.09,21.52,10.72,2.37.39,2.61.23,2.61-1,0-.79-2.29-4.89-5.05-9.14-5.75-8.67-12.45-20.5-12.06-21,.16-.16,2.76,1.18,5.68,3,17.1,10.64,38.62,18.36,51,18.28,5.67,0,5.35-.79-4.74-10.56-10.16-9.93-12-12.45-19.39-26.17-2.6-4.89-6.46-11.59-8.67-14.82-6.93-10.56-21-22.15-36.73-30.27-4.49-2.28-8.2-4.41-8.2-4.73,0-.78,9.15-.63,15.69.24,10,1.42,21.52,6.15,31.53,13,7,4.88,16.4,14.74,26.72,28.37,16.79,22.07,30.58,35.24,45.17,43,5.44,2.84,6.15,3.08,11.19,3,9.46-.16,20.73-6.07,31-16.16,5-5,6.7-7.17,9.14-12.22,4.4-9.02,5.5-14.14,4.47-20.05ZM63.54,117.06c-.55-.24-.31-.39.48-.39s1.18.08.94.31c-.42.28-.97.31-1.42.08ZM448.92,340.13c1.34.4,6.3,9.7,6.3,11.83,0,.79-.39,1.42-1,1.42-1.19,0-6-3.31-7.73-5.29-3.15-3.7-5.67-7.8-5.28-8.51s4.32-.39,7.71.55ZM196.68,350.07c1.81,4.49,8.75,15.84,9.69,16.08.71.15,3.39-2,6.86-5.36,6.14-6.3,12.77-12.1,19.82-17.35l5.13-3.62h8c3.21-.06,6.43.1,9.62.47,1.65.47,1.57.63-2,2.92-4.89,3.07-12.06,10.88-13.17,14.26-.55,1.66-.94,7.41-1,14.59-.08,6.54-.48,14.42-.87,17.65-.46,3.05-.59,6.15-.39,9.23l.47,3.54-2.13-.55c-13.95-3.62-22.94-4-38.54-1.81-5.68.79-10.49,1.26-10.72.94-.68-3.32-1.12-6.68-1.33-10.06-.64-7.81-1.19-10.88-3.63-17.9-1.58-4.65-2.92-8.9-2.84-9.61.08-2.07,16.32-14.92,17.03-13.42ZM223.79,337.53l-10.32,2.52c-5.6,1.34-11.43,2.53-13,2.53h-2.76l-.47-4.42c-.32-2.36-.32-4.57-.08-4.81s6.7-.63,14.35-1c18.05-.71,47.53-3.55,48.63-4.57.6-.24,1.24-.35,1.89-.32h1.66l-1.34,3c-.75,1.57-1.23,3.26-1.42,5v2h-37.14v.07ZM231.44,340.69c0,.15-2.84,2.52-6.31,5.28s-8.82,7.33-11.9,10.16c-3.62,3.47-5.91,5.13-6.62,4.81-1.26-.39-6.86-11.5-6.86-13.48.09-.86.8-1.53,1.66-1.57.86-.24,5.83-1.34,10.95-2.52s9.94-2.37,10.8-2.45c1.89-.47,8.28-.63,8.28-.23h0ZM176.81,366.07c.24.31,1.66,4.33,3.16,8.83,1.75,5.12,2.81,10.44,3.15,15.84.24,2.62.35,5.25.32,7.88-.08.16-3.71-1.34-8-3.31s-10.16-4.57-12.92-5.67c-2.92-1.11-5.28-2.29-5.28-2.53.03-1.49,18.81-21.83,19.57-21.04h0ZM131.88,406.07c2.29-4.73,9.38-12.22,13.17-14.11,3.47-1.66,9.85-1.5,15.29.32,5.75,1.89,22.15,9.69,22.15,10.48,0,.31-9.77,3.78-21.76,7.72s-23.8,8-26.32,9.07c-3.94,1.73-4.65,1.89-5,.94-.84-2.32.5-10.28,2.47-14.38v-.04ZM176.74,434.6c-8.83,6.31-26.41,17.58-31.46,20.26-3.62,2-4.65,2.05-11.43,2.05-6.3,0-7.56-.16-9.22-1.5s-1.89-1.89-1.89-6.22c0-8,3.31-17.42,7.8-22.7,3.24-3.55,8.44-5.92,26.73-11.91,27.19-8.9,39.64-11.9,53.6-12.92.78-.08,5.12.23,9.69.55,8.36.79,16.24,2.44,17.89,3.78,1.82,1.58.32,8.59-2.28,10.25-.87.63-4.89,1.42-9.14,1.81-16.87,1.66-29.88,4.81-39.18,9.62-3.85,2.08-7.56,4.4-11.11,6.97v-.04h0ZM216.94,731.3c-3.89-11.71-5.89-16.83-12.89-32.59-3.23-7.1-5.76-13.09-5.76-13.33s.48-.23,1-.07c.63.31,9.22,2.12,19.23,4,16.16,3.31,22,4.09,39.18,5.59l4.33.32.48,8.75c.31,4.8.47,12.69.47,17.57v8.91l-3.39,1.66c-9.78,4.88-31.22,9.93-37.36,8.75-2.18-.3-2.38-.61-5.29-9.52v-.04h0ZM260.94,819.66c-1.42.36-2.88.54-4.34.55h-2.55l2.21-.55c1.4-.33,2.82-.52,4.26-.55q2.13.04.4.59l.02-.04ZM264.72,809.97c-.13,1.46-.62,2.87-1.42,4.09-.86.79-6.7,2.29-17.81,4.58-9.06,1.89-19.47,4-23.1,4.8-5.08,1.05-10.25,1.58-15.44,1.58-8,0-9.38-.16-11.91-1.58-3.39-1.73-5-3.39-4.25-4.49.15-.47,2-1.5,3.86-2.44,3.39-1.74,3.62-1.74,18.84-1.42l15.45.47,14.34-4c17.58-4.88,16.79-4.73,19.47-4.65,1.95.18,2.11.34,1.95,3.09l.02-.03ZM261.41,804.13c-2,.24-10.72,2.29-19.23,4.5-14,3.7-16.16,4-23.73,4.09-3.67.08-7.35-.08-11-.47l-2.84-.63,6.7-3.63c11.9-6.38,23-14.74,23-17.42,0-1.1-7.81-29.24-10.72-38.54-1.26-3.78-2.05-6.94-1.89-7.09,3.14-.72,6.33-1.28,9.53-1.66,10.64-1.58,20.26-4.18,26.49-7.09,1.58-.84,3.26-1.48,5-1.9.4.16.95,4.42,1.11,9.86s.71,20.89.94,34.52l.48,24.91-3.84.55ZM356.63,850.24c-4-.47-7.88-1.73-7.88-2.52s4.34.24,8.28,1.82l2.83,1.1-3.23-.4ZM399.12,849.77l2.52,2.52c2.92,2.92,3.08,4,.79,6.7-1.73,2-2.05,2.05-8.51,2.05-8.52-.08-13.64-1.73-23.34-7.64s-11.66-6.86-17.26-8.28c-2.68-.63-5.2-1.42-5.6-1.81-.94-.79.24-10,1.27-10,.55,0,3,1.65,5.59,3.78s6.55,5.44,8.91,7.65c2.06,1.96,4.36,3.64,6.86,5,2.76,1.18,9,1.34,21,.47l7.77-.44ZM362.86,783.01c1.73,8.67,4.1,18.84,5.28,22.46,3.39,10.49,9.78,20.58,21.2,33.66,2.61,2.92,4.66,5.75,4.5,6.39-.24,1.34-3.16,2-10.57,2.68-9.93.7-10.24.63-25.06-11.83-5.83-4.89-8.75-8-11-11.51-1.65-2.68-7.88-12.21-13.71-21.12s-11.2-17.5-11.91-18.92c-1.18-2.44-1.18-2.6.16-4.1,2.68-2.91,20.5-11.11,29.8-13.63,5.59-1.58,7-1.66,7.56-.64.34.44,2,7.93,3.73,16.6l.02-.04ZM351.98,718.21c1.74,10.09,4.73,30.59,5.76,39,.55,4.89-.24,6.31-3.24,6.31-4.49,0-25.69,8.59-32.79,13.4-3.86,2.52-4,2.6-5,1.26-2.45-3.23-15.92-24.83-23.73-38.07-4.65-7.89-12.29-20.58-16.87-28.06-11.11-18-10.56-16.72-8.11-17.19,1.1-.23,6.14-.94,11.27-1.5,12.61-1.57,12.92-1.57,38.15-10.16,12.22-4.1,22.7-7.49,23.25-7.49s1.18.71,1.58,1.65c1.59,4.32,8.06,31.64,9.71,40.89l.02-.04ZM271.98,460.14c13.87,15.3,25,30.82,31.52,43.83,9.86,19.71,25.23,60.77,33.82,90.41,4.59,16.76,10.35,33.17,17.26,49.11,3.47,8.2,6.39,15.68,6.39,16.71-.04,1.12-.49,2.18-1.26,3-2.68,2.68-25.94,12.06-35.55,14.27-3.87,1-4.26,1-4.89-.16-.32-.71-2.92-8.67-5.68-17.73-19.94-64.87-28.14-90.26-38.7-119.42-10.4-28.77-12.85-34.6-15-36.34-2-1.65-1.34.79,3.24,13.09,6.22,16.39,19.47,53.28,22.46,62.74,4.1,12.38,29.8,95.54,30.27,98q.55,2.21-5.44,4.57c-18.36,7.25-27.67,9-49.18,8.91-14.82,0-22-.63-34.61-3.23l-7.25-1.5-.55-77.09c-.63-92.15-1.11-113.74-2.29-115.08-.63-.48-1.18-.56-1.57-.16s-.32,11.66-.08,25.14c.78,40,1.65,161.83,1.1,164-.47,2-.63,2-3.86,1.49-10.98-1.69-21.83-4.11-32.48-7.25-16.08-5.52-43.19-18.21-49.74-23.41-2.19-1.82-4.2-3.86-6-6.07l-2.52-3.31,1.66-6.23c14-52.1,27.19-89.93,44.53-127.85,4-8.83,4.65-11.19,3.15-11.19-1.18,0-3.94,5.36-11.11,21.2-9.93,22.07-22.86,59.2-33.34,95.77-2.45,8.28-5,17.34-5.76,20l-1.47,4.96-1.9-1.42c-1.1-.79-7.17-3.23-13.47-5.52-18.13-6.46-21.37-8.19-27-14.18-3.55-3.63-5-5.6-5-6.94,0-1.18,2.76-6.38,6.94-13.08,9.43-15.06,14.43-24.28,30.96-57.18,19.94-39.81,22.93-44.93,38.07-65.11,8.91-11.9,16.79-20.42,22.15-24,4.18-2.76,14.19-8.36,15-8.36.31,0,.86.63,1.26,1.42.54,1.89.78,3.86.71,5.83v4.58l-7.18,7.25c-3.94,4-7.17,7.72-7.17,8.2,0,1.89,2.44.47,8.28-5q8.59-8,3.62,3.23c-1.07,2.24-1.92,4.59-2.52,7,0,2.76,1.5,1,5-5.44,5.12-9.62,4.8-9.3,9.22-8.67l3.78.47v3.94c0,4.89,1.5,4.89,2.45.08l.63-3.23,18.76-.55c11.74-.32,20.73-.87,23.88-1.5,5.91-1.26,5.83-1.34,9.93,6.62,2.92,5.36,4.81,7.33,4.81,4.89,0-.71-1.18-3.71-2.52-6.86-.99-2.01-1.83-4.1-2.52-6.23,0-.39,1.34-1.18,3.07-1.57,3.55-1.11,4.65-1.9,6.31-4.65l1.18-2,6.2,6.8ZM189.68,459.04v-8.24c0-4.65.24-8.19.55-8s2.84,1.34,5.6,2.76c7.05,3.67,14.59,6.3,22.39,7.81,7.41,1.1,33.26,1,38.94-.24,4.49-1,4.57-.95,4.33.55-.23,2.13-3.62,3.63-13.87,5.91-8.36,2-9.38,2.05-29.17,2.05-17.65.08-21-.08-24.59-1.26l-4.18-1.34ZM287.19,379.19v16.24l-2.45,6.78c-3.86,11.19-9.3,24.28-13.71,33.66-6.78,14.18-8.67,15-34.92,14.89-15.45,0-17.89-.23-23-1.57-8.51-2.37-29.87-13.25-29.87-15.3,0-.86,10.56-6,16.55-7.88,4.65-1.5,14.58-3.31,30.11-5.36,5.28-.71,8.67-1.5,9.54-2.28,2-1.9,2.76-7.41,2.37-17.82-.63-13.63.47-18.44,7.4-30.11,2.13-3.47,2-5.2-.23-3.39-1.45,1.39-2.79,2.89-4,4.49l-2.76,3.47v-5.28c0-10.56,2.84-16.39,10.56-21.91,8.52-6.07,11.35-6.54,18.84-2.76,5.83,2.92,9.54,6.62,13.16,13.4l2.45,4.57-.04,16.16ZM324.63,403.78c1.74,2.49,3.29,5.1,4.65,7.81,0,.94-10.48-4.34-16.55-8.28-4.44-3.14-8.66-6.59-12.63-10.31-8.91-8-9-8.19-9-16.94-.08-7.18-1.66-15.29-3.86-19.79-3.63-7-10.33-12.85-18.68-16.31-4-1.58-4.58-2.76-3.71-7.26.79-4.25,6.94-6.62,12.22-4.57,2.36.87,13.16,10,17.26,14.51,7.72,8.36,13.1,17.36,15.85,26.9,5.92,19.86,7.73,24.04,14.43,34.28l.02-.04ZM302.8,326.85c13.71,6.94,27.9,18.13,35.07,27.67,2.83,4.13,5.41,8.42,7.73,12.85,7.56,14.74,9.46,17.42,18.36,26.64,4.81,5,8.52,9.14,8.28,9.38-.63.63-11.59-1.81-18.68-4.18-9.63-3.33-18.86-7.73-27.51-13.12-9-5.68-9.46-6.23-11.59-13.32-2.84-9.94-4.49-13.64-9.3-20.89-7.19-10.88-18.39-22.55-25.11-26.09l-2.92-1.5,2.92-1c2.87-.62,5.81-.86,8.74-.71,5.47.21,6.34.53,13.99,4.31l.02-.04ZM235.72,327.8c-16.48,1.65-44.85,1.73-53.68.08-7.65-1.34-21-5.92-25.86-8.75-6.3-3.71-20.73-15-27.9-21.92-24.12-23.17-36.73-48.87-41.94-85.36-1.03-8.1-1.47-16.27-1.34-24.44,0-17.73.79-23.33,6.07-46l2.92-12.3,3.39-3c1.06-1.06,2.22-2.01,3.47-2.84-.31,2.1-.73,4.18-1.26,6.23-1.11,4.8-1.42,9.14-1.5,20.17l-.16,14,2.37,4.81c4.8,9.86,11.74,14.11,21.44,13.32,6.38-.55,10.24-2.91,14.66-9.3,5-7.09,6.07-11,6.07-22.62,0-8.35-.16-9.62-1.58-11.9-2.13-3.47-7.8-8.67-16.71-15.29-7.88-6-11.51-9-11.51-9.78,0-.47,7.33-2.84,13.32-4.25,2.6-.46,5.24-.65,7.88-.56,4.18.16,5.68.48,8.52,2.29,2,1.26,4.25,2.68,5.2,3.23,2.29,1.42,5.44.32,6.78-2.44l.95-2,8.35.39c9.85.55,18.37,2,44.46,7.33,24.12,5,40.43,7.89,55.57,9.7,6.46.71,11.9,1.58,12.14,1.73s.08,1.34-.48,2.45c-1.41,3.31-13.08,22.54-14.81,24.51l-1.66,1.89-9.22-2.36c-11.51-2.76-15.14-3.39-24.75-4.42-15.69-1.65-25.15-4.41-39.18-11.27-6.07-2.92-6.54-3.07-7.41-1.89-2.05,2.68,1,9.14,6.07,12.61,3.31,2.37,15.92,5.76,25.78,6.94,3.62.47,11.82,1.42,18.36,2.21,13.25,1.65,23.65,3.38,25.15,4.33s.23,2.21-2,2.21c-1.11,0-6.47-.71-12-1.5-15.22-2.13-41.7-1.58-50.45,1-7.25,2.21-12.69,9.31-13.72,17.82-1.34,12,9.46,28.14,23.57,34.92,11.43,5.67,30.35,9,41.62,7.49,7.17-.95,19.63-5,25.15-8.12,10.51-6.05,13.19-12.36,10.51-25.15-.49-1.75-.78-3.55-.87-5.36.16-.16,1.42.55,2.76,1.58,7.73,5.67,24.52,12.85,43.43,18.37,6.7,2,12.3,3.62,12.38,3.7s-.24,7.41-.63,16.4c-1,25.46,0,50,2.84,63.76,1.41,7.18,2.28,6.15-10.57,12.77-26.25,13.34-54.39,21.07-90.01,24.62l.02-.04ZM124.87,157.1c1.65,5.36,4.65,8.91,7.88,9.54,1.26.32,2.21,1,2.21,1.58,0,1.65-2.84,5.75-4.34,6.3-3.31,1-9.69-5-12.14-11.5-3.62-9.62-3.62-18,0-25.39,3.71-7.64,8-9.38,13.09-5.2,3.23,2.68,3.39,3.55.47,3.55-1.57,0-3,.71-4.65,2.36-4.1,4.1-4.96,10.66-2.52,18.76ZM118.48,131.64c-4.49,5.68-4.73,6.7-4.73,18.05.08,13.48,1.19,16.79,8.28,23.81l4.89,4.81-2.21.47c-9.69,1.89-17.42-2.44-22-12.45-1.66-3.55-2-5.29-2.13-13.17-.26-5.4.03-10.82.87-16.16,1.5-8.9,3.31-16.87,3.78-16.87.85.4,1.64.91,2.37,1.5,1.18.79,4.57,2.53,7.48,4s5.44,2.68,5.44,2.92c-.54,1.12-1.22,2.16-2.04,3.09h0ZM145.36,108l2-.08c1.11.01,2.18.43,3,1.18,1.58,1.42,1.5,1.73-.16,1.73-1.14-.21-2.2-.73-3.07-1.49l-1.77-1.34ZM329.89,173c-2.44.31-38.86,3.31-41.07,3.31-1.26,0-5.59-4.18-5.59-5.44.08-.4,7.25-3.08,16.08-6.07s19.15-6.7,23.17-8.36,7.41-3.15,7.57-3.23.71.55,1,1.18c.48,3.19.79,6.4.94,9.62l.47,8.59-2.57.4ZM333.36,182.85c1.42-.08,1.58.39,2.05,3.86.31,2.85.31,5.74,0,8.59-.47,4.34-.55,4.73-2.05,4.34-.87-.16-4.41-.87-8-1.42-10.25-1.81-16.95-3.7-29-8.2-17.73-6.54-17.73-6.22,1.18-6,9,.08,20.34-.08,25.31-.39s9.64-.63,10.51-.75v-.03ZM324.36,139.85c-3.31,4.57-36.81,22.31-45.08,23.88-2,.32-3.47,0-6.47-1.57-2.2-.95-4-2.13-4-2.45,1.19-1.96,2.56-3.81,4.1-5.51,5.44-6.63,10.48-14.35,12.53-19.32l1.66-4,9.7.48c5.43.23,13.47.63,18,1,4.41.24,8.51.87,9.14,1.42,1.11,1.02,1.38,4.96.43,6.14v-.07ZM266.51,168.62c-4.73,1.18-7.81,0-5.44-2.29,1-1.1,1.81-1.1,4.81-.07,2.69.93,2.84,1.8.64,2.43v-.07ZM267.77,163.34c.89.2,1.74.54,2.52,1,.95.56,1.5,1,1,1-.88-.21-1.73-.55-2.52-1-.91-.46-1.39-.93-.99-.93v-.07ZM259.49,179.5c-1.34-1.18-2.92-1.5-5.91-.95-.63.16-1.89-.79-2.92-2.28-2.91-4.26-4.65-5.05-11.82-5.6l-6.46-.39-2.92,3.39c-3.78,4.25-5.05,8.82-3.86,13.4,2,7.17,7.25,10.56,15.29,9.85,5.75-.55,7.72-2.05,11.74-8.83.55-.95,1.11-1,2.53-.47,2.28.86,4.17.16,5.51-2.13.95-1.66,1-1.58.56,1.18-1.35,8.91-4.26,14.43-10.09,18.37-4.29,3-9.44,4.52-14.67,4.33-8.59-.08-14.34-4.33-19.23-14.26-2.44-4.89-2.76-6-2.76-11.28,0-5,.32-6.22,2-9.22,1.1-1.79,2.42-3.43,3.94-4.89,1.9-1.49,2.53-1.57,11-1.18,4.73.06,9.43.69,14,1.89,6.15,2,11.51,4.65,13.72,6.86,2.1,2.2,2.41,4.09.36,2.28v-.07ZM256.65,184.86c-1.1-.05-1.96-.98-1.91-2.09.02-.45.19-.88.49-1.22,1-1.26,1.82-1.26,2.37.16.8,2.04.45,3.22-.94,3.22v-.07ZM215.11,170.86c-2.68,3.54-3.78,7.17-3.86,12.29-.08,11.75,7.88,24.6,17.5,28.14,1.26.48,5.2.87,8.83.87,6.15.08,6.93-.08,11.66-2.44,9.54-4.81,14-12.06,15.22-25.15l.39-5,2.6,2.28c3.08,2.68,5.28,7.33,6.39,13.64,1.26,6.94-.63,12.77-5.21,16.32-3.46,2.6-12.29,6.62-19.62,8.75-11.43,3.39-25.78,2.52-41.7-2.68-11.23-3.28-20.52-11.2-25.54-21.76-2.52-5-2.92-6.31-2.92-10.64,0-7.41,1.11-9.38,6.62-12,7.73-3.71,14-5,24.91-5.13l6.7-.07-1.97,2.58ZM271.16,172.67c3.31-.79,3.23-.79,5.83.32,4.41,1.73,3.86,2.52-1.81,2.52-7.32.04-9.53-1.51-4.01-2.8v-.04ZM254.68,159.51c-.47.15-4.65-.4-9.3-1.19-4.81-.78-14.58-2.12-21.91-2.91-24.83-2.84-36.5-5.91-40.68-10.88-1.73-2.13-2.28-3.55-1.33-3.55.23,0,3.7,1.42,7.8,3.24,13.87,5.83,16.24,6.38,42.17,10.08,9,1.31,24.62,4.77,23.26,5.25v-.04ZM344.47,330c-4.32-2.95-8.91-5.48-13.71-7.56-7.65-3-17.66-5.84-20.5-5.84-5.2-.08-3.86-1.26,6.23-5.59,5.68-2.52,12.69-5.91,15.69-7.73,1.97-1.22,4.03-2.3,6.15-3.23.55,0,1.73,2,2.75,4.49,2.84,6.7,11.83,30.43,11.59,30.59-.08.12-3.7-2.13-8.2-5.13ZM468.78,364.14c-.32,4.88-.79,6.54-3.78,12.37-5.44,11.19-13.33,18.45-26.8,25.3-4.73,2.29-5.84,2.6-10.8,2.6-5.36,0-5.91-.15-11.51-3.31-8.2-4.65-15.69-10.87-25.46-21-12-12.38-28.06-33.5-33.19-43.59-3.23-6.39-15-37-15-39.18-.14-.88-.52-1.7-1.11-2.36-2.44-2.68-4.25-17.82-5.12-42.49-.47-13.64.71-39.33,1.89-40.59.32-.32,3.08.07,6.46.94,1.98.64,4.01,1.11,6.07,1.42l3.16-6.15c2.2-4.33,2.76-5.91,2-6.23-2.53-.4-5.09-.66-7.65-.78-3.78-.32-7.33-.87-8-1.26-1.1-.56-1.26-1.82-1.26-9.46v-8.83l9.22-1.26c22.78-3.16,39-7.18,42.41-10.49,3-3,5.12-10.09,3.07-10.09-.15,0-1,.24-2.36.56-2.29.55-5.83,1.57-9.77,2.68-16.64,4.8-43.52,9.85-44.7,8.43-.31-.24-1.1-4.89-1.73-10.17l-1.26-9.69,2.68-2.68c2.28-2.37,2.6-3,2.13-5.21-.56-3-4.66-7-7.1-7-3.62,0-4.81-4.49-1.5-5.28,1-.32,8.36-3.08,16.32-6.15,13.16-5.13,19.78-7.49,27.75-9.46,4.41-1.1,9.22-2,15.84-3.31,1.81-.32,3.31-.95,3.47-1.5.71-2-4.42-1.81-12.93.16-9.77,2.29-24,6.94-39,13l-12.92,5.12-19.25-.39c-10.56-.32-19.55-.79-19.94-1-.57-.56-.86-1.34-.79-2.13,0-2-1.65-3.54-4.89-4.65-2.2-.71-2.44-.63-3.94,1.5l-1.65,2.13-6.78-.47c-12.3-.79-31.45-4-62.35-10.17-35.16-7.1-44.69-8.2-67.55-8.36-16.24-.08-16.71,0-22.7,2-8.52,2.68-9.23,3.15-17.5,10.8-4,3.71-7.65,6.78-8.2,6.78s-1.34-1-2-2.36c-1.89-3.05-3.97-5.97-6.23-8.75-1.42-1.74-2.76-3.63-3.78-5-.73-.98-1.4-2.01-2-3.07-.71-2-.71-9.07,0-11.67.55-2,14.18-13.79,20.1-17.34,5-3.07,12.69-5.76,23.57-8.28l8.63-2.24h59.75l19.78,2.68c22.2,3.22,44.57,5.01,67,5.36,20,.48,24.6.16,23.1-1.34-.55-.55-7.65-1-20.42-1.34-25.62-.71-45.48-2.36-77.25-6.46-16.11-2.23-32.37-3.13-48.63-2.68-19.23.4-28,1.58-42.72,5.6-10.72,3-14,4.73-23.41,12.69-7.26,5.91-8.28,6.62-8.52,5.28-.39-2,4.18-11.35,8-16.79,6.07-8.51,11.91-13,26-20.1,3.85-1.81,7.57-3.89,11.12-6.23l1.81-1.42-2.13-.08c-2.36,0-19.31,8-24.59,11.51-1.73,1.34-3.39,2.13-3.63,1.89-.63-.55,2.68-5.83,8.2-13,5.52-7.33,12.61-12.93,22.15-17.66,4.89-2.44,6.86-2.91,12.93-3.54,21.2-2.13,47.69-1.5,62.35,1.49,16.63,3.31,44.06,10.8,56.67,15.45,16.43,6.43,31.86,15.18,45.8,26,6.07,4.89,8.28,6.07,8.28,4.58,0-1.11-9.7-9.7-15.22-13.56-13.11-8.86-27.27-16.04-42.17-21.36-17.87-6.14-51.25-14.42-62.41-15.44-14.5-1.34-36.89-1.74-47-.87-5.28.47-9.78.71-9.94.47-.47-.39,7.18-4.33,11.67-5.83,4.18-1.34,21.36-5.75,28.3-7.17,6.07-1.26,44.38-1,48.32.31,5.52,1.82,13,3,26.17,4,25,2,39.65,4.1,57.85,8.59,1.11.24,2.29.56,3.47.87,15.22,3.94,33.9,11.67,54.63,23,20.73,11.33,31,18.68,38.23,27.9,4.36,5.48,6.46,7.67,7.51,7.67,1.27,0,.63-1.66-2.2-5.84-1.58-2.44-2.6-4.25-2.29-4.25.87,0,10.8,8.51,14,12.06,5,5.6,7.65,10.56,14,26.09l6.14,15.45-.39,20.18c-.47,22.7-1.26,35.71-3.31,52.5-5.68,46-7.49,70.94-7.49,101.44s-.08,30.66,6.39,43.67c7.88,15.53,16.63,21.13,25.46,16.08,1.25-.84,2.63-1.45,4.09-1.81,1.49.02,2.6,5.69,2.28,11.61v-.04h0Z"/>
</svg>