<?xml version="1.0" encoding="UTF-8"?>
<svg id="_Слой_1" data-name="Слой 1" xmlns="http://www.w3.org/2000/svg" xmlns:xlink="http://www.w3.org/1999/xlink" viewBox="0 0 507.15 863.96">
  <defs>
    <style>
      .cls-1 {
        fill: url(#linear-gradient);
      }

      .cls-1, .cls-2, .cls-3, .cls-4, .cls-5, .cls-6 {
        stroke-width: 0px;
      }

      .cls-2 {
        fill: #000;
      }

      .cls-3 {
        fill: none;
      }

      .cls-4 {
        fill: url(#linear-gradient-2);
      }

      .cls-5 {
        fill: url(#linear-gradient-3);
      }

      .cls-6 {
        fill: #fff;
      }
    </style>
    <linearGradient id="linear-gradient" x1="96.62" y1="176.64" x2="495.92" y2="176.64" gradientUnits="userSpaceOnUse">
      <stop offset="0" stop-color="#008ef1"/>
      <stop offset="1" stop-color="#2d3492"/>
    </linearGradient>
    <linearGradient id="linear-gradient-2" x1="72.36" y1="586.79" x2="416.62" y2="586.79" gradientUnits="userSpaceOnUse">
      <stop offset="0" stop-color="#f8ff5f"/>
      <stop offset="1" stop-color="#a9cf38"/>
    </linearGradient>
    <linearGradient id="linear-gradient-3" x1="5.28" y1="461.74" x2="342.27" y2="461.74" gradientUnits="userSpaceOnUse">
      <stop offset="0" stop-color="#f4d389"/>
      <stop offset="1" stop-color="#faac7a"/>
    </linearGradient>
  </defs>
  <path class="cls-3" d="M161.77,434.43c-.4-.89-.81-1.78-1.45-2.91-1-.24-1.94-.48-2.9-.64,0,.56-.41,1.53-.08,1.85,1.29.97,2.66,2.58,4.43,1.7Z"/>
  <path class="cls-3" d="M159.84,477.15c-1.7-6.69-2.66-13.54-4.12-20.23-.24-1.05-.88-2.42-1.69-2.66-1.77-.57-1.77,1.45-2.18,2.33-2.9,8.87-5.15,17.34-8.46,26.2-8,28.3-13.46,21.21,14,33.7,4.83,2.42,9.67,4.84,15,5.8,2.5.49,3.95-.72,2.74-3.3-3.38-8.3-7.33-16.36-9.75-25.07-1.59-5.64-4.01-11.05-5.54-16.77Z"/>
  <path class="cls-6" d="M287.21,154.37c-1.37,3,0,5.72.08,9.27,1.21,3,3,3.87,5.32,1.37,1.45-2.34-2.66-10.24-5.4-10.64ZM267.86,166.62c-3.87,4.2-8.06,8.23-11.29,12.9-11.61,13.79-14.75,31.36-17.09,48.61,0,.49-.08.89-.08,1.29,5.24-.24,10.89,1.21,16.13,1,16.28,2.1,42.8,2.82,58.84,11.13.17-.17.25-.33.41-.49,3.3-4.84,6.93-9.43,9.67-14.43,3.95-9.83,13.54-24.51,6.13-34.42-2.1,2.09-1.7,5-2,7.74-.24,3.63-3.46,16.36-8.46,14.19-3.23-3.15-6.77,9.51-17,13.38-12.58,6.85-32.17,4-37.25-11.05-4-13.06-.16-28.05,8.39-38.45,3-3.39-1.61-7.25-2.58-10.64-1-2.05-2.45-2.29-3.82-.76ZM207.8,104.15c-13.54-1.29-27.33,4-37.57,12.82-20.63,16.28-41.91,53.44-24,78,15.24,15.24,38.21,3.22,50.14-10.64.33-1,1.94-2.74.08-2.9-9.83,2.09-21.44-2.58-25.95-11.77-8.47-17.82,3.46-38.13,18.86-47.89,3.47-1.93,12.5-5.4,18.7-5.32-.01-.25.01-.49.08-.73,1.68-2.62,4.01-11.25-.34-11.57Z"/>
  <path class="cls-1" d="M289.46,181.7c1.31-.39,2.65-.69,4-.89,11-3.87,8.55-3.95,2.83-12.49-2.1-1.78-5.16.48-7.18,1.53-4.16,2.58.03,8.14.35,11.85ZM474.23,70.21c6.21-.89,19.91-12.25,21.69-18.14-3.47-.89-6.29,2.42-9.84,1.61.81-4.92,6.77-6.53,8.15-11.28-8.07,1.69-16,5.24-24.27,6.85-10.24,2.09-18.38,9-27.65,12.9-.1-.53-.15-1.08-.16-1.62-.08-.88-.08-1.69-.08-2.57-7.74,1.53-14.84,5.64-23.06,4.75-8.38.4-11.45-7.42-13.46-14.35-3.39-8.3-7-18.94-16-22.41.88,6.29,11,28.14.72,29.43-2.5.24-3.14-1.78-4.51-2.91-15-10.15-27.41-25.15-44.66-31.36-.08,1.05-.32,2.1-.32,3.23-.02.83.01,1.67.08,2.5-28.66-15.08-50.11-25.23-83.96-21.45.32,4.36,5.64,4.84,6.93,8.71-12.34.4-25.15.73-37,4.76-15.56,5.56-31.27,16.36-38.62,31.28,5.81-1.38,10.8-5.16,16.53-6.61,2.66-.81,4-1.7,4.35-4.28.16-1,1.53-1.93,2.26-.8.4.8.89,1.85.64,2.5-1.53,8.06,2.74,16,3.47,24,1.05,6.95,1.62,13.97,1.69,21,0,10.72-1.61,20-4.75,31.44-.81,2.82-1.69,5.82-2.66,9,5.16-3.39,7.33-10.16,10.72-15.24,1.29-2.26,1.21-5.08,3.79-6.69,2-1,.4-4.68,3.22-4.84,2.1-.08,1.37,1.62,1.53,2.66,2.82,5.89,2.42,12.5,2.5,18.87,1.61,15.39-1.93,30.31-3.55,45.38,4.92-2.58,7.34-8.62,11-12.81,5.72-6.94,6.21-16.85,11.85-23.54,1.45,6-3.71,14.91-5.16,21.2-.81,2.9-3.79,5.24-3.55,8.38,5.4-1.85,8.63-7.74,12.34-11.77,11-12.74,14.91-29,18.38-45.14,2.17-14.27,1.53-29.75,8.3-43,.16.85.24,1.71.24,2.58,0,4.27-1.77,8.79-2,13-.65,5-.57,10.16-1.62,15-1.61,7.18.09,14.51-2.33,21.53-3.47,13.22-7.5,26.68-3.79,40.38,2.34,7.34,5.16,21.93,12.33,25.48.81-7.18-1.69-14.43-1.53-21.69-.16-7.09.48-14.27,1-21.44.08-.81,1.13-1.45,1.69-2.18.4.73,1.21,1.45,1.13,2.18-.4,13.62,13.54,27.65,19.83,39.58,7.09,9.43,10.08,21.28,16.2,30.88,3.95-10.16,6.13-22.74.65-33-2-4.36-4.27-9.28-4.44-14.19,5.24,3.3,7.58,11.28,10.57,16.76,6.12,14.19,12.17,28.7,13.94,44.18,4.27,23.54-.89,47.16-8.22,69.41,7.66-.4,18.3-8.95,24.51-13.54,14.57-12.87,26.84-28.14,36.27-45.15-4.98,25.2-25.3,44.54-45.98,58.49-2,1.29-3.55,2.74-3.71,5.48-3.54,13.54-12.73,24.75-23.46,33.54-5.32,3.63,1.94,8.86-3.38,19.34-2.5,6.45,16.28-3.14,18.3-4.43,3.71-1.77,6.29-5.8,10.56-6.37-.23.78-.53,1.53-.89,2.26-.56,1.21-1.29,2.34-1.93,3.47,7.66.4,13.14-6.37,20.47-8-.51.87-.94,1.79-1.29,2.74-.4,1-.72,1.93-1.13,2.9,10.48-3.31,18-13.38,26-20.56,12.58-13.22,26-27.57,30.88-45.63,2.5,2.5-.32,5.73,1.45,8.47,8.22-10.8,14-24.51,21.12-36.44,10.24-19,12.66-41.27,12.5-62.56-.08-2.09.16-4.35-.57-6.2-1.61-4-.64-7.9-.88-11.85-.09-1.54.64-2.5,2.57-1.62,2.34,1.36,5.07,1.87,7.74,1.45-3.14-6.53-9.67-10.88-11.85-18.38-8.62-18.7,4.92-35.63,16.45-49.33-6.21-1.13-10.8,4.59-16.77,5.16.24-5.65,3.55-10.72,7.34-14.75.64-.65.64-1.86,1-2.83-7.41-.24-15,3.55-21,8-1.69,1.21-3.3,2.75-5.32,2.91,5.49-10.64,18.87-14.11,30-16.21,3.95-1.29,9.68.33,12.26-3.46-2.26-3.79-9.44.4-13,.48-6.69.65-13.39,1-20.08,1.53-8,0-14.91,4.44-22.57,5.81,9.36-12.66,38.95-11.13,53.86-12.82ZM299.94,60.7c.25-6.45,11.61-15.4,17-18.79,7.23-4.5,15.59-6.84,24.11-6.77,2.15,0,4.31.09,6.45.32,1.21.08,2.33,1.29,3.46,1.94-1.29.48-2.58,1.45-3.79,1.29-6.69-1.07-13.54-.21-19.75,2.5-7.44,2.49-14.18,6.71-19.66,12.33-2.74,2.34-4.03,6.53-7.82,7.18ZM305.18,59.57c5.73-7.26,17.17.88,23.54,4,5.73,3.63,11.29,7.5,17.74,9.27,4.75,1.61,10.56.32,14.83,3.22-20.23,7.69-36.19-16.25-56.11-16.49ZM381.18,205.16c-2.82-6.21-2.82-13.79-6-19.83-8.87-17.42-21.53-34-23.7-53.85.08-5.08-2.74-16.69,2.25-19.35,1.78,7.09-.32,15,1.78,22.09,1.53,5.72,3.54,11.28,5.48,17,6.99,14.92,25.94,37.57,20.21,53.94h-.02ZM341.06,330.51c4-3.3,10.07-3.14,15-5.24,3.63-1.45,7.18-2.82,10.72-4.11.66-.15,1.33-.26,2-.32-.22,4.51-25.14,13.87-27.72,9.67ZM426.19,144.05c4.51,6.45,6.77-6.37,7.9-9.51,2.09-5.64-2.1-14.19.56-17.49,6.21,6.12,2.66,16.12,1.53,23.94-7.17,17.33-7.9,10.07-17.33-.08-7.25-9.6-30.07-22.25-30.07-33.54,11.21,13.38,27.78,21.77,37.41,36.68h0ZM284.3,184.04c-2.41-1.37-5.4-7-8.3-3.71-17.73,22.33-8.14,59.09,25.07,45.06,7.18-3.46,21-15.64,13.06-23.7-4,4.76-5.64,10.72-12.17,13.46-11.45,4.76-22.9-1.29-21.2-14.27-1.29-6.69,8.46-13.22,3.54-16.84ZM213.56,127.77c-2.9,3.06.41,5.48,2,8.14,1.37,2.34,1.45,5.56,4,7,1.21-1.61,1.05-2.58,1-4.67-.18-6.12,1.91-23.85-7-10.47ZM203.77,74.72c-.48.16-.81.73-1.13,1,2.5.81,6.69.89,8.47-1.53-.69-.57-1.45-1.06-2.26-1.45-1.69.61-3.47,1.25-5.08,1.98ZM207.72,119.46c-5.24,1.13-12.57,1.46-15.15,4-2.83,2.1-5.73,4.12-8.47,6.45-13.87,10.48-20.64,37.65-2.1,46.92,5.49,2.18,14.11,3.63,19.35.4,2.82-4.59,7.26-8.94,8.55-14.18-3.55.48-6.45,3-9.84,4.11-10.72,3-18.94-9-15.23-18.46,7.33-22.3,19.99-10.29,22.89-29.24ZM117.27,141.87c11.95-18.75,26.44-35.76,43.05-50.54,13.75-12.61,29.46-22.9,46.51-30.47,2,.08,2.34-1,2.18-2.58-.81-3.31,1.69-14.92-4.51-11-8.15,3.55-15.64,9.44-23.87,12.26.08-4.76,3.79-9,3.39-14-3.06,2.5-6.69,3.47-10.32,5.64-19.27,11.61-41.35,24.67-50.14,46.36,5.08.08,8.79-4.36,13.95-4.52-6.29,14-16.69,26-22,40.63-3.79,8.14-7.9,16.21-14.59,22.57-1.29,1.86-4.6,3.71-4.28,6.13,11.92,1.53,14.59-13.14,20.63-20.48Z"/>
  <path class="cls-4" d="M291.72,584.99c-6.29,3.15-14,3.63-19.91,7.5,3.3,4.84,9.11,7.09,13.46,10.8,10.24,8.23,20.64,16.29,30.39,25.07,6.78,7.5,19.51,18.22,21.77,27.74-6.77-4.76-11.29-12.26-17.41-17.9-5.24-4.11-13.3-3.06-17.82-8.55,2.66-.56,5.16,1.54,7.9,1.05-1.45-5.24-7.82-6.93-11.85-10-2.66-2.1-5.24-4.52-7.82-6.7-.43-.35-.98-.52-1.53-.48-3.63.48-2.74-5.48-6.53-4.43-3.79.48-4.19-5.24-7.09-6.77-6.37-3.87-18.22-14.35-24.67-14.6.32,7.42,4.75,14.6,5.16,22.25-.08,6.21,3.62,3.79,7,6.78-3.3,1-11.45,1.85-13.78-1.21-2.75-4.28-3.15-9.92-5.73-14-1.21,1.29-.88,2.9-.8,4.43.56,5-.65,9.76-1.54,14.59-3.95,12-16-1.45-18.62-7.65-1.13-2.39-2.04-4.87-2.74-7.42-3.22-9.67-5.48-20.07-15.24-24.91-5-4.19-5.88,3.47-9.91,5.48-3.23,2.34-2.5-2.66-.89-4,1.7-2.26,6.37-4.76,2.5-7.5-16.52-11.77-5.64-17-27.81-15.15-6.85,1.45-13.06,4.43-19.35,7.42-.81.26-1.65.45-2.5.56-.4-5.16,17.74-8.06,12-11.77-21.44-8.87-42.08,5.8-58.6,18.54-1.61,1.29-1.7,3-.32,3.39,10.72,4.35,13.06,17.57,21.52,24.58,1.93,1.62,5.4-.08,6.37-3.38,3.87-14.51,21.36-8.95,32.08-8.39,3.63-.24,8-.88,10.8,1.62-1.53,1.13-3.54.32-5.32.56-3.7,1.13,4.12,5.64,5.65,4.43,2-1,3.54-2.49,6-1.37-.71,1.15-1.79,2.03-3.06,2.5-1,1.29-.81,3.15,1.21,2.82,1.69-.88,3.3-2.33,5.16-3.06-.65,1.21-.89,2.74-1.94,3.63-2.25,1.93-2.17,2.1-.16,4.35,2.62,2.45,5,5.15,7.1,8.06,6,8.07,9.91,17.5,14.59,26.53,12,32.56,7.09,69.65,23.21,101.17,6.05,13.7,16.69,24.58,25.64,36.44,17.17,21.68,41.76,39.42,69.41,43.61,11.77,4.19,60.94-1.78,70.21-5.56,11.94-4.12,18.71-15.24,22.09-26.77,5.89-18.62,14.11-61.51-7.09-72.39-1.61-.81-3.06-.73-4.11,1.21-3.07,5.24-6.13,10.56-9.52,15.56-4.43,5.16-7.73,12.17-13.78,15.56,13.54-23,29.18-47.08,25.39-75.14-1.21-7.9-14.75-2-17.49-9.83,5.16-3.71,10.24,1.93,15.56,1-.4-14.27-4.84-5.89-13.06-7,1.29-4,9.67-2.58,8.87-7.66-1.86-4.91-6.21,2.42-9.35,1.94-.25-5.48,10.07-6,5.07-11.77-3.3-6.29-7.09,8.22-10.72,9-.44-1.2-.44-2.51,0-3.71,1.61-5.08,9.35-9.59,5.89-14.67-13.87-20.88-30.88-39.42-48.21-57.64-3-2.18-11.21-20.08-14.35-12.9-6.07,12.44-19.61,18.41-31.38,24.11ZM176.85,587.59c.16-1.61-.57-2.66-1.54-4.11-1.45-1.29-2.82-2.42-4.11-3.63-5.24-7.65,14.11,4.2,5.65,7.74ZM182.33,582.11c-.81-.64-1.86-1.13-2.34-2-.24-.57.24-1.62.72-2.42.84.64,1.53,1.47,2,2.42.26.47-.3,1.36-.38,2h0ZM186.68,571.71c0,2.18,3.63,11.29.48,11-2.01-1-3.7-10.92-.48-11h0ZM187.97,613.47c-.32-.32-.56-.73-.89-1.13-1.69-2.74-1.77-6.45-2.9-9.59.24-1,.89-2.18,1.21-3.15.56,1.21,1.21,2.42,1.85,3.79.25.81.41,1.62.65,2.42.48,1.94.89,3.79,1.21,5.73.08.56-.73,1.29-1.13,1.93h0ZM204.9,594.12c1.61.24,3.55-.8,4.51,1.29-.31.32-.7.55-1.13.65-1.2-.24-2.49-.65-3.7-.89.16-.4.24-1.05.32-1.05h0ZM203.13,588.64c3.87,2.82-4.76,3.31-4.28,1.05,1.37-.56,2.81-.91,4.28-1.05h0ZM204.82,613.47c-1.61-.24-2.5-1.29-3.87-2.34-1.94-2.5-3.95-4.75-5.64-7.25-.73-1-.73-2.5-1.05-3.71.4.32,1.05.8,1.85,1.53,3.63,3.14,9.84,9.43,8.71,11.77h0ZM209.57,606.05c-2-1.37-3.7-2.82-5.4-4.19-.08-.16-.24-.24-.24-.32-.07-.12-.13-.26-.16-.4,3.79.48,8.87,1.93,10.24,6.12-1.59.29-3.22-.16-4.45-1.21h.01ZM286.48,633.99c1.94-.08,10.56,17.49,5.64,14.51-2.09-4.2-4-8.31-5.88-12.42-.03-.71.05-1.41.24-2.09ZM274.95,606.42c4.28,6.12-1.85,2.66-2.5-.73.85.17,1.68.4,2.5.69v.04ZM268.18,608.19c3.47,1.93,8.22,6.29,5.48,10.32-.4-.24-1.29-.57-1.29-.81,0-6.53-8.14-6.12-9.43-11.53,1.87.26,3.66.94,5.24,1.98v.04ZM270.18,624.63c-2.34,3-6.29,3-9.84,3.87-.72-.5-1.39-1.07-2-1.69,3.22-2.46,8.07-3.91,11.86-2.22l-.02.04ZM250.43,697.27c2.74-1.13,5.24.16,8.06.81.59.46,1.21.89,1.85,1.28-2.23,1.42-8.78.53-9.89-2.13l-.02.04ZM255.02,687.27c2-.48,3.31.65,4.92,1.86,1.77,1.45,3.47,2.74,5.16,4.11.33.52.58,1.09.72,1.69-4.26-.68-9.65-3.18-10.78-7.7l-.02.04ZM267.68,710.49c-1,.48-1.86.73-2.66,1.13,0-.65-.24-1.53,0-1.86,1-.8,2.17-1.37,3.3-2.09-.14.94-.35,1.87-.62,2.78l-.02.04ZM269.45,687.59c-1.45-2.25-2.82-4.27-4-6.44-.32-.65,0-1.54,0-2.34,3.71,1.37,4.6,6,6.77,9,.33.56-.08,1.53-.08,2.25-1.18-.46-2.14-1.36-2.67-2.51l-.02.04ZM274.29,720.16c-.16.49-1,.81-1.45,1.21-.89-3.62-.89-8.46,1.29-11.69.48.57,1.05,1.13,1.69,1.94-.54,2.94-.95,5.76-1.51,8.5l-.02.04ZM270.34,635.16v-1.17c1.13-1.21,6.61-8.87,6.37-4-1.84,2-2.97,5-6.35,5.17h-.02ZM279.13,631.77c.72-1.85,1.37-.4,1.61,0,.56,1.29-1.37,5.24-2.82,5.56-2.48-.97.74-3.79,1.23-5.56h-.02ZM278.32,686.43c.69.88,1.33,1.79,1.93,2.74.65-.57,1.29-1.13,2.1-1.86,1.05-.72,1.85-1.37,2.74-2,.4,4.27-3.3,8.46-7.25,5.16-.95-.66-.71-3.48.5-4.04h-.02ZM279.56,710.61c1.77.81,2.58,2.66,4.11,4.11.4,1.86.64,3.55.89,5.32-2.43-2.58-5.66-5.72-5-9.43ZM284.31,700.37c.09-.08.49.16.81.41,0,4.83,6.29,3.78,8.55,7.17-3.88.89-13.32-2.58-9.37-7.58h.01ZM292.13,692.07c-1.69.24-4.43,2.66-5,.56,2.66-1.45,4.91-4.67,8.14-4.59,0,2.09-1.71,2.74-3.14,4.03h0ZM301.81,641.28c-2.18-2.66-4.19-5.24-6.29-7.82-.16-.24,0-.64-.08-1,4.19,1.53,10.56,6.85,11.69,11.2-2.35.33-3.72-.85-5.32-2.38h0ZM329.38,808.64c-1.13,0-2.18-.73-3.23-1,4.44-3.55,10.64-1.69,16-2.34,4.43.24,2,2.66-1,3-4.2.1-7.99.34-11.78.34h.01ZM332.12,782.92c1.53-.56,2.5.32,3.63,1.21,4,3.23,8.14,6.29,12.41,9.51.08,1,.08,1.78.08,2.58-6.3-2.74-13.39-6.61-16.13-13.3h.01ZM340.56,800.25c-1.5-.56-2.95-1.22-4.35-2-2.58-4,5.56-.48,7.17-.32,1.87,1.84-1.11,2.73-2.82,2.32ZM347.56,812.1c-1.13.34-2.29.53-3.47.57-.44-.32-.8-.73-1.05-1.21,1.3-.65,2.63-1.21,4-1.69.41-.16,1,.32,1.61.48-.5.65-.66,1.61-1.09,1.85ZM349.09,784.29c-.49-3.14-1.05-6-1.53-8.86.1-.56.26-1.1.48-1.62,2.9.89,7.82,14.67,8.38,18-2.14,6.59-6.33-5.26-7.38-7.52h.05ZM362.09,794.05c-.09-1.05-.06-2.11.08-3.15,1.13-2.33,2.09-4.59,3.3-6.77.33-.48,1.53-.48,2.34-.8-1.04,3.86-2.17,8.66-5.79,10.72h.07ZM382.97,811.22c-3.55-.65-6.94-1.29-10.16-2.1-.48-.08-.89-1-1.29-1.53,4.92-1.93,11.61.65,17,.65,4.13,3.22-3.45,3.14-5.62,2.98h.07ZM370.47,791.79c2.26-2.5,4.52-4.76,6.77-7,2.43,2.2-4.42,7.56-6.84,7h.07ZM394.9,794.85c-2.18,3.07-11.29,3-15.48,4.36h-1.21c1.95-2.99,13.63-7.22,16.62-4.36h.07ZM381.45,671.59c1.23,1.86,2.33,3.8,3.3,5.81.48,1.13.24,2.5.24,3.87-3.14-2.74-5.64-6.69-6-10.81.76.33,1.57.73,2.46,1.13ZM378.38,687.23c0,.49-.64,1-1,1.45-1.77-2-1.77-5.08-2.41-7.65-.17-.49.72-1.21,1.21-1.78.64.6,1.2,1.27,1.69,2,.19,2.11.43,4.05.51,5.98ZM373.87,645.39c.19-.31.4-.61.64-.88,1.78-1,2.18-.08,1.86,1.29-.33,1.69-1.78,4.11-3.07,4.19-.24-1.77-.32-3.15.57-4.6h0ZM378.87,753.26c-3.47,2.9-8.47,3.79-12.58,5.64-5.56,1.53-11,4.27-16.77,4-3.06.56-26.28,2.1-25.79-1.85.4-.65,2.49-1.37,3.86-1.13,14,.08,28.22-1.21,41.52-5.57,3.31-1.26,6.37-4.08,9.76-1.09h0ZM345.81,688.2c-.32-3,14.6-19.11,17.5-17.82-.16,1.86-1.37,2.75-2.5,4.2-3.95,3.22-10.64,14.02-15,13.62h0ZM363.31,693.52c-.43.64-.88,1.26-1.37,1.85-.6.41-1.22.79-1.86,1.13-1.53-4.59,3.47-10.72,4.68-15.39.34-.9,1.08-1.59,2-1.86.09,4.84-2.4,9.43-3.45,14.27h0ZM359.56,627.42c2.9.56,7.17,13.7,6.45,17.65-.01.23-.06.45-.16.65-2.66-3.15-3.47-7.5-5.57-11.21-.56-1.93-1-3.71-1.37-5.56.04-.49.45-.96.65-1.53ZM350.69,640.42c2.5.48,5.16,3,7.74,5.4,1.36,1.36,2.82,2.63,4.35,3.79.41.32.16,1.2.24,1.85-.94-.06-1.84-.33-2.65-.81-2.42-1.45-4.36-4.27-6.94-5.72-.97-.92-1.87-1.92-2.66-3-.21-.41-.04-1.05-.04-1.53l-.04.02ZM354.92,650.99c2.74,1.53,5.4,3.38,5.49,4.11-.45.13-.91.19-1.38.16v-.08c-.34.02-.67-.01-1-.08-1.29-.32-2.58-1.05-4-1.37-1.62-1.29-3.15-2.42-4.6-3.63-.24-.24-.24-.73-.32-1.13.65-.51,3.23.54,5.81,2.02ZM341.46,665.71c.57-.33,1.16-.63,1.77-.89,4-1.69,8.71-2.58,12.5-4.51.48-.02.97.01,1.45.08.4.01.79.12,1.13.32,3.22,1.53-15.4,7.74-17.25,8.55-1.53,0-2.74.08-4,.08,1.17-1.53,2.68-2.77,4.4-3.63ZM297.04,464.09c-.72.73-2.09,1.13-2.34,2.1-7,17.65-14.51,35.06-23.7,51.75-3.22,6,7.5,6.61,8.06,11.85-3.78-.32-6.12-3-9.51-4.92-5.32-1.53-8.38,14.19-13.22,17.26-2.9,2.9-5.4,6.36-8.38,9.19-3.63,3.54-7.58,6.77-11.45,10.07-3.63,2.66.16,5.73,1.94,8.31,2.33,3.06,4.59,6.12,8.14,8.06,6.2,2.82,11.53,8.7,18.14,10.24,13-.33,24.1-7.34,35.95-11.85,6.61-2.58,23.46-14.35,22.33-21.69-2.1-3.39-3.63-9.11-7.82-10.08-5.64-.4-12-1.21-16.45-4.27,4.2-2.34,11.05,1.69,15.24-.8,1.21-1.7-2.18-6.53-4.35-6.45-2.1-.25-4.52,1-6.45,0,.32-1,1.21-1.29,2.18-1.54,7.49-1.85,1.45-8.22.4-12.73-2.84-11.23-5.05-22.62-6.61-34.1-2.02-6.69.08-13.95-2.1-20.4ZM277.69,542.69c-1,.32-2.17.73-3.3,1-.08.08-.4-.32-.57-.48.97-.55,1.97-1.04,3-1.46.35.25.65.57.87.94ZM274.15,531.49c.48.32.8.64,1.13.88-4.04,5.32-11.37-5.8-1.13-.88ZM266.97,551.88c-1.31.49-2.64.89-4,1.21-.16,0-.4-.56-.56-1,2-1.21,3.79-2.42,6.29-2.25-.52.59-1.08,1.32-1.73,2.04ZM262.97,538.98c1.53-1.45,3.23-1.45,5.4-1.69,2.18.16,4,.32,6,.56.49.15.95.37,1.37.65-.79,1.61-11.75,1.77-12.8.49h.03ZM273.66,560.59c-.8.8-1.45,1.53-2.17,2.17-.25.25-.73.25-1,.33-1.45-2.34,5.48-11.77,8.06-12.34.43,3.87-2.99,6.69-4.89,9.84ZM279.15,517.54c-.57-11,8.7,8,6,10.08-3.59,1.77-6-7.34-6-10.08ZM284.15,561.23c-1.69-3.22-.32-6.85-.32-10.32,0-.24.73-.48,1.45-.64.34,2.86.47,5.74.41,8.62-.13.81-.98,1.54-1.54,2.34h0ZM290.15,557.77c-.48-.49-1.29-.89-1.29-1.29-.13-2.2-.11-4.41.08-6.61.42-.11.85-.17,1.29-.17-.04,2.58,2.14,6.13-.12,8.07h.04ZM290.95,527.77c-.25-1.14-.14-2.32.33-3.39.35-1.18.89-2.3,1.61-3.3.4-.57,1.29-.81,1.93-1.21,1.09,1.94-1.57,7.83-3.91,7.91h.04ZM309.74,557.92c-5.32-.16-8.71-4.44-13.14-7.1-.65-1.05-1.13-2-1.69-3,5.96,1.55,11.19,5.12,14.79,10.11h.04ZM299.06,526.65c-3.47-.49,1.93-3.47,3-4.19.38,2.53-1.5,3.22-3,4.19ZM269.71,380.99c-3.36,2.42-7.49,3.49-11.6,3-1.94,1.61-3.87,3.14-5.73,4.76.48,2.17,1.69,4.27-1.69,4.27-4.35-.16-6.69,3.63-9.27,6.53-3.47,4.35-1.94,10.4-2.42,15.64.4,4.84-1.45,10.4,1.29,14.59,4-2.66,4.43-8.22,7.33-11.77,3.31-4.84,7-9.27,10.65-13.79,7.82-11.77,18.38-10.64,13.14-16.12,2.9-2.17,4.67,2.58,7.49,1.05,5.89-2.58,12.74-1.13,18.71-2.1.48-3.7-2.5-6.2-4.2-9.11-5.4-8.01-16.04,4.65-23.7,3.05ZM225.46,754.47c-3.59-6.08-6.69-12.43-9.27-19-2.83-5.64-2.5-12.82-6.29-17.9-2,3.31-2.18,7.5-2.26,11.21.73,9.43-1.37,18.62-1.61,28-.28,2.46,1.19,4.78,3.54,5.57,9.6,4.19,18.3,8.94,28.62,12,1.21-2.26-.64-3.31-1.77-4.84-3.71-4.97-7.86-9.72-10.96-15.04ZM149.36,406.53c2.33,7.34,2.66,16.69,9.75,21.2,2.74,1.78,6.37,4.12,4.6,7.82-1,3.71-6.13-.4-6.45,3.15-.57,3.3,2.66,2.9,5,3.71-2.74,2.58-5.32,4.27-3.46,8.54,1.85,2.74,3.71-.48,6,0-.72,3.55-4.67,5.64-3.46,9.76,1.93,6.77,3.22,13.78,5,20.63,3.39,11.21,7.42,22.25,11.45,33.3,2,4,2.66,9.43,6.45,11.93-.8-18.54-1.53-37.49,3.47-55.71,1.29-6.12,2.58-12.25,4-18.38.88-5.16-6.77-4.11-9.84-6-.88-.33-1.37-1.45-2-2.26,8-3.31,14.59,9.27,14.51-7.58-4.27-.4-8.14,2.9-12.09,2.26,1-2.9,6.69-5,9.83-5.08,3.47,0,4.11-.48,5.16-3.71,5.56-11.36-10.16-6.21-14.75-10.64-11.69-12.25-10.4-32.73-6.61-48.29,1.53-3.79,3.14-14.59,6.12-19.91-.76-.63-1.77-.89-2.74-.72-5.64,2.33-36.35,9.51-34.34,16-.38,13.47,1.1,26.92,4.4,39.98ZM179.83,451.68c.35.64.51,1.36.48,2.09-.4.33-.8.73-1,.73-1.85-1.13-1.93-2.9-1.85-4.84.86.58,1.66,1.26,2.37,2.02ZM181.76,432.33c.84-.64,1.76-1.15,2.74-1.53-.1.79-.26,1.57-.48,2.34-.4.24-.81.48-1.13.64l-1.69.73c.16-.73.08-1.7.56-2.18h0ZM180.88,424.27c0,.88,0,1.69-.08,2.58-.5,1.28-1.09,2.52-1.78,3.71-.32.48-1.37.48-2.09.64.32-2.66,1.45-5.56,3.95-6.93h0ZM167.17,459.17c1.13,1.54.4,4,.32,5.81-.16.8-1.29,1.37-2,2.09-.08-1.12-.32-2.33-.32-3.62.64-1.37,1-2.66,1.61-3.87.07-.25.31-.33.39-.41ZM163.71,417.34c1.69,2.74,3.86,6.12,2.33,9.43-.56-.57-1.37-1-1.69-1.7-.82-2.05-1.52-4.15-2.1-6.28.42-.54.91-1.03,1.46-1.45h0ZM143.79,661.92c-.37-.94-.88-1.81-1.53-2.58-6.53,7.26-8.54,18.14-13.38,26.6-2.58,5.57-5.64,10.81-8.22,16.29-3.31,4.51-1.45,7.57,2.9,10.32,4.67,3.62,9.27,7.17,14.11,10.48,5.8,4,11.69,7.73,17.65,11.44,1.69.81,3.15-.56,2.74-2.42-3.63-18.38-7.17-36.51-11.45-54.81-.96-5.08-1.77-10.16-2.82-15.32ZM81.4,655.23c3.79-16,6-32.09,10.64-47.81,1.89-7.63,4.73-15,8.46-21.92,1.53-2.74.89-4.28-2.17-5.32-7.26-2.5-14.11,16-16.93,21.36-7.82,13.78-14,52.32-3.39,64.73,2.82-2.82,2.26-7.28,3.39-11.04Z"/>
  <path class="cls-5" d="M248.19,384.93c-3.63-.16-4.84,2.42-6.77,5.24-.08.24-.08.48-.16.64-.06.66-.09,1.33-.08,2,3.47-1.34,6.08-4.28,7.01-7.88ZM309.46,334.3c.08,4-2.66,13.22-7.26,14-.24-3.23,2.42-6,3.23-9.19,2.74-7.26-2.1-13.06-7.9-10.32-.65.32-1.13,2.42-.73,3.22,3.39,4.44-2.1,16.53-6.85,17.58,0-3.31,2.34-5.89,3.38-8.87,3.55-6.53-1.93-14.67-9.35-11.61-5.64,1.13,3.07,10.72-5,16.45-.64-2.34.89-4.27,1.21-6.53,1.13-6.53-7.57-10.32-12.17-6.21-3.39,3.39-11.37,8.47-12.41,12.74,3.46-.24,6.61-2.42,10.15-2.74-5.32,8.22-22.81,8.7-31.6,14-15.48,7.63-18.6,25.17-23.6,39.96-4.43,14.83-8.46,29.83-12.41,44.9-6.69,26.6-12.34,53.69-10.4,81.34.08,3.87,1.05,7.34,5.8,8.63,13.63,4.19,25.56,13.22,34.1,24.5,5,10.08,27.49-17.41,30.64-22.33,12.33-21.92,24.34-44.33,32-68.44,5.72-16.52,14.19-33.29,13.87-51.19-.33-5.72-1.29-11.37-1.94-17-.08-5.88-6.53-7-11.12-6.69-23.54,2.82-37.17,24.43-48.13,43.13-7.9,14.35-1.05,43.37-.56,60.3-.17,6.93,3.14,20.23-1,25.47-3.39-7-2.34-15.72-3.47-23.37-.64-8.07-1.53-16.13-1.93-24.27-.73-26.28-1.86-52.64,1.53-78.76.48-11,11.77-12.9,20.72-14,17.41-3.14,37.8-6.21,49.41-21.12,4.6-7.41,13.71-17.25,8.47-26.28-2.25-2.7-8.94-2.05-6.68,2.7ZM183.21,353.49c-2,11.53-7.09,27.81-6.45,38.05,1.62,7.82.73,18.62,8.15,23.7,5.08,2.66,15.39,7.66,17-1.05,5.48-16.44,8.06-33.53,17.41-48.69.72-1.85,7.9-7.74,3.63-8.46-5.24-.49-10.56-.81-15.8-1.54-5.73-.56-11.21-3.14-17-2.09.08,4,3.71,6.69,3.79,10.56-2.38-.49-7.9-6.61-10.73-10.48ZM221.1,352.92c4.19.89,8.31,2.1,12.58.25,3.95-1.7,8.14-3,12.09-4.6,1.94-.81,4.43-1.53,5.32-3.14,5.08-6.61,15.24-19.51,24.35-17.09,1.88.55,3.91.26,5.56-.81,4.84-4,10.56,0,15.64-1.69,6.69-3.31,11.12,4.11,18.3,1.29,6.37-.65,27.41-27.9,27.33-34.26-4.2-.33-19.27,7.82-13.22-2,9-23.14,13.14-48.85,8.94-73.44-2.9-8.06-5.64,3.55-7.57,6.13-3.71,7.09-8.79,13.14-14,19.18,1.69,1,3.29,2.16,4.76,3.47-2.5-.48-4.92-1-7.42-1.53h-.2v-.08c-11.45-2.58-23.14-6.21-34.75-7.9-15.88-1.7-32.16-2.1-47.8-4.44,1.86-1.35,4.02-2.24,6.29-2.58-.24-2.34-.11-4.7.4-7,.32-14.35,3.63-29.1,11.85-41,4.76-7.54,10.53-14.37,17.17-20.32,1.31-1.24,1.89-3.06,1.53-4.83-1.13-4.6-.4-10.16-3.46-14-5,4.84-8.23,11.29-13.87,15.48-4.76,4.27-11.53,6.45-16.45,10.4-5.15,5.4-16,14.51-11-.25,1.21-10.31,2.1-20.71,4.43-30.79,0-10-.24-19.91-.32-29.91.24-1.21-.8-1.61-1.45-2.26-4,4.68-1.85,10.89-1.61,16.53,0,8.38.64,17.09-2.58,25-10.64,25.48-28.86,58.45-60.14,58.53-43.37-6.13-22.17-63.69-1.45-84.24,10.72-12.34,25.63-23.46,42.56-24.27,3.31-.32,9.76,1.61,9.68-3.39-1-4.27,3.06-16.6-4.52-14.83-8.14,2.26-16.6,3.23-23.62,8.63-1,.72-2.5.72-3.71.88,6.62-8.78,17.5-14.83,28-18.3.93-.4,1.6-1.25,1.77-2.25,0-5.89-4-4.19-7.5-1.21-57.31,34.42-107.7,93.51-108.83,163.16-.8,31.2,11.21,72.31,37.65,90.93,19.35,14.68,41.6,25.4,65.7,29,7.69,2.1,15.59,2.83,23.57,3.55ZM187.97,214.75c5.4,2.74,11.61,6.45,13.06,12.66-10.16-6.45-16-13.39-29.42-9.92-4.52,1.37-7.66,4.27-10.89,7.34-.88.8-2.25,1-3.38,1.61,3.38-12.17,19.83-16.85,30.63-11.69ZM139.97,279.48c6.45.25,11.85,5,18.3,6.37,28.54,5.57,58.05,2.82,85.37-6.53,4.28-1.69,9.84-2.66,12.74-6.53-2.17-1.61-4.92-.16-7-1.61,1.29-2.66,6.37-2.34,9-2.66,5.24.4,11.61,3.31,13.94,8.14-6.28.24-7.17-6.37-15-.08-8.71,6.13-19.51,8.39-29.51,11.69-20.49,6.77-73.25,8.3-87.81-8.79h-.03ZM147.18,591.14c-10.4-4.51-4.76,36-4.35,41.68,5.73,38.93,15.55,77.31,21.92,116.17,2.91,19.59,9,38.86,8.47,58.85-.41,13.14-13.63,20.08-22.82,27.25-8,4.35-15.07,17.17-3.87,22.65,4.01.99,8.08,1.72,12.18,2.18,5.16-1.21,10.4-2.18,15.23-4,20.64-7.18,33.06-21.77,29.19-44.26-.89-13.7-.89-27.33-.49-41,.16-26.68,2.18-53.29,3.23-79.81-3.39-26.68-8.87-53.37-25.4-75.37-8.86-10.72-19.1-21.49-33.29-24.34ZM115.26,557.68c6.85-3.3,14.35-5.32,21.44-7.9,8.54-1.85,17.49,1.05,25.31,4.44,4.92,3.06,10.16,1.45,15.48,1,4-.25,6.93,1.85,9.19,5,6,9.36,16.53,14,24.43,21.37,7.66,8.22,10.07,19.83,13.94,30.07.33.72,1.53,1.13,2.34,1.61.16.08,1.05-.89,1.05-1.37.38-6.09-.38-12.2-2.26-18-.24-.8.24-1.85.4-2.74,4.6,3.63,3.87,13.95,3.87,19.43-.24,2.74-1.93,5.48.49,7.82,4.92-8.71-.32-20.72,1.29-30.39,4.27,4.83,3.63,13,3.63,19.1-.49,4.11.48,8.31-1.29,12.18-.25.56.24,1.45.4,2.09,5.48-1.05,3.63-9.67,4.43-13.78,0-5.81.73-11.61-.88-17.34-.17-.48.4-1.12.56-1.69,2.34,1,2.9,3.87,4,6,2.42,5.64,5.89,10.8,6.85,17.09.16.8,1.21,1.45,1.78,2.17,2-3,.4-6.28-.25-9.43-3.14-17.89-12.57-31.28-24.82-44.18-13.15-18.13-29.91-23.7-49.66-31.92-13.14-5.16-26.12-10.64-39.26-15.88-6.85-2.18-14.76-2.58-21.61,0-2.58.81-4.75,2.82-7.58,2.26.65-2.74,3-3.47,5.16-5.32,7.9-6,17.66.08,19.11-7.5,5.32-16.53,10.8-33.13,17.57-49.26,7.34-15.88-3.22-33-5.72-48.93-3.14-12.49-2.5-25.15-2.74-37.65-2.58.17-4.19,2.74-6.13,4.28-8.3,7.9-16,16.52-19.67,27.65-6.12,16.12-12.82,32-16.93,48.77-5.72,21.2-24.5,94.24-3,107.22,5.61,1.64,13.76,7.68,19.08,3.73ZM137.75,592.67c-8-.24-6.29,9.76-11.37,13.38-3.71,2.66-8.3-.32-10.4-3.46-4-4.6-5.56-12.42-11.12-15.32-.65-.08-1.94,1.45-2.26,2.5-5.56,14.51-10.4,29.34-12.66,44.82-2.82,14.11-7.09,27.49-9.35,41.92-5.24,23.38-10.48,46.84-16.44,70.14-4.44,22.49-13.63,45.7-35.07,57-7.74,4.92-15.72,9.67-21.93,16.61-5.59,7.81,2.34,15.73,10.64,14.73,17.82.16,34.43-8,48.37-18.3,7.74-5,7.58-14.59,9.76-22.41,5-15.08,8.7-30.63,16.12-44.66,17.41-33.78,35.23-68,48.69-103.43-3.06-17.73-5.24-35.54-2.98-53.52Z"/>
  <path class="cls-2" d="M388.78,107.37c0,11.29,22.82,23.94,30.07,33.54,9.43,10.15,10.16,17.41,17.33.08,1.13-7.82,4.68-17.82-1.53-23.94-2.66,3.3,1.53,11.85-.56,17.49-1.13,3.14-3.39,16-7.9,9.51-9.63-14.91-26.2-23.3-37.41-36.68ZM384.75,677.4c-.97-2.01-2.07-3.95-3.3-5.81-.89-.4-1.7-.8-2.5-1.13.4,4.12,2.9,8.07,6,10.81.04-1.37.28-2.74-.2-3.87ZM379.35,799.21c4.19-1.37,13.3-1.29,15.48-4.36-3-2.9-14.67,1.37-16.69,4.36h1.21ZM375,680.99c.64,2.57.64,5.64,2.41,7.65.33-.48,1-1,1-1.45-.08-1.93-.32-3.87-.48-6-.49-.73-1.05-1.4-1.69-2-.52.63-1.41,1.35-1.24,1.8ZM376.37,645.8c.32-1.37-.08-2.34-1.86-1.29-.24.27-.45.57-.64.88-.89,1.45-.81,2.83-.57,4.6,1.26-.08,2.74-2.5,3.07-4.19ZM371.45,807.59c.4.48.81,1.45,1.29,1.53,3.22.81,6.61,1.45,10.16,2.1,2.17.16,9.75.24,5.56-3-5.4.02-12.09-2.56-17.01-.63ZM377.17,784.78c-2.25,2.25-4.51,4.51-6.77,7,2.42.57,9.27-4.79,6.77-7ZM364.76,681.11c-1.21,4.67-6.21,10.8-4.68,15.39.64-.34,1.26-.72,1.86-1.13.49-.59.94-1.21,1.37-1.85,1-4.84,3.54-9.43,3.46-14.27-.92.27-1.67.96-2.01,1.86ZM362.1,790.9c-.14,1.04-.17,2.1-.08,3.15,3.62-2,4.75-6.86,5.72-10.72-.81.32-2,.32-2.34.8-1.21,2.18-2.17,4.44-3.3,6.77ZM365.89,645.72c.1-.2.15-.42.16-.65.72-4-3.55-17.09-6.45-17.65-.24.56-.65,1-.65,1.53.41,1.85.81,3.63,1.37,5.56,2.1,3.71,2.91,8.06,5.57,11.21ZM355.56,134.22c-2.1-7.1,0-15-1.78-22.09-5,2.66-2.17,14.27-2.25,19.35,2.17,19.83,14.83,36.43,23.7,53.85,3.14,6,3.14,13.62,6,19.83,5.73-16.37-13.22-39-20.15-53.93-1.97-5.73-3.98-11.24-5.52-17.01ZM356.05,325.27c-4.92,2.1-11,1.94-15,5.24,2.58,4.2,27.49-5.16,27.73-9.67-.67.06-1.34.17-2,.32-3.55,1.29-7.1,2.66-10.73,4.11ZM353.47,644.91c2.58,1.45,4.52,4.27,6.94,5.72.81.48,1.71.75,2.65.81-.08-.65.17-1.53-.24-1.85-1.53-1.16-2.99-2.43-4.35-3.79-2.58-2.42-5.24-4.92-7.74-5.4,0,.48-.16,1.12.08,1.53.8,1.07,1.69,2.07,2.66,2.98ZM354.12,653.7c1.37.32,2.66,1,4,1.37.33.07.66.1,1,.08v.08c.47.03.93-.03,1.38-.16-.09-.73-2.75-2.58-5.49-4.11-2.58-1.45-5.16-2.5-5.72-2,.08.4.08.89.32,1.13,1.36,1.19,2.89,2.32,4.51,3.61ZM347.99,773.81c-.22.52-.38,1.06-.48,1.62.48,2.9,1,5.72,1.53,8.86,1,2.26,5.24,14.11,7.33,7.5-.56-3.31-5.48-17.09-8.38-17.98ZM360.81,674.58c1.13-1.45,2.34-2.34,2.5-4.2-2.9-1.29-17.82,14.84-17.5,17.82,4.36.4,11.05-10.4,15-13.62ZM342.99,811.46c.25.48.61.89,1.05,1.21,1.18-.04,2.34-.23,3.47-.57.48-.24.64-1.2,1-1.85-.56-.16-1.2-.64-1.61-.48-1.34.48-2.64,1.05-3.91,1.69ZM341.06,669.26c1.85-.81,20.47-7,17.25-8.55-.34-.2-.73-.31-1.13-.32-.48-.07-.97-.1-1.45-.08-3.79,1.93-8.47,2.82-12.5,4.51-.61.26-1.2.56-1.77.89-1.73.86-3.25,2.1-4.43,3.63,1.29,0,2.53-.08,4.03-.08ZM336.22,798.24c1.4.78,2.85,1.44,4.35,2,1.7.41,4.68-.48,2.82-2.33-1.61-.15-9.75-3.62-7.17.33ZM348.15,793.64c-4.27-3.22-8.38-6.28-12.41-9.51-1.13-.89-2.1-1.77-3.63-1.21,2.74,6.69,9.83,10.56,16.12,13.3,0-.8,0-1.61-.08-2.58ZM342.11,805.25c-5.33.65-11.53-1.21-16,2.34,1.05.32,2.1,1,3.23,1,3.79,0,7.58-.24,11.69-.4,3.09-.28,5.53-2.7,1.08-2.94ZM323.73,761.08c-.49,3.95,22.73,2.41,25.79,1.85,5.81.24,11.21-2.5,16.77-4,4.11-1.85,9.11-2.74,12.58-5.64-3.39-3-6.45-.17-9.76,1.12-13.3,4.33-27.49,5.58-41.55,5.58-1.34-.28-3.43.44-3.83,1.09ZM361.29,76.09c-4.27-2.9-10.08-1.61-14.83-3.22-6.45-1.77-12-5.64-17.74-9.27-6.37-3.15-17.81-11.29-23.54-4,19.92.21,35.88,24.15,56.11,16.49ZM327.43,41.19c6.21-2.71,13.06-3.57,19.75-2.5,1.21.16,2.5-.81,3.79-1.29-1.13-.65-2.25-1.86-3.46-1.94-2.14-.23-4.3-.33-6.45-.32-8.52-.07-16.88,2.27-24.11,6.77-5.4,3.39-16.76,12.34-17,18.79,3.79-.65,5.08-4.84,7.82-7.18,5.48-5.62,12.22-9.84,19.66-12.33ZM299.06,526.65c1.53-1,3.38-1.69,3-4.19-1.07.72-6.5,3.7-3,4.19ZM296.56,550.83c4.43,2.66,7.82,6.94,13.14,7.1-3.62-4.99-8.86-8.55-14.83-10.08.56.97,1.04,1.93,1.69,2.98ZM295.43,632.5c.08.32-.08.72.08,1,2.1,2.58,4.11,5.16,6.29,7.82,1.61,1.53,3,2.74,5.32,2.42-1.13-4.39-7.5-9.75-11.69-11.24ZM294.78,519.88c-.64.4-1.53.64-1.93,1.21-.72,1-1.26,2.12-1.61,3.3-.47,1.07-.58,2.25-.33,3.39,2.34-.08,5-5.97,3.87-7.9ZM288.9,549.87c-.19,2.2-.21,4.41-.08,6.61,0,.4.81.8,1.29,1.29,2.26-1.94.08-5.49.08-8.07-.44,0-.87.06-1.29.17ZM292.12,692.07c1.46-1.29,3.15-1.94,3.15-4-3.23-.08-5.48,3.14-8.14,4.59.56,2.07,3.3-.35,4.99-.59ZM286.48,633.99c-.19.68-.27,1.38-.24,2.09,1.85,4.11,3.79,8.22,5.88,12.42,4.92,2.94-3.7-14.63-5.64-14.51ZM285.11,700.78c-.32-.25-.72-.49-.81-.41-3.95,5,5.49,8.47,9.36,7.58-2.26-3.39-8.55-2.34-8.55-7.17ZM283.82,550.91c0,3.47-1.37,7.1.32,10.32.57-.8,1.45-1.53,1.54-2.34.06-2.88-.07-5.76-.41-8.62-.71.16-1.45.4-1.45.64ZM285.11,527.62c2.74-2.1-6.53-21-6-10.08.04,2.74,2.45,11.85,6,10.08ZM279.56,710.61c-.65,3.71,2.58,6.85,5,9.43-.25-1.77-.49-3.46-.89-5.32-1.54-1.45-2.35-3.3-4.11-4.11ZM280.76,631.77c-.24-.4-.89-1.85-1.61,0-.49,1.77-3.71,4.59-1.21,5.56,1.45-.34,3.38-4.27,2.82-5.56ZM285.11,685.3c-.89.64-1.69,1.29-2.74,2-.81.73-1.45,1.29-2.1,1.86-.6-.95-1.24-1.86-1.93-2.74-1.21.56-1.45,3.38-.48,4,3.95,3.34,7.7-.85,7.25-5.12ZM274.39,543.74c1.13-.32,2.26-.73,3.3-1-.23-.35-.53-.65-.88-.89-1.03.42-2.03.91-3,1.46.18.11.5.51.58.43ZM275.28,532.37c-.33-.24-.65-.56-1.13-.88-10.24-4.92-2.91,6.2,1.13.88ZM272.86,721.33c.48-.4,1.29-.72,1.45-1.21.56-2.74,1-5.56,1.53-8.54-.64-.81-1.21-1.37-1.69-1.94-2.18,3.23-2.18,8.07-1.29,11.69ZM274.95,606.38c-.82-.3-1.65-.55-2.5-.73.65,3.39,6.78,6.85,2.5.73ZM270.36,633.99v1.21c3.38-.17,4.51-3.15,6.37-5.16.24-4.96-5.24,2.7-6.37,3.95ZM270.56,563.09c.24-.08.72-.08,1-.33.72-.64,1.37-1.37,2.17-2.17,1.94-3.15,5.32-6,4.92-9.84-2.65.57-9.58,10-8.09,12.34ZM274.31,537.85c-1.94-.24-3.79-.4-6-.56-2.17.24-3.87.24-5.4,1.69,1.05,1.29,12,1.13,12.74-.48-.41-.28-.87-.5-1.34-.65ZM270.2,624.59c-3.79-1.69-8.63-.24-11.85,2.18.61.62,1.28,1.19,2,1.69,3.56-.88,7.51-.88,9.85-3.87ZM265.04,711.58c.8-.4,1.69-.65,2.66-1.13.28-.92.49-1.87.64-2.82-1.13.72-2.25,1.29-3.3,2.09-.24.33,0,1.21,0,1.86ZM272.29,687.8c-2.17-3-3.06-7.66-6.77-9,0,.8-.32,1.69,0,2.34,1.13,2.17,2.5,4.19,4,6.44.55,1.16,1.53,2.06,2.74,2.5-.05-.75.36-1.72.03-2.28ZM272.37,617.66c0,.24.89.57,1.29.81,2.74-4-2-8.39-5.48-10.32-1.58-1.05-3.37-1.73-5.24-2,1.29,5.39,9.43,4.98,9.43,11.51ZM262.94,553.09c1.36-.32,2.69-.72,4-1.21.65-.72,1.21-1.45,1.7-2-2.5-.17-4.28,1-6.29,2.25.21.4.43.96.59.96ZM265.12,693.2c-1.69-1.37-3.39-2.66-5.16-4.11-1.61-1.21-2.9-2.34-4.92-1.86,1.13,4.52,6.53,7,10.8,7.66-.14-.6-.39-1.17-.72-1.69ZM250.45,697.23c1.13,2.66,7.66,3.55,9.91,2.09-.64-.39-1.26-.82-1.85-1.28-2.82-.65-5.32-1.94-8.06-.81ZM209.41,595.41c-1-2.09-2.9-1-4.51-1.29-.08,0-.16.65-.32,1,1.21.24,2.5.65,3.7.89.43-.09.82-.3,1.13-.6ZM203.77,601.14c.03.14.09.28.16.4,0,.08.16.16.24.32,1.7,1.37,3.39,2.82,5.4,4.19,1.22,1.05,2.85,1.49,4.44,1.21-1.37-4.19-6.45-5.64-10.24-6.12ZM203.13,588.64c-1.47.14-2.91.49-4.28,1.05-.48,2.3,8.15,1.77,4.28-1.05ZM196.11,601.7c-.8-.73-1.45-1.21-1.85-1.53.32,1.21.32,2.66,1.05,3.71,1.69,2.5,3.7,4.75,5.64,7.25,1.37,1.05,2.26,2.1,3.87,2.34,1.13-2.34-5.08-8.63-8.71-11.77ZM257.3,276.58c7.82-6.29,8.71.32,15,.08-2.33-4.83-8.7-7.74-13.94-8.14-2.58.32-7.66,0-9,2.66,2.09,1.45,4.84,0,7,1.61-2.9,3.87-8.46,4.84-12.74,6.53-27.32,9.35-56.83,12.1-85.37,6.53-6.45-1.37-11.85-6.12-18.3-6.37,14.52,17.09,67.32,15.56,87.79,8.79,10.05-3.28,20.82-5.56,29.56-11.69ZM186.68,571.71c-3.22.08-1.53,10,.48,11,3.15.28-.48-8.82-.48-11ZM187.24,603.39c-.64-1.37-1.29-2.58-1.85-3.79-.32,1-1,2.1-1.21,3.15,1.13,3.14,1.21,6.85,2.9,9.59.33.4.57.81.89,1.13.4-.64,1.21-1.37,1.13-1.93-.32-1.94-.73-3.79-1.21-5.73-.24-.82-.4-1.61-.65-2.42ZM184.02,433.14c.22-.77.38-1.55.48-2.34-.98.38-1.9.89-2.74,1.53-.48.48-.4,1.45-.56,2.18l1.69-.73c.32-.16.73-.4,1.13-.64ZM180.71,577.68c-.48.8-1,1.85-.72,2.42.48.88,1.53,1.37,2.34,2,.08-.64.64-1.53.4-2-.48-.95-1.17-1.78-2.02-2.42ZM180.8,426.85c.08-.89.08-1.7.08-2.58-2.5,1.37-3.63,4.27-3.95,6.93.72-.16,1.77-.16,2.09-.64.69-1.19,1.28-2.43,1.78-3.71ZM179.34,454.5c.17,0,.57-.4,1-.73.03-.73-.13-1.45-.48-2.09-.71-.75-1.49-1.42-2.34-2-.11,1.92-.03,3.69,1.82,4.82ZM171.2,579.85c1.29,1.21,2.66,2.34,4.11,3.63,1,1.45,1.7,2.5,1.54,4.11,8.46-3.54-10.89-15.39-5.65-7.74ZM165.48,467.07c.72-.72,1.85-1.29,2-2.09.08-1.78.81-4.27-.32-5.81-.08.08-.32.16-.4.41-.57,1.21-1,2.5-1.61,3.87,0,1.29.25,2.54.33,3.62ZM166.04,426.77c1.53-3.31-.64-6.69-2.33-9.43-.55.42-1.04.91-1.46,1.45.58,2.13,1.28,4.23,2.1,6.28.32.65,1.13,1.13,1.69,1.7ZM171.61,217.49c13.46-3.47,19.26,3.47,29.42,9.92-1.45-6.21-7.66-9.92-13.06-12.66-10.8-5.16-27.25-.48-30.63,11.69,1.13-.56,2.5-.81,3.38-1.61,3.23-3.07,6.37-5.97,10.89-7.34ZM489.15,65.29c5.24-6.53,16-13,18-21-3.95-.4-7.17,3.15-11.2,3.23,1.77-5.89,8.14-8.71,9.83-14.52-1.37-.08-2.74-.48-3.87.57-9.27,5-19.59,7.5-29.5,11.12-7.26,2.34-14.59,4.44-20.88,9.11-1.13.73-2.26.81-2.42-.8-.16-2.34-1.69-2-2.9-1.53-6.77,3-13.54,6-20.8,7.33-5.48,1.37-13.7.89-15.72-5.4-1.48-13.5-10.19-35.41-26.71-33.33,1.93,11.12,8.58,21.28,8.58,32.73-13.26-6.81-21.8-21.13-34.86-28.81-4.44-2.91-18.71-12.82-22.9-7.34-1,3.39-2.74,1.45-4,.73-4.11-2.26-8-5.08-12.25-7.1C296.64-.49,271.08-2.01,248.43,2.09c.16,2.74,5.32,6.61,4.11,7.82-12-.12-23.88,2.38-34.82,7.33-5.1,2.32-9.89,5.26-14.27,8.75-6.93,4.84-11.37,13.38-18.95,17.33-20.88,6.94-40.55,18.14-54.65,35.47-6.61,9-15.4,19.27-14.67,30.72,4.91-.49,7-6.13,11.76-7.18-.72,4.44-4.67,7.34-6.44,11.29-4,7.74-7.58,15.8-11.61,23.54-4.35,8.8-10.03,16.88-16.85,23.94-1.61,1.69-1.53,2.9.56,3.63,3.23,1.69,11.77-.65,8.87,5.48-3.55,9.43-7.34,18.78-9.35,28.7-6.53,32.65-3.71,67.47,12.74,96.9,9.83,21.2,29.9,35.31,50.46,45.47,39.74,15.23-8.3,1.53-32.16,35.06-10.89,13.22-15,30.31-21.61,45.79-6.93,23.7-13.22,47.81-15.8,72.39-4.27,20.88-9,56.68,16.2,65.7,3.71,1.05,3.23,3.07.89,5.24-22.25,17.26-31.76,46.36-34.1,73.61-2.82,38.61,12.66,25.47,5.64,49.57-5.64,20.88-9.19,42.25-14.67,63.13-3.63,12.81-7.9,27.89-17.41,37.56-3.79,3.06-8.22,5.32-12.33,8-9.27,6-19,11.37-26.37,19.91-4.75,5.57-4.83,11.69-.08,17.09,8.47,8.87,22.74,5.81,33.3,2.91,12.6-3.96,24.31-10.31,34.5-18.71,8.06-6.28,6.77-16.68,8-25.63,7.66-27,19.75-52.16,34.1-76.26,1.86-3.23,3.23-3.55,6-.89,5.48,4.92,12.09,8.3,18,12.58,6.29,7.49,17.09,10,23.22,17.33,3.39,14.91,6.13,30.15,8.63,45.22,6.53,21.85-3.95,28.38-20.48,39.67-10.4,5.56-18.94,22.81-5.88,30.39,19.34,9,47.32-3.47,59.65-19.51,9-14.19,2.58-31,3.14-46.6,1.7-41.51-6.44-28.53,35.23-15.8,12.34,7.74,20.16,21.37,32.57,29.43,15.16,10.8,33.78,18.62,52.56,19,19.77.7,39.55-.95,58.93-4.92,17.66-3.54,27-20.47,31.2-36.51,4.51-18.22,11.69-55.71-6-68.53-2.82-2.33-9.19-3.3-7.49-8.06,4.27-9.11,3.62-19,3.7-28.86.33-15-4.19-29.91-11.36-43-14.19-25.47-34.91-46-54.17-67.63-26-31.76-38.7-66.1-40.31-107-1.7-18.22,10.88-33.53,8.46-52.07-.8-12.74-4.92-25.24-13.14-35.15-4.59-4.35,8.47-5.48,14.59-15.72,1.98-2.99,5.1-5.03,8.63-5.64,12.33-4,24.51-8.71,37.32-11.29-.08,1.13-.24,2.18-.32,3.22,0,.81.08,1.7.08,2.58,24.27-11.44,45.79-31.11,58.69-54.89.56-1,1.37-2,2.66-1.21,4.27,3.3,7.58-9.68,10.24-12.18,19.75-28.61,37.08-62.63,30.95-98.43-.88-4.75-1.69-9.27-2.5-13.78-.4-4.11,4.84.48,6.61.88,4.2,1.29,12.66,3.79,16.29,1-10.56-9.83-23.62-19.35-25.8-34.82-1.04-3.79-.68-7.82,1-11.37,4.35-8.71,9.75-16.93,17-23.54,2.5-3.06,8.22-5.56,9.19-9.51-4.43-3.31-18.38,2.34-23.3,4.19,1.37-4.59,5.4-7.82,8.71-11,3.95-3.31,9.51-3.63,14.27-5.08,5.48-2.34,19.75-6,20.31-12.58-3.37-.14-21.59,6.71-11.35-1.27ZM96.63,162.35c-.32-2.42,3-4.27,4.28-6.13,6.69-6.36,10.8-14.43,14.59-22.57,5.32-14.66,15.72-26.66,22.06-40.66-5.16.16-8.87,4.6-13.95,4.52,8.79-21.69,30.87-34.75,50.14-46.44,3.63-2.17,7.26-3.14,10.32-5.64.4,5-3.31,9.27-3.39,14,8.23-2.82,15.72-8.71,23.87-12.26,6.2-3.87,3.7,7.74,4.51,11,.16,1.53-.16,2.66-2.18,2.58-17.05,7.57-32.76,17.86-46.51,30.47-16.61,14.78-31.1,31.79-43.05,50.54-6.09,7.45-8.76,22.12-20.69,20.59ZM131.78,320.27c-26.44-18.62-38.45-59.73-37.65-90.93,1.13-69.65,51.52-128.74,108.83-163.16,3.47-3,7.5-4.68,7.5,1.21-.17,1-.84,1.85-1.77,2.25-10.48,3.47-21.36,9.52-28,18.3,1.21-.16,2.75-.16,3.71-.88,7-5.4,15.48-6.37,23.62-8.63,7.6-1.77,3.54,10.56,4.54,14.83.08,5-6.37,3.07-9.68,3.39-16.93.81-31.84,11.93-42.56,24.27-20.76,20.55-41.92,78.07,1.45,84.24,31.28-.08,49.5-33,60.14-58.53,3.22-7.9,2.58-16.61,2.58-25-.24-5.64-2.34-11.85,1.61-16.53.65.65,1.69,1,1.45,2.26.08,10,.32,19.91.32,29.91-2.33,10.08-3.22,20.48-4.43,30.79-4.92,14.76,5.89,5.65,11,.25,4.92-4,11.69-6.13,16.45-10.4,5.64-4.19,8.87-10.64,13.87-15.48,3.06,3.87,2.33,9.43,3.46,14,.36,1.77-.22,3.59-1.53,4.83-6.62,5.96-12.39,12.81-17.13,20.36-8.22,11.93-11.53,26.68-11.85,41-.51,2.3-.64,4.66-.4,7-2.27.34-4.43,1.23-6.29,2.58,15.64,2.34,31.92,2.74,47.8,4.44,11.61,1.69,23.3,5.32,34.75,7.9v.08h.16c2.5.56,4.92,1.05,7.42,1.53-1.47-1.31-3.07-2.47-4.76-3.47,5.24-6,10.32-12.09,14-19.18,1.93-2.58,4.67-14.19,7.57-6.13,4.2,24.59.08,50.3-8.94,73.44-6.05,9.84,9,1.69,13.22,2,.08,6.36-21,33.61-27.33,34.26-7.18,2.82-11.61-4.6-18.3-1.29-5.08,1.69-10.8-2.26-15.64,1.69-1.65,1.07-3.68,1.36-5.56.81-9.11-2.42-19.27,10.48-24.35,17.09-.89,1.61-3.38,2.33-5.32,3.14-3.95,1.61-8.14,2.9-12.09,4.6-4.27,1.85-8.39.64-12.58-.25-8-.72-15.88-1.45-23.62-3.7-24.07-3.49-46.32-14.17-65.67-28.89ZM211.11,74.16c-1.78,2.42-6,2.34-8.47,1.53.32-.24.65-.81,1.13-1,1.61-.72,3.39-1.37,5.08-2,.81.4,1.57.89,2.26,1.47ZM200.06,167.16c3.39-1.13,6.29-3.63,9.84-4.11-1.29,5.24-5.73,9.59-8.55,14.18-5.24,3.23-13.86,1.78-19.35-.4-18.54-9.27-11.77-36.44,2.1-46.92,2.74-2.33,5.64-4.35,8.47-6.45,2.58-2.49,9.91-2.82,15.15-4-2.9,18.95-15.56,6.94-22.89,29.19-3.71,9.51,4.51,21.44,15.23,18.46v.05h0ZM208.06,116.45c-6.2-.08-15.23,3.39-18.7,5.32-15.4,9.76-27.33,30.07-18.86,47.89,4.51,9.19,16.12,13.86,25.95,11.77,1.86.16.25,1.93-.08,2.9-11.93,13.86-34.9,25.88-50.14,10.64-17.89-24.51,3.39-61.67,24-77.95,10.24-8.87,24-14.11,37.57-12.82,4.35.32,2,9,.32,11.52-.06.22-.09.45-.08.68l.02.05ZM220.56,138.25c.08,2.09.24,3.06-1,4.67-2.58-1.45-2.66-4.67-4-7-1.61-2.66-4.92-5.08-2-8.14,8.91-13.39,6.82,4.34,7,10.47ZM280.78,200.88c-1.7,13,9.75,19,21.2,14.27,6.53-2.74,8.14-8.7,12.17-13.46,8,8.06-5.88,20.24-13.06,23.7-33.21,14-42.8-22.73-25.07-45.06,2.9-3.31,5.89,2.34,8.3,3.71,4.9,3.62-4.85,10.15-3.56,16.84h.02ZM292.61,164.99c-2.34,2.5-4.11,1.61-5.32-1.37-.08-3.55-1.45-6.29-.08-9.27,2.74.42,6.85,8.32,5.4,10.64ZM296.32,168.3c5.72,8.54,8.14,8.62-2.83,12.49-1.35.2-2.69.5-4,.89-.32-3.71-4.51-9.27-.32-11.85,1.99-1.03,5.05-3.29,7.15-1.51v-.02ZM274.23,178.05c-8.55,10.4-12.42,25.39-8.39,38.45,5.08,15.08,24.67,17.9,37.25,11.05,10.24-3.87,13.78-16.53,17-13.38,5,2.17,8.22-10.56,8.46-14.19.32-2.74-.08-5.65,2-7.74,7.41,9.91-2.18,24.59-6.13,34.42-2.74,5-6.37,9.59-9.67,14.43-.16.16-.24.32-.41.49-16-8.31-42.56-9-58.84-11.13-5.24.16-10.89-1.29-16.13-1,0-.4.08-.8.08-1.29,2.34-17.25,5.48-34.82,17.09-48.61,3.23-4.67,7.42-8.7,11.29-12.9,1.37-1.53,2.82-1.29,3.79.81,1,3.36,5.59,7.22,2.61,10.61v-.02ZM190.15,353.41c5.8-1.05,11.28,1.53,17,2.09,5.24.73,10.56,1.05,15.8,1.54,4.27.72-2.91,6.61-3.63,8.46-9.35,15.16-11.93,32.25-17.41,48.69-1.62,8.71-11.93,3.71-17,1.05-7.42-5.08-6.53-15.88-8.15-23.7-.64-10.24,4.44-26.52,6.45-38.05,2.83,3.87,8.31,10,10.73,10.48-.08-3.87-3.71-6.53-3.79-10.56ZM179.15,350.51c.97-.17,1.98.09,2.74.72-3,5.32-4.59,16.12-6.12,19.91-3.79,15.56-5.08,36,6.61,48.29,4.59,4.43,20.31-.72,14.75,10.64-1.05,3.23-1.69,3.71-5.16,3.71-3.14.08-8.79,2.18-9.83,5.08,3.95.64,7.82-2.66,12.09-2.26.08,16.85-6.53,4.27-14.51,7.58.64.81,1.13,1.93,2,2.26,3.07,1.93,10.72.88,9.84,6-1.37,6.13-2.66,12.26-4,18.38-5,18.22-4.27,37.17-3.47,55.71-3.79-2.5-4.43-8-6.45-11.93-4-11-8.06-22.09-11.45-33.3-1.77-6.85-3.06-13.86-5-20.63-1.21-4.12,2.74-6.21,3.46-9.76-2.25-.48-4.11,2.74-6,0-1.86-4.27.72-6,3.46-8.54-2.33-.81-5.56-.41-5-3.71.32-3.55,5.48.56,6.45-3.15,1.77-3.7-1.86-6-4.6-7.82-7.09-4.51-7.42-13.86-9.75-21.2-3.35-13.06-4.87-26.52-4.52-40-1.86-6.5,28.87-13.65,34.49-15.98h-.03ZM172.41,522.29c-5.32-1-10.16-3.38-15-5.8-27.49-12.49-22-5.4-14-33.7,3.31-8.86,5.56-17.33,8.46-26.2.41-.88.41-2.9,2.18-2.33.81.24,1.45,1.61,1.69,2.66,1.46,6.69,2.42,13.54,4.12,20.23,1.53,5.72,4,11.13,5.56,16.77,2.42,8.71,6.37,16.77,9.75,25.07,1.19,2.58-.26,3.79-2.76,3.3ZM157.41,430.88c1,.16,1.93.4,2.9.64.64,1.13,1.05,2,1.45,2.91-1.77.88-3.14-.73-4.43-1.7-.32-.32.09-1.29.08-1.85h0ZM96.23,553.99c-21.52-13-2.74-86,3-107.22,4.11-16.77,10.81-32.65,16.93-48.77,3.63-11.13,11.37-19.75,19.67-27.65,1.94-1.54,3.55-4.11,6.13-4.28.24,12.5-.4,25.16,2.74,37.65,2.5,16,13.06,33,5.72,48.93-6.77,16.13-12.25,32.73-17.57,49.26-1.45,7.58-11.21,1.53-19.11,7.5-2.17,1.85-4.51,2.58-5.16,5.32,2.83.56,5-1.45,7.58-2.26,6.85-2.58,14.76-2.18,21.61,0,13.14,5.24,26.12,10.72,39.26,15.88,19.75,8.22,36.51,13.79,49.66,31.92,12.25,12.9,21.68,26.29,24.82,44.18.65,3.15,2.26,6.45.25,9.43-.57-.72-1.62-1.37-1.78-2.17-1-6.29-4.43-11.45-6.85-17.09-1.13-2.1-1.69-5-4-6-.16.57-.73,1.21-.56,1.69,1.61,5.73.88,11.53.88,17.34-.8,4.11,1.05,12.73-4.43,13.78-.16-.64-.65-1.53-.4-2.09,1.77-3.87.8-8.07,1.29-12.18,0-6.12.64-14.27-3.63-19.1-1.61,9.67,3.63,21.68-1.29,30.39-2.42-2.34-.73-5.08-.49-7.82,0-5.48.73-15.8-3.87-19.43-.16.89-.64,1.94-.4,2.74,1.88,5.8,2.64,11.91,2.26,18,0,.48-.89,1.45-1.05,1.37-.81-.48-2-.89-2.34-1.61-3.87-10.24-6.28-21.85-13.94-30.07-7.9-7.34-18.46-12-24.43-21.37-2.26-3.14-5.16-5.24-9.19-5-5.32.4-10.56,2-15.48-1-7.82-3.39-16.77-6.29-25.31-4.44-7.09,2.58-14.59,4.6-21.44,7.9-5.37,3.91-13.52-2.13-19.08-3.73ZM81.4,601.55c2.82-5.32,9.67-23.86,16.93-21.36,3.06,1,3.7,2.58,2.17,5.32-3.73,6.92-6.57,14.29-8.46,21.92-4.68,15.72-6.85,31.85-10.64,47.81-1.13,3.71-.57,8.22-3.39,11-10.64-12.38-4.45-50.92,3.39-64.7h0ZM92.04,749.64c-7.42,14-11.13,29.58-16.12,44.66-2.18,7.82-2,17.41-9.76,22.41-13.94,10.28-30.55,18.45-48.37,18.28-8.3,1-16.28-6.93-10.64-14.75,6.21-6.94,14.19-11.69,21.93-16.61,21.44-11.29,30.63-34.5,35.07-57,6-23.3,11.2-46.76,16.44-70.14,2.26-14.43,6.53-27.81,9.35-41.92,2.26-15.48,7.1-30.31,12.66-44.82.32-1,1.61-2.58,2.26-2.5,5.56,2.9,7.09,10.72,11.12,15.32,2.1,3.14,6.69,6.12,10.4,3.46,5.08-3.62,3.39-13.62,11.37-13.38-2.26,18-.08,35.79,3,53.53-13.48,35.49-31.3,69.67-48.71,103.46h0ZM155.32,734.48c-6-3.71-11.85-7.49-17.65-11.44-4.84-3.31-9.44-6.86-14.11-10.48-4.35-2.75-6.21-5.81-2.9-10.32,2.58-5.48,5.64-10.72,8.22-16.29,4.84-8.46,6.85-19.34,13.38-26.6.65.77,1.16,1.64,1.53,2.58,1,5.16,1.86,10.24,2.82,15.32,4.28,18.3,7.82,36.43,11.45,54.81.41,1.85-1.05,3.22-2.74,2.42h0ZM202.64,770.68c-.4,13.62-.4,27.25.49,41,3.87,22.49-8.55,37.08-29.19,44.26-4.83,1.85-10.07,2.82-15.23,4-4.09-.47-8.15-1.21-12.15-2.21-11.2-5.48-4.11-18.3,3.87-22.65,9.19-7.17,22.41-14.11,22.82-27.25.56-20-5.56-39.26-8.47-58.85-6.37-38.85-16.2-77.23-21.92-116.16-.41-5.65-6-46.19,4.35-41.68,14.19,2.82,24.43,13.62,33.29,24.35,16.53,22,22,48.69,25.4,75.37-1.08,26.52-3.1,53.13-3.26,79.81h0ZM238.19,774.39c-10.32-3.07-19-7.82-28.62-12-2.35-.79-3.82-3.11-3.54-5.57.24-9.43,2.34-18.62,1.61-28,.08-3.71.24-7.9,2.26-11.21,3.79,5.08,3.46,12.26,6.29,17.9,2.58,6.57,5.68,12.92,9.27,19,3.14,5.32,7.25,10.07,11,15.07,1.1,1.49,2.94,2.54,1.73,4.8h0ZM337.43,573.82c17.33,18.22,34.34,36.76,48.21,57.64,3.46,5.08-4.28,9.59-5.89,14.67-.44,1.2-.44,2.51,0,3.71,3.63-.73,7.42-15.24,10.72-9,5,5.72-5.32,6.29-5.07,11.77,3.14.48,7.49-6.85,9.35-1.94.8,5.08-7.58,3.63-8.87,7.66,8.22,1.13,12.66-7.25,13.06,7-5.32.88-10.4-4.76-15.56-1,2.74,7.82,16.28,1.93,17.49,9.83,3.79,28.06-11.85,52.16-25.39,75.14,6.05-3.39,9.35-10.4,13.78-15.56,3.39-5,6.45-10.32,9.52-15.56,1-1.94,2.5-2,4.11-1.21,21.2,10.88,13,53.77,7.09,72.39-3.42,11.54-10.15,22.63-22.09,26.78-9.27,3.78-58.44,9.75-70.21,5.56-27.65-4.19-52.24-21.93-69.41-43.61-8.95-11.86-19.59-22.74-25.64-36.44-16.12-31.52-11.2-68.61-23.21-101.17-4.68-9-8.63-18.46-14.59-26.53-2.1-2.91-4.48-5.61-7.1-8.06-2-2.25-2.09-2.42.16-4.35,1.05-.89,1.29-2.42,1.94-3.63-1.86.73-3.47,2.18-5.16,3.06-2,.33-2.26-1.53-1.21-2.82,1.27-.47,2.35-1.35,3.06-2.5-2.42-1.12-3.95.33-6,1.37-1.53,1.21-9.35-3.3-5.65-4.43,1.78-.24,3.79.57,5.32-.56-2.82-2.5-7.17-1.86-10.8-1.62-10.72-.56-28.21-6.12-32.08,8.39-1,3.3-4.44,5-6.37,3.38-8.46-7-10.8-20.23-21.52-24.58-1.38-.41-1.29-2.1.32-3.39,16.52-12.74,37.16-27.41,58.6-18.54,5.73,3.71-12.41,6.61-12,11.77.85-.11,1.69-.3,2.5-.56,6.29-3,12.5-6,19.35-7.42,22.17-1.86,11.29,3.38,27.81,15.15,3.87,2.74-.8,5.24-2.5,7.5-1.61,1.29-2.34,6.29.89,4,4-2,4.92-9.67,9.91-5.48,9.76,4.84,12,15.24,15.24,24.91.7,2.55,1.61,5.03,2.74,7.42,2.58,6.2,14.67,19.67,18.62,7.65.89-4.83,2.1-9.59,1.54-14.59-.08-1.53-.41-3.14.8-4.43,2.58,4.11,3,9.75,5.73,14,2.33,3.06,10.48,2.25,13.78,1.21-3.39-3-7.09-.57-7-6.78-.41-7.65-4.84-14.83-5.16-22.25,6.45.25,18.3,10.73,24.67,14.6,2.9,1.53,3.3,7.25,7.09,6.77,3.79-1,2.9,4.91,6.53,4.43.55-.04,1.1.13,1.53.48,2.58,2.18,5.16,4.6,7.82,6.7,4,3.06,10.4,4.75,11.85,10-2.74.49-5.24-1.61-7.9-1.05,4.52,5.49,12.58,4.44,17.82,8.55,6.12,5.64,10.64,13.14,17.41,17.9-2.26-9.52-15-20.24-21.77-27.74-9.75-8.78-20.15-16.84-30.39-25.07-4.35-3.71-10.16-6-13.46-10.8,5.88-3.87,13.62-4.35,19.91-7.5,11.77-5.72,25.31-11.69,31.36-24.1,3.16-7.21,11.39,10.69,14.37,12.88h0ZM305.75,518.59c1.05,4.51,7.09,10.88-.4,12.73-1,.25-1.86.49-2.18,1.54,1.93,1,4.35-.25,6.45,0,2.17-.08,5.56,4.75,4.35,6.45-4.19,2.49-11-1.54-15.24.8,4.44,3.06,10.81,3.87,16.45,4.27,4.19,1,5.72,6.69,7.82,10.08,1.13,7.34-15.72,19.11-22.33,21.69-11.85,4.51-23,11.52-35.95,11.85-6.61-1.54-11.94-7.42-18.14-10.24-3.55-1.94-5.81-5-8.14-8.06-1.78-2.58-5.57-5.65-1.94-8.31,3.87-3.3,7.82-6.53,11.45-10.07,3-2.83,5.48-6.29,8.38-9.19,4.84-3.07,7.9-18.79,13.22-17.26,3.39,1.94,5.73,4.6,9.51,4.92-.56-5.24-11.28-5.88-8.06-11.85,9.19-16.69,16.69-34.1,23.7-51.75.25-1,1.62-1.37,2.34-2.1,2.18,6.45.08,13.71,2.1,20.4,1.56,11.48,3.77,22.87,6.61,34.1ZM297.61,386.99c-6,1-12.82-.48-18.71,2.1-2.82,1.53-4.59-3.22-7.49-1.05,5.24,5.48-5.32,4.35-13.14,16.12-3.63,4.52-7.34,8.95-10.65,13.79-2.9,3.55-3.3,9.11-7.33,11.77-2.74-4.19-.89-9.75-1.29-14.59.48-5.24-1.05-11.29,2.42-15.64,2.58-2.9,4.92-6.69,9.27-6.53,3.38,0,2.17-2.1,1.69-4.27,1.86-1.62,3.79-3.15,5.73-4.76,4.11.49,8.24-.58,11.6-3,7.66,1.61,18.3-11.05,23.7-3.07,1.7,2.96,4.68,5.46,4.2,9.13ZM241.18,392.8c-.01-.67.02-1.34.08-2,.08-.16.08-.4.16-.64,1.93-2.82,3.14-5.4,6.77-5.24-.92,3.62-3.53,6.56-7.01,7.91v-.03h0ZM307.68,357.8c-11.61,14.91-32,18-49.41,21.12-8.95,1.13-20.24,3.07-20.72,14-3.39,26.12-2.26,52.48-1.53,78.76.4,8.14,1.29,16.2,1.93,24.27,1.13,7.65.08,16.36,3.47,23.37,4.11-5.24.8-18.54,1-25.47-.49-16.93-7.34-45.95.56-60.3,11-18.7,24.59-40.31,48.13-43.13,4.59-.32,11,.81,11.12,6.69.65,5.64,1.61,11.29,1.94,17,.32,17.9-8.15,34.67-13.87,51.19-7.66,24.11-19.67,46.52-32,68.44-3.15,4.92-25.64,32.41-30.64,22.33-8.54-11.28-20.47-20.31-34.1-24.5-4.75-1.29-5.72-4.76-5.8-8.63-1.94-27.65,3.71-54.74,10.4-81.34,3.95-15.07,8-30.07,12.41-44.9,5-14.75,8.14-32.33,23.62-39.91,8.79-5.32,26.28-5.8,31.6-14-3.54.32-6.69,2.5-10.15,2.74,1-4.27,9-9.35,12.41-12.74,4.6-4.11,13.3-.32,12.17,6.21-.32,2.26-1.85,4.19-1.21,6.53,8.07-5.73-.64-15.32,5-16.45,7.42-3.06,12.9,5.08,9.35,11.61-1,3-3.38,5.56-3.38,8.87,4.75-1.05,10.24-13.14,6.85-17.58-.4-.8.08-2.9.73-3.22,5.8-2.74,10.64,3.06,7.9,10.32-.81,3.14-3.47,6-3.23,9.19,4.6-.81,7.34-10,7.26-14-2.26-4.75,4.43-5.4,6.69-2.74,5.21,9.06-3.9,18.9-8.5,26.31v-.04h0ZM442.87,77.22c6.69-.56,13.39-.88,20.08-1.53,3.54-.08,10.72-4.27,13-.48-2.58,3.79-8.31,2.17-12.26,3.46-11.12,2.1-24.5,5.57-30,16.21,2-.16,3.63-1.7,5.32-2.91,6-4.43,13.63-8.22,21-8-.32,1-.32,2.18-1,2.83-3.79,4-7.1,9.1-7.34,14.75,6-.57,10.56-6.29,16.77-5.16-11.53,13.7-25.07,30.63-16.45,49.33,2.18,7.5,8.71,11.85,11.85,18.38-2.67.42-5.4-.09-7.74-1.45-1.93-.88-2.66.08-2.57,1.62.24,3.95-.73,7.9.88,11.85.73,1.85.49,4.11.57,6.2.16,21.29-2.26,43.54-12.5,62.56-7.17,11.93-12.9,25.64-21.12,36.44-1.77-2.74,1-6-1.45-8.47-4.92,18.06-18.3,32.41-30.88,45.63-8.06,7.18-15.56,17.25-26,20.56.41-1,.73-1.94,1.13-2.9.35-.95.78-1.87,1.29-2.74-7.33,1.61-12.81,8.38-20.47,8,.64-1.13,1.37-2.26,1.93-3.47.36-.73.66-1.48.89-2.26-4.27.57-6.85,4.6-10.56,6.37-2,1.29-20.8,10.88-18.3,4.43,5.32-10.48-1.94-15.71,3.38-19.34,10.73-8.79,19.92-20,23.46-33.54.16-2.74,1.7-4.19,3.71-5.48,20.72-13.95,41-33.29,45.95-58.53-9.43,17.01-21.7,32.28-36.27,45.15-6.21,4.59-16.85,13.14-24.51,13.54,7.33-22.25,12.49-45.87,8.22-69.41-1.77-15.48-7.82-30-13.94-44.18-3-5.48-5.33-13.46-10.57-16.76.17,4.91,2.42,9.83,4.44,14.19,5.48,10.31,3.3,22.89-.65,33-6.12-9.6-9.11-21.45-16.2-30.88-6.29-11.93-20.23-26-19.83-39.58.08-.73-.73-1.45-1.13-2.18-.56.73-1.61,1.37-1.69,2.18-.49,7.17-1.13,14.35-1,21.44-.16,7.26,2.34,14.51,1.53,21.69-7.17-3.55-10-18.14-12.33-25.48-3.71-13.7.32-27.16,3.79-40.38,2.42-7,.72-14.35,2.33-21.53,1.05-4.83,1-10,1.62-15,.24-4.19,2-8.71,2-13,0-.87-.08-1.73-.24-2.58-6.77,13.22-6.13,28.7-8.3,43-3.47,16.12-7.34,32.4-18.38,45.14-3.71,4-6.94,9.92-12.34,11.77-.24-3.14,2.74-5.48,3.55-8.38,1.45-6.29,6.61-15.24,5.16-21.2-5.64,6.69-6.13,16.6-11.85,23.54-3.63,4.19-6.05,10.23-11,12.81,1.62-15.07,5.16-30,3.55-45.38-.08-6.37.32-13-2.5-18.87-.16-1,.57-2.74-1.53-2.66-2.82.16-1.21,3.79-3.22,4.84-2.58,1.61-2.5,4.43-3.79,6.69-3.39,5.08-5.56,11.85-10.72,15.24.96-3.15,1.85-6.15,2.66-9,3.26-11.36,4.85-20.62,4.85-31.36-.07-7.03-.64-14.05-1.69-21-.73-8.06-5-16-3.47-24,.25-.65-.24-1.7-.64-2.5-.73-1.13-2.1-.25-2.26.8-.32,2.58-1.69,3.47-4.35,4.28-5.73,1.45-10.72,5.23-16.53,6.61,7.34-14.92,23.06-25.72,38.62-31.28,11.85-4,24.66-4.36,37-4.76-1.29-3.87-6.61-4.35-6.93-8.71,33.85-3.78,55.3,6.37,83.92,21.45-.07-.83-.1-1.67-.08-2.5,0-1.13.24-2.18.32-3.23,17.25,6.21,29.66,21.21,44.66,31.36,1.37,1.13,2,3.15,4.51,2.91,10.24-1.29.16-23.14-.72-29.43,9,3.47,12.65,14.11,16,22.41,2,6.93,5.08,14.75,13.46,14.35,8.22.89,15.32-3.22,23.06-4.75,0,.88,0,1.69.08,2.57.01.54.06,1.09.16,1.62,9.27-3.95,17.41-10.81,27.65-12.9,8.3-1.61,16.2-5.16,24.27-6.85-1.38,4.75-7.34,6.36-8.15,11.28,3.55.81,6.37-2.5,9.84-1.61-1.78,5.89-15.48,17.25-21.69,18.14-14.91,1.69-44.5.16-53.93,12.82,7.7-1.41,14.63-5.85,22.61-5.85Z"/>
</svg>