<?xml version="1.0" encoding="UTF-8"?>
<svg id="Layer_1" data-name="Layer 1" xmlns="http://www.w3.org/2000/svg" xmlns:xlink="http://www.w3.org/1999/xlink" viewBox="0 0 949.4 972.67">
  <defs>
    <style>
      .cls-1 {
        fill: #92278f;
      }

      .cls-1, .cls-2, .cls-3, .cls-4, .cls-5, .cls-6, .cls-7, .cls-8, .cls-9, .cls-10, .cls-11 {
        stroke-width: 0px;
      }

      .cls-2 {
        fill: url(#linear-gradient);
      }

      .cls-3 {
        fill: #000;
      }

      .cls-4 {
        fill: #050708;
      }

      .cls-5 {
        fill: #1aa26d;
      }

      .cls-6 {
        fill: #023c59;
      }

      .cls-7 {
        fill: #ed1f24;
      }

      .cls-8 {
        fill: url(#linear-gradient-2);
      }

      .cls-9 {
        fill: url(#linear-gradient-3);
      }

      .cls-10 {
        fill: #fff;
      }

      .cls-11 {
        fill: url(#linear-gradient-4);
      }
    </style>
    <linearGradient id="linear-gradient" x1="4.32" y1="394.36" x2="934.92" y2="394.36" gradientUnits="userSpaceOnUse">
      <stop offset="0" stop-color="#10646b"/>
      <stop offset="1" stop-color="#184150"/>
    </linearGradient>
    <linearGradient id="linear-gradient-2" x1="202.94" y1="507.21" x2="722.23" y2="507.21" gradientUnits="userSpaceOnUse">
      <stop offset="0" stop-color="#91d4d5"/>
      <stop offset="1" stop-color="#008799"/>
    </linearGradient>
    <linearGradient id="linear-gradient-3" x1="431.93" y1="813.8" x2="609.9" y2="813.8" gradientUnits="userSpaceOnUse">
      <stop offset="0" stop-color="#fee9b6"/>
      <stop offset="1" stop-color="#c4d4b5"/>
    </linearGradient>
    <linearGradient id="linear-gradient-4" x1="412.6" y1="819.13" x2="617.4" y2="819.13" gradientUnits="userSpaceOnUse">
      <stop offset="0" stop-color="#888cbb"/>
      <stop offset="1" stop-color="#533494"/>
    </linearGradient>
  </defs>
  <path class="cls-3" d="M321.9,30.8c0-10.4,2.1-20.7,4.6-30.8,4,21.4,7.4,43,11.5,64.4,7.1,37.7,14.3,75.4,23.9,112.5,3.5,12.7,6.7,25.7,12.7,37.6,12.4-24.2,35.2-42.6,61.3-50.3,14.7-4.5,30.2-6,45.5-5.3,9.7.4,19.4,1.9,29,2.9,25.2,2.9,50.4,4.5,75.7,6,16.1,1.1,32.3,1.8,48.1,5.4,8.9,2.1,17.7,5.6,24.7,11.7,13.6,11.7,28.3,22.6,45.1,29.3,16.8,6.8,35.2,9,53.3,8.2,16.5-.6,32.7,4.6,47.1,12.3,13.7,7,28.2,16,44.3,13.7,13-2,27.4-2.3,39,4.8,10.7,6.5,16.6,18.1,22.2,28.9,1.7,3,2.8,6.6,5.9,8.5,7.3,5,14.3,11.1,18.5,19,5.6,10.5,6.1,23.3,2.8,34.6-2.1,8.2-6.3,16.3-5,24.9,1.5,6.9,4.2,13.5,7.5,19.7,2.3,4.6,6.4,7.9,9.8,11.6-12.4-4.1-24.5-10.4-32.5-21-.2,16.7-2.5,33.5-9,49-5.6,13-13.2,25.2-23.5,35,.3,15,.6,30.6-5.4,44.6-2,5-4.9,9.6-8.5,13.7-.2-14.7-1.4-29.5-4.1-44-4.9,3.9-9.4,8.2-13.3,13.1-6.4,7.7-9.9,17.3-16.2,25.1-8.6,10.9-18.2,21.5-30.2,28.8-.4-.9-1.1-2.7-1.5-3.6,0,9.1,1.2,18.6-2.3,27.3-4.7,11.9-9.9,23.6-15.6,35,.5-8,3.7-16.2,1.1-24.1-4.7,1.9-8.2,5.7-12.2,8.7-16.3,13.2-32.8,27-52.4,35-26.3,12.4-49.7,29.9-74.8,44.4-14.4,8.4-29,16.3-44,23.4-5.9,2.8-11.9,5.5-18.3,7.1,5,4.5,10.7,8.3,14.6,13.8,2.9-1.4,6.6-1.5,9,.9,5.7,5.4,9.8,13.1,9.5,21.1-.4,3.4,2.2,6.2,2.4,9.6.4,3.2-.7,6.3-2.4,9,.5,6.6.4,13.4-1.9,19.7-3.2,7.9-8.1,15.2-14.1,21.3-2.6,2.5-5.8,5.4-9.7,4.9-6.7-1-13.1-3.3-19.1-6.3-3.9,1.6-7.4,4.1-10.6,6.8,2.1,26,7.8,51.5,11.7,77.2-3.7,10.1-12,18.9-22.5,22.1-14.6,4.7-30.1,5.6-45.4,5.5-.3,2.8-.7,5.6-1.1,8.3,4.5,1.4,10.8,2.8,12,8.1-1.1,6.6-4.2,12.8-6,19.2,6.4,2.7,13,6.1,17.2,11.9,2.9,4,3,9.2,2.7,14-.2,1.9-.8,4.7-3.2,4.6-12.5,1.5-25.1,2.2-37.6,3-12.5.3-25.8-.2-37.2-5.8-2.3-1.2-6-3.1-4.7-6.3,2.6-8.6,5.1-17.3,5.6-26.3.3-9,2.2-17.9,5.3-26.2,1-2.8,4.1-3.8,6.8-4.5.7-2.3,1.4-4.5,2.2-6.7-8.7-3.4-16.8-8-24.7-13.1-8.4,9-17.6,17.3-27.5,24.6.7,4.5,2.4,9.2.5,13.7-1.3,2.6-4.3,3.7-6.7,5.1-7,3.5-14.3,6.4-21.8,8.8-3.9,7.3-7.9,14.5-12.2,21.5-2.1,3.6-5.5,6.4-9.5,7.9-8.6,3.2-18.2,1.4-26.6-1.7-6.6-2.3-11-8.9-12.1-15.6-2.1-11.4.4-23.1,4.1-34,2.6-7.6,6.7-15.4,14.1-19.3,3.6-2.1,7.9-1.9,11.7-3.5,6.8-3.9,12.1-9.8,18-14.9,3.8-3.3,9.2-3.1,13.8-1.9,7.4-5.8,15-11.4,23.3-15.9-2-2-4.1-4.1-6.1-6.1,3.7-12,11.1-22.4,18.3-32.5,19.2-26.2,41.6-49.9,64.3-73.1,3.4-3.4,6.7-6.8,10.3-9.9.1-3,.3-6.1.4-9.1-.6-.8-1.2-1.6-1.8-2.5-15.9,4.8-31.9,9.7-47.9,14.1-25.4,6.7-51.3,11-77.1,15.8-25.7,5-51.8,7.4-77.9,9.3-10.2.6-20.5,1.3-30.8,1-6.5,0-12.8-2.3-19.3-1.5-9.7,1-19.2,2.7-28.9,3.1-16.9.9-34.4,1-50.2-5.6-5.8-2.2-10.9-5.7-15.9-9.3,3.7,8,10.4,14.1,17.6,18.9-4.5,1.3-9.5,1-13.3-1.9-8.7-6.2-16.3-14.7-19.3-25.1-2.7-8.6-2.9-17.8-2.2-26.7-4.4,9.2-10.5,18.1-11.3,28.6-.4,5,.3,10.9,4.3,14.3,1.5.6,5.6,2,2.8,3.8-7-1.3-14.2-1.6-21.2-2.9-3.8-.8-7.6-2.1-10.5-4.8-5-4.3-11.3-7-15.7-12-5.7-6.3-8.1-15-8.4-23.4-.5-13.4,3.2-26.4,7.6-38.9-5.1,5.9-10.3,11.7-15.6,17.4-6.1,6.8-9.4,16.2-8.1,25.3,1.3,11.7,7.7,21.9,15,30.7-20.2-7.8-39.8-19.7-52-38.1-6.5-9.7-14.8-18.5-18.4-29.9-3-10.4-4.7-21.5-1.8-32.1,4.3-16.4,14.1-30.7,24.1-44.2,5.5-7.5,12.2-14.4,15.2-23.4,3.9-12,.6-25,4.4-37,2.6-10.6,10.7-18.5,18.2-25.8,21.6-20.8,40.1-44.6,57.3-69.1-8.1-3.4-16.9.2-24.6,2.9-12.1,5.1-24.4,10.6-33.7,20-13.2,13.2-21.8,30.2-28.4,47.5-5.1,13.7-9,27.9-11.4,42.4-5.8-.6-5.9-7.5-5.8-12,1.1-16.1,6-31.7,10.8-47.1,7.2-22.6,23.9-40.7,42.5-54.8,15.6-11.8,33.2-20.8,51.3-28,5-25.9,24.3-46.6,46-60.3,1.6-.7,1.7-2.6,2.1-4.1,2.4-12.1,6.6-23.9,13-34.5,3.8-6.2,8.5-12.1,14.6-16.2,11.2-7.5,20.4-17.4,29.1-27.5,12.7-14.9,25.1-30,38.2-44.5,7.5-8.7,17.5-15.2,28.4-18.7,16.7-5.2,34.8-3.8,51.4,1.1-7.6-16.6-16.8-32.6-28.1-46.9-7.9-9.9-16.7-19.4-27-26.9-11.6-8.6-26-12.7-40.2-14.1-20.4-1.9-40.8,1.5-60.3,7.4,5.5-4.2,11.1-8.4,17.6-11,17-7,36-7.7,54-5,12.7,2.1,25.5,5.2,36.7,11.8,24.7,14.4,42,38.2,55.6,62.8-10.1-36.5-19.2-73.4-25.3-110.8-3.1-19.3-5.5-38.9-5.1-58.5l-.2-.1Z"/>
  <path class="cls-2" d="M326.6,23.8c.3,1.1.6,2.2.8,3.3,5.4,31.3,11.3,62.6,17.7,93.7,4.9,23.2,9.9,46.4,16.4,69.3,2.3,7.8,4.7,15.6,8,23,1.5,3.4,3.4,6.7,6.2,9.2,7.1-17.3,20.1-31.9,35.8-42.1,16.7-10.8,36.5-16.2,56.2-16.9,11,.1,22.1.5,33,1.7,19.9,2.4,39.8,4,59.8,5.3,18.6,1.3,37.2,1.8,55.8,3.8,11.2,1.3,22.6,3.2,32.7,8.5,5.4,2.8,9.8,7.2,14.5,10.9,13.1,10.7,27.5,20,43.6,25.5,15.7,5.6,32.6,7.2,49.2,6.4,14.8-.6,29.4,3.3,42.5,9.8,12.7,6,25,14.2,39.3,15.8,7.9,1.1,15.7-1.4,23.6-1.4,10.1-.3,20.8,2.1,28.7,8.7,9.3,7.8,14.2,19.3,19.9,29.7-6.7-3.5-13.5-6.7-20.8-8.8l-.5,1.2c12.5,4.7,24.9,11.1,34.3,20.8,5.7,5.8,9.8,13.2,11,21.2,1.7,8.8-.3,17.8-3.2,26.2-2.4,7.3-5.2,15-3.5,22.8,1.6,6.5,4.2,12.6,6.9,18.7-9.1-4.9-17.4-12.8-19.4-23.4-1.2.2-2.3.4-3.5.6,1.5,19.6.1,39.7-6.6,58.3-4.9,12.8-11.6,25-20.9,35-.2,0-.5,0-.7-.1-.5-8.3-.8-16.7-2-24.9l-1.1.5c-.2,17.7.9,35.5-1.1,53.1-.3.3-1,1-1.3,1.4.3,1,.7,2,.4,3.1-.9,4.4-2.2,8.6-3.8,12.8-.2.7-.6,1.2-1.2,1.6-1.4-17.5-4-35.3-11.6-51.2-1.2-1.9-1.7-4.7-4.2-5.5.3,2.3,1.5,4.3,2.4,6.4,2.5,5.9,4,12.1,5.4,18.4-8,6.1-15.3,13.2-20.6,21.8-3.1,5.3-6,10.6-9.9,15.4-7.9,10-16.8,19.4-27.3,26.7-3.6-9.2-6.8-18.7-10.7-27.8,1.6,11.5,3.8,23.1,4,34.8.1,6.8.3,13.9-2.4,20.3-1.9,4.5-3.7,9.1-5.7,13.5-1.3-1.8-1.9-4.5-4.5-5-4-.7-7.2,2.6-10.1,4.8-15.8,12.5-31,26.2-49.1,35.3-21.1,9.1-40.2,21.9-59.3,34.4-17.7,11.9-36.1,22.6-54.9,32.8-9.4,4.9-18.8,10.2-29,13.3-2.4,1-4.8,0-7.1-.6,0-1.9-.3-3.7-1-5.5,38.2-18.6,72.3-45.3,100.8-76.9,8.5-9.5,16.7-19.5,24-30,16.6-24.4,24-54.3,23.5-83.7-.5-24.4-5.5-49.1-16.9-70.9-6.6-11.1-13.5-22.1-19.7-33.4-17.3-30.9-34.9-61.7-54.9-91.1-4.7-6.8-9.3-13.7-14.1-20.4,3.1,2.7,6.7,5.3,11.1,5,7-.3,12.4-5.6,16.3-10.8,6.7-9,9.9-20,12.2-30.8,1.4-7.1,2.4-14.5,1.4-21.7-.5-4.1-2-8.6-5.9-10.6-2.8-1.6-6.2-.4-8.6,1.5-4.8,3.7-8.3,8.8-11.6,13.8-6.9,10.8-13,22.2-18.5,33.8-2.5,5.2-2.4,11.4.4,16.5-9-9.5-20-16.8-31.8-22.3-17.5-8.1-36.5-12.7-55.5-15.5-25.6-3.6-51.5-4.2-77.2-2.4-1.3.1-2.6-.3-3.8-.7-9.9-3.4-19.5-7.7-29.6-10.2-4.7-1.1-9.8-2-14.5-.2-3.8,1.4-7.7,2.7-10.8,5.3-1.8,1.4-2.8,4-1.9,6.2,1.2,2.9,3.5,5.2,5.2,7.8-5.4,2.4-10.4,5.7-14.6,9.9-7-2.6-14.3.1-20.5,3.4-1.1-4.4-2.6-9-6-12.2-2.3-2.2-5.7-3.1-8.8-2.4-6.7,1.6-13.1,5.4-17.1,11.1-4.1,5.7-5.9,12.7-7,19.5,0,1-1.2,1.4-1.8,2-13.7,9.1-26.7,19.3-39.1,30.1-11,9.8-22,19.9-31,31.7-18.2,23.5-31.9,50.3-41.1,78.5-2.7,7.9-4.4,16.2-6.7,24.3-1.6-5.9-6.5-10-11.8-12.6-10.1-5-21.5-5.8-32.6-5.6-8.3.3-16.8,1.1-24.7,4.2-3.9,1.6-8.1,4.2-9,8.6-1,3.2,1.3,6.1,3.7,8,4.8,3.6,10.5,5.7,16.1,7.6,11.2,3.7,22.7,6.4,34.2,8.8,4.9,1,10.3,1.5,14.8-1,3.7-1.9,6-5.5,7.7-9.1-2.4,16.7-2.9,33.7-.2,50.3,4.8,30.8,17.1,59.9,31.6,87.2,14.7,27.3,31.9,53.1,50.2,78,14.8,19.9,36.9,33.3,60.3,40.9,31.2,10.2,64.4,12.2,97,10.7,20.1-.9,40.2-3.3,60.1-6.7-1.5,3.1-2.4,6.6-1.3,10-13.9,4-28,7.6-42,11.4-24.6,6.7-49.8,10.4-74.9,14.9-14.1,2.4-28.1,5.1-42.4,6.5-19.9,2.2-39.9,4.1-59.9,5-7.6.2-15.3.8-22.8-.6-6.5-1.3-13.1-.3-19.5.7-16.4,2.6-33.1,4-49.6,2.5-13.7-1.5-27.7-6-37.8-15.7-2.4-5.1-2.2-11.2-.8-16.6.4-1.4.7-2.9.5-4.4-1.7,1.1-2.1,3.1-2.7,4.9-2.1,6.6-1.7,13.8.8,20.2,1,2.8,2.8,5.3,4,8.1-4.4-4-8.3-8.8-10.6-14.3-3.3-7.5-4.6-15.7-5-23.8-.2-2.5.3-5.2-.9-7.5,6-15.9,6-33.6,1.7-49.9-.4-1.2-.5-3-2.3-2.8,4.9,16.7,5.1,35-1.1,51.4-2.8,7.8-8,14.4-10.6,22.3-2.8,7.8-3.8,17.1.9,24.5-6.3-.6-12.8-1.2-18.8-3.2-4-1.3-6.4-5.1-10.1-7-6.2-3.7-12.1-8.6-14.8-15.5-4.6-11.6-2.9-24.5,0-36.3,2.8-10.9,7.1-21.5,12.1-31.6-1-.4-2-.8-3-1.1-4.3,8.6-11.2,15.5-17.4,22.7-5.5,6.1-11.9,11.7-14.9,19.6-5.1,12.5-1.7,26.7,4.9,37.9-6.5-2.5-12.3-6.7-18-10.6-7.4-5.4-14-12-19.1-19.7-6.8-10.2-15.7-19.4-18.8-31.6-1.9-7.8-3.4-16.1-1.8-24.1,2.2-11.6,7.8-22.1,14.1-31.9,5.2-8.1,11.2-15.8,17.1-23.3,4.2-5.4,7.9-11.4,9.6-18.1,1.6-5.8,1.5-11.8,1.6-17.7.1-7.1.9-14.4,3.6-21.1,2.4-6.1,6.9-10.9,11.4-15.5,8.5-8.4,16.9-16.9,24.8-25.9,13.7-15.9,26.3-32.7,38.3-49.8-1.2-3.6-5-5.4-8.6-5.6-8.6-.7-16.8,2.4-24.7,5.6-10.5,4.7-21.3,9.6-29.8,17.5-11.8,10.8-20.1,24.7-26.6,39.2-6.7,15.4-11.8,31.6-14.8,48.2-.9-5,0-10,.7-14.9,2.1-12.1,5.6-24,9.2-35.8,4.2-13.4,12-25.5,21.5-35.8,19.5-20.8,44.7-35.7,71.1-46.1,2.9-18.2,13.6-34.1,26.8-46.6,5.7-5.3,11.7-10.3,18.4-14.2-1.1,9.3-1.6,19,1.1,28l1.3.3c-4.2-18.2-.3-37.2,6.6-54.2,3.8-8.8,8.6-17.4,15.5-24.2,3.6-3.6,8.1-5.9,12-9.1,9.5-7.6,17.6-16.7,25.5-25.9,12.5-14.5,24.6-29.3,37.7-43.3,9.3-9.7,22-15.9,35.2-17.8,15.4-2.2,31.3.2,45.8,5.8-3.8-10.1-8.9-19.8-14.2-29.2-8.3-14.3-18-27.8-29.5-39.6-8.1-8.1-17.1-15.8-27.8-20.4-20.1-8.9-42.8-8.9-64.2-6.1,21.8-6.7,45.5-4.4,66.9,2.4,20.1,6.7,36.2,21.6,49.1,38,12.4,16,22.5,33.9,30.1,52.7,1.1-.3,2.3-.7,3.4-1-2.6-10.4-6-20.7-8.7-31.1-8.3-30.4-15.7-61-21.3-92-4.4-25.6-8.3-51.5-6.8-77.6l.2-.3ZM639.7,238.1c-4.6,6.5-8.8,13.2-12.5,20.3-1.9,5-3.5,10.5-3.1,15.9.2,3.3,4.2,4.9,7,4.1,3.9-1,6.2-4.6,7.9-8,5-9.7,9.6-19.7,12.8-30.1,1-3.7,2.2-7.6,1.5-11.4-.2-1.5-2-2.4-3.3-1.4-4.4,2.4-7.5,6.7-10.5,10.7l.2-.1ZM394.5,235.8c-1.7,1.3-1.9,3.7-.7,5.4,6.2,10.1,16.4,17.2,27.3,21.6,12.9,5.1,27,6.5,40.7,6,7.9-.6,16.2-1.6,23-6,2.5-1.5,4.7-4.8,3-7.7-2.7-4.2-6.7-7.8-11.7-8.9-6.7-1.1-13.6.5-20.2-1.2-13.7-3.6-26-11.1-39.7-14.5-3.2-.7-6.5-1.3-9.7-.4-4.2,1.4-8.7,2.6-12,5.6v.1ZM332,260.9c-4.7,6.8-6.3,15.2-7.4,23.3-1,6.9-.5,14.2-3.7,20.6-5.1,10.4-16,16.6-26.9,19.4-3.3.7-6.3,2.6-7.9,5.6-3.4,6.4.6,15.6,7.9,17.1,4,.8,7.7-1.5,11.2-3.1,10.3-4.8,20.2-10.3,29.4-16.9,7.1-5.2,13.9-11.2,18.3-18.9,3.4-6.2,4.9-13.2,5.9-20.2,1.1-9.1,1.3-18.4-1-27.3-.9-3.1-2.2-6.5-4.8-8.6-1.8-1.5-4.3-1.5-6.4-.8-5.7,1.6-11.1,4.9-14.5,9.9l-.1-.1ZM138,438.2c-.3,1.5.9,2.7,1.9,3.6,3.1,2.5,6.7,4.2,10.4,5.7,7.2,2.9,14.8,5.2,22.3,7.1,3.8,1,7.7.6,11.5.5,2.8-.2,5.9-.4,8.2-2.2,1.7-1.9,1.7-5.1.3-7.2-2-3.1-5.7-4.4-9.2-5.2-7.5-1.7-15.1-3.1-22.8-4-5.8-.6-11.6-1.3-17.4-.5-1.9.3-4,.7-5.3,2.3l.1-.1Z"/>
  <path class="cls-1" d="M650.1,218c2.7-1.7,5.6.8,6.4,3.4,1,3.5,3,7,2.2,10.8-.8,4.9-.4,10.1-2.3,14.8-3.5,11.5-6.1,23.8-14.2,33.1-3.5,4.2-9.2,8-14.9,5.9-5.4-2.3-10.4-7-10.9-13.1-.4-5.8,2.8-10.9,5.3-15.8,5.2-10,10.8-19.7,17.7-28.6,3.1-3.9,6.3-8,10.8-10.4l-.1-.1ZM648.6,224.1c-3.6,1.8-6.2,5.1-8.6,8.2-5.3,7.2-9.6,15.1-13.2,23.2-2.1,5.3-4.6,10.6-5.2,16.3-.3,2.6,0,5.8,2.2,7.6,3.2,2.9,8.1,3,11.7.8,4.5-2.7,6.7-7.6,9.1-12,4.8-9.2,9.2-18.7,11.1-29,.7-4.6,2.2-9.7-.3-14-1.4-2.3-4.7-2.1-6.8-1v-.1ZM144.2,430.2c6.3-.4,12.6-.7,19-.3,10.4.1,21.3.9,30.5,6.3,4.2,2.4,8.1,6.8,7.5,12-.8,4.9-3.3,9.9-7.7,12.6-4.1,2.5-9.1,2-13.6,1.1-12.7-2.6-25.2-5.9-37.2-10.9-4.3-1.9-8.8-3.9-12.3-7.1-1.5-1.3-2.7-3.7-1.3-5.5,2.1-2.6,4.2-5.6,7.4-6.7,2.5-1,5.1-1.2,7.7-1.4v-.1ZM142.5,432.7c-2.5.5-5.5.5-7.1,2.8-1.9,2.3-1.3,5.7.7,7.7,3.3,3.5,8,5.3,12.5,7.1,10.9,3.9,22.4,6.3,34,7,4,0,8.5.2,11.8-2.5,3.1-3.2,3-8.7.2-12-3.2-4.2-8.6-5.5-13.5-6.7-12.6-2.9-25.6-5.4-38.6-3.4h0ZM576.8,695.4c-.9-1.3-1.8-3-3.7-3-2.9,1.1-5.7,2.5-8.6,3.5,4.1-.2,8.2-.6,12.3-.5ZM522.1,714.4c-4.6-1.3-9.7-2.3-14.4-.9-3.6,1.1-5.9,5.7-4.1,9.1,1.7,3.1,4.7,5.1,7.7,6.9,5.1,2.9,10.6,5,16.2,6.8,1.2-1.4,2.5-2.7,3.8-4-3.1-8.5-2.7-18.9,3.3-26.1-2.5.7-5.1,1.1-7.5,2.1-2.2,1.5-3.6,3.8-5,6v.1Z"/>
  <path class="cls-8" d="M456.6,241.7c2.5-.6,5.2-.4,7.7-.6,20.9-.6,41.8.2,62.5,3.2,18.5,2.7,37,7,54.2,14.6,15.2,6.7,29.5,16.3,39.3,29.9,19.3,27.7,37,56.4,53.5,85.8,9.3,16.5,18.3,33.2,28.3,49.3,8.6,13.5,13.6,28.9,16.8,44.5,6.1,30.6,4.1,63.3-8.3,92.1-7.4,17.6-19.7,32.6-32.1,47-30.1,34.1-66.7,62.8-108.2,81.7-18.9,8.6-39,14.7-59.4,18.4-34.7,6.7-70.2,10.5-105.6,8.8-27.5-1.5-55.3-6.3-80.1-18.6-14.6-7.2-27.9-17.4-37.8-30.3-24.5-33.3-47.6-68.1-64.5-106-7.9-17.9-14.3-36.5-17.6-55.8-3-16.8-3.1-34-.5-50.8,4.3-28.3,14.3-55.5,27.9-80.7,8.4-15.3,18.1-29.9,29.8-42.8,18.2-19,38.4-36,60.1-50.9-1.3,8.1.2,17-3.9,24.5-5.1,9.7-15.4,15.2-25.6,17.9-3.6.8-6.8,3-8.5,6.3-3.5,6.9.2,16.3,7.5,18.9,3.2,1.1,6.7.5,9.8-.8,12-4.9,23.6-10.7,34.3-18,6.6-4.5,12.8-9.7,17.6-16.1,4.5-6,6.8-13.4,8.1-20.7,1.7-9.4,2.1-19.1.6-28.6,6.7-2.2,14.6-4.7,21-.4,4.1-5.4,9.4-9.9,14.9-13.8,11.1,11.4,26.3,18.1,41.9,20.7,11.2,1.8,22.8,2.6,34.1.5,5.9-1.3,12.4-3.2,16.2-8.2,2.6-3.2,2.3-8-.3-11.2-3.7-4.8-8.9-8.9-15.2-9.4-6.2-.5-12.5.8-18.7-.5l.2.1ZM509.5,275c-13.1,1.4-26,4.9-37.8,10.8s-22.1,15.2-28,27c-6.6,12.7-7.8,27.5-6.6,41.6,1.7,17.7,7.2,34.9,14.3,51.1,1.2,3.1,1.8,6.4,3.1,9.5,7.7,21.4,24.8,39.2,45.8,47.8,19.9,10.7,42.8,15.2,65.3,14.8,17.5-.2,35.3-2.6,51.1-10.4,12.2-5.9,22.6-15.7,28.6-27.9,7.3-14.7,8.8-31.7,6.7-47.8-.6-6.1-3.2-11.8-5.6-17.4-7.2-15.7-16.3-30.5-26.9-44-15.1-19-33.7-35.9-56-46.1-16.8-7.8-35.7-11-54.1-9h.1ZM342.5,341.6c-6.1.9-12.1,2.6-17.9,4.9-26,10.8-50.9,26.5-67.5,49.7-8.6,12-14.6,25.7-17.7,40.1-4,18-3.7,36.7-2.3,55,.4,8.2,2.5,16.3,5,24.1,4.9,14.2,12.3,27.7,22.7,38.7,9.7,10.3,22.2,18.1,36,21.6,13.4,3.6,27.6,3.1,41.2.3,17.3-3.5,34-10.8,47.9-21.8,19-14.8,32.7-35.8,40.4-58.5,5.4-16,8.4-33,7.4-50-.8-10-3.4-19.8-6.4-29.4-5-15-11.7-29.5-21-42.3-8.2-11.4-18.7-21.6-31.5-27.5-11.2-5.3-24-6.7-36.2-4.9h-.1ZM575.6,564.4c-3.6,1.7-5.3,5.5-7.9,8.2-4.9,5.2-10.4,9.8-16.4,13.5,3.7,8.6,9.4,16.5,17,22.1,5.4,4,12.6,5.5,19.2,3.6,4.2-1.1,8.3-4,9.2-8.4,1.2-5.7-1.3-11.4-4.2-16.2,1.2-4.8,4.5-9.6,3-14.7-2.6-7.7-12.6-11.7-19.9-8.1h0ZM550,713.4c-1.3,6.1-1,12.9,1.9,18.5,2.1,4.2,6.7,6.3,11.2,6.8-1.9-4.5-1.9-9.5-1-14.2,1.4-6.8,4-13.7,9.3-18.4,4.2-4,10.2-5.6,15.9-5.1-7.3-3.8-15.7-1.9-23.3-.3-6.4,1.5-12.4,6.1-14,12.7h0ZM533.5,719.8c-.1,4.5-.3,9.7,2.7,13.5,3.6,3.9,9.5,3.2,14.2,2.3-5.3-7-6.7-16.7-3.8-25,1.5-4.7,5-8.3,9-10.9-3.7,1.4-7.6,2.6-11.3,4-5.8,3.3-10.5,9.3-10.8,16.2v-.1ZM567.8,717.6c-1.9,5.3-3.3,11-2.1,16.6.6,2.4,2.2,5.1,4.9,5.2,2.4.4,4.2-1.5,5.3-3.4,4.1-6.8,5.4-15,9.3-21.9,1.9-3,4.9-5.2,8.1-6.7,1.3-.3.2-1.3-.5-1.5-3.6-2.3-8.1-2.3-12.1-1.1-6.5,1.2-10.9,6.9-13.1,12.8h.2ZM577,741.2c-3.5,3.5-9.6,2.8-12.8-.8-3.5.2-7.1-.2-10.2-1.9,1.6,3.7.4,7.7-1.5,11,1.3.7,2.6,1.6,3.3,2.9,4.5,7.1,9.1,14.1,13.8,21.1,2.3-8.1,9.2-14.7,17.4-16.8,4.3-.8,8.6-.7,12.9-1.5,1.8-2.7,4.3-4.9,7.2-6.5,4.3-2.4,6.4-7.2,7.7-11.8,1.8-6.8-1.2-13.6-4.8-19.3-1.4-2-3-4.4-5.6-4.7-.9,0-2.9.3-2.3,1.7,2.5,8.5,3.5,18.1-.4,26.3-1.1,2.7-2,5.5-3.9,7.8-1.9,2.4-4.7,3.9-7.5,5l-.2-1.3c1.9-1.3,4-2.3,5.5-4.1,2.3-2.6,3-6.2,4.2-9.4,2.2-5.4,1.6-11.5.6-17.1-.8-3.9-1.8-8.3-5.2-10.8-6.1,2.5-8.5,9-10.3,14.8-2.1,5.4-3.6,11.5-7.9,15.7v-.3ZM534.1,753c4.8-2.2,10-3.8,15.3-4,.6-3.7,2.7-7.9.4-11.4-5.8,2.1-13.2,2.1-17.3-3.1-.9,1.5-1.8,3-2.4,4.7-2.1,4.9,1.5,9.8,4,13.8ZM600.7,755.1c5.4-1,11.4-1.8,15.7-5.6,3-2.7,2.9-7,2.1-10.6-2,4.2-4,8.8-8.3,11.1-3.2,1.6-6.7,2.8-9.5,5.1ZM606.9,766c4.1-1.5,5-6.3,5.9-10-5.9,2.4-12.3,3.3-18.7,3.8,3.5,3.1,7.6,7.1,12.7,6.2h.1Z"/>
  <path class="cls-10" d="M478.8,285.6c20.2-8,42.8-10.4,64-5,25,6.1,46.7,21.7,63.8,40.6,12,13.1,22.3,27.8,30.8,43.4,4.1,7.8,8.1,15.6,10.4,24.1,2.8,16.2,1.8,33.6-5.2,48.6-5.7,12.4-16.2,22.2-28.5,28-15.8,7.6-33.6,9.9-51,10-16.6.2-33.4-2.2-49-8.3,18,4,37.5,1.8,54-6.4,23.4-11.3,40.8-34.2,45.1-59.9,2.8-16.2.8-33.3-6.1-48.2-7.7-17-21.3-31.2-37.9-39.6-13.3-6.8-28.4-9.8-43.3-8.7-17,1.2-33.5,7.8-46.6,18.7-11,9.1-19.6,21.1-24.6,34.5-5,12.8-6.1,26.8-4.7,40.3-6.1-15.5-10.6-31.8-11.3-48.4-.6-13.6,1.9-27.7,9.2-39.3,7.1-11.4,18.6-19.6,30.9-24.5v.1ZM534.3,364.7c1.8,11.2,13.2,19.7,24.5,18,11.1-1.2,20.2-11.9,19.2-23.1-.3-12.9-13.7-23.3-26.2-20.4-11.4,2-19.8,14.1-17.4,25.5h-.1ZM300.7,361.3c-15.3,8.7-29.5,19.8-40.3,33.9-8.5,10.9-14.7,23.7-18.2,37.1-4.9,18.3-5,37.6-3.8,56.4.5,13.2,4.4,26.1,10.1,37.9,7,15,17.5,28.7,31.5,37.8,12.3,8.1,27.2,11.9,41.9,11.6,16.2-.6,32.3-4.8,46.9-12,23.1-11.3,41.1-31.4,51.8-54.6-2.9,3.4-5.7,6.9-8.9,9.9-13.6,13.3-31.9,21.6-50.9,23-11.2.7-22.7-.5-33.4-4.2-15.7-5.4-29.7-15.6-39.5-29-9-12-14.5-26.6-15.8-41.5-1.9-19.8,3.7-40.2,15.5-56.1,7.1-9.8,16.4-17.9,27-23.7,15.7-8.7,34.4-11.9,52.2-9.2,28.1,4,53.4,23.9,63.8,50.3-3.6-15-9.4-29.4-17-42.7-8.5-14.6-20-28.1-35.3-35.8-11.4-5.9-24.8-7.4-37.4-5.2-14.3,2.5-27.5,9.2-40.1,16.2l-.1-.1ZM571.7,398.2c.5-2.6,2.2-4.8,4.3-6.4-2.8-.4-5.3-1.9-6.9-4.3-.8,2.7-2.3,5.4-4.7,7,2.8.2,5.5,1.5,7.3,3.7h0ZM475.8,402.9c-1.8,8,4.9,16.3,13,16.6,8.5.7,16.2-7.6,14.6-16-1-8.1-9.9-14-17.7-11.5-5,1.4-9,5.8-9.9,10.9h0ZM355.9,435.5c1.8,11.3,13.5,19.8,24.9,17.9,11.5-1.4,20.5-13.2,18.7-24.7-1.3-12.1-13.9-21.3-25.8-18.8-11.6,1.8-20.2,14.1-17.8,25.6h0ZM522,433.3c2.3.4,4.7-.2,7,.7,3.1,1,5.5,3.4,7.4,6,.3-5.4,3.9-10,8.5-12.5-5.8,0-11-3.5-13.9-8.4-.2,6-4.2,11-9.1,14.1l.1.1ZM386,465.5c2.9,0,5.5,1.4,7.3,3.6.6-2.6,2.2-4.8,4.4-6.3-2.9-.5-5.4-2.1-7.1-4.4-.5,2.9-2.2,5.4-4.6,7.1h0ZM297.2,476.9c0,7.8,7.7,14.4,15.4,13.5,8-.6,14.3-9.1,12.3-17-1.5-7.8-10.4-13-18-10.3-5.8,1.8-10,7.7-9.7,13.8h0ZM358,511.2c.2-5.4,3.9-10,8.5-12.6-5.7-.1-10.9-3.6-13.8-8.5-.3,5.8-4.1,10.8-8.8,13.8,5.6-.4,11.3,2.3,14.1,7.2v.1Z"/>
  <path class="cls-5" d="M521.2,307.8c15.9-2.4,32.5,0,46.9,7.1,12.4,6,23.1,15.3,30.8,26.6,10.7,15.5,15.6,34.8,13.6,53.6-2.5,26-18.9,50.1-42.1,62.1-18.6,9.9-41.2,11.9-61.2,5.5-24.3-7.6-44.4-27.6-51.9-51.9-6.2-19.3-4.6-40.9,4.4-59,11.2-23.2,34.2-40.2,59.7-43.9l-.2-.1ZM523.8,323.9c-20.3,2.4-38.8,15.5-48.1,33.7-7.3,14-9,30.7-4.8,45.8,4,14.8,13.6,27.9,26.4,36.2,11.4,7.5,25.2,11.1,38.8,10.1,14.1-.8,27.9-6.7,38.3-16.3,10-9.1,17-21.4,19.5-34.6,1.9-10.8,1.5-22.1-2.2-32.5-5.3-15.7-17-29.1-31.9-36.4-11.1-5.5-23.8-7.5-36.1-6h.1ZM346.4,380.9c15.5-1.8,31.6,1.1,45.5,8.3,19.4,9.8,34.4,28.1,40.3,49.1,1.7,5.1,1.7,10.5,1.7,15.9-.3,14.6-3.3,29.2-8.2,42.9-1.2,3.6-3.5,6.7-5.6,9.8-8.3,11.5-19.7,20.7-32.7,26.3-18.8,8.3-41,8.9-60.2,1.5-24.3-9.1-43.4-30.8-49.3-56.1-4.4-18.5-2-38.6,7-55.4,11.9-23,35.7-39.5,61.5-42.2v-.1ZM346.7,397.3c-22,2.4-42,17.3-50.6,37.7-6,13.9-6.8,30-2.1,44.4,4.4,13.8,13.7,26,26,33.9,12.2,7.9,27.2,11.3,41.6,9.6,22.6-2.4,43.1-18.1,51.4-39.3,6.3-15.5,6-33.7-.8-49-5.9-13.6-16.9-24.9-30.2-31.4-10.8-5.4-23.2-7.3-35.2-5.9h-.1Z"/>
  <path class="cls-7" d="M580.8,601.2c.4-2.6-.2-6.3,2.5-7.8,2.7-.7,5.3,1,7.7,2.2,2.6,1.2,2.2,4.6,1.9,7-1.3,4.7-6.8,6.2-11.2,6.5-8.7.2-15.8-6.1-21.3-12.3,2.7-1.9,6-3.5,9.5-2.7,4.5.9,7.6,4.4,10.9,7.2v-.1ZM391.4,897.3c3.4,6.7,9.2,11.9,15.8,15.4,12-10.3,23.6-21.2,36.4-30.4-9.6-6.8-18.9-14.2-27.4-22.4-9.2,8.2-19.5,14.9-29.6,21.8,1,5.4,2.2,10.8,4.8,15.6h0ZM470.2,907.1c10.3,5,21.6,7.3,32.8,9.5-1-4.7.2-9.5,2.1-13.8-10.8-.7-21.7-1.6-32-5.1-.4,3.3-1.4,6.5-3,9.4h.1Z"/>
  <path class="cls-9" d="M503,728.6c6.8,5.2,15.2,7.8,23.5,9.4-2.5,5.1.1,10.7,3.5,14.7-9.3,5-22.3.4-26.4-9.3l.7-2.1h-1.2c.1-4.2,0-8.4-.1-12.7h0ZM460.2,783.3c1.1,5.5,4,10.7,8.7,13.8,5.7,4,13.4,4.6,19.6,1.6,5.6-2.6,10-7.9,11.2-14,1.9-8.3-2.2-17.4-9.6-21.5-2.7-1.7-5.9-2.3-9-2.8h-.4c-6.9,7.5-13.8,15.2-20.5,22.9ZM598.4,792.3c4.3-4.5,8.4-9.4,11.5-14.9-8.3,1.4-14.7,8.7-16,16.9,1.8.8,3.2-.9,4.5-2ZM522.5,809.1c1.1,4.3,4,7.7,7.2,10.6,11.5-5.8,21.3-14.3,31.2-22.5-1.8-4.6-4.9-8.8-9.4-11.2-6.4-3.7-14.8-3.3-20.9.9-7.1,4.6-10.7,14.1-8.1,22.2ZM555.7,817.9c4.1-4.1,7-10.3,5.6-16.2-8.6,7.4-17.3,14.7-27.2,20.4,7.2,2.9,16,1.3,21.5-4.2h.1ZM432.6,817.8c-.9,4.4-1.1,9.1.7,13.3,2.9,7.8,11,13.2,19.3,12.7,9.3,0,17.8-7.6,19.1-16.8,1.7-9.5-4.6-19.6-13.9-22.3-5.7-2-11.9-.5-17.1,2.3-3,3.4-5.6,7.1-8.1,10.8h0ZM546.2,855.6c1.8,6.2,6.7,11.4,12.8,13.4,4.1,1.5,8.5,1.1,12.7.2-2.2-13.1-4.2-26.2-6-39.4-5.4.3-10.8,2.2-14.6,6.2-5,5-7.1,12.8-4.9,19.6ZM481.2,847.1c-1.9,6.2-.4,13.2,3.7,18.2,4.5,5.6,12.1,8.5,19.1,7.1,8-1.3,14.7-8,16.1-16,1.7-8.3-2.6-17.3-10-21.3-4.1-2.3-8.9-2.9-13.5-2.1-7.2,1.3-13.4,7-15.4,14.1h0ZM470.9,892.3c3.5-9.7-2.1-21.3-11.7-24.9-7.6-3.1-16.5-.8-22.1,5,10.5,7.8,21.5,15.3,33.8,19.9ZM520.8,898.9c13.4-.8,27.5-1.8,39.5-8.4-1.5-5.2-4.4-10-9.1-12.8-6.9-4.5-16.6-4-23,1.2-6.1,4.6-8.7,12.7-7.4,20.1v-.1Z"/>
  <path class="cls-11" d="M486.3,754.3c4.9-5.2,9.6-10.5,14.7-15.4,0,6.7-.5,13.4-.1,20.1,1.2,12.4,3.5,24.7,6.4,36.8,1.9,7.6,3.9,15.3,7.1,22.4,1.4,2.9,3,6.5,6.5,7.3,4.6.9,9.1-1.3,13.1-3.3h.2c7.2,2.9,16,1.3,21.5-4.2,4.1-4.1,7-10.3,5.6-16.2v-.2c.2-.1.8-.4,1-.6.9,9.7,1.9,19.3,3.3,29-5.4.3-10.8,2.2-14.6,6.2-5,5-7.1,12.8-4.9,19.6,1.8,6.2,6.7,11.4,12.8,13.4,4.1,1.5,8.5,1.1,12.7.2.3,1.9.8,3.9.9,5.9-2.5,6.2-7.2,11.3-12.4,15.5-1.5-5.2-4.4-10-9.1-12.8-6.9-4.5-16.6-4-23,1.2-6.1,4.6-8.7,12.7-7.4,20.1-16.8.3-34-.6-49.9-6.3v-.3c3.6-9.7-2-21.3-11.6-24.9-7.6-3.1-16.5-.8-22.1,5-8.6-6.5-16.7-13.8-24.4-21.4,3-8.4,7.9-16,12.7-23.4,2.4-3.3,4.4-6.9,7.1-9.9-.9,4.4-1.1,9.1.7,13.3,2.9,7.8,11,13.2,19.3,12.7,9.3,0,17.8-7.6,19.1-16.8,1.7-9.5-4.6-19.6-13.9-22.3-5.7-2-11.9-.5-17.1,2.3,6-8.2,12.8-15.9,19.4-23.6,1.1,5.5,4,10.7,8.7,13.8,5.7,4,13.4,4.6,19.6,1.6,5.6-2.6,10-7.9,11.2-14,1.9-8.3-2.2-17.4-9.6-21.5-2.7-1.7-5.9-2.3-9-2.8,1.3-2.4,3.5-4.1,5.2-6.1l.3-.4ZM496.6,833c-7.2,1.3-13.4,7-15.4,14.1-1.9,6.2-.4,13.2,3.7,18.2,4.5,5.6,12.1,8.5,19.1,7.1,8-1.3,14.7-8,16.1-16,1.7-8.3-2.6-17.3-10-21.3-4.1-2.3-8.9-2.9-13.5-2.1h0ZM504.8,765.4c2.2,13.2,5.1,26.4,9,39.2,1.8,5.5,3.4,11.2,6.7,16,2.7,2.3,6.4.1,9.2-.9-3.2-2.9-6.1-6.4-7.2-10.6-2.6-8.1,1-17.6,8.1-22.2,6.1-4.2,14.5-4.5,20.9-.9,4.4,2.4,7.5,6.6,9.4,11.2,4.8-4.3,10.1-8.4,16.7-9.5-14.2-4-24.2-17.1-28-30.9,2.9,3.2,5.3,6.7,7.9,10,6.2,7.9,13.3,15.6,22.4,20.2,3.1-1.5,7.3-3.3,7.7-7.3.4-6.2-2.4-11.9-4.8-17.4-.6.4-1.8,1.1-2.5,1.4,1.9,4.9,4.4,10.2,3.4,15.6-.5,2.8-3.8,3.9-6.3,3-4.3-1.3-8.2-4-11.2-7.5-4.7-6.6-9.2-13.3-13.6-20.1-.9-1.7-3-1.7-4.7-1.6-5.7.6-11.1,2.7-16.1,5.4-3.7,2-7.6,4.4-9.3,8.4-3.5,7.6-4.2,16.2-3.7,24.4-.1,1.3,1,2,1.8,2.7-.9,0-1.8,0-2.6.2-1.6-4.1-1.6-8.6-1.6-12.9.2-6.2,1-12.6,4.2-18.1,2.5-4.4,7.1-6.8,11.3-9.3-.6-.5-1.1-1-1.6-1.6h-.3c-9.3,5.1-22.3.5-26.4-9.2l.7-2.1h-.9c-.1,8,0,16.2,1.5,24.1l-.1.3ZM615,754.9c.6-.4,1.8-1.1,2.4-1.5-.3,8.4-2.5,16.8-7.2,23.9h-.3c-8.3,1.4-14.7,8.8-16,17-5.4-.8-10.8-1.7-15.9-3.5,4.7-1.8,10.5-4.2,11.8-9.6,1-7-2.6-13.6-5.7-19.7,1.8-.5,3.8-1.6,5.5-.3.4-.3,1.3-.9,1.7-1.2,2.5,4,5.8,7.8,10.3,9.6,3.6,1.4,8,.5,10.5-2.5,2.8-3.4,3.2-8.1,2.8-12.3l.1.1ZM586.4,764c1.1,3.8,3.1,7.4,6.2,9.8,5.1,4.2,13,5.2,18.5,1.3-4.6-.3-9.3-.8-13.5-2.9-4.3-1.9-7.4-5.5-11.2-8.2h0ZM578.3,779.4c1.1.6,2.7,0,2.9-1.4.5-4.5-1.1-8.9-2.2-13.2-3.6,2.4-6.2,6.1-7.9,10,2.2,1.8,4.5,3.7,7.2,4.5v.1Z"/>
  <path class="cls-6" d="M378.1,878.2c1.8-2,4.4-2.7,6.9-3.2-.9,7.1-1.1,14.4,1.6,21.2,4.2,11.9,16.3,20.9,29,20.4-.3,1.5,0,3.4-1.7,4.1-5.7,3.8-12.3,6.1-18.3,9.5-2.4,1-4.5,3-7.1,3.4-8.5-1.5-17-5.7-22.2-12.8-3-3.9-4.3-8.7-5.2-13.4-.3,0-.9-.2-1.1-.3,0,8.1,3.9,15.9,10,21.1,4.5,4,10.2,6.4,15.9,8.2-4,7-8,14-12.6,20.6-5.3,6.3-14.5,6.6-21.9,5-5.1-.6-8.7-4.8-11.3-9-4.2-7.5-4.5-16.5-3.6-24.8,1.1-11.3,5.4-22.7,13.9-30.4,2.9-3,7.6-1.9,10.9-4.2,6.4-4.1,11.7-9.7,16.9-15.2l-.1-.2ZM462.3,909.9c-2.5,9-3.7,18.3-4.1,27.6.3,7-1.8,13.8-3.6,20.5,6.7,3,14.2,3.9,21.4,5,17.8,1.8,35.7,0,53.5,1.6.2-4.2.6-8.9-1.9-12.6-3.5-5.1-8.9-8.5-14.4-11.1-6.8,0-13.8.7-20,3.6-3,1.3-4.7,4.3-7.2,6.3.9-3.2,2.6-6.1,5.4-8.1,5.1-3.9,11.6-4.9,17.8-5.8,1.9-5.8,4-11.6,6.3-17.2-1-1.6-2.5-2.8-4-3.8-1.3,1.6-2.7,3.6-5,3.7-5.9.4-11.8-.9-17.7-1.8-9-1.6-17.2-6.2-24.4-11.7-.9,1.2-1.9,2.4-2.2,3.9l.1-.1ZM415.7,915.7c0-1.8-.2-3.7-.4-5.5-2.1.9-4.1,2.1-5.9,3.5,2,.9,4.2,1.6,6.4,2h-.1ZM509.8,914.9c-1.1-.6-2.3-1.1-3.5-1.5-.3,1.3-.6,2.6-.9,3.9,1.6-.1,4.8,0,4.4-2.4ZM386,878.9c1.2-.9,3.6-1.7,3.2-3.6-1.1-.2-2.3-.3-3.4-.4,0,1.3.1,2.6.2,3.9v.1Z"/>
  <path class="cls-4" d="M326.7.9c.2.6.4,1.2.6,1.9,6.1,37.2,12.9,74.3,20.4,111.3,5.1,24.6,10.3,49.2,17.1,73.5,2.8,9.4,5.4,18.9,10,27.6,10.6-20.9,29-37.5,50.6-46.5,17.8-7.6,37.5-10,56.7-9.1,8.8.4,17.5,1.7,26.3,2.7,23.5,2.7,47.2,4.4,70.8,5.8,15.8,1,31.6,1.7,47.2,4.2,11.3,1.9,22.9,5.3,31.8,12.8,13.1,11.3,27.1,21.9,43.2,28.6,16.5,7.1,34.6,9.8,52.4,9.2,8.5-.3,17.1.3,25.3,2.4,12.2,3,23.2,9,34.2,14.7,8,4.2,16.5,8,25.6,8.9,6.8.9,13.4-1,20.2-1.3,11.2-.7,23.2,1.5,32.1,8.9,10.5,8.5,15.2,21.6,21.9,32.9,7.3,4.9,14.4,10.5,19.1,18,6.8,10.8,7.7,24.6,4.2,36.8-2.2,8.5-6.6,17-4.9,26,1.8,6.8,4.3,13.4,7.8,19.5,2.2,4.2,6,7,9,10.5-12.3-4-24.4-10.3-32.2-20.9-.2,17.9-2.8,36.2-10.5,52.6-5.4,11.6-12.5,22.6-21.9,31.4,0,11,.7,22.1-1.8,32.9-2,9.2-5.6,18.3-12.1,25.3,0-14.7-1.4-29.4-4.1-43.8-7.8,6.1-14.6,13.5-19.6,22.1-3.7,7.3-8.2,14.1-13.4,20.4-7.8,9.1-16.2,18.2-26.7,24.3-.5-1.3-1-2.6-1.4-3.8-.1,8.7,1,17.8-1.9,26.3-4.8,12.3-10.2,24.3-16,36.1.5-4.7,1.4-9.4,1.9-14.2.3-3.2.6-6.7-1-9.7-2.9.8-5.2,3-7.5,4.9-13.7,11.1-27.3,22.6-42.6,31.6-7,4.2-14.8,6.8-22,10.8-20.1,10.6-38.9,23.5-58.3,35.4-17.8,10.7-36,20.8-54.9,29.6-5.3,2.4-10.7,4.9-16.5,6.1,2.6,1.3,4.3,3.7,6.5,5.4,3.6,2,6,5.6,8.7,8.6,3-2.5,7.3-1.2,9.8,1.5,5.7,6,9.6,14.3,8.3,22.7,3.1,4.7,3.8,11.2,0,15.8.9,8.1.3,16.7-3.6,24-3.7,7-8.2,13.6-14.1,18.8-2.2,1.8-4.9,3.7-7.9,3.3-6.5-1.1-12.8-3.2-18.7-6.2-4.2,1.2-7.5,4.1-10.9,6.7,1.2,17.5,4.6,34.8,7.5,52.2,1.2,7,2.4,14.1,3.7,21.1.3,1.8,1,3.7,0,5.4-3.1,6.8-8,12.8-14.2,17-6.5,3.8-14.1,5.5-21.4,6.9-10.5,1.8-21.1,2.3-31.7,2.1,0,2.8-.6,5.6-1.1,8.4,4.1,1.1,8.8,2.3,11.3,6,1.5,2.3.2,5-.6,7.3-1.7,4.6-3.1,9.3-4.7,14,6.4,2.7,12.9,6,17.1,11.7,3,4,3,9.3,2.7,14-.2,1.7-.6,4.3-2.7,4.6-14.2,1.5-28.5,2.7-42.8,2.7-11.3,0-23.2-.3-33.4-6-1.8-1.1-4-2.4-4.1-4.7,3.2-9.8,6-19.9,6-30.3.6-7.7,2.4-15.3,5-22.5,1-3.1,4.1-4.7,7.2-4.8.4-2.4,1.2-4.7,2.3-6.9-8.8-3.3-17-8.1-24.9-13.2-8.3,9.1-17.6,17.3-27.4,24.6.6,4.9,2.8,10.3-.2,14.8-2.3,2.3-5.5,3.6-8.3,5.1-6.3,3-12.8,5.5-19.4,7.6-4,7.4-8.1,14.9-12.6,22.1-3,4.9-8.6,7.9-14.2,8.7-7.5,1.1-15.1-.6-22-3.3-5.9-2.3-9.9-8-11.2-14-2.2-9.2-.8-18.8,1.6-27.9,1.9-6.6,4.1-13.3,8-19,3.2-4.6,8-8.2,13.5-9.4,2.4-.6,5.1-.6,7.2-2,6.3-4,11.5-9.3,17-14.3,3.8-3.3,9.4-3.5,14-1.9,7.4-5.9,15.1-11.5,23.5-16-2-2-4.1-4.1-6.1-6.1,2.5-9,7.8-16.9,12.7-24.7,11.2-16.6,24.2-31.9,37.5-46.8,12.1-13.4,24.7-26.5,37.5-39.3,1.6-1.6,3.2-3.2,5-4.6,0-3.1.3-6.2.3-9.3-.7-.7-1.3-1.5-1.7-2.4-13.2,4-26.3,8-39.6,11.8-25.4,7.4-51.6,11.8-77.5,16.7-15.6,2.8-31.1,5.7-46.9,7.2-18.7,2-37.4,3.7-56.1,4.4-7.7.2-15.6.6-23.2-1-6.1-1.1-12.2-.1-18.2.7-15.9,2.3-32.1,3.3-48.1,1.9-13.6-1.5-27.2-5.9-37.8-14.8.1,1.9,1.5,3.4,2.5,4.9,3.8,5.8,9.2,10.3,14.9,14.1-2.6.3-5.2,1.3-7.8.6-4.2-1.1-7.7-3.9-10.9-6.8-4.6-4.4-9-9.3-11.7-15.2-4.6-10.2-5.3-21.7-4.2-32.6-3.8,8.4-9.3,16.2-10.9,25.5-1.1,5.8-.9,12.6,3.2,17.3,1,1.3,2.8,1.1,4.1,1.9.6,1,0,2.2-1.1,2.3-9.7-2.5-20.7-1-29.6-6.4-5.2-5.1-12.2-7.7-17.1-13.2-6.1-6.6-8.4-15.8-8.6-24.6-.2-13.1,3.4-25.8,7.8-38-4.9,5.8-10,11.4-15.2,17-5.3,5.7-8.8,13.2-9,21.1-.2,9.1,3.1,18,7.9,25.7,2.1,3.5,4.9,6.5,7.3,9.8-20.1-7.8-39.6-19.7-51.7-38-6.8-10-15.4-19.2-18.8-31.1-2.5-9.6-4.2-19.8-1.7-29.5,4-16.9,14-31.5,24.3-45.3,5.5-7.5,12.3-14.4,15.3-23.5,3.9-11.8.6-24.6,4.3-36.5,2.7-11.9,12.1-20.1,20.4-28.3,20.7-20.2,38.4-43.3,55.1-66.8-4-2.5-9-1.7-13.4-.9-10.5,2.4-20.2,7.2-29.6,12.2-10,5.3-18.2,13.4-24.8,22.4-8.2,11.4-14.3,24.2-19.2,37.3-4.9,13.4-8.7,27.2-11,41.3-1.8-.2-3.7-.9-4.4-2.7-2.1-5-1.2-10.7-.7-16,2-13.5,5.9-26.7,10-39.7s11.5-24.9,20.5-35c19.8-21.9,46-37.3,73.3-48,3.3-18.5,14.6-34.5,28.3-47,5.8-5.3,12.1-10,18.8-14.1.8-1.8.9-3.8,1.3-5.7,2.7-12.2,7.2-24,14-34.5,3.5-5.1,7.5-10,12.7-13.5,15.8-10.4,27.5-25.5,39.6-39.7,9.7-11.6,19.5-23.2,29.7-34.4,8.9-9.5,20.8-16,33.6-18.5,14.7-2.9,30.1-1.4,44.4,3-10.3-22.6-23.7-44.2-41.3-61.9-8.3-8.3-17.6-16-28.7-20.2-19.7-7.7-41.6-7.6-62.2-4.2-7.9,1.2-15.4,3.6-23.1,5.7,5.3-4,10.7-8.1,16.9-10.6,17.2-7.2,36.5-8,54.7-5.2,12.4,2.1,24.9,5.1,35.9,11.5,17.9,10.1,31.9,25.8,43.5,42.5,4.6,6.7,8.7,13.7,12.7,20.8-10.5-37.8-19.8-75.9-25.9-114.7-2.9-19.3-5.2-38.8-4.4-58.3.3-9.2,2.4-18.2,4.3-27.2v-.2ZM326.6,23.8c-1.5,26,2.3,52,6.8,77.6,5.6,31,13,61.6,21.3,92,2.7,10.4,6.1,20.7,8.7,31.1-1.2.3-2.3.7-3.4,1-7.6-18.8-17.7-36.7-30.1-52.7-12.8-16.4-29-31.3-49.1-38-21.5-6.8-45.1-9.1-66.9-2.4,21.4-2.8,44.1-2.8,64.2,6.1,10.7,4.6,19.6,12.2,27.8,20.4,11.5,11.8,21.2,25.3,29.5,39.6,5.4,9.4,10.4,19,14.2,29.2-14.5-5.6-30.4-8.1-45.8-5.8-13.3,1.9-25.9,8.1-35.2,17.8-13,14-25.2,28.8-37.7,43.3-7.9,9.2-16.1,18.3-25.5,25.9-3.9,3.2-8.5,5.6-12,9.1-6.9,6.7-11.7,15.3-15.5,24.2-6.9,17-10.8,36-6.6,54.2l-1.3-.3c-2.7-9.1-2.2-18.8-1.1-28-6.7,3.9-12.7,9-18.4,14.2-13.2,12.4-23.9,28.4-26.8,46.6-26.4,10.4-51.6,25.3-71.1,46.1-9.5,10.3-17.3,22.4-21.5,35.8-3.7,11.8-7.1,23.6-9.2,35.8-.8,4.9-1.6,9.9-.7,14.9,3-16.6,8.1-32.8,14.8-48.2,6.5-14.4,14.8-28.4,26.6-39.2,8.5-8,19.3-12.8,29.8-17.5,7.8-3.1,16.1-6.2,24.7-5.6,3.6.2,7.4,2,8.6,5.6-12.1,17.1-24.6,33.9-38.3,49.8-7.8,9-16.3,17.5-24.8,25.9-4.5,4.6-9,9.5-11.4,15.5-2.7,6.7-3.4,13.9-3.6,21.1-.1,5.9,0,12-1.6,17.7-1.7,6.7-5.4,12.7-9.6,18.1-6,7.6-11.9,15.2-17.1,23.3-6.3,9.8-12,20.3-14.1,31.9-1.6,8,0,16.3,1.8,24.1,3.1,12.2,12.1,21.4,18.8,31.6,5.1,7.7,11.7,14.3,19.1,19.7,5.7,4,11.4,8.1,18,10.6-6.7-11.2-10-25.5-4.9-37.9,3-7.9,9.4-13.5,14.9-19.6,6.2-7.2,13.1-14.2,17.4-22.7,1,.4,2,.7,3,1.1-5,10.1-9.2,20.7-12.1,31.6-2.9,11.8-4.6,24.7,0,36.3,2.7,6.9,8.6,11.8,14.8,15.5,3.7,1.9,6,5.8,10.1,7,6.1,2,12.5,2.7,18.8,3.2-4.7-7.3-3.7-16.7-.9-24.5,2.5-7.9,7.7-14.5,10.6-22.3,6.2-16.3,6-34.7,1.1-51.4,1.7-.2,1.9,1.5,2.3,2.8,4.3,16.3,4.3,34-1.7,49.9,1.1,2.3.7,5,.9,7.5.4,8.1,1.7,16.4,5,23.8,2.4,5.5,6.3,10.2,10.6,14.3-1.2-2.8-2.9-5.3-4-8.1-2.5-6.4-2.9-13.6-.8-20.2.6-1.8,1-3.8,2.7-4.9.2,1.5-.2,2.9-.5,4.4-1.3,5.4-1.6,11.5.8,16.6,10.1,9.7,24.1,14.2,37.8,15.7,16.6,1.5,33.2.1,49.6-2.5,6.4-1,13-2,19.5-.7,7.5,1.4,15.2.9,22.8.6,20-.9,40-2.9,59.9-5,14.2-1.5,28.3-4.2,42.4-6.5,25-4.5,50.3-8.2,74.9-14.9,14-3.7,28.1-7.3,42-11.4-1.2-3.4-.3-6.9,1.3-10-19.9,3.4-39.9,5.8-60.1,6.7-32.6,1.4-65.8-.5-97-10.7-23.3-7.7-45.4-21-60.3-40.9-18.3-24.9-35.5-50.7-50.2-78-14.5-27.4-26.8-56.4-31.6-87.2-2.8-16.7-2.2-33.7.2-50.3-1.7,3.6-4,7.3-7.7,9.1-4.5,2.4-9.9,2-14.8,1-11.5-2.4-23-5.1-34.2-8.8-5.6-2-11.3-4-16.1-7.6-2.4-1.8-4.7-4.7-3.7-8,.9-4.5,5.1-7.1,9-8.6,7.8-3.1,16.3-3.9,24.7-4.2,11.1-.3,22.5.6,32.6,5.6,5.3,2.5,10.3,6.7,11.8,12.6,2.3-8.1,3.9-16.3,6.7-24.3,9.2-28.2,23-55,41.1-78.5,9-11.8,20-21.8,31-31.7,12.4-10.8,25.4-21,39.1-30.1.7-.6,1.8-1,1.8-2,1.1-6.8,2.9-13.8,7-19.5s10.4-9.5,17.1-11.1c3.1-.7,6.5.2,8.8,2.4,3.4,3.2,5,7.8,6,12.2,6.2-3.3,13.5-6,20.5-3.4,4.1-4.3,9.2-7.6,14.6-9.9-1.7-2.6-4-4.9-5.2-7.8-.9-2.2,0-4.7,1.9-6.2,3.1-2.6,7.1-3.9,10.8-5.3,4.6-1.8,9.8-.9,14.5.2,10.1,2.6,19.7,6.9,29.6,10.2,1.2.4,2.5.8,3.8.7,25.7-1.8,51.7-1.2,77.2,2.4,19,2.8,38,7.3,55.5,15.5,11.8,5.5,22.9,12.8,31.8,22.3-2.8-5.1-2.9-11.2-.4-16.5,5.5-11.6,11.6-23,18.5-33.8,3.4-5,6.8-10.1,11.6-13.8,2.4-1.9,5.8-3,8.6-1.5,3.9,2,5.4,6.5,5.9,10.6,1,7.2,0,14.6-1.4,21.7-2.3,10.8-5.6,21.8-12.2,30.8-3.9,5.3-9.4,10.5-16.3,10.8-4.3.2-8-2.3-11.1-5,4.8,6.7,9.4,13.6,14.1,20.4,19.9,29.3,37.6,60.1,54.9,91.1,6.3,11.3,13.2,22.3,19.7,33.4,11.3,21.8,16.4,46.5,16.9,70.9.5,29.3-6.9,59.2-23.5,83.7-7.3,10.5-15.4,20.5-24,30-28.4,31.6-62.5,58.2-100.8,76.9.7,1.7,1.1,3.6,1,5.5,2.3.5,4.7,1.6,7.1.6,10.2-3.1,19.6-8.4,29-13.3,18.7-10.2,37.2-20.9,54.9-32.8,19.1-12.5,38.3-25.3,59.3-34.4,18.1-9.1,33.3-22.8,49.1-35.3,2.9-2.3,6.1-5.6,10.1-4.8,2.5.5,3.2,3.2,4.5,5,2-4.5,3.9-9,5.7-13.5,2.7-6.4,2.5-13.5,2.4-20.3-.3-11.7-2.4-23.2-4-34.8,3.9,9.2,7,18.6,10.7,27.8,10.5-7.3,19.4-16.7,27.3-26.7,3.8-4.8,6.8-10.1,9.9-15.4,5.3-8.6,12.6-15.7,20.6-21.8-1.4-6.2-3-12.5-5.4-18.4-.9-2.1-2.1-4.1-2.4-6.4,2.4.8,2.9,3.6,4.2,5.5,7.7,15.9,10.2,33.8,11.6,51.2.6-.4,1-.9,1.2-1.6,1.6-4.1,2.9-8.4,3.8-12.8.3-1.1-.2-2.1-.4-3.1.3-.4,1-1,1.3-1.4,2-17.6.9-35.4,1.1-53.1l1.1-.5c1.2,8.3,1.5,16.6,2,24.9.2,0,.5,0,.7.1,9.3-10.1,16.1-22.3,20.9-35,6.8-18.6,8.2-38.7,6.6-58.3,1.2-.2,2.3-.4,3.5-.6,1.9,10.5,10.3,18.5,19.4,23.4-2.7-6.1-5.4-12.2-6.9-18.7-1.7-7.8,1.1-15.5,3.5-22.8,2.9-8.4,4.9-17.4,3.2-26.2-1.2-8.1-5.3-15.5-11-21.2-9.4-9.7-21.8-16.1-34.3-20.8l.5-1.2c7.3,2,14.1,5.3,20.8,8.8-5.7-10.4-10.6-21.9-19.9-29.7-7.9-6.7-18.5-9.1-28.7-8.7-7.9,0-15.7,2.5-23.6,1.4-14.3-1.5-26.6-9.8-39.3-15.8-13.2-6.5-27.8-10.5-42.5-9.8-16.6.8-33.5-.9-49.2-6.4-16-5.5-30.5-14.8-43.6-25.5-4.7-3.8-9.1-8.1-14.5-10.9-10.1-5.4-21.5-7.2-32.7-8.5-18.5-2-37.2-2.6-55.8-3.8-20-1.3-39.9-2.9-59.8-5.3-11-1.2-22-1.6-33-1.7-19.7.8-39.5,6.2-56.2,16.9-15.6,10.2-28.6,24.8-35.8,42.1-2.8-2.5-4.7-5.8-6.2-9.2-3.3-7.4-5.7-15.3-8-23-6.5-22.8-11.6-46-16.4-69.3-6.5-31.1-12.3-62.4-17.7-93.7-.2-1.1-.5-2.2-.8-3.3l-.2.3ZM650.1,218c-4.5,2.4-7.7,6.5-10.8,10.4-6.8,8.9-12.5,18.7-17.7,28.6-2.5,5-5.6,10.1-5.3,15.8.4,6.1,5.5,10.9,10.9,13.1,5.7,2.1,11.3-1.7,14.9-5.9,8.2-9.3,10.7-21.6,14.2-33.1,1.9-4.7,1.5-9.9,2.3-14.8.8-3.8-1.2-7.3-2.2-10.8-.8-2.6-3.7-5.1-6.4-3.4l.1.1ZM406.6,230.2c-4.2,1.4-8.7,2.6-12,5.6-1.7,1.3-1.9,3.7-.7,5.4,6.2,10.1,16.4,17.2,27.3,21.6,12.9,5.1,27,6.5,40.7,6,7.9-.6,16.2-1.6,23-6,2.5-1.5,4.7-4.8,3-7.7-2.7-4.2-6.7-7.8-11.7-8.9-6.7-1.1-13.6.5-20.2-1.2-13.7-3.6-26-11.1-39.7-14.5-3.2-.7-6.5-1.3-9.7-.4v.1ZM456.6,241.7c6.2,1.3,12.5,0,18.7.5,6.2.4,11.5,4.6,15.2,9.4,2.5,3.1,2.9,7.9.3,11.2-3.9,5-10.3,6.9-16.2,8.2-11.3,2.1-22.9,1.4-34.1-.5-15.6-2.6-30.8-9.3-41.9-20.7-5.6,3.9-10.8,8.4-14.9,13.8-6.4-4.3-14.3-1.8-21,.4,1.5,9.5,1.1,19.2-.6,28.6-1.4,7.3-3.6,14.7-8.1,20.7-4.8,6.4-11.1,11.6-17.6,16.1-10.7,7.3-22.3,13.1-34.3,18-3,1.3-6.6,1.9-9.8.8-7.3-2.6-11-12-7.5-18.9,1.7-3.3,4.9-5.6,8.5-6.3,10.2-2.6,20.5-8.2,25.6-17.9,4.1-7.5,2.6-16.3,3.9-24.5-21.7,14.9-41.9,31.9-60.1,50.9-11.7,12.9-21.5,27.5-29.8,42.8-13.6,25.1-23.7,52.4-27.9,80.7-2.6,16.8-2.5,34.1.5,50.8,3.3,19.3,9.8,37.9,17.6,55.8,16.9,37.9,39.9,72.7,64.5,106,10,12.9,23.2,23.1,37.8,30.3,24.8,12.4,52.6,17.1,80.1,18.6,35.4,1.7,70.9-2.1,105.6-8.8,20.5-3.8,40.5-9.8,59.4-18.4,41.5-18.9,78.1-47.6,108.2-81.7,12.4-14.4,24.7-29.3,32.1-47,12.4-28.8,14.4-61.5,8.3-92.1-3.2-15.6-8.2-31-16.8-44.5-10-16.1-19-32.8-28.3-49.3-16.5-29.4-34.2-58.1-53.5-85.8-9.8-13.5-24.1-23.2-39.3-29.9-17.2-7.6-35.7-11.9-54.2-14.6-20.7-2.9-41.6-3.8-62.5-3.2-2.6.2-5.2,0-7.7.6l-.2-.1ZM346.4,251c-5.7,1.6-11.1,4.9-14.5,9.9-4.7,6.8-6.3,15.2-7.4,23.3-1,6.9-.5,14.2-3.7,20.6-5.1,10.4-16,16.6-26.9,19.4-3.3.7-6.3,2.6-7.9,5.6-3.4,6.4.6,15.6,7.9,17.1,4,.8,7.7-1.5,11.2-3.1,10.3-4.8,20.2-10.3,29.4-16.9,7.1-5.2,13.9-11.2,18.3-18.9,3.4-6.2,4.9-13.2,5.9-20.2,1.1-9.1,1.3-18.4-1-27.3-.9-3.1-2.2-6.5-4.8-8.6-1.8-1.5-4.3-1.5-6.4-.8l-.1-.1ZM144.2,430.2c-2.6.2-5.3.5-7.7,1.4-3.3,1.2-5.3,4.1-7.4,6.7-1.4,1.8-.2,4.2,1.3,5.5,3.5,3.2,8,5.2,12.3,7.1,12,4.9,24.6,8.2,37.2,10.9,4.5.9,9.5,1.3,13.6-1.1,4.4-2.7,6.8-7.7,7.7-12.6.6-5.2-3.3-9.6-7.5-12-9.2-5.3-20.1-6.1-30.5-6.3-6.3-.4-12.7,0-19,.3v.1ZM564.5,695.9c4.1-.2,8.2-.6,12.3-.5-.9-1.3-1.8-3-3.7-3-2.9,1.1-5.7,2.5-8.6,3.5ZM563.9,700.7c-6.4,1.5-12.4,6.1-14,12.7-1.3,6.1-1,12.9,1.9,18.5,2.1,4.2,6.7,6.3,11.2,6.8-1.9-4.5-1.9-9.5-1-14.2,1.4-6.8,4-13.7,9.3-18.4,4.2-4,10.2-5.6,15.9-5.1-7.3-3.8-15.7-1.9-23.3-.3h0ZM544.3,703.6c-5.8,3.3-10.5,9.3-10.8,16.2-.1,4.5-.3,9.7,2.7,13.5,3.6,3.9,9.5,3.2,14.2,2.3-5.3-7-6.7-16.7-3.8-25,1.5-4.7,5-8.3,9-10.9-3.7,1.4-7.6,2.6-11.3,4v-.1ZM580.9,704.8c-6.5,1.2-10.9,6.9-13.1,12.8-1.9,5.3-3.3,11-2.1,16.6.6,2.4,2.2,5.1,4.9,5.2,2.4.4,4.2-1.5,5.3-3.4,4.1-6.8,5.4-15,9.3-21.9,1.9-3,4.9-5.2,8.1-6.7,1.3-.3.2-1.3-.5-1.5-3.6-2.3-8.1-2.3-12.1-1.1h.2ZM527.1,708.4c-2.2,1.5-3.6,3.8-5,6-4.6-1.3-9.7-2.3-14.4-.9-3.6,1.1-5.9,5.7-4.1,9.1,1.7,3.1,4.7,5.1,7.7,6.9,5.1,2.9,10.6,5,16.2,6.8,1.2-1.4,2.5-2.7,3.8-4-3.1-8.5-2.7-18.9,3.3-26.1-2.5.7-5.1,1.1-7.5,2.1v.1ZM584.9,725.5c-2.1,5.4-3.6,11.5-7.9,15.7-3.5,3.5-9.6,2.8-12.8-.8-3.5.2-7.1-.2-10.2-1.9,1.6,3.7.4,7.7-1.5,11,1.3.7,2.6,1.6,3.3,2.9,4.5,7.1,9.1,14.1,13.8,21.1,2.3-8.1,9.2-14.7,17.4-16.8,4.3-.8,8.6-.7,12.9-1.5,1.8-2.7,4.3-4.9,7.2-6.5,4.3-2.4,6.4-7.2,7.7-11.8,1.8-6.8-1.2-13.6-4.8-19.3-1.4-2-3-4.4-5.6-4.7-.9,0-2.9.3-2.3,1.7,2.5,8.5,3.5,18.1-.4,26.3-1.1,2.7-2,5.5-3.9,7.8-1.9,2.4-4.7,3.9-7.5,5l-.2-1.3c1.9-1.3,4-2.3,5.5-4.1,2.3-2.6,3-6.2,4.2-9.4,2.2-5.4,1.6-11.5.6-17.1-.8-3.9-1.8-8.3-5.2-10.8-6.1,2.5-8.5,9-10.3,14.8v-.3ZM503,728.6c0,4.2.2,8.4.1,12.7h.3c-.1,8,0,16.2,1.5,24.1,2.2,13.2,5.1,26.4,9,39.2,1.8,5.5,3.4,11.2,6.7,16,2.7,2.3,6.4.1,9.2-.9,11.5-5.8,21.3-14.3,31.2-22.5,4.8-4.3,10.1-8.4,16.7-9.5-14.2-4-24.2-17.1-28-30.9,2.9,3.2,5.3,6.7,7.9,10,6.2,7.9,13.3,15.6,22.4,20.2,3.1-1.5,7.3-3.3,7.7-7.3.4-6.2-2.4-11.9-4.8-17.4-.6.4-1.8,1.1-2.5,1.4,1.9,4.9,4.4,10.2,3.4,15.6-.5,2.8-3.8,3.9-6.3,3-4.3-1.3-8.2-4-11.2-7.5-4.7-6.6-9.2-13.3-13.6-20.1-.9-1.7-3-1.7-4.7-1.6-5.7.6-11.1,2.7-16.1,5.4-3.7,2-7.6,4.4-9.3,8.4-3.5,7.6-4.2,16.2-3.7,24.4-.1,1.3,1,2,1.8,2.7-.9,0-1.8,0-2.6.2-1.6-4.1-1.6-8.6-1.6-12.9.2-6.2,1-12.6,4.2-18.1,2.5-4.4,7.1-6.8,11.3-9.3-.6-.5-1.1-1-1.6-1.6h-.3c-3.4-3.9-5.9-9.4-3.5-14.5-8.3-1.6-16.7-4.2-23.5-9.4l-.1.2ZM530.2,739.2c-2.1,4.9,1.5,9.8,4,13.8,4.8-2.2,10-3.8,15.3-4,.6-3.7,2.7-7.9.4-11.4-5.8,2.1-13.2,2.1-17.3-3.1-.9,1.5-1.8,3-2.4,4.7ZM610.2,750c-3.2,1.6-6.7,2.8-9.5,5.1,5.4-1,11.4-1.8,15.7-5.6,3-2.7,2.9-7,2.1-10.6-2,4.2-4,8.8-8.3,11.1ZM486.3,754.3c-1.8,2-3.9,3.7-5.2,6.1h-.4c-6.9,7.5-13.8,15.2-20.5,22.9-6.6,7.8-13.4,15.4-19.4,23.6-3,3.4-5.6,7.1-8.1,10.8-2.7,3.1-4.7,6.6-7.1,9.9-4.8,7.4-9.7,15-12.7,23.4,7.7,7.6,15.7,14.8,24.4,21.4,10.5,7.8,21.5,15.3,33.8,19.9v.3c15.9,5.6,33,6.6,49.8,6.3,13.4-.8,27.5-1.8,39.5-8.4,5.2-4.1,9.8-9.3,12.4-15.5-.1-2-.6-3.9-.9-5.9-2.2-13.1-4.2-26.2-6-39.4-1.4-9.6-2.3-19.3-3.3-29-.3.2-.8.5-1.1.6v.2c-8.6,7.4-17.3,14.7-27.1,20.4h-.2c-4,2-8.5,4.2-13.1,3.3-3.5-.7-5.1-4.4-6.5-7.3-3.2-7.2-5.2-14.8-7.1-22.4-2.9-12.1-5.3-24.4-6.4-36.8-.4-6.7.1-13.4.1-20.1-5.1,4.9-9.8,10.3-14.7,15.4l-.2.3ZM615,754.9c.4,4.2,0,8.9-2.8,12.3-2.5,3-6.9,3.9-10.5,2.5-4.5-1.7-7.8-5.6-10.3-9.6-.4.3-1.3.9-1.7,1.2-1.7-1.3-3.7-.3-5.5.3,3.1,6,6.7,12.6,5.7,19.7-1.3,5.4-7.1,7.8-11.8,9.6,5.1,1.8,10.5,2.7,15.9,3.5,1.8.8,3.2-.9,4.5-2,4.3-4.5,8.4-9.4,11.5-14.9h.3c4.7-7.2,6.9-15.5,7.2-23.9-.6.4-1.8,1.1-2.4,1.5l-.1-.2ZM594.2,759.9c3.5,3.1,7.6,7.1,12.7,6.2,4.1-1.5,5-6.3,5.9-10-5.9,2.4-12.3,3.3-18.7,3.8h.1ZM571.1,774.8c2.2,1.8,4.5,3.7,7.2,4.5,1.1.6,2.7,0,2.9-1.4.5-4.5-1.1-8.9-2.2-13.2-3.6,2.4-6.2,6.1-7.9,10v.1ZM386.5,881.6c1,5.4,2.2,10.8,4.8,15.6,3.4,6.7,9.2,11.9,15.8,15.4,12-10.3,23.6-21.2,36.4-30.4-9.6-6.8-18.9-14.2-27.4-22.4-9.2,8.2-19.5,14.9-29.6,21.8h0ZM378.1,878.2c-5.3,5.5-10.5,11.1-16.9,15.2-3.3,2.3-8,1.2-10.9,4.2-8.5,7.8-12.8,19.1-13.9,30.4-.9,8.3-.6,17.3,3.6,24.8,2.5,4.1,6.2,8.3,11.3,9,7.5,1.6,16.6,1.3,21.9-5,4.6-6.6,8.6-13.6,12.6-20.6-5.7-1.7-11.4-4.2-15.9-8.2-6.1-5.2-10-13-10-21.1.3,0,.9.2,1.1.3,1,4.7,2.2,9.5,5.2,13.4,5.2,7.1,13.7,11.3,22.2,12.8,2.6-.3,4.7-2.3,7.1-3.4,6-3.4,12.6-5.7,18.3-9.5,1.6-.8,1.4-2.7,1.7-4.1-12.7.5-24.8-8.5-29-20.4-2.6-6.7-2.5-14.1-1.6-21.2-2.5.5-5.1,1.2-6.9,3.2l.1.2ZM385.8,874.9c0,1.3.1,2.6.2,3.9,1.2-.9,3.6-1.7,3.2-3.6-1.1-.2-2.3-.3-3.4-.4v.1ZM473.2,897.6c-.4,3.3-1.4,6.5-3,9.4,10.3,5,21.6,7.3,32.8,9.5-1-4.7.2-9.5,2.1-13.8-10.8-.7-21.7-1.6-32-5.1h.1ZM464.5,906c-.9,1.2-1.9,2.4-2.2,3.9-2.5,9-3.7,18.3-4.1,27.6.3,7-1.8,13.8-3.6,20.5,6.7,3,14.2,3.9,21.4,5,17.8,1.8,35.7,0,53.5,1.6.2-4.2.6-8.9-1.9-12.6-3.5-5.1-8.9-8.5-14.4-11.1-6.8,0-13.8.7-20,3.6-3,1.3-4.7,4.3-7.2,6.3.9-3.2,2.6-6.1,5.4-8.1,5.1-3.9,11.6-4.9,17.8-5.8,1.9-5.8,4-11.6,6.3-17.2-1-1.6-2.5-2.8-4-3.8-1.3,1.6-2.7,3.6-5,3.7-5.9.4-11.8-.9-17.7-1.8-9-1.6-17.2-6.2-24.4-11.7l.1-.1ZM409.4,913.7c2,.9,4.2,1.6,6.4,2,0-1.8-.2-3.7-.4-5.5-2.1.9-4.1,2.1-5.9,3.5h-.1ZM505.4,917.3c1.6-.1,4.8,0,4.4-2.4-1.1-.6-2.3-1.1-3.5-1.5-.3,1.3-.6,2.6-.9,3.9ZM648.6,224.1c2.1-1.1,5.4-1.3,6.8,1,2.4,4.3.9,9.5.3,14-1.8,10.3-6.3,19.8-11.1,29-2.4,4.4-4.6,9.3-9.1,12-3.5,2.3-8.5,2.1-11.7-.8-2.3-1.8-2.5-4.9-2.2-7.6.6-5.7,3.1-11,5.2-16.3,3.6-8.1,7.9-16,13.2-23.2,2.4-3.1,5-6.4,8.6-8.2v.1ZM650.2,227.4c-4.4,2.4-7.5,6.7-10.5,10.7-4.6,6.5-8.8,13.2-12.5,20.3-1.9,5-3.5,10.5-3.1,15.9.2,3.3,4.2,4.9,7,4.1,3.9-1,6.2-4.6,7.9-8,5-9.7,9.6-19.7,12.8-30.1,1-3.7,2.2-7.6,1.5-11.4-.2-1.5-2-2.4-3.3-1.4l.2-.1ZM509.5,275c18.4-2,37.3,1.2,54.1,9,22.3,10.2,40.8,27.1,56,46.1,10.6,13.6,19.7,28.3,26.9,44,2.4,5.6,5,11.3,5.6,17.4,2.1,16.1.6,33.1-6.7,47.8-6,12.2-16.4,22-28.6,27.9-15.8,7.8-33.7,10.2-51.1,10.4-22.5.4-45.4-4.1-65.3-14.8-21-8.7-38.1-26.4-45.8-47.8-1.2-3.1-1.9-6.4-3.1-9.5-7.1-16.2-12.6-33.4-14.3-51.1-1.2-14.1,0-28.8,6.6-41.6,5.9-11.9,16.3-21.1,28-27,11.8-5.9,24.7-9.4,37.8-10.8h-.1ZM478.8,285.6c-12.4,4.9-23.8,13.1-30.9,24.5-7.4,11.6-9.8,25.7-9.2,39.3.8,16.7,5.3,33,11.3,48.4-1.3-13.6-.2-27.5,4.7-40.3,5-13.4,13.6-25.4,24.6-34.5,13.1-10.8,29.6-17.5,46.6-18.7,14.9-1.1,30,1.9,43.3,8.7,16.6,8.4,30.3,22.6,37.9,39.6,6.8,15,8.9,32,6.1,48.2-4.3,25.7-21.7,48.6-45.1,59.9-16.6,8.2-36,10.4-54,6.4,15.6,6,32.3,8.5,49,8.3,17.4-.1,35.2-2.4,51-10,12.2-5.8,22.8-15.6,28.5-28,7-15.1,8-32.4,5.2-48.6-2.3-8.5-6.4-16.4-10.4-24.1-8.5-15.6-18.8-30.3-30.8-43.4-17.1-18.8-38.8-34.4-63.8-40.6-21.1-5.4-43.8-3-64,5v-.1ZM521.2,307.8c-25.5,3.7-48.5,20.7-59.7,43.9-9,18.1-10.5,39.8-4.4,59,7.6,24.4,27.6,44.3,51.9,51.9,20.1,6.4,42.6,4.4,61.2-5.5,23.2-12,39.6-36.1,42.1-62.1,2-18.7-2.8-38.1-13.6-53.6-7.8-11.3-18.5-20.6-30.8-26.6-14.4-7.1-31-9.5-46.9-7.1l.2.1ZM523.8,323.9c12.3-1.6,25,.4,36.1,6,14.9,7.3,26.6,20.7,31.9,36.4,3.7,10.4,4.1,21.7,2.2,32.5-2.5,13.3-9.5,25.6-19.5,34.6-10.4,9.6-24.2,15.5-38.3,16.3-13.6,1-27.4-2.6-38.8-10.1-12.8-8.3-22.5-21.5-26.4-36.2-4.2-15.2-2.5-31.9,4.8-45.8,9.3-18.2,27.8-31.2,48.1-33.7h-.1ZM551.8,339.1c-11.4,2-19.8,14.1-17.4,25.5,1.8,11.2,13.2,19.7,24.5,18,11.1-1.2,20.2-11.9,19.2-23.1-.3-12.9-13.7-23.3-26.2-20.4h-.1ZM564.4,394.5c2.8.2,5.5,1.5,7.3,3.7.5-2.6,2.2-4.8,4.3-6.4-2.8-.4-5.3-1.9-6.9-4.3-.8,2.7-2.3,5.4-4.7,7h0ZM485.8,392.1c-5,1.4-9,5.8-9.9,10.9-1.8,8,4.9,16.3,13,16.6,8.5.7,16.2-7.6,14.6-16-1-8.1-9.9-14-17.7-11.5h0ZM531,419.2c-.2,6-4.2,11-9.1,14.1,2.3.4,4.7-.2,7,.7,3.1,1,5.5,3.4,7.4,6,.3-5.4,3.9-10,8.5-12.5-5.8,0-11-3.5-13.9-8.4l.1.1ZM342.5,341.6c12.2-1.9,25-.4,36.2,4.9,12.9,5.9,23.3,16.1,31.5,27.5,9.2,12.9,16,27.3,21,42.3,3.1,9.5,5.7,19.3,6.4,29.4,1,16.9-2,34-7.4,50-7.7,22.7-21.4,43.7-40.4,58.5-13.9,11-30.6,18.3-47.9,21.8-13.5,2.8-27.7,3.2-41.2-.3-13.8-3.6-26.3-11.3-36-21.6-10.4-11-17.8-24.5-22.7-38.7-2.6-7.8-4.6-15.8-5-24.1-1.4-18.3-1.7-37,2.3-55,3.1-14.4,9.2-28.1,17.7-40.1,16.6-23.2,41.6-38.9,67.5-49.7,5.8-2.2,11.7-3.9,17.9-4.9h.1ZM340.8,345.1c-14.3,2.5-27.5,9.2-40.1,16.2-15.3,8.7-29.5,19.8-40.3,33.9-8.5,10.9-14.7,23.7-18.2,37.1-4.9,18.3-5,37.6-3.8,56.4.5,13.2,4.4,26.1,10.1,37.9,7,15,17.5,28.7,31.5,37.8,12.3,8.1,27.2,11.9,41.9,11.6,16.2-.6,32.3-4.8,46.9-12,23.1-11.3,41.1-31.4,51.8-54.6-2.9,3.4-5.7,6.9-8.9,9.9-13.6,13.3-31.9,21.6-50.9,23-11.2.7-22.7-.5-33.4-4.2-15.7-5.4-29.7-15.6-39.5-29-9-12-14.5-26.6-15.8-41.5-1.9-19.8,3.7-40.2,15.5-56.1,7.1-9.8,16.4-17.9,27-23.7,15.7-8.7,34.4-11.9,52.2-9.2,28.1,4,53.4,23.9,63.8,50.3-3.6-15-9.4-29.4-17-42.7-8.5-14.6-20-28.1-35.3-35.8-11.4-5.9-24.8-7.4-37.4-5.2l-.1-.1ZM346.4,380.9c-25.8,2.7-49.6,19.2-61.5,42.2-9,16.8-11.4,36.9-7,55.4,5.8,25.3,25,47,49.3,56.1,19.2,7.4,41.4,6.8,60.2-1.5,13-5.6,24.4-14.9,32.7-26.3,2.2-3.1,4.5-6.2,5.6-9.8,4.9-13.8,7.9-28.3,8.2-42.9,0-5.3,0-10.8-1.7-15.9-5.9-21-20.8-39.2-40.3-49.1-13.9-7.2-29.9-10.1-45.5-8.3v.1ZM346.7,397.3c12-1.4,24.4.6,35.2,5.9,13.3,6.5,24.2,17.8,30.2,31.4,6.8,15.3,7.1,33.4.8,49-8.3,21.1-28.7,36.9-51.4,39.3-14.4,1.7-29.4-1.7-41.6-9.6-12.2-7.8-21.6-20-26-33.9-4.6-14.4-3.9-30.5,2.1-44.4,8.6-20.4,28.6-35.3,50.6-37.7h.1ZM373.7,409.9c-11.6,1.8-20.2,14.1-17.8,25.6,1.8,11.3,13.5,19.8,24.9,17.9,11.5-1.4,20.5-13.2,18.7-24.7-1.3-12.1-13.9-21.3-25.8-18.8h0ZM390.6,458.3c-.5,2.9-2.2,5.4-4.6,7.1,2.9,0,5.5,1.4,7.3,3.6.6-2.6,2.2-4.8,4.4-6.3-2.9-.5-5.4-2.1-7.1-4.4h0ZM306.9,463c-5.8,1.8-10,7.7-9.7,13.8,0,7.8,7.7,14.4,15.4,13.5,8-.6,14.3-9.1,12.3-17-1.5-7.8-10.4-13-18-10.3h0ZM343.8,504c5.6-.4,11.3,2.3,14.1,7.2.2-5.4,3.9-10,8.5-12.6-5.7-.1-10.9-3.6-13.8-8.5-.3,5.8-4.1,10.8-8.8,13.8v.1ZM142.5,432.7c12.9-2,26,.6,38.6,3.4,4.9,1.1,10.4,2.4,13.5,6.7,2.8,3.4,2.8,8.8-.2,12-3.3,2.6-7.8,2.5-11.8,2.5-11.6-.7-23.1-3.2-34-7-4.4-1.8-9.1-3.5-12.5-7.1-2-2-2.6-5.5-.7-7.7,1.7-2.2,4.7-2.3,7.1-2.8h0ZM143.3,436c-1.9.3-4,.7-5.3,2.3-.3,1.5.9,2.7,1.9,3.6,3.1,2.5,6.7,4.2,10.4,5.7,7.2,2.9,14.8,5.2,22.3,7.1,3.8,1,7.7.6,11.5.5,2.8-.2,5.9-.4,8.2-2.2,1.7-1.9,1.7-5.1.3-7.2-2-3.1-5.7-4.4-9.2-5.2-7.5-1.7-15.1-3.1-22.8-4-5.8-.6-11.6-1.3-17.4-.5l.1-.1ZM575.6,564.4c7.2-3.6,17.3.5,19.9,8.1,1.5,5.1-1.8,9.8-3,14.7,2.9,4.8,5.4,10.4,4.2,16.2-1,4.4-5,7.4-9.2,8.4-6.5,1.9-13.7.4-19.2-3.6-7.6-5.5-13.3-13.5-17-22.1,6-3.8,11.5-8.4,16.4-13.5,2.6-2.7,4.3-6.5,7.9-8.2h0ZM580.8,601.2c-3.3-2.8-6.5-6.4-10.9-7.2-3.4-.8-6.7.8-9.5,2.7,5.4,6.2,12.5,12.4,21.3,12.3,4.3-.3,9.9-1.8,11.2-6.5.3-2.3.7-5.8-1.9-7-2.3-1.2-5-2.9-7.7-2.2-2.7,1.5-2,5.2-2.5,7.8v.1ZM592.6,773.8c5.1,4.2,13,5.2,18.5,1.3-4.6-.3-9.3-.8-13.5-2.9-4.3-1.9-7.4-5.5-11.2-8.2,1.1,3.8,3.1,7.4,6.2,9.8h0Z"/>
</svg>