<?xml version="1.0" encoding="UTF-8"?>
<svg id="Layer_1" data-name="Layer 1" xmlns="http://www.w3.org/2000/svg" xmlns:xlink="http://www.w3.org/1999/xlink" viewBox="0 0 783.7 1399.4">
  <defs>
    <style>
      .cls-1 {
        fill: #97a1bc;
      }

      .cls-1, .cls-2, .cls-3, .cls-4, .cls-5, .cls-6, .cls-7, .cls-8, .cls-9, .cls-10, .cls-11 {
        stroke-width: 0px;
      }

      .cls-2 {
        fill: url(#linear-gradient);
      }

      .cls-3 {
        fill: #000;
      }

      .cls-4 {
        fill: #050708;
      }

      .cls-5 {
        fill: #7871b4;
      }

      .cls-6 {
        fill: url(#linear-gradient-2);
      }

      .cls-7 {
        fill: #10123c;
      }

      .cls-8 {
        fill: url(#linear-gradient-3);
      }

      .cls-9 {
        fill: #fff;
      }

      .cls-10 {
        fill: #373f52;
      }

      .cls-11 {
        fill: url(#linear-gradient-4);
      }
    </style>
    <linearGradient id="linear-gradient" x1="3.21" y1="408.19" x2="462.22" y2="408.19" gradientUnits="userSpaceOnUse">
      <stop offset="0" stop-color="#253b97"/>
      <stop offset="1" stop-color="#232463"/>
    </linearGradient>
    <linearGradient id="linear-gradient-2" x1="131.96" y1="622.34" x2="764" y2="622.34" gradientUnits="userSpaceOnUse">
      <stop offset="0" stop-color="#aaafcd"/>
      <stop offset="1" stop-color="#7453a2"/>
    </linearGradient>
    <linearGradient id="linear-gradient-3" x1="383.26" y1="831.86" x2="721.94" y2="831.86" gradientUnits="userSpaceOnUse">
      <stop offset="0" stop-color="#26397d"/>
      <stop offset="1" stop-color="#232463"/>
    </linearGradient>
    <linearGradient id="linear-gradient-4" x1="502.74" y1="1104.93" x2="779.75" y2="1104.93" gradientUnits="userSpaceOnUse">
      <stop offset="0" stop-color="#67467d"/>
      <stop offset="1" stop-color="#533665"/>
    </linearGradient>
  </defs>
  <path class="cls-3" d="M148.5,3.1c9-3.6,18.9-3.7,28.3-1.8,6.1,1.3,11.9,4.3,15.8,9.2,18.5-4.2,37.6-5.6,56.6-6.1,25.2-.5,50.4.9,75.4,3.4,32.8,3.4,65.3,11.7,94.7,26.8,14.1,7.3,27.6,16.1,39,27.3,1.3,1.2,3.2,1.2,4.9,1.7,13.4,2.9,25.8,9.5,36.5,18,10,7.8,19.5,16.2,28.8,24.9,22.6,21.1,43.8,43.7,63.4,67.6,17.9,22.2,34.4,45.6,47.1,71.2,6.5,13,11,26.8,15.9,40.4,6.6,19.2,13.2,38.5,17.8,58.3,3.9,1.7,5.2,6.1,6,9.9,2.9,14.3,4.9,28.8,7.5,43.2,4.6,16.8,9.2,33.6,13.3,50.5,3.4,14.7,7,29.5,8,44.6,3.1,40.3,5.9,80.6,8.6,120.9,3.6,56.3,7.3,112.7,9.3,169.1.9,23,.2,46.1-.4,69.2-.8,26.1-1.9,52.1-3.5,78.1-1.4,19.8-2.5,39.7-5.9,59.2-.9,6.5-4.2,13.2-10.3,16.3-8.5,4.4-18.4,2.6-27.6,2.4-2,4.7-3.9,9.5-5,14.5,24.1-2.7,48.2-5.5,72.3-7.3,4.9-.2,10.2-1.1,14.9,1,4.2,1.8,6.8,5.9,8.2,10.1,3.2,9.2,4,18.9,5.4,28.4,3.3,24.2,6.2,48.4,9.3,72.7.4,3.5,1.8,7.2,0,10.6-1.7,3.3-5.5,4.4-8.8,5.5.7,5.7-.3,12.8-6.4,15.1.7,4.9.6,10-1.3,14.6-1.7,4.6-5.7,7.9-10,10,1.3,8.9-6.2,16-14,18.7-1.6,4.8-4.7,9-8.1,12.7-2.8,3-6.7,5.3-10.9,5.4-9.9.4-19.3-3.3-28.3-6.9-4.6,5.7-10.9,11.7-18.8,10.8-1.5,2.9-3.3,5.8-6.3,7.3-6,3.2-13.1,2.7-19.5,1.6-9.9-1.7-18.6-7.6-25-15.1-8.5-10.2-14.5-22.2-19.8-34.2-12,2.5-23.9,5.5-35.8,8.2,2.3,4.7,4.2,9.6,6,14.5,2,5.5,5.2,10.4,8.6,15.1,4.3,5.7,8.3,11.7,13.3,16.8,8.1,8.1,18.2,13.9,25.7,22.5,4.4,5.1,7.7,11.9,6.5,18.9-.5,3.2-3,5.6-5.5,7.4,3.6,3,7,6.4,9.9,10.1,3.1,4.2,6.7,8.6,6.6,14.1,5.8,2.6,12.1,3.9,17.7,7,11.8,6.3,22.8,15.3,28.9,27.5,4.2,8.3,5.3,18.6,1,27-4,8-12,13.1-20.3,16-14.8,5.3-30.7,4.6-46.1,4.1-14.6-.5-29.1-.8-43.7-1.3-9.7-.4-19.3,1.4-29,2-26,1.5-52.1,2.1-78.1,4-20.6,1.6-41.3,2-62,1.5-21.4-.2-42.8-1.4-64.1,1.1h-6.3c-7.3-1.1-15.3-1.8-21.3-6.6-8.8-7-9.2-21-3-29.8-14.1,3.5-28.8,4.7-43.1,2.1-6.2-1.3-12.8-1.3-18.7-3.8-11.2,18.8-32.4,32-54.6,31.5-10.4-.2-21.3-2.7-29.4-9.5-5.8-4.8-9.3-11.9-9.8-19.4-.5-7.6-.2-15.5,3-22.5,2.6-5.6,8.3-8.7,13.7-10.9,8.5-3.5,17.9-4.9,26-9.3,10-5.3,18-13.5,27-20.4,9.7-7.6,21.3-12.2,33.2-15.1,23.2-5.6,47.2-6,70.9-6.4,19.7-.5,39.5-.6,59.2-2.8,17.8-1.8,34.7-8.8,52.5-10.7-.4-1.1-.8-2.1-1.2-3.1-12.9-5-21.5-16.6-28.5-28-6.5-11.1-13-22.2-19.1-33.6-8-15.2-14.8-31.6-15.4-49.1-.6-12.2,2.8-24.1,7.3-35.3,5.9-14.4,12.3-28.6,19.3-42.5,12.9-26.3,29.9-50.3,44.3-75.7,6.8-11.8,12.2-24.4,19.1-36.2,9-15.9,21-29.8,32.2-44.2-.7-1.7-1.8-3.4-1.5-5.3.4-3.7,3.5-6.4,4.4-9.9,2-6.8,1.9-14.5,6.6-20.2-2-7-2.2-15,1.2-21.6,3.4-7.2,7.6-14,11.9-20.7,12.9-20,26.9-39.2,40.1-59,5-7.4,9.8-14.9,13.8-22.8,8.5-16.7,14.5-34.6,19.1-52.7,7.4-29.4,11.7-59.5,15.2-89.6,5.4-43.4,6.1-87.2,4-130.8-1-18.4-2.2-36.8-4.5-55.1-10.1-5.7-20-12.1-28.7-19.8-3.1-3-6.6-6-8.2-10.2-1.6-4.9,1-9.8,4-13.6,5-6.2,11.4-11,18.1-15.2-18.4-29.9-49.3-51.4-83.3-59.3-18.1-4-36.5-6.1-55-7.3-.4,59.2.4,118.5,4.4,177.7,1.8,24.1,4.2,48.4,1.8,72.6-.8,7.1-1.9,14.4-5.1,20.8-1.1,2.3-2.9,4.2-4.9,5.7,1.6,10,3.8,20,4.8,30.1.6,8-.2,17.2-6.4,23-4.7,4.4-11.6,4.7-17.6,3.7.2,4.7.8,9.7-1.2,14.1-1.8,4-4,7.8-6.8,11.1-3.2,4-7.7,7.2-13,7.2-1.1,5-2.4,10.2-5.3,14.6-1.5,2.3-3.9,3.7-6,5.3-.9,0-1.9-.1-2.8-.1-2.7,4.5-5,9.3-7.6,13.9h10c-3.2,5.3-6.6,10.4-9.7,15.8,3.3,0,5.1-2.8,7.1-5.1.6,1.6,2.1,3.3.9,5-1.3,1.4-3.1,2.4-4.4,3.9-9.6,10.9-19.3,21.9-30,31.9-3,2.8-6.3,5.5-10.5,6.3-9,2-18.4,1.2-27.4-.6-11,14.6-22.1,29.4-36.6,40.7-5.5,4.5-10.5,9.9-17.1,12.8-5.7,2.6-12.2,2-18,.2-10.7-3.4-20.9-8.4-31.7-11.3-5.2-1.3-10.8-2.3-16.1-.9-4.2,1.1-6.9,4.9-10.8,6.4-5.7,2.4-12.1,1.3-17.8-.4-9.3-3-18.1-7.3-27.3-10.5-3.8-1.3-8-1.5-11.8-.3-5.7,1.7-10.6,5.3-16.4,6.9-6.8,2.1-14.1,1.3-20.7-1-12.8-4.5-24.8-12.4-31.8-24.3-8.5-14.2-10.5-31-12-47.2-2-24.8-2.2-49.7-4-74.5-2.7-44.9-4.1-89.8-5.6-134.7-1.9-59.1-3.6-118.3-5-177.5-6.3-7.1-11.9-14.8-16.8-22.9-12.9-21.6-21.9-46.1-22.7-71.5-.5-9.9,2.5-19.4,3.1-29.2.6-7.4-1.2-14.6-2.5-21.8-3.2-16.3-5.6-32.7-7.7-49.2-1.7-13.5,2.4-27,8.7-38.8,8.6-16.1,20.9-29.9,34-42.4,14.8-13.9,31.1-26.3,48.1-37.4,18.1-11.7,36.9-22.6,57.1-30.1l-.1.1Z"/>
  <path class="cls-4" d="M148.7,3c8.9-3.5,18.8-3.7,28.1-1.8,6.1,1.2,11.8,4.4,15.8,9.2,23.9-5.3,48.4-6.3,72.8-6.1,18.9.2,37.7,1.4,56.5,3.2,22.3,2.2,44.5,6.6,65.8,13.8,23.1,7.9,45.4,19,64.1,34.8,3.2,2.4,5.5,6.4,9.7,7,9.1,1.9,17.9,5.4,25.9,10.1,10.8,6.4,20.2,14.8,29.6,23,26.6,23.6,51.3,49.4,73.8,77,18.2,22.5,35,46.2,47.7,72.2,6,12.1,10.3,25,14.8,37.7,7,19.8,13.6,39.8,18.5,60.2,3.7,2,5.2,6,5.9,9.9,2.4,12.4,4.5,24.9,6.5,37.4.8,6.2,2.8,12.1,4.4,18.1,5.5,20.4,10.9,40.9,15,61.7,2.7,12.9,3.1,26.1,4.2,39.2,2.9,39.1,5.6,78.1,8.1,117.2,3.3,52.4,6.7,104.7,8.5,157.2.8,21.5,0,43-.5,64.5-.8,27.3-1.9,54.5-3.6,81.7-1.4,19.2-2.4,38.4-5.7,57.3-1,6.6-4.3,13.3-10.4,16.4-8.5,4.3-18.3,2.5-27.4,2.3-2,4.7-3.8,9.5-5.1,14.5,25-2.8,50-5.8,75-7.5,5.5-.4,11.8-.5,15.9,3.7,4.9,5.2,6,12.7,7.4,19.5,4.9,31.4,8.2,63.1,12.5,94.6.3,2.1,0,4.4-1.5,6.2-2,2.5-5.2,3.4-8,4.5,0,3.5.3,7.3-1.4,10.6-1,2.1-3.2,3.3-5,4.6.4,4.8.6,9.9-1.4,14.5-1.7,4.7-5.7,7.8-9.9,10,0,3.1-.1,6.3-1.8,9-2.6,4.7-7.3,7.7-12.2,9.7-2,5.1-5.2,9.8-9.2,13.6-2.7,2.5-6.2,4.3-9.9,4.4-9.8.5-19.2-3.3-28.2-6.8-4.7,5.6-10.9,11.4-18.8,10.9-1.6,2.8-3.4,5.7-6.4,7.2-5.9,3.1-13,2.7-19.4,1.7-9.7-1.6-18.2-7.3-24.6-14.6-8.8-10.2-14.8-22.5-20.3-34.8-11.9,2.7-23.8,5.5-35.7,8.3,4.5,8.6,6.4,18.5,12.4,26.4,4.8,6.7,9.5,13.5,15.1,19.5,8.1,8.3,18.5,14.2,26.1,23,4.4,5.1,7.7,12,6.5,18.9-.5,3.2-3.1,5.4-5.4,7.5,2.7,2.4,5.3,4.8,7.7,7.5,4.1,4.8,8.3,10,8.9,16.6,5.6,2.8,12,3.9,17.5,7,12.2,6.6,23.6,16,29.5,28.7,4,8.6,4.5,19.2-.5,27.5-4.4,7.3-12.1,11.8-20,14.5-15.5,5.3-32,4.2-48.1,3.8-13.6-.5-27.2-.7-40.8-1.2-10-.4-20,1.5-30,2.1-26.3,1.5-52.7,2.1-79,4-21.5,1.7-43,1.8-64.5,1.3-19.8-.2-39.8-1.2-59.5,1.2h-6.3c-8.1-1.2-17.2-2-23.2-8.3-6.9-7.6-6.7-19.8-1.1-28.1-13.6,3.4-27.9,4.6-41.7,2.3-6.7-1.3-13.6-1.5-19.9-3.9-11.3,18.7-32.4,32-54.5,31.4-10.6-.2-21.7-2.8-29.8-9.9-5.7-4.9-9-12.3-9.3-19.8-.3-7.3,0-14.9,3-21.6,2.6-5.6,8.3-8.7,13.7-10.9,8.5-3.5,17.9-4.9,26-9.3,13.7-7.3,23.6-19.9,37.4-27,14.3-7.5,30.4-10.5,46.3-12.4,22.9-2.6,46-1.9,69-2.8,18.9-.7,38-1,56.4-5.7,11-2.7,22-6,33.4-7.2-.4-1-.8-2.1-1.2-3.1-13.9-5.6-22.8-18.5-30.2-31-8.9-15.7-18.6-31.1-25.4-47.9-5.6-13.8-8.8-28.9-6.7-43.7,2.1-14.7,8.8-28.2,14.6-41.7,7.8-17.5,16.4-34.7,26.2-51.1,8.6-14.6,17.9-28.7,26.5-43.4,8.1-13.4,14.3-27.9,22.1-41.5,8.9-15.9,21-29.7,32.1-44-1.5-2.9-2-6.5,0-9.3,5.6-7.8,3.6-18.5,9.5-26.1-2-7.7-2-16.2,2.1-23.2,10.3-19.6,23.6-37.4,36-55.7,12.1-17.9,25.3-35.3,33.8-55.2,12.6-29,18.9-60.3,23.9-91.4,5.5-36.3,9.8-72.9,10.4-109.6.7-39-.9-78-5.4-116.7-12.3-7.1-24.6-14.7-34.1-25.3-3.6-3.6-4.3-9.4-1.7-13.8,4.7-8.6,13-14.4,21-19.7-15.2-24.4-38.7-43.6-65.6-53.7-15.2-6-31.5-8.4-47.6-10.5-8.3-1-16.6-1.8-25-2.3-.5,66.8.5,133.7,6.1,200.4,1.2,18.7,2,37.6-.9,56.1-1.4,7.2-2.9,15.4-9.1,20.1,1.5,10.3,3.9,20.5,4.8,30.9.5,7.9-.5,17.1-7,22.5-4.7,4.1-11.3,4.1-17.1,3.3.4,5.3.7,11-2.1,15.8-3.8,7.6-9.6,16.1-18.9,16.6-1.2,4.8-2.3,9.7-4.9,14-1.6,2.5-4.1,4.1-6.4,6-.7-.1-2-.4-2.7-.6-2.5,4.7-5.1,9.4-7.7,14.2h10c-3.2,5.3-6.7,10.5-9.7,15.9,3.2-.5,5.3-3.1,7.3-5.4.4,1.7,2.1,4,.2,5.5-4.8,4-8.6,9-12.8,13.6-7,7.7-14.1,15.5-21.9,22.5-2.7,2.4-5.7,4.6-9.3,5.4-9.1,2.1-18.6,1.2-27.7-.5-11,14.6-22.1,29.4-36.6,40.7-6.6,5.3-12.6,12.2-21.3,14.1-9.5,1.8-18.4-2.9-27-6-10-3.7-20.3-8.6-31.2-8-6.9.1-10.8,7-17.4,8-8.7,1.6-17.2-2.3-25.1-5.4-6.8-2.6-13.3-6-20.4-7.5-9.7-1.6-17.3,6.1-26.3,7.9-10.8,2.5-21.8-1.8-31.1-7.1-10.4-5.7-18.7-15-23.3-25.9-6.5-15.4-7.8-32.4-8.9-48.9-1.4-23-1.9-46-3.6-69-2.6-45.2-4-90.4-5.6-135.6-1.7-54.2-3.2-108.3-4.6-162.5-.1-3.3,0-6.7-.4-10-1.8-3.1-4.6-5.6-6.6-8.5-15.2-19.9-26-43.2-30.7-67.8-2.1-11.2-2.8-22.9-.6-34.2,1.6-8.5,2.7-17.3,1-26-4-20.9-7.7-41.9-9.9-63.1v-2.5c.6-11.5,4.3-22.6,9.9-32.5,9.1-16.5,22-30.6,35.8-43.4,15-13.7,31.4-25.9,48.5-37,17.3-11,35.2-21.3,54.4-28.3h.1ZM152.3,5c-13.3,4.4-25.7,10.8-38,17.6-24,13.6-46.8,29.5-67.1,48.2-13.1,12.2-25.3,25.6-34.2,41.2-6.6,11.7-11.1,25.1-9.6,38.7,2.1,17.1,4.7,34.1,8,51,1.1,6,2.5,12,2.4,18.1,0,6.1-1.2,12.2-2.3,18.2-2,11.7-.8,23.7,1.7,35.2,5.4,24.2,16.7,47.1,32.4,66.3,10.1,12.3,22.4,22.5,34.6,32.6,27.5,22.2,56.3,42.7,85.7,62.3,12.1,7.8,24,16,37,22.3-6.5-8-13.3-16-21.6-22.2-1.7-1.2-3.1-2.7-4.3-4.5,3.4-.2,6.7-.2,10.1-.2-5.6-8.5-11.6-16.7-17.1-25.2,4.2,1.8,8.4,3.9,12.6,5.8-8-14.7-16.1-29.4-22.6-44.8-2.5-5.6-3.2-11.8-4.9-17.7-3-10.7-6.5-21.3-9.5-32.1-3-10.9-5.7-22.1-5.6-33.5-.2-10.6,2.3-21.2,1.1-31.8.3-13.7,4.8-27,4.4-40.8-.7-12.5-8.7-23.1-10.2-35.4-.9-8,2.8-15.4,5.1-22.8,2.4-7.5,4.4-15.9,1.2-23.5-4.9-11.2-9.8-22.5-12.3-34.5-1.9-8.5,0-17.1,1.5-25.5,2.7-13.1,5-26.6,11.6-38.4,2.8-6.4,7.9-12.2,14.8-14.1,7.9-2.4,16.2-3.3,24.5-3.2,2.6,0,5.1-.2,7.6-.8-3.8-4.4-9.4-6.8-15.1-7.8-7.3-1.2-15-1.4-22,1.1l.1.2ZM225.5,8.7c-10.2.9-20.4,2.1-30.3,4.4,19,2.4,37.5,8.1,55,15.9,22.8,10.1,46.2,19,70.5,25,22.6,5.6,45.9,7.9,69.1,9.5,21.3,1.2,42.6-3.7,63.9-1.5-6.5-6.1-13.8-11.4-21.4-16.2-24.6-15.5-52.4-25.2-80.8-30.8-18.5-3.7-37.3-5.2-56.1-6.4-23.3-1.4-46.6-1.7-69.9.3v-.2ZM156.5,19.2c-5.9,2.3-9.5,7.9-12,13.5-3.6,6.2-5.4,13.1-7.1,20-2.3,9.3-4.2,18.6-5.3,28.1-.6,4.3-.4,8.7.5,12.9,2.6,12,7.6,23.2,12.4,34.5,3.8,11.1-1,22.6-4.5,33.1-1.5,4.5-2.8,9.3-1.9,14.1,1.9,11,8.5,20.7,9.9,31.9.7,6.7-.3,13.5-1.2,20.2,7.9-6.8,17.8-11.3,28.1-12.9,9.3-1.5,19.3,0,27,5.6,5.2,3.6,8.8,9,12.3,14.2,6,9.3,11.4,19.1,16.6,28.8,21.9,41.2,41.7,83.4,61.7,125.5,7.5,16.1,15.6,32,22.5,48.4,6.9,15.8,13.3,31.9,22.3,46.6,4.1,6.3,8.7,12.8,15.6,16.2,6.4,3,15.6,1.2,18.9-5.5,2.6-5.3,2.6-11.4,2.8-17.2-.1-14.6-1.7-29.1-2.3-43.6-1-15.1-.4-30.3-1.3-45.4-1.3-23.5-3.6-46.9-6.1-70.3,2.7,8,2.9,16.6,4.1,24.9,4.6,48.4,6.2,97.1,8,145.6-1.1,4.5-2.4,9.3-6.3,12.3-5.8,4.4-14.3,5-20.6,1.3-6.8-4-11.6-10.6-15.8-17.1-9.7-15.9-16.3-33.4-24-50.3-6.6-16.1-14.8-31.5-22-47.3-9-19-18.1-38.1-27.3-57.1-19.9,5.5-39.5,11.6-59.1,18-13.5,4.7-27.3,9.1-39.9,15.9,4.3,11.4,10.8,21.8,17.8,31.8,10.9,15.5,23.1,30,35.8,44.1,5.4,6,10.6,12.1,16.5,17.6.3,1.6.3,3.3.6,5-18.3-18.9-35.8-38.6-51.5-59.7,2.2,5.3,5.4,10.1,8,15.2-3.6-1.7-7.2-3.5-10.9-5.2,4.4,6.9,9.2,13.5,13.8,20.4h-9.2c9,7.2,16.6,16,24,24.8,1.9,2.5,5.2,3,7.9,4,5.4,1.6,10.8,3.2,16.5,3.5,1.1.6,2.1,1.2,3.1,1.9-.9.8-2,1.3-3.4,1.3-6.8-1-13.6-2.6-20.1-4.8-12.9-4.7-24.5-12-36-19.3-33.9-21.9-66.9-45.2-98.2-70.6-9.4-7.8-18.6-15.7-27.1-24.4,2.4,90.8,4.7,181.6,8.6,272.4,1.1,26.3,3.2,52.6,4.1,79,1.1,20.3,1.3,41,6.6,60.8,3.3,12.8,10.7,25,22,32.1,8.8,5.4,18.8,10.3,29.4,9.2,7.8-.7,14.1-5.9,21.6-7.9,4.2-1.2,8.8-.9,12.9.5,8.9,3,17.4,7.3,26.4,10.2,4.9,1.6,10.2,2.7,15.2,1.2,4.3-1.2,7.2-5.1,11.4-6.6,5.1-1.8,10.7-1.3,15.9-.1,12.3,2.8,23.5,8.7,35.5,12.3,5.9,1.9,12.8,1.6,18-2,6.6-4.4,12.3-10.2,18.5-15.1,11.5-10.3,20.9-22.6,30.1-34.9-15.8-4.2-31.2-13.6-39-28.5-6.5-14.6-9.1-30.4-12-46-3.8-21.8-6.3-43.9-8.7-65.9-.5-6-.3-12.1,1.1-18,2.1,20.4,4.1,40.9,7,61.2,2.5,17.6,5.2,35.1,9.8,52.3,2,6.9,4,14.1,8.3,20.1,8.5,11.6,21.6,19.1,35.4,22.3.9-1.3,1.8-2.6,2.7-3.9,2.4.8,1.5,3.1.5,4.7,4.5.7,9.1,1.3,13.6,1.3,6.3,0,13.4-.3,18.2-4.9,11.1-9.9,20.8-21.2,30.7-32.2-11.5,0-24,0-34.2-6.1-9.6-5.8-15.2-16-19.4-26.1-4.2-10.4-7.5-21.1-10.6-31.8-1-1.6,2.1-2.6,2.5-.9,2.7,7.8,4.8,15.7,7.6,23.5,4.2,11.6,8.9,24,19.2,31.7,8.8,6.6,20.3,6.7,30.8,7.6,2.8-4.1,5.4-8.2,8-12.4h-9.3c2.9-6.6,6.5-12.8,9.9-19.1-2.9-1.8-6-3.3-9.1-4.8-6.9-3.4-12-9.6-15.6-16.2-6.6-12-9.7-25.6-11.9-39-3.8-24.8-3.8-50-2.8-74.9.2-1.8,0-4.6,2.6-3.5.7,3.6,0,7.2,0,10.8-.7,25.4-.2,51.1,4.7,76.1,3,13.8,7.1,28.1,16.7,38.8,3,2.8,6.5,5.2,10.4,6.8,3.4,1.4,6.9,3.7,10.7,3.1,5.5-3.6,6.4-10.8,7.9-16.7-5.1-2.8-8-8.1-10.4-13.1-5.2-13.8-7.8-28.5-10-43.1-.2-1.5-.5-3,.1-4.4,1.1-.5,2.4.3,2.4,1.6,2.6,16,4.8,32.3,11.4,47.3,2.2,3.9,4.8,8.7,9.6,9.5,5.2.4,9-3.9,11.9-7.6,3.1-4.6,6.5-9.7,6.3-15.5-.2-11.5-2.7-22.7-4.9-33.9-2.2-10.6-4.4-21.2-7-31.7-1.2-9.3-4.7-18.1-7-27.1,1.5-2.6,3.1.3,3.4,2,6.4,23.5,12.2,47.1,16.3,71.1.6,3.6,1.1,7.2,1.4,10.9,4.4.1,9.1.9,13.2-1.2,4.2-2,6.7-6.4,7.6-10.8,2.1-9.4-.3-18.9-1.8-28.2-7.8-44.6-15.7-89.2-23.9-133.8-.5-6.4-2.7-12.7-3-19.1.5,0,1.6-.2,2.1-.3,1.2,3.1,1.5,6.5,2.1,9.7,6.5,35.9,12.9,71.8,19.4,107.7,1.2,6.4,2.2,12.7,3.4,19.1,5.1-5.5,6.2-13.3,7.3-20.4,2.5-20.6,1.2-41.4-.4-62.1-.6-14.8-1.9-29.5-2.6-44.3-2.3-49.1-3-98.2-2.6-147.3-13.1-.7-26.3-.7-39.5-.1v-.5c-17.1,1.9-34.3,2.8-51.1,6.5-.5-.4-1.1-.7-1.6-1-.1-2.8-.4-5.7-.8-8.5-4.6-39.5-9.8-78.9-15.4-118.2-.6-1.7.7-3.5,2.5-2.5.9,2,1,4.2,1.3,6.4,5.7,40.1,10.9,80.3,15.5,120.6,10.9-2.2,22-3.6,33.2-4.6,35.8-3,71.9-1.2,107.2,5.2,18.7,3.6,36.8,10.7,52.7,21.3,23.6,15.7,42,39,51.7,65.6,10.1-4.1,19.2-10.3,27.7-17.1,10.7-8.7,20.5-18.5,29.5-28.9-3.6-19.5-10.3-38.3-16.6-57.1-5.9-16.5-11.2-33.3-19.4-48.9-15.7-30.4-36.6-57.9-59-83.7-21.7-24.6-44.9-47.9-70-69-12.2-10.5-26.1-19.6-42-23.1-23.6-5.6-47.8,1-71.7-.2-24.8-1.6-49.7-4.1-73.8-10.4-23.8-6.1-46.8-14.9-69.2-24.9-17.6-7.6-36.1-13.3-55.3-15.1-12.1-1-24.5-.7-36.1,3.1l.4-.9ZM149.7,229.6c-1.4,1.4-3.3,2.7-3.4,4.8-1,6.6-2.4,13.3-1.7,20,.5,6.4-.6,12.8-1,19.1-.7,8.4-.3,17,1.3,25.3,4,21.2,12.4,41.3,16.7,62.4,5.7-3.3,11.8-5.8,18-8.2,26.4-10,53.5-18,80.6-25.8-13.6-27.9-27.3-55.9-42.9-82.8-3.7-6.1-7.4-12.4-12.2-17.8-5.7-6.2-14.1-9.4-22.4-9.5,16.7,9.6,29.4,26,34.4,44.7,2.5,9.7,3,19.9,3.3,29.9,0,10.2-.6,20.7-4.5,30.3-1.6,3.6-4.2,7.8-8.5,8.3-3.1.3-5.1-2.5-6.5-4.8-5.7-9.5-8.5-20.3-11.8-30.8-6.2-25.3-10.1-51.6-7.4-77.6-11.5.7-23,5-31.8,12.5h-.2ZM185.1,223.7c-.2,3-.2,6-.2,8.9,5.9,2.1,11.2,6,14.7,11.2,5.8,8.6,7.2,19.5,6.3,29.7-.7,8.3-5,16.6-12.6,20.5,3.3,11.2,6.3,23,13.3,32.5,3.6-1.6,5.1-5.5,6.3-9,3.3-10.7,3.3-22.1,2.9-33.1-.5-7.7-1.1-15.4-3.3-22.8-4.4-15.3-14.5-28.6-27.4-37.9h0ZM184.7,236.9c0,3.5.2,7,.4,10.4,5.8,2,9.5,7.5,10.2,13.4,1.3,6.3-1.4,12.8-6,17.2.8,4.1,1.7,8.1,2.7,12.1,3.9-2.5,7-6.3,8.3-10.7,2.5-7.8,2-16.4-.1-24.2-2.1-8-7.8-15.1-15.6-18.2h.1ZM673.2,347.9c-.9,1.3-1.5,2.8-2.4,4.2,1.9,1.9,4.2,3.9,4.4,6.8,1.6,13.1,3.4,26.1,5.7,39.1.9-1.1,1.5-2.4,1.1-3.8-2.1-12.7-4.2-25.4-6.5-38.1-.5-2.8-1.4-5.5-2.3-8.2ZM668.4,354.1c-.8,1-1.5,2-2.3,3,1.3,1.9,2.6,4,2.7,6.4,1.6,12.9,3.5,25.7,5.3,38.5,1.3-.8,2.6-1.5,4-2.3-2-13.3-4.3-26.6-5.7-40,0-2.6-2-4.4-4-5.7v.1ZM657.8,365.4c1.6,2,3.3,4.2,3.4,6.9,1.4,11.4,2.8,22.7,4.3,34.1,2-1,4-1.9,5.9-2.9-1.9-13-3.7-26.1-5.4-39.1-.2-1.9-1-3.6-1.7-5.3-2.2,2.1-4.4,4.3-6.5,6.4v-.1ZM654.8,368.5c-2.3,1.9-4.4,4-6.6,6,1.1,1.9,2.1,4,2.4,6.2,1.8,10,3.8,20,5.7,30,2.1-.9,4.3-1.9,6.4-2.8-1.3-11.2-2.8-22.4-4.1-33.6-.3-1.7-.3-3.4-1.3-4.9-.5-.8-1.7-2.1-2.5-.9h0ZM588.9,388.8c-1,1.9-2,4.1-1.5,6.3.7,2,3.2,2.6,5,2.8,5.8.5,11.6-.7,17.2-2.3-2.9-6.8-5.5-13.8-9.4-20.1-4.2,4-8.4,8.2-11.3,13.3h0ZM635.8,384.5c3.8,10.1,8,20,11.2,30.2,2.3-.9,4.5-1.9,6.7-2.9-2-10.1-4-20.2-5.8-30.3-.3-1.8-1-3.6-1.7-5.3-3.5,2.8-6.9,5.6-10.5,8.2l.1.1ZM591.2,379.1c-.8.4-2.3,1.2-1.9,2.4,1.4,1.2,4.6-3,1.9-2.4ZM578.2,395.3c-.8,2.8.5,5.5,2.3,7.6,1.8-6.5,4.7-12.6,7.4-18.7-5.1,1.5-8.3,6.2-9.7,11.1ZM626.9,390.6c3.8,9.3,7.4,18.7,11.8,27.6,1.9-.8,3.8-1.5,5.6-2.3-3.1-10-7.2-19.8-11-29.6-2.2,1.4-4.3,2.8-6.4,4.2v.1ZM617.1,395.8c.2,1.6.3,3.2,1.3,4.5,4.3,6.9,7.5,14.4,11.2,21.6,2.2-.9,4.3-1.7,6.5-2.5-4.3-8.9-8-18.1-11.6-27.3-2.4,1.3-4.9,2.5-7.4,3.7h0ZM607.8,399.3c.5,1.5,1.1,2.9,2,4.2,4,6,7.9,12.1,11.7,18.3.6.8,1,1.8,1.9,2.3,1.2-.2,2.3-.6,3.5-1-2.3-5.1-4.8-10-7.3-15-1.8-3.7-4.5-7-5.7-11-2.1.7-4.1,1.5-6.2,2.2h.1ZM585,397.8c-.9,2.9-2.1,6.2-.4,9,1.5,2.1,3.6,3.6,5.6,5.2,7.3,5.7,15.1,10.9,23.3,15.3-5.1-7.4-10.3-14.7-15.8-21.8-1-1.4-1.6-3-2.2-4.5-3.8,0-7.5-.9-10.5-3.3v.1ZM598.3,400.9c.8,1.4,1.6,2.8,2.6,4.1,5.5,7.1,10.6,14.5,15.9,21.8,1.2-.5,2.5-1,3.7-1.4-5-8.6-11.3-16.6-15.7-25.5-2.2.3-4.3.7-6.4,1h-.1ZM666.2,409.3c5.9,18.5,10.1,37.6,14.6,56.5,7.5,1.1,14.9,3.6,20.7,8.5-4.8-25.2-11.6-50-18.4-74.8-5.3,3.9-11.1,7-16.9,9.8h0ZM615.5,430.3c6,54.1,7.4,108.8,2.8,163.1-3.2,31.9-7.2,63.7-13.7,95.1-6.1,28.9-14.5,57.8-30.2,83.1-17.3,27.3-37.1,52.9-53.9,80.5-3.3,6-7.6,12.1-7.5,19.2,0,2.6,0,5.3.7,7.9.8,2.8,3.9,3.5,6.3,4.3,8.8,2.1,17.8,3.5,26.7,5.3,17.8,3.7,36,6.8,52.8,14.1,15.3-47.3,29.3-95,41-143.3,6.1-25,10.9-50.5,12.2-76.2,2.5-39.7-.5-79.4-3.6-119-1.1-19.9-5.2-39.4-7-59.2-.6-8.1-1-17.3,4.1-24.2,7.2-9.9,19.6-14.7,31.5-15.3-4.3-18.4-8.6-36.8-14.1-54.9-15.9,7-32,13.6-48.2,19.6l.1-.1ZM671.8,469.2c-9.2,1.8-18.5,6.3-23.8,14.3-4,6.4-3.2,14.4-2.9,21.7,1.8,20,6,39.8,7,59.9,4,51.4,7.8,103.4-.4,154.5-4.7,27.7-11.7,54.9-19,82-10.1,37.1-21.1,74-33.2,110.5-3,9.4-7.4,18.4-9,28.2-.9,5.4-.1,11.4,3.4,15.8,5.8,7.4,14.6,11.4,22.9,15.2,26.3,11.5,53.4,20.9,80.4,30.4,3.5,1.8,7-.9,9.5-3.3,4.5-4.6,5-11.3,6.1-17.3,3.2-22.9,4.4-45.9,5.8-69,1.4-26.4,2.3-52.7,3-79.1.5-20,.5-39.9-.3-59.9-1.2-30.3-2.9-60.5-4.6-90.7-4-65.5-8.4-131-13.4-196.4,0-5.2-3-9.9-7.5-12.3-7.2-4-15.8-6.1-24-4.5h0ZM513.8,884.4c-5.4,6.3-3.3,15.6-7.5,22.5-1.1,2.2-3.1,4.4-2.4,7.1.8,2.2,3,3.5,5,4.4,5.2,2.1,10.7,2.5,16.2,3.5,21.3,3.7,42.1,9.9,63,15.2,2.8-10.7,7.4-20.9,10.6-31.5-7.8-3.7-16.1-5.9-24.4-8-15.5-3.8-31.2-6.7-46.8-9.6-4.7-.6-9.1-2.4-13.7-3.6h0ZM504.5,919.2c-9.5,12.2-19.6,24-27.9,37-8.4,13.3-14.7,27.8-22,41.7-6.5,12.2-14.5,23.5-21.9,35.3-17.4,28-32.3,57.6-44.3,88.3-5.6,14.3-6.9,30.3-3,45.1,4.1,16.6,12.2,31.8,20.6,46.6,8.2,15,16.7,30.5,30.2,41.5,5.8,4.8,13.7,6.1,21,5.9,10.3-.3,20.7-2.1,30.9,0-17.3-21.5-27.3-47.6-36.1-73.3-3.1-8.6-4.6-17.9-4.3-27.1.7-22.3,10.1-43.2,20.6-62.5,9.6-17.7,20.6-34.5,31.1-51.6,17-27.1,30.9-56,42.1-85.9,2.7-6.6,4.6-13.5,7.5-20,2-.5,2.5,1.2,1.8,2.8-12,35-26.9,69.2-46.6,100.6-16.5,26.9-34.5,53.3-46.3,82.7-6.5,16.5-10.2,35.1-5.5,52.6,2.6,8.8,5.8,17.5,9.1,26.1,6.5,16.6,13.6,33.2,24.2,47.7,7.9,10.8,17.3,20.8,28.8,27.7,5.5,3.3,11.8,5.2,18.2,5.5,12.9.8,25.3-3.3,38.1-3.9,10.3-.7,20.4,2.1,30.6,3-3.5-11.9-8.7-23.6-17-33-10-12.1-24.3-19.9-33.5-32.7-4.8-6.7-10.3-14.1-9.7-22.8-5.5.1-11.2-3-12.8-8.4-5.3-15.9-8.5-32.4-12.3-48.8-4.9-21.9-9.4-43.9-14.1-65.9-1.3-6.1-3.2-12.5-1.2-18.6,1.4-5,5.6-8.7,10.4-10.4,7.8-2.8,16.1-3.3,24.2-4.6,8.1-1.3,16.3-1.8,24.3-3.5,4.4-3.7,8.5-7.8,12.8-11.6,6-5.3,10.4-12.1,15.7-18.1,4.8-5.3,9.2-11.1,14.8-15.6-.9-2.5-2.3-5.2-1.7-7.9.9-4.8,3.9-8.9,5.8-13.3-7.1-3.9-14.2-8.7-17.7-16.2-2.1-4.3-1.9-9.2-1.7-13.9-18.7-4.3-37.1-10-55.9-13.4-9.1-1.9-18.6-2.9-27-7.1h-.3ZM604.3,982.9c-.7,3,.8,6,2.8,8.1,6.1,6.5,13.7,11.3,21.2,16.1,12.1,7.8,24.8,17.2,39.9,16.6,1.7-9.1,5.3-17.8,9.4-26-23-8.2-46-16.4-68.1-26.8-1.9,3.9-4.4,7.6-5.3,11.8l.1.2ZM598.9,998.6c-5.7,6.8-11.7,13.2-17.1,20.2-4.9,6.4-11.4,11.3-17.2,16.9,9.4-1.2,18.8-2.3,28.2-3.5.4-1.4.9-2.7,1.4-4.1.9.5,3.4.5,2.5,2.2-2.7,8.8-2.9,18.1-3,27.2,0,16.8-6.4,33.3-3.3,50.1,3.9,23,6.7,46.5,15.2,68.4,4.8,12.1,10.9,23.8,18.4,34.4,5.4,7.7,13,14.1,22.2,16.7,7.2,2.2,16.2,3.6,22.6-1.5,6.5-6.1,6.7-17,1.6-24,.4-.7.9-1.3,1.3-1.9-14.2-8.8-27.7-19.5-37.2-33.5-6.8-10-11-21.4-15.7-32.5-2.5-6.5-5.2-13.2-4.8-20.3.7.2,2,.5,2.6.7,1.1,6.3,2.5,12.6,5.2,18.5,4.4,9.7,7.8,20,13.6,28.9,7.3,11.5,17.2,21.1,28.3,28.9,14.3,10.1,29.9,18.7,47,23,5.9,1.5,12.7,3,18.1-.7,4-3.3,7.1-7.6,9.5-12.1-5,0-10.1,0-15.1-.7-9.2-1.2-18.7-2.2-27.1-6.4-13-6.6-25-15.5-33.8-27.2-5.3-7.2-10-14.8-14.7-22.4-3.8-6.3-7.1-13.2-7.3-20.7h3c.6,7,3.5,13.5,7.3,19.3,6.3,9.6,11.8,19.8,19.8,28.1,9.3,9.6,20.7,17.5,33.2,22.4,10.8,3.2,22.3,3.9,33.5,4.4.7-.6,1.5-1.2,2.2-1.8,1.2.9,2.5,1,3.7.2,4.9-2.7,9.3-7.5,9.4-13.4-9.1,2.5-18.8,2.1-27.8-.3-13.2-3.1-24.7-11-34.5-20.2-6.5-6.2-13.4-12.1-18.8-19.4-3-4.4-5.9-9.7-5.2-15.2,1.1-.6,2.9-.6,2.8,1.2,1.2,10.9,9.8,18.5,17.4,25.5,7.2,6.6,14.2,13.4,22.6,18.4,7.4,4.5,15.9,6.7,24.3,7.9,8.2,1.1,17.1.5,24.2-4.3,6.9-4.8,8.2-15,4.4-22.1-3.3-5.5-10.3-5.8-15.9-7.4-8.5-1.8-15.8-6.9-22-12.8-7.2-7.1-15-13.7-20.4-22.3-12.8-19.4-17.5-42.6-25.7-64.1-3-7.9-7.6-15.2-14.1-20.7-14.4-1.4-26.7-9.7-38.3-17.7-7-5.1-14.9-9.2-20.9-15.6-2.2,1.4-4.1,3-5.7,5l.1.3ZM677.8,1003.5c5.4.3,10.8.6,16.1.3-4.4-1.9-9-3.3-13.5-4.9-.9,1.5-1.8,3-2.6,4.6ZM671.7,1024.2c-.7,1.2-1.7,2.2-2.8,3,12.9,12.5,15.5,31,21.4,47.2,5.9,16.4,11.9,33.6,24.7,46,4.3,4.2,8.3,8.7,12.7,12.9,5.1,4.9,11.5,8.6,18.4,10,8.5-1,17-2.8,25.4-4.4,3.4-.7,8.7-2.3,8.1-6.8-4.1-31.4-7.6-62.8-12.4-94.1-1.3-6.2-2.2-13-6.3-18.2-3.7-4.2-9.9-3.5-14.9-3.2-24.8,1.8-49.6,4.7-74.4,7.6h.1ZM536.3,1042.7c-6.7,1-13.4,1.7-20,3.2-4.5,1.2-9.4,3-11.8,7.3-2.8,5-1.7,11-.5,16.3,7.8,35.7,14.8,71.7,23.8,107.2,1.4,4.5,2,9.5,4.8,13.4,3.5,4.3,9.6,3.6,14.4,2.4,18.7-4.8,37.6-9.2,56.4-13.5-6.3-16.6-10-34-12.9-51.5-1.6-9.9-3.9-19.8-3.6-29.8,0-11.7,2.4-23.1,3.5-34.7,1-9.1.4-18.3,1.7-27.4-18.7,2.2-37.3,4.6-55.9,7.1h.1ZM753.7,1145.3c4.6,2,9.3,4.3,12,8.8,5-1.7,4.9-7.5,4.6-11.8-5.5,1-11.1,2-16.6,3ZM543,1196.3c1.2,5.7,2.8,11.5,6.2,16.3,7.7,12.5,20.1,20.5,30.6,30.3,12.2,11.4,19.7,26.7,24.7,42.3,6.5-.2,14.2,1,19.6-3.6,4-4.5,2.5-11.6-.5-16.4-7.8-12.1-21.8-18.2-30.9-29.2-5.1-6.1-10-12.4-14.6-18.9-5.7-8-7.6-17.9-12.1-26.5-7.7,1.7-15.3,4.2-23.1,5.5l.1.2ZM673.6,1200.9c3.5,5.6,3.8,12.4,2.8,18.7,6.4-.2,11.1-4.9,15.1-9.4-6.1-2.9-12.1-5.9-17.9-9.3h0ZM446.6,1262.7c1.7,4.2,3,8.7,5.7,12.4,2.5,3.3,6.4,5.2,10.3,6.2-3.9-5.4-7.2-11.3-9-17.8-2.3-.3-4.6-.6-7-.9v.1ZM466,1262.9c4.6,6.6,5.6,15.2,11.7,20.7,2.3-.3,4.6-.5,6.9-.7-5.2-5.8-8.2-13.1-10.2-20.5-2.8.1-5.7.3-8.5.5h.1ZM477.5,1262.5c1.9,7.3,5,14.4,10.5,19.7,2.7-.8,5.4-1.4,7.9-2.5.6-1.6-1.3-2.5-2.2-3.5-4.3-3.4-7-8.3-9.6-13.1-2.3-.2-4.5-.4-6.8-.6h.2ZM456,1263.7c1,3.9,2.8,7.4,5.2,10.6,2,2.6,3.3,5.7,5.6,8,2,1,4.4.8,6.6,1.2-4.1-6.5-6.1-14.1-10.8-20.3-2.2.1-4.5.3-6.7.4l.1.1ZM487.7,1263.4c2.4,6,7.5,10.1,11.6,14.9,1.1-1.1,2.1-2.1,3.2-3.2-3.7-3.1-7.1-6.5-10.4-9.9-1.1-1.3-2.9-1.3-4.4-1.7v-.1ZM402.1,1277.2c-12.7,2.3-25.6,3-38.5,3.4-23,.8-46.1.6-69,2.1-17.7,1.3-35.7,4-51.8,12-15.7,7.5-26.2,22.3-42,29.6,7.9,1.4,16.1.4,23.8,2.8,5.5,1.9,8.1,7.7,10.2,12.7,4,9.4,8.1,19.4,6.6,29.9,5.2-5.6,10.6-11.8,11.8-19.7.8-7.8-2.1-15.2-4.9-22.3-1.2-.6-2.8-1.3-2.1-2.9,1-1.1,3.3-2.9,4.2-.7,2.4,6.1,5,12.2,6,18.8.8,4.9-.5,9.9-2.1,14.5,5.5,2.5,11.6,2.4,17.4,3.5,15.9,2.9,32.1.6,47.6-3.3,3.6-1.5,7.1-3.3,10.9-4.4,10.4-3.3,20.8-7.1,31.7-8.6,17.2-2.3,34.6-2.7,51.7-5.4,14.3-1.9,28.7-3.2,42.7-6.7,16-3.9,31.1-10.5,47-14.8,8.8-2.4,18-1.7,26.8-4.1-.9-2.9-1.7-5.9-2.4-8.9-3.9-.2-7.6,1.4-11.5,1.5-6.1.2-12.3-.3-18.3-1.3-12.9-2-25.7-8.5-33-19.6-4.5-1.2-9.1-2.6-12.6-5.7s-5.1-7.5-6.9-11.7c-14.8,1.4-28.7,6.8-43.3,9.3h0ZM499.2,1281.3c-9.5,4.3-20.1,6.1-30.5,4.5,4.2,4.7,9.2,8.7,14.9,11.4,8.9,4.4,19,5.7,28.9,6.1,4.9.2,9.6-1.1,14.4-1.8-1.6-5.9-3-13-9-16-4.7-2.2-9-5.2-13.1-8.5-1.8,1.6-3.6,3.3-5.8,4.3h.2ZM571.7,1284.7c5.9,8.8,8.9,19.1,11.8,29.2,5.8.7,11.5,1.3,17.3,1.7-3.4-11.3-12.2-19.8-17.6-30.2-3.8-.6-7.7-.7-11.6-.7h.1ZM560.3,1285.9c4.1,7.9,8.7,16.8,5.9,26,4.7.4,9.4,1,14.1,1.6-3.1-9.9-5.6-20.4-12.3-28.6-2.6.4-5.2.7-7.8,1.1l.1-.1ZM549.2,1287.8c3,7.3,5.7,15.2,4.9,23.1,3.2.2,6.3.4,9.5.6,2.2-9-1.9-17.7-6.4-25.2-2.7.5-5.4.9-8,1.4v.1ZM586.9,1285.9c5.5,10,14.1,18.4,16.8,29.7,3.7.3,7.5.3,11.2,0-1.5-3.7-3.7-6.9-6.1-10-4.6-5.9-6.8-13.5-12.8-18.2-2.9-1.1-6.1-1.1-9.1-1.5h0ZM611.6,1288.2c7,7.1,12.3,15.7,19.1,23,1.9-.8,4.1-1.4,5.7-2.8,1.2-1.6-.2-3.5-.8-4.9-3.8-6.5-9.2-12.1-15-16.9-3,.7-5.9,1.2-8.9,1.6h-.1ZM524.9,1287.9c4.1,7.5,5.3,16,7.8,24.1,2.1-.3,4.2-.5,6.3-.7,1.2-7.5-.6-15.6-4.8-21.9-2.9-1.1-6.2-.9-9.2-1.5h-.1ZM537.8,1288.9c2.9,7,4.9,14.5,4.1,22.1,3.1,0,6.2-.2,9.3-.2.4-2.3.8-4.6.1-6.8-1.4-5.3-2.8-10.7-5.2-15.7-2.8.2-5.6.4-8.4.6h.1ZM600.5,1287.8c4.7,5.8,7.4,12.8,12.1,18.6,2.2,2.7,3.9,5.8,5.2,9,3.4-.8,6.7-1.8,10-3-7-7.8-12.6-16.7-20-24.1-2.4-.2-4.9-.3-7.3-.5ZM617,1318.4c-5.9.7-11.8.2-17.7.3-2.8,1.5-6.1,1.5-9,2.8-8.1,3.8-17.2,5.4-26.1,5-9.6-.9-19.4-3.4-27.2-9.2-1-.7-2.2-1.7-3.5-1.2-4.2,1-8.5,2.3-12.9,2.2-13.3,0-25.9,5.1-38.2,9.6-8.6,3.2-17.4,5.7-26.3,7.8-20.3,5-41.3,6.3-62,9.1,6.4,8.8,12.2,18.4,14.9,29.1,1.7,6.6,1.6,13.7-.7,20.2,14.7.3,29.5.4,44.2-.7,28.4-1.8,56.9-3.3,85.4-4.3,10.3,0,20.6-1.6,30.8-2.4,22.8-.6,45.5.9,68.3,1.3-3.5-8.3-5.7-17.1-9.2-25.3-2.5-6.7-6.6-12.7-7.6-19.9-.6-3.9.4-8.6,4-10.8,5.7-3.5,12.6-3.9,19-4.7,7.1-.5,13.9-2.6,21-3.3-2.3-1.5-4.6-3-7-4.3-6.3-3.5-13.5-5.1-20.1-8-6.6,2.6-13.1,5.9-20.2,6.6l.1.1ZM538.3,1314.2c2,1.8,4.2,3.3,6.7,4.4,14.6,7.1,32.4,6.4,46.8-.8-17.8-1.7-35.6-5.5-53.5-3.6ZM193.8,1326.7c-6.9,2.5-14,4.7-20.8,7.5-3.5,1.4-6.7,3.8-8.1,7.4-3.8,8.9-4.6,19.4-1.3,28.6,3.4,8.9,12.2,14.5,21.1,16.9,17.5,5,36.7-.4,50.5-11.7,3.5-3.8,3.6-9.5,2.9-14.3-1.3-7.4-3.7-14.6-6.7-21.4-1.8-4.2-4.5-8.7-9.3-9.8-6.7-1.3-13.6-.5-20.3-2.2-2.6-.4-5.3-1.9-8-.9v-.1ZM646.2,1329.9c-6.3,1.2-13.2.9-19,4.1-2.6,1.3-4.4,4.1-4,7.1.8,7.9,5.4,14.6,8,21.9,3.5,8.3,5.6,17.1,9.4,25.3,12.2-.2,24.9-2.4,35.4-8.9,6.1-3.7,10.9-10.1,11.2-17.5,1.1-14-7.9-26.7-18.7-34.6-7.6-.7-15,1.5-22.4,2.6h.1ZM349,1350.4c-8.9,2.7-17.8,5.4-26.4,9-9.4,3.8-11.6,16.3-7.7,24.8,3.2,6.6,10.7,9.5,17.5,10.2,11.2,1.2,22.5,0,33.7-.4,13-.8,26,0,39.1,0,2.9-7.6,2.5-16.1-.3-23.7-3.2-9.2-8.6-17.4-14.3-25.3-13.9,1.4-28.2,1.2-41.7,5.4h.1ZM171.3,45c10.8,11.6,18.9,25.6,24.6,40.3,8.1,21.1,9.6,45,2.5,66.6-4.5,13.5-11.8,26.4-22.5,35.9-3.2-20.7-5.6-41.5-7.3-62.3-1.3-16.6-2.2-33.3-1.7-50,.4-10.3,1.3-20.6,4.4-30.4v-.1ZM173.3,53.9c-1.5,7.9-2,15.9-2.3,23.8,10,6,18.1,16,20,27.7,1,7.6.7,15.4-1.8,22.7-2.3,7-7.6,13.2-14.8,15.6,1.3,11.7,2.7,23.5,4.3,35.2,14.6-17.8,21.7-41.4,19.5-64.3-2-22.2-11.7-43.1-25-60.7h.1ZM170.8,82.3c0,4.3,0,8.5.2,12.8,3,2.1,6,4.8,7,8.5,1.1,4.4.9,9.1,0,13.6-.6,3-3.1,4.9-5.3,6.7.4,5.3.8,10.5,1.4,15.8,3-1.5,5.9-3.3,7.8-6.1,5.2-7,6.1-16.1,5.6-24.5-.7-11-7.6-20.7-16.5-26.7l-.2-.1ZM524.2,257c-6.6,7.8-11.9,17.9-10.4,28.4,1.1,8.5,6.6,15.3,11.2,22.1,2.4,3.5,7.6,3.5,10.6.8,6-4.9,8.2-12.7,10.1-19.9,2.9-9.7,10.9-16.9,19.9-20.9,6.2-3.1,12.9-4.6,19.3-7.1,2.9-1.3,6.7-3.3,6.7-7-.4-2.7-2.9-4.4-5.1-5.6-5.7-2.7-12-3.9-18.1-4.9-5.8-1-11.8-1.1-17.6,0-10,1.8-19.5,6.8-26.6,14.1h0ZM244.2,577.9c.5,4.5-.4,9.4,1.8,13.6,1.1-18.2-1.1-36.4-2-54.6-1.1,13.6-.1,27.4.1,41h.1Z"/>
  <path class="cls-2" d="M152.3,5c7.1-2.5,14.7-2.3,22-1.1,5.6,1,11.3,3.3,15.1,7.8-2.5.6-5.1.9-7.6.8-8.2-.1-16.6.8-24.5,3.2-6.9,1.9-12,7.8-14.8,14.1-6.7,11.8-8.9,25.3-11.6,38.4-1.4,8.4-3.4,17-1.5,25.5,2.5,12,7.4,23.3,12.3,34.5,3.1,7.6,1.1,16-1.2,23.5-2.2,7.4-6,14.8-5.1,22.8,1.5,12.3,9.6,22.9,10.2,35.4.4,13.8-4.1,27.1-4.4,40.8,1.1,10.6-1.4,21.2-1.1,31.8,0,11.4,2.6,22.6,5.6,33.5,3,10.8,6.5,21.4,9.5,32.1,1.7,5.9,2.4,12.1,4.9,17.7,6.5,15.4,14.6,30.1,22.6,44.8-4.2-1.9-8.4-4-12.6-5.8,5.5,8.5,11.5,16.7,17.1,25.2-3.4,0-6.7,0-10.1.2,1.1,1.7,2.6,3.2,4.3,4.5,8.3,6.3,15.1,14.2,21.6,22.2-12.9-6.3-24.9-14.5-37-22.3-29.4-19.6-58.2-40.1-85.7-62.3-12.2-10.1-24.5-20.3-34.6-32.6-15.7-19.2-27-42-32.4-66.3-2.5-11.5-3.7-23.5-1.7-35.2,1-6,2.2-12.1,2.3-18.2,0-6.1-1.3-12.1-2.4-18.1-3.3-16.9-5.9-33.9-8-51-1.5-13.6,3-27,9.6-38.7,8.9-15.6,21.1-29,34.2-41.2,20.3-18.7,43.1-34.6,67.1-48.2,12.2-6.8,24.7-13.2,38-17.6l-.1-.2ZM195.2,13.1c19,2.4,37.5,8.1,55,15.9,22.8,10.1,46.2,19,70.5,25,22.6,5.6,45.9,7.9,69.1,9.5,21.3,1.2,42.6-3.7,63.9-1.5-6.5-6.1-13.8-11.4-21.4-16.2-24.6-15.5-52.4-25.2-80.8-30.8-18.5-3.7-37.3-5.2-56.1-6.4-23.3-1.4-46.6-1.7-69.9.3-10.2.9-20.4,2.1-30.3,4.4v-.2ZM425.4,372.6c2.5,15.9,5,31.9,9.8,47.3,4.5,16.3,6.8,33.1,8.2,49.9.5,7.4,1.3,14.9-.1,22.3-2.1-4.2-3.1-8.9-4-13.5-7.9-38.4-14.7-77.1-25-115-2.3-8.1-4.6-16.1-8.1-23.8-1.3-2.7-2.7-5.6-5.5-7-2.4.4-4,2.6-5.2,4.5-3.3,5.7-3.4,12.5-3.2,18.8.7,12.4,3.9,24.6,7.5,36.5,2.9,10,7,19.6,9.3,29.8,4.8,20,7,40.5,8.1,61,.7,17.6,1.3,35.5-1.6,53-5.5,27.5-16.8,53.3-28.4,78.7,1.6-12.2,5-24.1,5.4-36.5-5.5,10.5-7.8,22.3-11.7,33.4-1.2-41.3-1.6-82.6-3.3-123.8-1.1,4.5-2.4,9.3-6.3,12.3-5.8,4.4-14.3,5-20.6,1.3-6.8-4-11.6-10.6-15.8-17.1-9.7-15.9-16.3-33.4-24-50.3-.4,11.2.5,22.4.6,33.6.8,28.8,1.4,57.6,1.9,86.4.2,20.9,1,41.8.6,62.7-1.4-10.5-3.6-20.9-5.7-31.3-2.6-11.9-5.1-23.8-9.4-35.2-1.3-3-2.6-6.5-5.7-8-3,2.9-2.3,7.8-2.9,11.7-.9,31.4,1.7,62.8,3.8,94.1.8,13,2.3,25.9,2.8,38.9-5.6-41.3-11-82.6-17.4-123.8-.6-3.9-1.3-7.8-2.5-11.6-3.2,6.4-3.8,13.6-5.1,20.6-1.5,9.8-3.3,19.6-4,29.6,2.1,20.4,4.1,40.9,7,61.2,2.5,17.6,5.2,35.1,9.8,52.3,2,6.9,4,14.1,8.3,20.1,8.5,11.6,21.6,19.1,35.4,22.3.9-1.3,1.8-2.6,2.7-3.9,2.4.8,1.5,3.1.5,4.7,4.5.7,9.1,1.3,13.6,1.3,6.3,0,13.4-.3,18.2-4.9,11.1-9.9,20.8-21.2,30.7-32.2-11.5,0-24,0-34.2-6.1-9.6-5.8-15.2-16-19.4-26.1-4.2-10.4-7.5-21.1-10.6-31.8-1-1.6,2.1-2.6,2.5-.9,2.7,7.8,4.8,15.7,7.6,23.5,4.2,11.6,8.9,24,19.2,31.7,8.8,6.6,20.3,6.7,30.8,7.6,2.8-4.1,5.4-8.2,8-12.4h-9.3c2.9-6.6,6.5-12.8,9.9-19.1-2.9-1.8-6-3.3-9.1-4.8-6.9-3.4-12-9.6-15.6-16.2-6.6-12-9.7-25.6-11.9-39-3.8-24.8-3.8-50-2.8-74.9.2-1.8,0-4.6,2.6-3.5.7,3.6,0,7.2,0,10.8-.7,25.4-.2,51.1,4.7,76.1,3,13.8,7.1,28.1,16.7,38.8,5.3-.8,11.1-.4,16-2.8,4.1-4.6,2.6-11.5,2.6-17.2-5.2-13.8-7.8-28.5-10-43.1-.2-1.5-.5-3,.1-4.4,1.1-.5,2.4.3,2.4,1.6,2.6,16,4.8,32.3,11.4,47.3,5.1-2.4,10.4-4.4,15.4-7.1,3-1.5,3.9-5,4.6-8,1.6-8.2,1.2-16.6.6-24.8-.8-13.2-3.4-26.3-4.8-39.4-1.2-9.3-4.7-18.1-7-27.1,1.5-2.6,3.1.3,3.4,2,6.4,23.5,12.2,47.1,16.3,71.1,3.5-1.8,7.3-3.2,10.7-5.3,1.7-1,1.9-3.2,2.2-5,.8-6.6.4-13.3.1-19.9-1.9-30.6-6.2-61-10.5-91.3-1.8-13.9-4.5-27.7-5.9-41.6-.5-6.4-2.7-12.7-3-19.1.5,0,1.6-.2,2.1-.3,1.2,3.1,1.5,6.5,2.1,9.7,6.5,35.9,12.9,71.8,19.4,107.7,3.7-1.2,8.1-2.9,8.7-7.3,3.7-18.5,1.4-37.4,1.6-56.1-.6-14.8-1.9-29.5-2.6-44.3-2.3-49.1-3-98.2-2.6-147.3-13.1-.7-26.3-.7-39.5-.1,2.3,22.8,4.9,45.6,8.3,68.3l.1-.3ZM58.9,621.5c1.1,26.3,3.2,52.6,4.1,79,1.1,20.3,1.3,41,6.6,60.8,3.3,12.8,10.7,25,22,32.1,8.8,5.4,18.8,10.3,29.4,9.2,7.8-.7,14.1-5.9,21.6-7.9,4.2-1.2,8.8-.9,12.9.5,8.9,3,17.4,7.3,26.4,10.2,4.9,1.6,10.2,2.7,15.2,1.2,4.3-1.2,7.2-5.1,11.4-6.6,5.1-1.8,10.7-1.3,15.9-.1,12.3,2.8,23.5,8.7,35.5,12.3,5.9,1.9,12.8,1.6,18-2,6.6-4.4,12.3-10.2,18.5-15.1,11.5-10.3,20.9-22.6,30.1-34.9-15.8-4.2-31.2-13.6-39-28.5-6.5-14.6-9.1-30.4-12-46-3.8-21.8-6.3-43.9-8.7-65.9-.3-1.5-.6-2.9-1-4.3-1,6.8-1.5,13.7-2.7,20.5-4-48.2-8.1-96.4-12.3-144.5-1.8-18.6-3-37.3-5.4-55.8-.5,3.1-.8,6.2-.9,9.4-.6,21.8-.9,43.6-.9,65.4-.1,7.3,0,14.7-.6,22-1.3-21.4-4.1-42.6-7.8-63.7l-3.7-.6c-6.8-1-13.6-2.6-20.1-4.8-1.3,11.1-2.1,22.3-2.7,33.5-2.2,41.8-2.1,83.6-1.7,125.4,0,6,.6,12.1-.1,18.1-2.1-10.4-3.2-20.9-5-31.3-6.2-40.4-12.3-80.9-19.7-121.1-1.4-6.3-1.9-12.9-5-18.7-2.4,5.7-2.6,11.9-3.1,18-.6,9-1.2,18-1.1,27-1.6-16.5-1-33.4-5.4-49.5-.9-2.8-1.9-5.8-4-7.9-1.3-1.3-3.5-1.7-4.8-.2-1.9,2.1-2.5,4.9-3.2,7.6-1.7,8.3-2,16.9-2.2,25.4-.6,24.6,1.2,49.1,2.4,73.6-2.6-9.9-3.8-20.1-5.6-30.1-3.8-22.6-7.4-45.2-11.5-67.8-.8-4.4-1.5-8.7-3-13-.7,3.3-1,6.6-.9,9.9.4,20.3,1.6,40.6,2.6,60.9,2.6,47.6,5.7,95.1,8,142.6,1.1,21.3.3,42.8-4.4,63.7-3.1,13-7.3,26.2-15.2,37.1-3.1-87.5-5.7-175.1-9.4-262.6-.8-17.6-1.4-35.1-2.7-52.6-.5-5.4-.6-10.9-2.7-15.9-2.2,5.8-2.5,12-3.1,18.1-1.1,11.7-1.6,23.5-2.2,35.2-1.1,13.3-3.3,26.5-5.2,39.7-6.8,44.1-14.4,88.2-21.9,132.2,0-2.6,0-5.2.2-7.7,3.6-43.7,6.9-87.4,9.8-131.1,4-49.7-1.1-99.7-11.1-148.4-9.4-7.8-18.6-15.7-27.1-24.4,2.4,90.8,4.7,181.6,8.6,272.4h-.1ZM246,591.5c-2.2-4.2-1.3-9.1-1.8-13.6-.3-13.7-1.2-27.4-.1-41,.9,18.2,3.1,36.4,2,54.6h-.1ZM178.9,412.6c4.4,6.9,9.2,13.5,13.8,20.4h-9.2c9,7.2,16.6,16,24,24.8,1.9,2.5,5.2,3,7.9,4,5.4,1.6,10.8,3.2,16.5,3.5.7,0,2.1,0,2.8.1-.5-1-1-1.9-1.4-3-18.3-18.9-35.8-38.6-51.5-59.7,2.2,5.3,5.4,10.1,8,15.2-3.6-1.7-7.2-3.5-10.9-5.2v-.1ZM216.2,439.7c5.4,6,10.6,12.1,16.5,17.6-1.3-6.4-3.1-12.8-6.3-18.6-1.2-2.1-3.3-4.7-6-4-2,1.1-2.9,3.3-4.2,5h0Z"/>
  <path class="cls-6" d="M156.5,19.2c11.6-3.8,24-4.1,36.1-3.1,19.1,1.8,37.7,7.5,55.3,15.1,22.4,10,45.4,18.9,69.2,24.9,24.1,6.3,49,8.8,73.8,10.4,23.9,1.2,48-5.4,71.7.2,15.9,3.5,29.8,12.6,42,23.1,25.1,21.1,48.3,44.4,70,69,22.4,25.8,43.3,53.2,59,83.7,8.1,15.6,13.5,32.4,19.4,48.9,6.3,18.8,13,37.6,16.6,57.1-9,10.4-18.8,20.2-29.5,28.9-8.4,6.8-17.6,13-27.7,17.1-9.7-26.6-28.1-49.9-51.7-65.6-15.9-10.6-34-17.7-52.7-21.3-35.3-6.5-71.4-8.2-107.2-5.2-11.1,1-22.2,2.4-33.2,4.6-4.6-40.3-9.9-80.4-15.5-120.6-.4-2.1-.4-4.4-1.3-6.4-1.8-1-3.1.9-2.5,2.5,5.6,39.3,10.8,78.8,15.4,118.2.4,2.8.6,5.6.8,8.5.1,2.8.6,5.6,1.1,8.4,2.4,23.4,4.8,46.8,6.1,70.3.9,15.1.3,30.3,1.3,45.4.6,14.6,2.2,29.1,2.3,43.6-.1,5.8-.2,11.9-2.8,17.2-3.3,6.7-12.5,8.6-18.9,5.5-6.9-3.4-11.6-9.9-15.6-16.2-9-14.7-15.4-30.8-22.3-46.6-6.9-16.4-15-32.3-22.5-48.4-20-42.1-39.8-84.3-61.7-125.5-5.3-9.8-10.6-19.5-16.6-28.8-3.4-5.2-7-10.6-12.3-14.2-7.7-5.6-17.8-7.1-27-5.6-10.3,1.6-20.2,6.1-28.1,12.9.9-6.7,1.9-13.4,1.2-20.2-1.4-11.2-8-20.9-9.9-31.9-.9-4.8.4-9.6,1.9-14.1,3.5-10.5,8.3-22,4.5-33.1-4.8-11.2-9.9-22.5-12.4-34.5-.9-4.2-1.1-8.6-.5-12.9,1.2-9.5,3.1-18.9,5.3-28.1,1.7-6.9,3.5-13.8,7.1-20,2.4-5.6,6.1-11.2,12-13.5l-.2.3ZM171.3,45c-3.1,9.8-4.1,20.2-4.4,30.4-.5,16.7.3,33.4,1.7,50,1.7,20.9,4.1,41.6,7.3,62.3,10.8-9.5,18.1-22.4,22.5-35.9,7-21.6,5.6-45.5-2.5-66.6-5.7-14.7-13.8-28.7-24.6-40.3v.1ZM550.7,242.8c-10,1.8-19.5,6.8-26.6,14.1-6.6,7.8-11.9,17.9-10.4,28.4,1.1,8.5,6.6,15.3,11.2,22.1,2.4,3.5,7.6,3.5,10.6.8,6-4.9,8.2-12.7,10.1-19.9,2.9-9.7,10.9-16.9,19.9-20.9,6.2-3.1,12.9-4.6,19.3-7.1,2.9-1.3,6.7-3.3,6.7-7-.4-2.7-2.9-4.4-5.1-5.6-5.7-2.7-12-3.9-18.1-4.9-5.8-1-11.8-1.1-17.6,0h0ZM146.2,234.4c-1,6.6-2.4,13.3-1.7,20,.5,6.4-.6,12.8-1,19.1-.7,8.4-.3,17,1.3,25.3,4,21.2,12.4,41.3,16.7,62.4,5.7-3.3,11.8-5.8,18-8.2,26.4-10,53.5-18,80.6-25.8-13.6-27.9-27.3-55.9-42.9-82.8-3.7-6.1-7.4-12.4-12.2-17.8-5.7-6.2-14.1-9.4-22.4-9.5,16.7,9.6,29.4,26,34.4,44.7,2.5,9.7,3,19.9,3.3,29.9,0,10.2-.6,20.7-4.5,30.3-1.6,3.6-4.2,7.8-8.5,8.3-3.1.3-5.1-2.5-6.5-4.8-5.7-9.5-8.5-20.3-11.8-30.8-6.2-25.3-10.1-51.6-7.4-77.6-11.5.7-23,5-31.8,12.5-1.4,1.4-3.3,2.7-3.4,4.8h-.2ZM581.9,1018.8c-4.9,6.4-11.4,11.3-17.2,16.9,9.4-1.2,18.8-2.3,28.2-3.5.4-1.4.9-2.7,1.4-4.1.9.5,3.4.5,2.5,2.2-2.7,8.8-2.9,18.1-3,27.2,0,16.8-6.4,33.3-3.3,50.1,3.9,23,6.7,46.5,15.2,68.4,4.8,12.1,10.9,23.8,18.4,34.4,5.4,7.7,13,14.1,22.2,16.7,7.2,2.2,16.2,3.6,22.6-1.5,6.5-6.1,6.7-17,1.6-24,.4-.7.9-1.3,1.3-1.9-14.2-8.8-27.7-19.5-37.2-33.5-6.8-10-11-21.4-15.7-32.5-2.5-6.5-5.2-13.2-4.8-20.3.7.2,2,.5,2.6.7,1.1,6.3,2.5,12.6,5.2,18.5,4.4,9.7,7.8,20,13.6,28.9,7.3,11.5,17.2,21.1,28.3,28.9,14.3,10.1,29.9,18.7,47,23,5.9,1.5,12.7,3,18.1-.7,4-3.3,7.1-7.6,9.5-12.1-5,0-10.1,0-15.1-.7-9.2-1.2-18.7-2.2-27.1-6.4-13-6.6-25-15.5-33.8-27.2-5.3-7.2-10-14.8-14.7-22.4-3.8-6.3-7.1-13.2-7.3-20.7h3c.6,7,3.5,13.5,7.3,19.3,6.3,9.6,11.8,19.8,19.8,28.1,9.3,9.6,20.7,17.5,33.2,22.4,10.8,3.2,22.3,3.9,33.5,4.4.7-.6,1.5-1.2,2.2-1.8,1.2.9,2.5,1,3.7.2,4.9-2.7,9.3-7.5,9.4-13.4-9.1,2.5-18.8,2.1-27.8-.3-13.2-3.1-24.7-11-34.5-20.2-6.5-6.2-13.4-12.1-18.8-19.4-3-4.4-5.9-9.7-5.2-15.2,1.1-.6,2.9-.6,2.8,1.2,1.2,10.9,9.8,18.5,17.4,25.5,7.2,6.6,14.2,13.4,22.6,18.4,7.4,4.5,15.9,6.7,24.3,7.9,8.2,1.1,17.1.5,24.2-4.3,6.9-4.8,8.2-15,4.4-22.1-3.3-5.5-10.3-5.8-15.9-7.4-8.5-1.8-15.8-6.9-22-12.8-7.2-7.1-15-13.7-20.4-22.3-12.8-19.4-17.5-42.6-25.7-64.1-3-7.9-7.6-15.2-14.1-20.7-14.4-1.4-26.7-9.7-38.3-17.7-7-5.1-14.9-9.2-20.9-15.6-2.2,1.4-4.1,3-5.7,5-5.7,6.8-11.7,13.2-17.1,20.2l.1.3Z"/>
  <path class="cls-9" d="M173.3,53.9c13.3,17.6,23,38.6,25,60.7,2.2,22.9-4.9,46.5-19.5,64.3-1.6-11.7-3-23.4-4.3-35.2,7.1-2.4,12.4-8.6,14.8-15.6,2.5-7.3,2.8-15.1,1.8-22.7-1.9-11.7-9.9-21.7-20-27.7.3-8,.8-16,2.3-23.8h-.1ZM184.9,232.7c5.9,2.1,11.2,6,14.7,11.2,5.8,8.6,7.2,19.5,6.3,29.7-.7,8.3-5,16.6-12.6,20.5,3.3,11.2,6.3,23,13.3,32.5,3.6-1.6,5.1-5.5,6.3-9,3.3-10.7,3.3-22.1,2.9-33.1-.5-7.7-1.1-15.4-3.3-22.8-4.4-15.3-14.5-28.6-27.4-37.9-.2,3-.2,6-.2,8.9h0Z"/>
  <path class="cls-7" d="M366.1,310.3c16.8-3.8,34-4.6,51-6.5v.5c2.3,22.8,5,45.6,8.4,68.3,2.5,15.9,5,31.9,9.8,47.3,4.5,16.3,6.8,33.1,8.2,49.9.5,7.4,1.3,14.9-.1,22.3-2.1-4.2-3.1-8.9-4-13.5-7.9-38.4-14.7-77.1-25-115-2.3-8.1-4.6-16.1-8.1-23.8-1.3-2.7-2.7-5.6-5.5-7-2.4.4-4,2.6-5.2,4.5-3.3,5.7-3.4,12.5-3.2,18.8.7,12.4,3.9,24.6,7.5,36.5,2.9,10,7,19.6,9.3,29.8,4.8,20,7,40.5,8.1,61,.7,17.6,1.3,35.5-1.6,53-5.5,27.5-16.8,53.3-28.4,78.7,1.6-12.2,5-24.1,5.4-36.5-5.5,10.5-7.8,22.3-11.7,33.4-1.2-41.3-1.6-82.6-3.3-123.8-1.8-48.6-3.4-97.2-8-145.6-1.1-8.3-1.3-16.9-4.1-24.9-.5-2.8-1-5.6-1.1-8.4.5.3,1.1.7,1.6,1h0ZM162.7,363.8c4.3,11.4,10.8,21.8,17.8,31.8,10.9,15.5,23.1,30,35.8,44.1,1.3-1.7,2.2-3.9,4.2-5,2.8-.7,4.8,2,6,4,3.2,5.7,5,12.2,6.3,18.6.3,1.6.3,3.3.6,5,.4,1,.9,2,1.4,3-.7,0-2.1,0-2.8-.1,1.1.6,2.1,1.2,3.1,1.9-.9.8-2,1.3-3.4,1.3l3.7.6c3.7,21.1,6.5,42.3,7.8,63.7.6-7.3.4-14.7.6-22,0-21.8.3-43.6.9-65.4,0-3.1.4-6.3.9-9.4,2.4,18.5,3.6,37.2,5.4,55.8,4.2,48.2,8.3,96.3,12.3,144.5,1.2-6.8,1.7-13.7,2.7-20.5.3,1.4.7,2.9,1,4.3-.5-6-.3-12.1,1.1-18,.6-9.9,2.5-19.7,4-29.6,1.3-6.9,1.9-14.2,5.1-20.6,1.2,3.8,1.9,7.7,2.5,11.6,6.4,41.2,11.8,82.5,17.4,123.8-.5-13-2-25.9-2.8-38.9-2-31.3-4.7-62.7-3.8-94.1.5-3.9-.1-8.8,2.9-11.7,3.2,1.5,4.4,5.1,5.7,8,4.3,11.4,6.9,23.3,9.4,35.2,2.1,10.4,4.2,20.8,5.7,31.3.4-20.9-.4-41.8-.6-62.7-.5-28.8-1.1-57.6-1.9-86.4-.1-11.2-1.1-22.4-.6-33.6-6.6-16.1-14.8-31.5-22-47.3-9-19-18.1-38.1-27.3-57.1-19.9,5.5-39.5,11.6-59.1,18-13.5,4.7-27.3,9.1-39.9,15.9h-.1ZM88.5,522c-2.9,43.7-6.3,87.4-9.8,131.1-.2,2.6-.2,5.1-.2,7.7,7.6-44,15.2-88,21.9-132.2,1.9-13.2,4.1-26.4,5.2-39.7.6-11.8,1.1-23.5,2.2-35.2.6-6.1.9-12.3,3.1-18.1,2.1,5,2.3,10.6,2.7,15.9,1.3,17.5,1.9,35.1,2.7,52.6,3.7,87.5,6.3,175,9.4,262.6,8-10.9,12.1-24.1,15.2-37.1,4.7-20.9,5.5-42.4,4.4-63.7-2.3-47.6-5.4-95.1-8-142.6-1.1-20.3-2.2-40.6-2.6-60.9-.1-3.3.2-6.7.9-9.9,1.4,4.2,2.2,8.6,3,13,4.1,22.5,7.8,45.2,11.5,67.8,1.8,10.1,3,20.2,5.6,30.1-1.2-24.5-2.9-49.1-2.4-73.6.2-8.5.5-17,2.2-25.4.6-2.7,1.3-5.5,3.2-7.6,1.3-1.5,3.6-1.1,4.8.2,2.2,2.1,3.1,5.1,4,7.9,4.5,16.1,3.8,33,5.4,49.5-.2-9,.5-18,1.1-27,.5-6.1.7-12.3,3.1-18,3.1,5.7,3.6,12.4,5,18.7,7.4,40.2,13.5,80.7,19.7,121.1,1.7,10.4,2.9,20.9,5,31.3.7-6,.1-12.1.1-18.1-.4-41.8-.5-83.7,1.7-125.4.6-11.2,1.4-22.3,2.7-33.5-12.9-4.7-24.5-12-36-19.3-33.9-21.9-66.9-45.2-98.2-70.6,10.1,48.7,15.1,98.8,11.1,148.4h.3Z"/>
  <path class="cls-8" d="M673.2,347.9c.9,2.7,1.7,5.4,2.3,8.2,2.4,12.6,4.4,25.3,6.5,38.1.4,1.4-.2,2.7-1.1,3.8-2.3-13-4.2-26-5.7-39.1-.2-2.9-2.4-4.9-4.4-6.8.9-1.3,1.5-2.8,2.4-4.2ZM666.1,357c1.3,1.9,2.6,4,2.7,6.4,1.6,12.9,3.5,25.7,5.3,38.5,1.3-.8,2.6-1.5,4-2.3-2-13.3-4.3-26.6-5.7-40,0-2.6-2-4.4-4-5.7-.8,1-1.5,2-2.3,3v.1ZM661.3,372.3c1.4,11.4,2.8,22.7,4.3,34.1,2-1,4-1.9,5.9-2.9-1.9-13-3.7-26.1-5.4-39.1-.2-1.9-1-3.6-1.7-5.3-2.2,2.1-4.4,4.3-6.5,6.4,1.6,2,3.3,4.2,3.4,6.9v-.1ZM648.3,374.5c1.1,1.9,2.1,4,2.4,6.2,1.8,10,3.8,20,5.7,30,2.1-.9,4.3-1.9,6.4-2.8-1.3-11.2-2.8-22.4-4.1-33.6-.3-1.7-.3-3.4-1.3-4.9-.5-.8-1.7-2.1-2.5-.9-2.3,1.9-4.4,4-6.6,6h0ZM587.3,395.2c.7,2,3.2,2.6,5,2.8,5.8.5,11.6-.7,17.2-2.3-2.9-6.8-5.5-13.8-9.4-20.1-4.2,4-8.4,8.2-11.3,13.3-1,1.9-2,4.1-1.5,6.3h0ZM647,414.8c2.3-.9,4.5-1.9,6.7-2.9-2-10.1-4-20.2-5.8-30.3-.3-1.8-1-3.6-1.7-5.3-3.5,2.8-6.9,5.6-10.5,8.2,3.8,10.1,8,20,11.2,30.2l.1.1ZM580.5,402.9c1.8-6.5,4.7-12.6,7.4-18.7-5.1,1.5-8.3,6.2-9.7,11.1-.8,2.8.5,5.5,2.3,7.6ZM638.8,418.2c1.9-.8,3.8-1.5,5.6-2.3-3.1-10-7.2-19.8-11-29.6-2.2,1.4-4.3,2.8-6.4,4.2,3.8,9.3,7.4,18.7,11.8,27.6v.1ZM618.4,400.3c4.3,6.9,7.5,14.4,11.2,21.6,2.2-.9,4.3-1.7,6.5-2.5-4.3-8.9-8-18.1-11.6-27.3-2.4,1.3-4.9,2.5-7.4,3.7.2,1.6.3,3.2,1.3,4.5h0ZM609.7,403.5c4,6,7.9,12.1,11.7,18.3.6.8,1,1.8,1.9,2.3,1.2-.2,2.3-.6,3.5-1-2.3-5.1-4.8-10-7.3-15-1.8-3.7-4.5-7-5.7-11-2.1.7-4.1,1.5-6.2,2.2.5,1.5,1.1,2.9,2,4.2h.1ZM584.6,406.8c1.5,2.1,3.6,3.6,5.6,5.2,7.3,5.7,15.1,10.9,23.3,15.3-5.1-7.4-10.3-14.7-15.8-21.8-1-1.4-1.6-3-2.2-4.5-3.8,0-7.5-.9-10.5-3.3-.9,2.9-2.1,6.2-.4,9v.1ZM600.8,405c5.5,7.1,10.6,14.5,15.9,21.8,1.2-.5,2.5-1,3.7-1.4-5-8.6-11.3-16.6-15.7-25.5-2.2.3-4.3.7-6.4,1,.8,1.4,1.6,2.8,2.6,4.1h-.1ZM680.8,465.8c7.5,1.1,14.9,3.6,20.7,8.5-4.8-25.2-11.6-50-18.4-74.8-5.3,3.9-11.1,7-16.9,9.8,5.9,18.5,10.1,37.6,14.6,56.5h0ZM618.3,593.4c-3.2,31.9-7.2,63.7-13.7,95.1-6.1,28.9-14.5,57.8-30.2,83.1-17.3,27.3-37.1,52.9-53.9,80.5-3.3,6-7.6,12.1-7.5,19.2,0,2.6,0,5.3.7,7.9.8,2.8,3.9,3.5,6.3,4.3,8.8,2.1,17.8,3.5,26.7,5.3,17.8,3.7,36,6.8,52.8,14.1,15.3-47.3,29.3-95,41-143.3,6.1-25,10.9-50.5,12.2-76.2,2.5-39.7-.5-79.4-3.6-119-1.1-19.9-5.2-39.4-7-59.2-.6-8.1-1-17.3,4.1-24.2,7.2-9.9,19.6-14.7,31.5-15.3-4.3-18.4-8.6-36.8-14.1-54.9-15.9,7-32,13.6-48.2,19.6,6,54.1,7.4,108.8,2.8,163.1l.1-.1ZM648,483.5c-4,6.4-3.2,14.4-2.9,21.7,1.8,20,6,39.8,7,59.9,4,51.4,7.8,103.4-.4,154.5-4.7,27.7-11.7,54.9-19,82-10.1,37.1-21.1,74-33.2,110.5-3,9.4-7.4,18.4-9,28.2-.9,5.4-.1,11.4,3.4,15.8,5.8,7.4,14.6,11.4,22.9,15.2,26.3,11.5,53.4,20.9,80.4,30.4,3.5,1.8,7-.9,9.5-3.3,4.5-4.6,5-11.3,6.1-17.3,3.2-22.9,4.4-45.9,5.8-69,1.4-26.4,2.3-52.7,3-79.1.5-20,.5-39.9-.3-59.9-1.2-30.3-2.9-60.5-4.6-90.7-4-65.5-8.4-131-13.4-196.4,0-5.2-3-9.9-7.5-12.3-7.2-4-15.8-6.1-24-4.5-9.2,1.8-18.5,6.3-23.8,14.3ZM506.3,906.9c-1.1,2.2-3.1,4.4-2.4,7.1.8,2.2,3,3.5,5,4.4,5.2,2.1,10.7,2.5,16.2,3.5,21.3,3.7,42.1,9.9,63,15.2,2.8-10.7,7.4-20.9,10.6-31.5-7.8-3.7-16.1-5.9-24.4-8-15.5-3.8-31.2-6.7-46.8-9.6-4.7-.6-9.1-2.4-13.7-3.6-5.4,6.3-3.3,15.6-7.5,22.5h0ZM476.7,956.2c-8.4,13.3-14.7,27.8-22,41.7-6.5,12.2-14.5,23.5-21.9,35.3-17.4,28-32.3,57.6-44.3,88.3-5.6,14.3-6.9,30.3-3,45.1,4.1,16.6,12.2,31.8,20.6,46.6,8.2,15,16.7,30.5,30.2,41.5,5.8,4.8,13.7,6.1,21,5.9,10.3-.3,20.7-2.1,30.9,0-17.3-21.5-27.3-47.6-36.1-73.3-3.1-8.6-4.6-17.9-4.3-27.1.7-22.3,10.1-43.2,20.6-62.5,9.6-17.7,20.6-34.5,31.1-51.6,17-27.1,30.9-56,42.1-85.9,2.7-6.6,4.6-13.5,7.5-20,2-.5,2.5,1.2,1.8,2.8-12,35-26.9,69.2-46.6,100.6-16.5,26.9-34.5,53.3-46.3,82.7-6.5,16.5-10.2,35.1-5.5,52.6,2.6,8.8,5.8,17.5,9.1,26.1,6.5,16.6,13.6,33.2,24.2,47.7,7.9,10.8,17.3,20.8,28.8,27.7,5.5,3.3,11.8,5.2,18.2,5.5,12.9.8,25.3-3.3,38.1-3.9,10.3-.7,20.4,2.1,30.6,3-3.5-11.9-8.7-23.6-17-33-10-12.1-24.3-19.9-33.5-32.7-4.8-6.7-10.3-14.1-9.7-22.8-5.5.1-11.2-3-12.8-8.4-5.3-15.9-8.5-32.4-12.3-48.8-4.9-21.9-9.4-43.9-14.1-65.9-1.3-6.1-3.2-12.5-1.2-18.6,1.4-5,5.6-8.7,10.4-10.4,7.8-2.8,16.1-3.3,24.2-4.6,8.1-1.3,16.3-1.8,24.3-3.5,4.4-3.7,8.5-7.8,12.8-11.6,6-5.3,10.4-12.1,15.7-18.1,4.8-5.3,9.2-11.1,14.8-15.6-.9-2.5-2.3-5.2-1.7-7.9.9-4.8,3.9-8.9,5.8-13.3-7.1-3.9-14.2-8.7-17.7-16.2-2.1-4.3-1.9-9.2-1.7-13.9-18.7-4.3-37.1-10-55.9-13.4-9.1-1.9-18.6-2.9-27-7.1-9.5,12.2-19.6,24-27.9,37h-.3ZM607.2,991.1c6.1,6.5,13.7,11.3,21.2,16.1,12.1,7.8,24.8,17.2,39.9,16.6,1.7-9.1,5.3-17.8,9.4-26-23-8.2-46-16.4-68.1-26.8-1.9,3.9-4.4,7.6-5.3,11.8-.7,3,.8,6,2.8,8.1l.1.2ZM694,1003.8c-4.4-1.9-9-3.3-13.5-4.9-.9,1.5-1.8,3-2.6,4.6,5.4.3,10.8.6,16.1.3ZM549.1,1212.6c7.7,12.5,20.1,20.5,30.6,30.3,12.2,11.4,19.7,26.7,24.7,42.3,6.5-.2,14.2,1,19.6-3.6,4-4.5,2.5-11.6-.5-16.4-7.8-12.1-21.8-18.2-30.9-29.2-5.1-6.1-10-12.4-14.6-18.9-5.7-8-7.6-17.9-12.1-26.5-7.7,1.7-15.3,4.2-23.1,5.5,1.2,5.7,2.8,11.5,6.2,16.3l.1.2ZM452.2,1275.2c2.5,3.3,6.4,5.2,10.3,6.2-3.9-5.4-7.2-11.3-9-17.8-2.3-.3-4.6-.6-7-.9,1.7,4.2,3,8.7,5.7,12.4v.1ZM477.8,1283.6c2.3-.3,4.6-.5,6.9-.7-5.2-5.8-8.2-13.1-10.2-20.5-2.8.1-5.7.3-8.5.5,4.6,6.6,5.6,15.2,11.7,20.7h.1ZM488.1,1282.2c2.7-.8,5.4-1.4,7.9-2.5.6-1.6-1.3-2.5-2.2-3.5-4.3-3.4-7-8.3-9.6-13.1-2.3-.2-4.5-.4-6.8-.6,1.9,7.3,5,14.4,10.5,19.7h.2ZM461.2,1274.3c2,2.6,3.3,5.7,5.6,8,2,1,4.4.8,6.6,1.2-4.1-6.5-6.1-14.1-10.8-20.3-2.2.1-4.5.3-6.7.4,1,3.9,2.8,7.4,5.2,10.6l.1.1ZM499.3,1278.3c1.1-1.1,2.1-2.1,3.2-3.2-3.7-3.1-7.1-6.5-10.4-9.9-1.1-1.3-2.9-1.3-4.4-1.7,2.4,6,7.5,10.1,11.6,14.9v-.1ZM583.5,1313.9c5.8.7,11.5,1.3,17.3,1.7-3.4-11.3-12.2-19.8-17.6-30.2-3.8-.6-7.7-.7-11.6-.7,5.9,8.8,8.9,19.1,11.8,29.2h.1ZM566.3,1311.9c4.7.4,9.4,1,14.1,1.6-3.1-9.9-5.6-20.4-12.3-28.6-2.6.4-5.2.7-7.8,1.1,4.1,7.9,8.7,16.8,5.9,26l.1-.1ZM554.1,1311c3.2.2,6.3.4,9.5.6,2.2-9-1.9-17.7-6.4-25.2-2.7.5-5.4.9-8,1.4,3,7.3,5.7,15.2,4.9,23.1v.1ZM603.7,1315.6c3.7.3,7.5.3,11.2,0-1.5-3.7-3.7-6.9-6.1-10-4.6-5.9-6.8-13.5-12.8-18.2-2.9-1.1-6.1-1.1-9.1-1.5,5.5,10,14.1,18.4,16.8,29.7h0ZM630.6,1311.3c1.9-.8,4.1-1.4,5.7-2.8,1.2-1.6-.2-3.5-.8-4.9-3.8-6.5-9.2-12.1-15-16.9-3,.7-5.9,1.2-8.9,1.6,7,7.1,12.3,15.7,19.1,23h-.1ZM532.7,1311.9c2.1-.3,4.2-.5,6.3-.7,1.2-7.5-.6-15.6-4.8-21.9-2.9-1.1-6.2-.9-9.2-1.5,4.1,7.5,5.3,16,7.8,24.1h-.1ZM541.9,1311c3.1,0,6.2-.2,9.3-.2.4-2.3.8-4.6.1-6.8-1.4-5.3-2.8-10.7-5.2-15.7-2.8.2-5.6.4-8.4.6,2.9,7,4.9,14.5,4.1,22.1h.1ZM612.6,1306.4c2.2,2.7,3.9,5.8,5.2,9,3.4-.8,6.7-1.8,10-3-7-7.8-12.6-16.7-20-24.1-2.4-.2-4.9-.3-7.3-.5,4.7,5.8,7.4,12.8,12.1,18.6ZM589.3,381.5c1.4,1.2,4.6-3,1.9-2.4-.8.4-2.3,1.2-1.9,2.4Z"/>
  <path class="cls-5" d="M430.8,461.4c8.2,44.6,16.2,89.2,23.9,133.8,1.5,9.3,3.9,18.8,1.8,28.2-.9,4.4-3.4,8.8-7.6,10.8-4.1,2.1-8.8,1.3-13.2,1.2-.4-3.6-.9-7.3-1.4-10.9,3.5-1.8,7.3-3.2,10.7-5.3,1.7-1,1.9-3.2,2.2-5,.8-6.6.4-13.3.1-19.9-1.9-30.6-6.2-61-10.5-91.3-1.8-13.9-4.5-27.7-5.9-41.6h-.1ZM460.1,552c-.6,4.5-5,6.1-8.7,7.3,1.2,6.4,2.2,12.7,3.4,19.1,5.1-5.5,6.2-13.3,7.3-20.4,2.5-20.6,1.2-41.4-.4-62.1-.2,18.7,2.1,37.6-1.6,56.1h0ZM426.4,617.9c.5,8.2,1,16.6-.6,24.8-.7,3-1.7,6.5-4.6,8-5,2.6-10.3,4.6-15.4,7.1,2.2,3.9,4.8,8.7,9.6,9.5,5.2.4,9-3.9,11.9-7.6,3.1-4.6,6.5-9.7,6.3-15.5-.2-11.5-2.7-22.7-4.9-33.9-2.2-10.6-4.4-21.2-7-31.7,1.4,13.2,4,26.2,4.8,39.4l-.1-.1ZM383.3,676.4c3,2.8,6.5,5.2,10.4,6.8,3.4,1.4,6.9,3.7,10.7,3.1,5.5-3.6,6.4-10.8,7.9-16.7-5.1-2.8-8-8.1-10.4-13.1,0,5.7,1.5,12.6-2.6,17.2-4.9,2.4-10.7,2-16,2.8v-.1ZM171,95.1c3,2.1,6,4.8,7,8.5,1.1,4.4.9,9.1,0,13.6-.6,3-3.1,4.9-5.3,6.7.4,5.3.8,10.5,1.4,15.8,3-1.5,5.9-3.3,7.8-6.1,5.2-7,6.1-16.1,5.6-24.5-.7-11-7.6-20.7-16.5-26.7,0,4.3,0,8.5.2,12.8l-.2-.1ZM185.2,247.3c5.8,2,9.5,7.5,10.2,13.4,1.3,6.3-1.4,12.8-6,17.2.8,4.1,1.7,8.1,2.7,12.1,3.9-2.5,7-6.3,8.3-10.7,2.5-7.8,2-16.4-.1-24.2-2.1-8-7.8-15.1-15.6-18.2,0,3.5.2,7,.4,10.4h.1Z"/>
  <path class="cls-11" d="M671.7,1024.2c24.7-2.9,49.5-5.8,74.4-7.6,5.1-.3,11.2-1,14.9,3.2,4.1,5.1,5,11.9,6.3,18.2,4.8,31.3,8.2,62.7,12.4,94.1.6,4.5-4.7,6-8.1,6.8-8.5,1.6-16.9,3.4-25.4,4.4-7-1.3-13.4-5.1-18.4-10-4.4-4.2-8.4-8.7-12.7-12.9-12.7-12.4-18.8-29.6-24.7-46-5.9-16.2-8.5-34.7-21.4-47.2,1.1-.9,2-1.9,2.8-3h-.1ZM516.3,1046c-4.5,1.2-9.4,3-11.8,7.3-2.8,5-1.7,11-.5,16.3,7.8,35.7,14.8,71.7,23.8,107.2,1.4,4.5,2,9.5,4.8,13.4,3.5,4.3,9.6,3.6,14.4,2.4,18.7-4.8,37.6-9.2,56.4-13.5-6.3-16.6-10-34-12.9-51.5-1.6-9.9-3.9-19.8-3.6-29.8,0-11.7,2.4-23.1,3.5-34.7,1-9.1.4-18.3,1.7-27.4-18.7,2.2-37.3,4.6-55.9,7.1-6.7,1-13.4,1.7-20,3.2h.1Z"/>
  <path class="cls-10" d="M753.7,1145.3c5.5-1,11.1-2,16.6-3,.3,4.3.3,10.1-4.6,11.8-2.7-4.5-7.4-6.8-12-8.8ZM676.4,1219.6c6.4-.2,11.1-4.9,15.1-9.4-6.1-2.9-12.1-5.9-17.9-9.3,3.5,5.6,3.8,12.4,2.8,18.7h0ZM468.8,1285.8c4.2,4.7,9.2,8.7,14.9,11.4,8.9,4.4,19,5.7,28.9,6.1,4.9.2,9.6-1.1,14.4-1.8-1.6-5.9-3-13-9-16-4.7-2.2-9-5.2-13.1-8.5-1.8,1.6-3.6,3.3-5.8,4.3-9.5,4.3-20.1,6.1-30.5,4.5h.2ZM545,1318.6c14.6,7.1,32.4,6.4,46.8-.8-17.8-1.7-35.6-5.5-53.5-3.6,2,1.8,4.2,3.3,6.7,4.4ZM173.1,1334.2c-3.5,1.4-6.7,3.8-8.1,7.4-3.8,8.9-4.6,19.4-1.3,28.6,3.4,8.9,12.2,14.5,21.1,16.9,17.5,5,36.7-.4,50.5-11.7,3.5-3.8,3.6-9.5,2.9-14.3-1.3-7.4-3.7-14.6-6.7-21.4-1.8-4.2-4.5-8.7-9.3-9.8-6.7-1.3-13.6-.5-20.3-2.2-2.6-.4-5.3-1.9-8-.9-6.9,2.5-14,4.7-20.8,7.5v-.1ZM627.3,1334c-2.6,1.3-4.4,4.1-4,7.1.8,7.9,5.4,14.6,8,21.9,3.5,8.3,5.6,17.1,9.4,25.3,12.2-.2,24.9-2.4,35.4-8.9,6.1-3.7,10.9-10.1,11.2-17.5,1.1-14-7.9-26.7-18.7-34.6-7.6-.7-15,1.5-22.4,2.6-6.3,1.2-13.2.9-19,4.1h.1ZM322.7,1359.3c-9.4,3.8-11.6,16.3-7.7,24.8,3.2,6.6,10.7,9.5,17.5,10.2,11.2,1.2,22.5,0,33.7-.4,13-.8,26,0,39.1,0,2.9-7.6,2.5-16.1-.3-23.7-3.2-9.2-8.6-17.4-14.3-25.3-13.9,1.4-28.2,1.2-41.7,5.4-8.9,2.7-17.8,5.4-26.4,9h.1Z"/>
  <path class="cls-1" d="M402.1,1277.2c14.6-2.5,28.5-7.9,43.3-9.3,1.7,4.2,3.4,8.6,6.9,11.7,3.6,3.1,8.2,4.5,12.6,5.7,7.3,11.1,20.2,17.5,33,19.6,6.1,1,12.2,1.5,18.3,1.3,3.9,0,7.6-1.6,11.5-1.5.7,3,1.5,5.9,2.4,8.9-8.8,2.4-18,1.6-26.8,4.1-15.9,4.2-31,10.8-47,14.8-14,3.5-28.4,4.8-42.7,6.7-17.1,2.8-34.5,3.2-51.7,5.4-10.9,1.5-21.3,5.3-31.7,8.6-3.8,1.1-7.3,3-10.9,4.4-15.5,3.9-31.8,6.2-47.6,3.3-5.8-1.1-11.9-1-17.4-3.5,1.7-4.6,2.9-9.6,2.1-14.5-.9-6.5-3.6-12.7-6-18.8-.8-2.2-3.2-.5-4.2.7-.7,1.6.9,2.3,2.1,2.9,2.7,7.1,5.6,14.6,4.9,22.3-1.2,7.8-6.6,14-11.8,19.7,1.5-10.4-2.6-20.5-6.6-29.9-2.1-5-4.7-10.8-10.2-12.7-7.7-2.4-16-1.5-23.8-2.8,15.8-7.3,26.3-22.2,42-29.6,16.1-8,34.1-10.7,51.8-12,23-1.6,46-1.3,69-2.1,12.9-.5,25.8-1.2,38.5-3.4h0ZM599.3,1318.8c-2.8,1.5-6.1,1.5-9,2.8-8.1,3.8-17.2,5.4-26.1,5-9.6-.9-19.4-3.4-27.2-9.2-1-.7-2.2-1.7-3.5-1.2-4.2,1-8.5,2.3-12.9,2.2-13.3,0-25.9,5.1-38.2,9.6-8.6,3.2-17.4,5.7-26.3,7.8-20.3,5-41.3,6.3-62,9.1,6.4,8.8,12.2,18.4,14.9,29.1,1.7,6.6,1.6,13.7-.7,20.2,14.7.3,29.5.4,44.2-.7,28.4-1.8,56.9-3.3,85.4-4.3,10.3,0,20.6-1.6,30.8-2.4,22.8-.6,45.5.9,68.3,1.3-3.5-8.3-5.7-17.1-9.2-25.3-2.5-6.7-6.6-12.7-7.6-19.9-.6-3.9.4-8.6,4-10.8,5.7-3.5,12.6-3.9,19-4.7,7.1-.5,13.9-2.6,21-3.3-2.3-1.5-4.6-3-7-4.3-6.3-3.5-13.5-5.1-20.1-8-6.6,2.6-13.1,5.9-20.2,6.6-5.9.7-11.8.2-17.7.3l.1.1Z"/>
</svg>